<svg xmlns="http://www.w3.org/2000/svg" viewBox="0 0 100 100"><path fill="#fff" d="M46.798 19.159c-8.683.96-16.37 5.353-21.694 12.398-2.042 2.701-3.814 6.266-4.835 9.721-1.292 4.375-1.59 9.413-.821 13.905 2.625 15.358 16.81 26.722 32.21 25.804 9.304-.555 17.762-5.173 23.407-12.78 3.125-4.211 5.121-9.298 5.794-14.769.219-1.775.219-5.175 0-6.884-.95-7.438-4.002-13.642-9.207-18.716-4.769-4.65-10.416-7.463-17.087-8.513-1.016-.16-1.836-.206-4.103-.229-1.558-.016-3.207.012-3.664.063m1.71 3.91c-6.915.309-13.797 3.61-18.492 8.872-3.654 4.095-5.831 8.677-6.722 14.144-.244 1.498-.298 5.328-.098 6.966.565 4.627 2.18 8.797 4.875 12.59.835 1.177 1.484 1.938 2.742 3.222 4.364 4.452 9.934 7.213 16.087 7.975 1.413.175 4.54.199 5.935.045 7.253-.796 13.985-4.575 18.537-10.404 1.744-2.234 3.388-5.32 4.284-8.042.565-1.719 1.059-3.93 1.23-5.504.15-1.398.126-4.72-.045-6.102-.766-6.185-3.437-11.596-7.905-16.007-3.86-3.812-8.395-6.232-13.633-7.277-2.357-.47-4.143-.596-6.795-.478m.489 19.5c-2.959.41-5.448 2.636-6.265 5.603-.238.864-.239 2.828-.002 3.707.647 2.395 2.553 4.445 4.864 5.231 4.289 1.46 8.88-1.186 9.797-5.642.823-4.005-1.849-7.98-5.923-8.814-.7-.144-1.78-.18-2.471-.085"/></svg>