<svg xmlns="http://www.w3.org/2000/svg" viewBox="0 0 100 100"><path fill="#fff" d="M77.28 10.07c-8.784.834-20.845 7.356-33.12 17.909C38.854 32.54 33.308 38.09 28.716 43.43c-9.37 10.9-15.944 22.035-17.963 30.43-.503 2.09-.611 2.887-.662 4.885-.056 2.17.06 3.106.574 4.658.56 1.69 1.773 3.427 3.092 4.43.972.738 2.611 1.51 3.828 1.803 4.754 1.142 10.934-.186 18.515-3.978 12.59-6.298 27.857-19.443 38.895-33.487 1.101-1.401 3.045-3.996 3.771-5.034l.548-.783-.737-.389a9.7 9.7 0 0 1-1.407-.95c-.368-.31-.685-.562-.705-.562s-.203.252-.408.561c-1.131 1.71-4.523 6.071-6.894 8.867-5.098 6.01-11.66 12.452-17.92 17.59-9.866 8.101-19.754 13.51-27.16 14.857-1.49.271-4.504.249-5.569-.041-2.48-.676-4.038-2.19-4.691-4.562-.25-.91-.306-3.532-.104-4.934 1.256-8.713 8.715-21.327 20.077-33.95 3.074-3.416 9.064-9.221 12.905-12.507 12.576-10.76 25.02-17.139 32.827-16.825 2.307.093 3.797.645 5.028 1.862 1.34 1.326 1.906 2.985 1.905 5.585 0 2.344-.4 4.467-1.426 7.571-.347 1.048-.716 2.116-.821 2.373-.18.44-.181.47-.02.527 1.08.377 1.808.71 2.319 1.06l.615.421.316-.749c.857-2.03 1.933-5.753 2.31-7.99.254-1.512.255-5.016 0-6.173-.505-2.3-1.342-3.847-2.872-5.308-2.196-2.097-5.525-3.005-9.601-2.618m3.42 23.304c-3.111.835-4.985 3.961-4.205 7.013.5 1.957 1.864 3.47 3.771 4.188.494.186.774.218 1.899.219 1.145 0 1.402-.03 1.954-.231 1.712-.625 3.03-1.974 3.638-3.725.296-.853.316-2.699.038-3.518-.665-1.955-2.236-3.463-4.121-3.954-.723-.188-2.26-.184-2.975.008"/></svg>