<svg xmlns="http://www.w3.org/2000/svg" viewBox="0 0 100 100"><path fill="#fff" d="M0 50.022v50.023l50.047-.025 50.047-.024.024-49.998L100.143 0H0zm0 .025v49.949l49.974-.025 49.973-.024.024-30.214.024-30.213.05 30.238c.046 28.11.05 26.722.073-19.736L100.143.05 50.07.073 0 .098zm.048.024c0 27.513.012 38.753.025 24.979s.014-36.284 0-50.022C.06 11.289.048 22.558.048 50.07m47.678-32.813c-.16.019-.776.082-1.367.141-6.977.698-13.859 3.962-19.135 9.076-10.305 9.988-12.961 25.322-6.592 38.056a33 33 0 0 0 9.764 11.699c7.597 5.698 17.035 7.828 26.253 5.924 4.603-.95 9.276-3.092 13.127-6.015 6.431-4.882 10.798-11.762 12.391-19.522 1.308-6.37.69-13.032-1.76-18.994-.77-1.874-1.98-4.174-2.947-5.6l-.38-.56 2.42-.026 2.421-.026.027-2.174.026-2.174h-6.401l2.221-2.224c1.222-1.222 2.222-2.267 2.222-2.321s-.725-.823-1.612-1.708l-1.612-1.61-2.247 2.245-2.247 2.246v-6.3h-4.393l-.026 2.54-.026 2.54-.977-.603c-1.338-.824-4.019-2.111-5.658-2.716-2.514-.929-5.658-1.622-8.392-1.852-1.144-.096-4.396-.123-5.1-.042m.317 4.919a28.1 28.1 0 0 0-15.313 6.022c-1.128.892-3.614 3.39-4.528 4.549-1.73 2.193-3.456 5.265-4.388 7.814-.54 1.48-1.156 3.887-1.406 5.504-.257 1.665-.26 6.235-.004 7.864.926 5.896 3.488 11.087 7.583 15.362 6.862 7.164 16.887 10.133 26.506 7.85 3.698-.878 7.794-2.9 10.92-5.39 1.15-.917 3.627-3.417 4.491-4.534 2.176-2.812 3.99-6.304 4.887-9.408.888-3.074 1.28-6.472 1.079-9.35-.362-5.18-1.848-9.57-4.678-13.825l-.845-1.27-.026 3.834-.025 3.835H67.9l-.003-3.15-.004-3.152-2.219 2.276-2.219 2.276-1.636-1.642c-.9-.903-1.637-1.685-1.637-1.74 0-.053.967-1.063 2.15-2.244s2.149-2.17 2.15-2.198c0-.027-1.386-.037-3.078-.022l-3.078.027v-4.4l3.688-.025 3.688-.026-.928-.614c-1.102-.728-3.68-2.021-4.983-2.499-2.245-.823-4.52-1.373-6.719-1.623-1.26-.144-3.83-.195-5.03-.101"/></svg>