<svg xmlns="http://www.w3.org/2000/svg" viewBox="0 0 100 100"><path fill="#fff" d="M48.068 13.15c-3.564.245-6.618.842-9.72 1.9-12.79 4.36-22.468 15.666-24.714 28.866-.4 2.344-.49 3.491-.486 6.155.004 2.894.15 4.408.675 7.035 1.738 8.675 6.572 16.44 13.691 21.993 5.613 4.377 11.789 6.873 18.991 7.675 1.64.182 5.766.152 7.572-.055 9.63-1.107 18.508-6.063 24.745-13.814 4.352-5.407 7.04-11.796 7.903-18.78.245-1.98.244-6.332-.002-8.255-.555-4.338-1.743-8.302-3.595-12-.519-1.034-1.344-2.508-1.405-2.508-.02 0-.423.389-.896.864-.547.551-1.163 1.049-1.695 1.371l-.835.506.767 1.516c3.426 6.766 4.335 14.141 2.66 21.566-.934 4.134-3.072 8.69-5.734 12.215-2.048 2.712-4.818 5.375-7.617 7.322-3.448 2.398-7.671 4.25-11.635 5.1-7.092 1.523-14.563.552-21.077-2.74-7.84-3.96-13.867-10.936-16.54-19.143-1.171-3.594-1.576-6.162-1.57-9.965.003-2.616.126-3.933.578-6.204 1.015-5.096 3.465-10.2 6.866-14.3C30.76 22.517 38.79 18.3 47.618 17.59c6.3-.507 13.067 1.045 18.458 4.232l.73.432.453-.714c.557-.88 1.148-1.545 1.858-2.094.299-.23.543-.453.543-.495 0-.24-3.448-2.102-5.471-2.955-3.266-1.375-6.455-2.218-10.063-2.659-1.186-.145-4.971-.262-6.058-.187m25.65 6.401c-1.475.215-2.643.816-3.77 1.94-.67.67-.913.996-1.237 1.664-.553 1.137-.75 2.101-.686 3.357.06 1.195.295 1.984.895 3.005a6.8 6.8 0 0 0 3.72 2.989c.677.224.946.26 2.003.262 1.086.001 1.308-.028 2.003-.27 1.15-.4 1.764-.786 2.646-1.667 1.271-1.268 1.866-2.587 1.963-4.354.067-1.228-.127-2.13-.714-3.32a6.59 6.59 0 0 0-4.763-3.565c-.947-.163-1.186-.168-2.06-.041"/></svg>