<svg xmlns="http://www.w3.org/2000/svg" viewBox="0 0 100 100"><path fill="#fff" d="M61.334 3.784c.395.498.766 1.292.915 1.96.202.897-.12 2.107-.843 3.179-.663.98-.688 1.003-.958.858-.207-.11-.277-.105-.497.039-.246.161-.256.16-.256-.023 0-.16-.162-.23-1.005-.445a23 23 0 0 1-1.176-.321c-.154-.06-.15-.015.04.459.117.288.303.8.415 1.135.148.447.25.61.378.61.191 0 .202.047.082.342-.06.145-.018.262.158.45l.237.254-.358.43c-.42.504-.512.573-.775.575-.237.001-.357.185-.791 1.198-.344.802-.653 1.91-.771 2.76l-.068.489.601-.657c.688-.75 1.79-1.376 2.627-1.49.405-.057.538-.127.744-.398.442-.58 1.23-.624 1.988-.112.198.133.794.644 1.324 1.134.753.697.993.869 1.095.784.17-.14.276-.069.913.62.43.463.572.56.754.515.237-.06.295-.012 4.017 3.245 1.292 1.13 1.49 1.343 1.49 1.593 0 .239.063.317.366.455.202.091.486.246.632.344l.265.179-.338.443c-.377.493-.405.71-.192 1.502.08.296.145.68.145.855.001.284-.028.318-.277.318a.6.6 0 0 0-.6.611c0 .326-.052.373-1.38 1.28-.611.417-1.316.903-1.566 1.08-.33.234-.598.336-.988.376-.604.063-1.182.325-1.523.69l-.23.246.425.092c.34.073.386.105.23.162-1.34.487-2.428 1.224-2.878 1.952-.33.534-.492.584-1.202.365-.9-.278-2.343-.44-3.247-.365-.893.075-2.486.402-2.624.54-.059.059-.033.184.068.339.261.398.195.386-.45-.083-2.117-1.542-3.41-1.963-5.823-1.896-1.201.033-1.205.032-.83-.13.636-.276 1.893-.4 2.863-.282 1.277.155 2.067.455 3.178 1.205l.583.395.54-.122c.297-.067.826-.189 1.175-.27 1.064-.25 2.871-.193 3.972.123.19.054.222.007.319-.462.059-.287.118-.675.13-.863l.024-.342.26.512c.18.36.275.466.317.358.102-.268.063-.816-.083-1.167-.14-.334-.139-.338.106-.338h.248l-.244-.291c-.532-.632-.6-1.759-.134-2.192.16-.147.254-.373.298-.709l.066-.493.658-.279c.818-.346 1.494-.963 1.79-1.633.532-1.204.141-3.142-.891-4.418-.316-.39-.316-.39-.253-.097.147.683.183 2.169.062 2.547-.222.695-1.105 1.409-1.563 1.264-.098-.032-.25-.238-.339-.458-.224-.56-.607-1.079-1.467-1.986l-.74-.781-.145-.819c-.079-.45-.144-.857-.144-.904 0-.216-.212-.027-.73.648-.423.554-.618.733-.796.733-.13 0-.311.04-.405.09-.093.05-.432.139-.753.197a5.8 5.8 0 0 0-1.222.414c-.403.195-.809.314-1.106.325-.444.017-.497-.01-.997-.502-.395-.389-.566-.647-.679-1.028-.328-1.106-.137-1.845.771-2.974.342-.425.61-.783.598-.798-.066-.071-.892.303-1.458.66-.78.492-1.425 1.19-1.792 1.936-.253.515-.273.643-.273 1.729 0 1.118.014 1.196.291 1.698.16.289.633.893 1.05 1.343s.76.856.76.903-.068.249-.15.447c-.084.2-.128.437-.098.53.112.354-1.096.539-1.747.266-.18-.075-.516-.306-.744-.512-.381-.344-.41-.356-.342-.132.04.134.196.475.346.757s.24.513.199.513-.536-.307-1.1-.683c-.563-.376-1.212-.75-1.442-.83-.469-.166-1.815-.201-1.908-.05-.033.053.029.097.138.097.298 0 1.109.293 1.314.475.204.18.712 1.129.575 1.075-.048-.02-.508-.25-1.023-.513-.814-.416-1.031-.485-1.676-.526-.595-.038-.877-.004-1.429.173-.378.122-.704.249-.725.282-.02.033.235.066.568.073.67.014 1.478.307 1.802.655l.198.212-.945.006c-1.65.012-3.09.549-4.193 1.563l-.563.518.664-.238c.655-.234 1.671-.316 2.193-.176.233.063.305.232.098.232-.305 0-1.436.64-1.854 1.05-.45.441-.476.452-1.08.452-.75 0-1.314-.247-2.027-.888l-.495-.445.253.575c.342.776.66 1.242 1.054 1.542.406.31 1.06.547 1.508.547h.338l-.489.387c-.269.212-.601.533-.738.713-.283.37-.686 1.242-.785 1.694-.064.293-.05.286.5-.249.498-.484 1.437-1.072 1.543-.966.02.02-.083.287-.23.592-.228.47-.41.661-1.192 1.247-1.446 1.084-2.446 1.992-3.823 3.47-2.327 2.497-3.006 3.04-5.013 4.002-2.313 1.11-4.111 1.61-8.94 2.486-2.745.5-3.68.73-5.226 1.29-2.018.73-4.86 2.438-6.009 3.609-.718.731-1.397 1.806-1.95 3.083-.206.478-.364.88-.351.894s.4-.15.859-.366c.46-.216.87-.392.913-.392s-.37.455-.916 1.01c-.547.556-1.061 1.17-1.143 1.366-.148.354-.542 1.923-.483 1.923.017 0 .187-.092.379-.205.19-.113.347-.186.347-.162s-.097.303-.216.62c-.191.51-.217.764-.217 2.19 0 1.44.03 1.728.274 2.71.15.605.287 1.1.303 1.1s.172-.43.346-.953c.424-1.27 1.074-2.745 1.677-3.802.613-1.073 1.733-2.656 2.267-3.204.477-.49 1.702-1.038 2.469-1.106.436-.038.518-.017.613.16a.73.73 0 0 1 .048.451c-.08.315-.039.31.477-.053.818-.577 1.709-.43 2.232.366.596.907.634 1.707.131 2.755-.188.394-.353.854-.366 1.023-.022.281.004.31.318.356.298.043.346.089.372.352.016.166-.083.6-.22.964s-.25.696-.25.737.253-.028.562-.156c.707-.29 1.388-.302 1.941-.034l.415.2.416-.3c.358-.26.719-.4 1.698-.656.115-.03-.118.267-.562.718-.416.423-.756.812-.756.865.001.052.16.198.355.324l.354.23-.049.603a2.97 2.97 0 0 1-.958 1.96c-.448.404-.97.659-2.243 1.092l-.83.283 1.123.028c1.278.033 2.631-.149 3.743-.502.534-.17.951-.395 1.514-.82a17 17 0 0 1 1.531-1.013l.755-.429-.474-.133c-.26-.073-.49-.147-.509-.165-.066-.06 1.64-2.564 1.873-2.747.128-.101 2.152-1.17 4.498-2.374l4.264-2.19v-.326c0-.413.332-1.414.65-1.962.223-.384.235-.462.139-.908a5 5 0 0 1-.105-.671c0-.404 1.35-.884 2.093-.744.266.05.36.122.398.305.161.78.12.729.576.729.575 0 .902-.266.99-.807a6 6 0 0 1 .299-1.003l.232-.588-.19-.63c-.147-.482-.163-.645-.072-.702.157-.098.993-.276 1.293-.276.19 0 .255-.072.337-.375.378-1.405.38-2.108.009-3.627-.41-1.682-.476-2.344-.447-4.547.025-1.941.028-1.96.341-2.767.312-.803.527-1.058.292-.346-.167.507-.144 1.803.048 2.624.088.375.337 1.013.553 1.416l.393.734-.4-.415c-.504-.522-.54-.45-.462.938.06 1.083.235 1.874.81 3.666.188.584.325 1.078.305 1.098s-.14-.15-.27-.379l-.234-.414-.076.538c-.063.446-.4 2.06-.527 2.519-.027.099-.082.095-.256-.02-.278-.18-1.042-.1-1.126.12-.032.083.017.36.108.615.163.46.162.468-.072.814-.138.202-.29.642-.361 1.043-.114.633-.154.711-.477.915-.233.147-.587.246-1.048.292-.771.078-.73.108-.866-.656-.062-.352-.08-.367-.458-.367-.505 0-1.154.195-1.22.366-.028.073.004.391.071.707.115.541.11.591-.097.882-.318.445-.68 1.54-.682 2.059l-.002.447-3.688 1.897a406 406 0 0 1-4.332 2.206c-.353.17-.792.467-.974.66-.339.36-1.362 1.8-1.362 1.918 0 .106 1.3.29 2.021.286.665-.004.669-.006 4.005-1.69 1.837-.928 3.313-1.641 3.28-1.585-.144.25-.903 1.197-1.114 1.392-.127.118-.574.371-.993.562a8.5 8.5 0 0 0-2.497 1.697c-.517.508-1.283 1.524-1.283 1.701 0 .04.225-.064.499-.233.496-.306 1.96-.978 2.013-.925.015.015-.107.277-.272.582s-.27.554-.233.554.366-.198.73-.44c.673-.448 1.489-.845 1.976-.964.261-.063.255-.045-.257.743-.752 1.159-1.072 1.84-1.623 3.455-.533 1.564-.914 2.202-1.885 3.151-.519.508-.562.529-1.482.713-.521.104-1.307.32-1.746.482-.77.282-.82.288-1.467.173l-.67-.118-.845.873c-.494.51-1.138 1.054-1.552 1.31-.79.488-.785.475-.602 1.526l.106.612-.478.574c-.476.572-1.275 2.004-1.544 2.765a3.2 3.2 0 0 1-.325.661 3.2 3.2 0 0 0-.315.631c-.156.435-.557.87-1.07 1.159-.387.217-.584.525-.584.911 0 .173-.16.346-.636.685-.735.525-.937.86-1.154 1.915-.084.407-.331 1.146-.55 1.642-.794 1.804-1.097 2.816-1.148 3.822-.078 1.542.174 1.933 1.513 2.347 1.447.447 3.393.46 4.926.033.754-.21.855-.346.88-1.18.02-.634-.006-.733-.327-1.261-.465-.766-.476-.811-.377-1.47.398-2.655.39-2.616.623-2.816.126-.108.358-.266.517-.351.235-.128.32-.276.466-.815.203-.75.146-.7 2.748-2.461l1.375-.93.593.153c1.055.273 1.213.235 1.696-.408.573-.765 1.506-1.73 2.077-2.149l.472-.347-.032-.618-.031-.619.506-.575c.471-.535.574-.6 1.454-.902 1.242-.429 1.664-.71 2.39-1.594.561-.684.655-.754 1.379-1.03 1.338-.512 2.11-1.165 3.382-2.866.386-.516.906-1.105 1.157-1.31.25-.206.652-.54.893-.745.24-.204.455-.353.476-.332.062.061-.356 1.363-.52 1.62-.081.127-.227.615-.323 1.086-.096.47-.227.952-.29 1.07-.065.12-.1.234-.079.255s.386-.203.81-.498.813-.523.865-.505c.19.063.362.775.265 1.09-.051.164-.142.546-.202.85-.104.527-.872 2.156-1.303 2.764-.198.28-.18.275.67-.186.967-.523 2.176-1.324 2.443-1.62.237-.262.338-.24.338.075 0 .25.04.227.693-.415a11 11 0 0 0 1.188-1.414c.796-1.177 1.952-2.54 2.154-2.54.11 0-.01.9-.189 1.405-.074.211-.114.405-.088.431.068.068.882-.606 1.58-1.308.676-.682 1.404-1.81 1.948-3.017l.369-.819.642.324c.903.454 2.05.796 3.282.979 1.138.169 1.632.335 1.01.34-.24.003-.51.11-.84.337a13 13 0 0 1-1.288.738l-.803.404.066.617.066.618-.445.446c-.246.245-.512.604-.594.798-.08.195-.553.747-1.048 1.228-.88.854-.912.875-1.369.875-.445 0-.477.019-.66.378-.178.347-.235.383-.71.446a4 4 0 0 0-.937.253c-.604.267-1.75 1.146-1.815 1.391-.151.578.764 2.577 1.634 3.572.563.644.806 1.16 1.179 2.509.31 1.122.505 1.51 1.265 2.52.794 1.054 2.103 2.123 2.855 2.331.274.076.397.063.59-.064.304-.199.817-.996.817-1.269 0-.299-.54-1.975-.927-2.88l-.336-.784.055-1.49c.07-1.905.101-2.032.522-2.174.345-.116.41-.198.553-.684.068-.231.18-.326.525-.445.24-.083.856-.35 1.366-.596.51-.244 1.13-.52 1.378-.614l.45-.169.643.314c.453.22.716.294.892.25.138-.034.615-.406 1.061-.826s1.123-.946 1.504-1.169c.75-.438.814-.524.814-1.098 0-.36.036-.406.683-.86a9 9 0 0 1 1.488-.805c1.36-.548 1.967-1.378 2.34-3.202.257-1.256.172-1.596-.636-2.564a10.3 10.3 0 0 1-1.018-1.518c-.457-.878-1.253-2.028-2.015-2.91-.659-.762-2.302-2.168-3.354-2.867-.943-.627-.893-.745.16-.38.38.133.69.207.69.165 0-.136-.763-.868-1.18-1.13-.443-.28-1.88-.826-2.813-1.067a6.5 6.5 0 0 1-1.055-.388c-.378-.192-.482-.303-.567-.607-.116-.412-.607-.816-.994-.816-.28 0-.28-.013-.025-.684.163-.427.191-.656.141-1.123-.062-.577-.057-.593.285-.923.19-.185.347-.391.347-.458 0-.178-.532-.524-.806-.524h-.239l.177-.513c.098-.282.179-.727.18-.987.004-.45.043-.52.794-1.392.434-.505.802-.919.817-.919s.147.18.293.402c.146.22.503.621.792.89.437.408.578.627.832 1.301.336.89.49 1.097 1.099 1.48.224.142.569.439.765.66s.515.49.708.594c.317.17.347.22.295.494-.05.267-.023.317.22.414.152.06.612.131 1.021.158.41.026.85.094.977.15.128.055.765.251 1.416.436.95.27 1.244.397 1.494.647s.365.3.591.255c.224-.045.312-.009.436.18.085.13.153.271.152.314-.006.145-1.583 1.151-1.881 1.2a.62.62 0 0 0-.459.337c-.107.193-.317.348-.642.472-.892.34-.925.391-.724 1.109.21.751 1.108 1.6 1.694 1.6.198 0 .294-.104.52-.561.249-.503.315-.567.643-.62.43-.07.402-.046.585-.487.092-.224.41-.563.887-.946l.742-.597.516.284c.63.348.952.36 1.32.051a1.3 1.3 0 0 1 .667-.269c.321-.026.423-.091.62-.398.194-.3.295-.366.556-.366.367 0 .723-.368.723-.748 0-.18.066-.247.29-.292q.44-.086.634-.704c.055-.174 0-.33-.23-.65-.167-.233-.303-.444-.303-.47 0-.088.684-.452 1.003-.533.245-.063.338-.154.414-.41.1-.343.547-.73 2.877-2.5 1.55-1.178 1.782-1.322 1.928-1.2.094.078.214.027.473-.2.427-.375.716-.385 1.043-.036.6.64.87 1.603.665 2.37q-.344 1.291-1.846 1.67l-.625.157-.176.692c-.24.948-.612 1.669-1.2 2.328l-.495.556 1.413-.062c1.414-.062 3.042-.335 3.252-.546.062-.061.184-.297.273-.524l.162-.412.216.366c.12.202.232.366.251.366.02 0 .4-.159.846-.353 1.73-.754 3.394-1.932 4.508-3.19l.586-.662-.194-.266c-.389-.534-.39-.529.17-.5l.52.028.316-.532c.522-.878.996-2.068 1.262-3.173.138-.573.229-1.065.202-1.092-.028-.027-.196.06-.374.194a8 8 0 0 1-.861.522c-.48.25-.636.28-1.466.28-.82 0-.993-.032-1.487-.274-.545-.268-1.737-1.36-1.737-1.593 0-.061.065-.165.145-.232.105-.087.118-.168.049-.298-.16-.297-.114-.413.14-.365.207.04.26-.012.406-.403.092-.248.297-.707.453-1.021.157-.315.267-.59.244-.614-.023-.023-.428.026-.899.108-.47.082-.96.15-1.086.15-.163 0-.247.07-.29.244-.067.263-.226.313-.41.129-.089-.089-.175-.084-.374.022-.245.132-.272.122-.528-.185-.54-.646-.459-1.334.259-2.215l.45-.551-.477.068c-.721.105-2.178.49-2.689.712-.371.161-.467.256-.524.517-.066.297-.08.307-.204.137-.129-.177-.142-.177-.484.006-.602.32-1.832 1.368-2.247 1.913-.684.896-1.42 2.255-1.291 2.383.026.027.326-.083.666-.244 1.133-.536 1.822-.493 2.512.158l.364.343-.268.23c-.147.127-.267.31-.267.409 0 .103-.144.255-.342.362-.188.101-.342.257-.342.346 0 .223-.3.483-2.1 1.829-2.221 1.658-2.554 1.89-2.62 1.823-.137-.136-.556.089-.75.403a2.3 2.3 0 0 1-.502.548l-.292.208-.37-.401c-.44-.478-.562-.49-1.669-.158-.818.245-1.076.222-1.076-.094 0-.21-.348-.443-.66-.443-.443 0-2.48-1.868-2.768-2.537-.11-.258-.33-.591-.486-.74-.272-.261-.292-.266-.471-.104-.135.122-.208.138-.258.056-.135-.218-1.252-.876-1.76-1.036l-.511-.162-.046-1.182c-.052-1.353-.18-1.772-.934-3.065l-.472-.809.172-.657c.279-1.072.186-2.956-.147-2.952-.06 0-.352.067-.648.147-.295.08-.955.173-1.465.204-.728.045-1.202.148-2.198.478-1.74.576-2.271.677-3.518.665-1.335-.012-2.145-.216-3.76-.945l-1.187-.537-.458.199c-.555.242-1.483.571-1.483.526 0-.018.264-.203.586-.41s.586-.41.586-.45-.208-.076-.463-.078c-.44-.005-.42-.017.415-.233.484-.125 1.05-.299 1.258-.386.339-.142.365-.142.25-.004-.106.127-.104.17.013.248.384.258 2.176 1.067 2.778 1.255 1.36.424 3.073.35 5.019-.215l.727-.211-.382-.169-.381-.169 1.428-.007c1.181-.006 1.594-.049 2.381-.249a12.5 12.5 0 0 1 1.845-.301c1.255-.085 1.464-.171 2.198-.91.354-.356.583-.57.51-.474-.204.263-.067.304.44.132.638-.218 1.265-.641 1.892-1.278.294-.298.569-.542.611-.542s.077.157.077.349v.348l.3-.214c.415-.295.928-1.016 1.164-1.635.108-.284.542-.965.964-1.514s.978-1.316 1.235-1.706c.358-.54.522-.708.695-.708.124 0 .314-.095.421-.21.188-.202.35-.863.284-1.157-.02-.09.203-.268.61-.487.353-.19.79-.462.972-.606l.33-.262.56.486c1.173 1.016 2.332 2.216 2.332 2.415 0 .22.339.505.598.505.203 0 .686.539.86.957.103.25.186.313.414.313 1.05 0 2.152-1.298 2.047-2.411-.006-.064-.263-.21-.572-.324-.78-.29-1.002-.452-1.002-.732 0-.197-.061-.248-.366-.303-.495-.09-.637-.172-1.302-.758a85 85 0 0 0-1.452-1.237c-.604-.502-.863-.778-.824-.879.032-.08.08-.334.108-.562.047-.382.022-.445-.303-.751-.23-.216-.355-.424-.355-.586 0-.29-.31-.641-.568-.641-.128 0-.201-.114-.268-.415-.086-.388-.125-.426-.58-.577-.394-.13-.495-.209-.519-.403-.072-.587-.897-.89-1.414-.52-.12.085-.318.228-.442.318-.22.158-.237.15-.703-.308-.263-.259-.53-.596-.593-.75-.116-.28-.456-.442-.717-.342-.214.082-5.487-4.48-5.457-4.723.016-.137-.186-.348-.71-.743-.526-.395-.706-.584-.637-.667.068-.082-.046-.256-.39-.594-.266-.263-.485-.529-.485-.59 0-.239.843-1.057 1.316-1.277 1.545-.72 3.123.244 3.422 2.09.063.392.084.415.395.415 1.031 0 2.165.5 3.014 1.328.297.29.559.528.582.528.055 0-.015-1.096-.143-2.237-.106-.936-.561-2.737-.819-3.235-.107-.207-.239-.29-.534-.34-.515-.088-.56-.189-.201-.454.163-.12.296-.253.296-.294 0-.185-1.021-1.822-1.597-2.56-.977-1.25-2.167-2.2-3.709-2.96l-.762-.376-.359.431c-.35.422-.36.427-.424.196a3 3 0 0 1-.076-.59c-.01-.346-.023-.357-.572-.508a17 17 0 0 0-3.15-.516l-1.018-.07zM48.801 30.86c-.322.092-.674.225-.781.293l-.196.125.196-.063c.107-.034.557-.11 1-.167 1.256-.162 3.43.194 4.568.75l.489.237-.351-.324c-.912-.843-3.438-1.28-4.925-.851m-1.437 2.582c-.665.542-1.207 1.26-1.41 1.868-.173.522-.198 1.585-.047 2.06.082.257.094.222.101-.3.017-1.174.465-2.021 1.41-2.669.478-.327 1.385-.672 2.069-.787.482-.08.48-.081-.246-.09-.403-.005-.908.031-1.121.08-.213.05-.409.07-.434.044-.026-.025.03-.177.124-.336.095-.16.149-.29.121-.29s-.283.189-.567.42m15.082 9.398c-.267 1.595-.762 2.612-1.543 3.174-.37.266-.41.337-.473.854-.065.534-.278 1.563-.403 1.95-.183.565.38-.543.604-1.19.22-.631.38-.9.836-1.391.655-.708.873-1.278 1.06-2.769.15-1.191.09-1.652-.081-.628m-16.008 8.75c.401.315 1.692.924 2.754 1.298 1.133.4 2.003.66 2.003.6 0-.022-.187-.134-.415-.249-.229-.114-.652-.433-.94-.71-.483-.462-.52-.481-.463-.234.047.199.026.269-.08.269-.236 0-1.54-.498-1.91-.729-.339-.212-.916-.444-1.105-.444-.053 0 .017.09.156.199m-1.214 1.73c-.262.677-.357.766-1.528 1.434-.655.374-1.176.696-1.157.715.046.046 1.98-.804 2.368-1.041q.306-.188.446-.605c.076-.23.183-.431.237-.45.14-.046.716.365.949.68.13.175.213.47.241.864.05.685.21.601.212-.11.003-.864-.7-1.755-1.383-1.755-.216 0-.304.062-.385.269m-25.546.313a5.7 5.7 0 0 0-.92.578l-.342.288.273.069c.313.08 1.158-.295 1.974-.876l.488-.348h-.448c-.301 0-.637.095-1.025.29m33.135.108c-.213.037-.46.159-.554.275-.16.198-.621 1.946-.739 2.807-.073.536.106 1.055.414 1.195.135.062.563.133.95.16.597.04.645.033.314-.048-1.127-.274-1.209-.31-1.304-.585-.142-.406.14-1.868.587-3.045.157-.415.533-.51 1.773-.443.601.032 1.236.101 1.41.154.392.118.41.064.04-.127-.497-.257-2.204-.46-2.891-.343m-4.3.992c-.173.247-.197.524-.054.613.055.034.098-.047.098-.187 0-.312.39-.59.691-.495q.215.07.146-.04c-.124-.2-.715-.127-.88.109m-5.608 2.506c-.108.069-.101.189.039.688.127.455.142.633.057.717-.185.185-.126.278.092.147.18-.108.197-.186.146-.636l-.058-.513 1.002-.011 1.002-.011-.858-.134c-.473-.074-.942-.179-1.044-.233-.221-.119-.213-.118-.378-.014m4.772.12c-.671.13-1.466.397-1.466.492 0 .124.112.109 1.2-.167 1.111-.282 1.468-.432.998-.42-.16.005-.49.047-.732.094"/></svg>