<svg xmlns="http://www.w3.org/2000/svg" viewBox="0 0 100 100"><path fill="#fff" d="M41.767 5.958c-2.337.53-4.467 1.65-4.837 2.544-.092.221-.167.283-.282.232-.834-.366-2.01-.624-2.844-.623h-.44l.506.29c.515.295.829.597.463.445-1.168-.485-2.017-.551-3.034-.237-.66.204-1.95.81-2.33 1.095-.178.134-.137.147.506.147.386 0 .78.046.879.103.142.083.079.104-.315.106-.667.004-1.523.239-2.214.608-.773.411-1.858 1.595-2.556 2.787-.038.065.207-.01.545-.169.337-.158.768-.316.956-.352.276-.052.21.005-.342.296-.376.198-.83.501-1.01.673-.712.681-1.048 1.833-.893 3.062.126 1.01.162 1.064.458.712.136-.162.65-.53 1.141-.82 1.023-.602 1.174-.804 1.571-2.109l.252-.826-.044.733c-.025.403-.076.837-.115.964-.066.218-.057.224.164.106.13-.068.522-.414.875-.768.553-.557.689-.77 1.005-1.572.368-.934.38-.92.2.244l-.061.391.263-.342c.146-.188.434-.672.641-1.075s.49-.864.627-1.026l.25-.293-.238.538c-.13.295-.27.668-.309.828l-.07.29.26-.168c.143-.093.359-.231.48-.308.12-.077.417-.216.66-.309.284-.11.657-.396 1.059-.813.565-.586.598-.556.15.138-.188.292-.207.289.402.062.269-.1.62-.213.78-.252.273-.065.254-.03-.299.549-1.057 1.107-1.77 2.39-1.87 3.368-.062.597.087.904.588 1.212.49.302.987.398 2.048.398.854 0 1.021-.028 1.268-.21.331-.245.401-.215.314.133-.096.381-.512.744-1.217 1.061-.35.158-.734.38-.856.493-.279.262-.433.82-.33 1.199l.078.291.064-.396c.079-.493.386-.793 1-.978.666-.2.673-.188.182.304-.594.593-.817 1.11-.82 1.894-.003.93.317 1.512 1.109 2.015l.28.179-.305-.54c-.414-.734-.418-1.332-.013-1.97.36-.57.53-.597.34-.056-.201.57-.178 1.22.061 1.715.292.602.599.812 1.202.82.878.012.95.123.245.378a13 13 0 0 0-1.064.444c-.25.125-.735.247-1.124.285-.524.05-.924.177-1.71.544-.564.263-1.55.7-2.191.974-.641.273-1.246.568-1.343.657-.329.297-.135 1.804.34 2.647.12.211.137.196.488-.413.2-.348.635-.923.966-1.277.695-.743.636-.738 1.898-.147q2.563 1.2 3.554 3.276c.47.984.595 1.437.211.76-.634-1.12-1.408-1.979-2.391-2.653-.591-.405-1.76-.95-2.23-1.037-.342-.064-.372-.045-.842.52-.269.323-.787 1.085-1.152 1.694-.365.61-.84 1.372-1.054 1.694-.504.755-2.867 3.734-3.564 4.493-.882.959-.984 1.28-1.002 3.152-.017 1.769.01 1.86.682 2.416.193.16.593.517.889.794.73.683 1.075.843 1.809.839.525-.003 1.398-.229 2.113-.546.157-.07.229.097.724 1.678.028.09.212.037.65-.184.706-.356 1.774-.771 1.985-.771.094 0 .144.098.144.28 0 1.036.965 3.48 1.949 4.94.51.756 1.759 2.1 2.293 2.47l.284.196-.689 1.308c-.716 1.36-1.165 2.14-2.126 3.693-.662 1.07-.717.935.658 1.63.47.238.855.46.855.492s-.262.868-.582 1.858c-.466 1.437-1.41 5.024-2.08 7.9-.072.307-.268.56-.91 1.18l-.82.789-.092.648c-.05.357-.12.696-.156.753-.035.056-.34.228-.677.381-.715.324-.911.561-.996 1.204-.06.456-.07.467-.4.467-.412 0-.715.295-1.2 1.168-.25.45-.574.816-1.22 1.374-1.402 1.209-1.38 1.177-1.248 1.808.062.294.249.82.415 1.17l.303.634-.239.664c-.214.593-.59 1.832-1.548 5.102-.355 1.21-.485 1.491-.915 1.97-.61.68-.674.842-.733 1.835l-.055.933-1.185 2.394c-1.207 2.44-1.587 3.39-1.587 3.975 0 .46.625 1.113 1.452 1.52l.645.318h1.614c1.887 0 2.17-.071 2.863-.72.81-.758.869-1.008.607-2.622-.137-.847-.134-.945.049-1.71a8 8 0 0 0 .195-1.742v-.931l.538-.53c.535-.53.537-.533.537-1.133 0-.331.067-.792.15-1.025.082-.234.843-1.346 1.696-2.48.85-1.13 1.62-2.17 1.71-2.31.13-.206.264-.268.684-.318.288-.033.813-.15 1.167-.26.608-.188.65-.22.734-.562l.34-1.4c.137-.57.413-1.383.613-1.807.273-.579.366-.906.374-1.309l.01-.537.582-.31c.742-.396.873-.565 1.022-1.32.162-.822.282-1.03 1.122-1.943.615-.668.85-1.039 1.653-2.609.514-1.006 1.293-2.401 1.73-3.1.915-1.46 4.187-6.302 4.26-6.302.026 0-.037.143-.142.318s-.423.757-.71 1.295c-.286.537-1.158 2.076-1.937 3.419a105 105 0 0 0-2.373 4.337l-.957 1.894.741 1.037c.923 1.291 1.38 2.192 1.934 3.808.238.696.504 1.403.592 1.572.478.925 1.717 1.651 3.415 2.004 1.215.252 2.252.648 3.215 1.23.352.211.663.385.691.385.11 0-.968-2.94-1.456-3.972-1.126-2.38-2.938-5.091-4.588-6.867-.85-.915 0-.212 1.078.891 1.118 1.145 1.863 2.003 2.513 2.893.247.338.484.602.527.587s.17-.255.284-.533c.379-.932 1.145-1.793 1.98-2.225.795-.411 1.124-.47 3.09-.545 1.075-.042 2.119-.127 2.32-.189.337-.103.367-.142.369-.474.001-.208.083-.466.193-.606.242-.31.241-.337-.023-.694-.175-.237-.215-.413-.204-.897.009-.38-.042-.712-.138-.898-.084-.162-.84-.999-1.682-1.859-1.963-2.008-5.378-5.944-5.259-6.062.022-.022.784.711 1.694 1.628.91.918 2.538 2.519 3.617 3.559 1.078 1.04 2.09 2.076 2.247 2.303.253.367.283.487.264 1.056-.02.631-.015.648.38 1.05l.402.41-.413.47c-.418.475-.471.729-.256 1.224.055.127.013.182-.173.229-.372.093-.513.318-.684 1.09-.164.746-.381 1.227-1.092 2.43-.241.408-.438.794-.438.858s.307.422.683.795l.684.68-.004 3.324c-.004 3.571-.022 3.72-.522 4.375-.328.43-.349.64-.108 1.086l.187.347-.328.712c-.707 1.534-.777 1.845-.776 3.43.001 1.284.022 1.468.184 1.63.213.213 1.06.49 2.257.739.84.174.843.174 1.294-.038.249-.117.498-.213.554-.213.154 0 .991.44 1.662.873.327.212.801.454 1.053.537.74.245 2.51.457 3.878.464 1.112.006 1.367-.024 2.053-.247.431-.14.868-.315.97-.39.181-.132.182-.153.018-.675-.094-.296-.266-.627-.384-.737s-.918-.49-1.778-.848c-.86-.356-1.75-.758-1.979-.892-.228-.133-.964-.845-1.635-1.582-.99-1.088-1.22-1.394-1.22-1.632 0-.211-.088-.366-.314-.551l-.314-.258.277-.419.276-.418-.159-.505c-.087-.277-.159-.633-.159-.79s.389-1.45.863-2.874l.863-2.587.512-.074a4.8 4.8 0 0 0 1.004-.285l.492-.212-.06-.545a40 40 0 0 1-.123-1.803c-.055-1.14-.04-1.325.164-1.972.212-.678.215-.728.06-.965-.19-.289-.321-.312-.556-.099-.093.083-.466.201-.83.261-1.157.192-2.788-.15-4.144-.867-.351-.186-.55-.31-.443-.277 1.958.611 3.164.788 4.356.638.864-.108 1.182-.242 1.591-.673.269-.283.278-.323.213-.927-.058-.546-.025-.772.243-1.676.417-1.402.384-1.89-.223-3.274q-2.57-5.865-4.352-8.935c-.818-1.41-2.1-3.418-2.235-3.502-.048-.029-.789.453-1.647 1.072-2.04 1.47-2.88 1.9-2.88 1.473 0-.06-.503-1.149-1.117-2.418-.965-1.992-1.619-3.487-1.619-3.7 0-.033.236.357.523.867s.926 1.575 1.418 2.367.968 1.594 1.058 1.783.202.343.247.343c.146 0 .793-.357 2.139-1.183 1.57-.963 2.523-1.411 3.483-1.638.394-.093.725-.192.736-.22.01-.03-.772-.713-1.739-1.52-2.131-1.777-2.985-2.661-3.599-3.726-.565-.98-.853-1.185-1.677-1.197l-.586-.008.57-.199.571-.198-.061-.698a25 25 0 0 0-.117-1.071l-.054-.374-.503.063c-.277.036-.58.086-.674.113-.324.091-.17-.06.306-.302.634-.32.761-.462.932-1.036.14-.472.137-.498-.14-1.094-.235-.506-.299-.811-.37-1.772-.08-1.064-.07-1.22.126-1.857.117-.382.313-1.156.435-1.72s.236-1.078.254-1.142c.047-.165 1.546-1.15 9.028-5.94l.729-.466-.263-.226-.263-.225-1.394.852a1442 1442 0 0 0-15.484 9.664c-1.537.965-1.786 1.18-1.786 1.546 0 .292.297.378 1.066.308 1.216-.11 2.19-1.039 2.398-2.286.061-.367.125-.44.671-.774.332-.203 1.5-.935 2.594-1.626 1.095-.692 2.016-1.232 2.047-1.2.08.08-.232 1.205-.636 2.296-.773 2.089-2.353 4.854-3.74 6.546-1.244 1.52-2.987 3.133-4.43 4.1-2.608 1.746-5.37 2.15-7.47 1.09-2.194-1.108-4.223-3.854-4.767-6.454-.072-.348-.115-.65-.095-.67s.578-.103 1.238-.184l1.202-.146.348.375c.192.206.981 1.375 1.755 2.597l1.406 2.223.396-.234c.597-.353.611-.426.214-1.103-.347-.593-.421-.81-.279-.815.04-.001.38-.197.754-.434.487-.31.636-.45.526-.492-.092-.035-.408.101-.778.336-.688.436-.819.471-.906.243-.104-.27-.07-.316.429-.588.48-.261.619-.43.354-.43-.074 0-.344.117-.6.26-.454.254-.47.256-.602.074-.123-.168-.105-.214.185-.463l.32-.276-.292.059c-.161.033-.353.069-.426.08-.073.012-.183-.057-.245-.154-.089-.142-.077-.196.062-.275.234-.133.106-.312-.173-.242q-.223.055-.28-.09a.24.24 0 0 0-.205-.145c-.177 0-.184-.047-.048-.3.096-.18.116-.182.415-.029.172.089.577.348.9.576.322.228 1.004.61 1.515.848s1.122.572 1.358.743.535.311.664.311c.297 0 .76-.237.927-.475.07-.1.272-.214.449-.253.59-.13.807-.803.301-.939-.288-.077-1.07-.58-.901-.58.06 0 .356.11.66.244.658.291 1.137.314 1.362.066.32-.354.13-.78-.424-.946-.39-.117-1.393-.642-1.336-.7.029-.028.367.03.751.129.687.177.702.177.837-.01.215-.293.173-.71-.088-.881-.125-.082-.597-.295-1.05-.474s-1-.423-1.215-.543c-.404-.226-.364-.218.537.102.616.218 1.008.18 1.34-.132.364-.343.282-.437-.436-.498-.362-.031-1.07-.191-1.572-.356-1.079-.355-1.055-.353-2.34-.104-.552.107-1.263.195-1.58.195-.546 0-.59.019-.878.366-.358.435-.67 1.223-.78 1.974l-.08.542-.012-.74c-.015-.935.181-1.6.627-2.12.193-.226.324-.455.29-.509-.034-.055-.393-.091-.812-.082-.663.015-.911-.037-2.098-.44-1.496-.509-1.84-.666-2.368-1.087l-.362-.288-.52.273c-1.188.622-2.073 1.992-2.437 3.772l-.13.635-.007-.635c-.017-1.355.44-2.506 1.384-3.489l.588-.612-.34-.142c-1.174-.491-2.429-.405-4.232.29-.428.165.349-.36.947-.64.769-.36 1.548-.515 2.167-.432.66.088.569-.11-.239-.521a3.5 3.5 0 0 0-1.259-.382c-.786-.08-.544-.21.408-.22 1.007-.01 1.651.267 2.394 1.032.519.534.645.617.855.565.345-.087.669.013 1.032.319l.311.262.173-.23c.096-.127.245-.486.332-.799.13-.465.262-.671.736-1.14.659-.653 1.46-1.31 1.33-1.09-.047.08-.259.402-.47.716l-.382.57.449.578c.43.554.536.773.373.773-.124 0-1.146 1.052-1.146 1.179 0 .065.091.151.202.192.16.06.338-.045.88-.52 2.878-2.52 7.74-4.095 12.645-4.095 2.076 0 4.7.356 4.434.602-.048.043-1.229.746-2.625 1.562l-2.54 1.483-.418-.117c-.896-.251-1.998.043-2.666.711-.37.37-.805 1.255-.76 1.543.029.176.17.12 1.351-.546a72 72 0 0 1 2.247-1.212c.51-.258 1.896-1.037 3.078-1.73a163 163 0 0 1 2.345-1.362c.107-.054.393-.2.635-.325.393-.203 9.306-5.425 11.137-6.527.403-.242 1.501-.88 2.44-1.417.938-.538 1.766-1.037 1.838-1.11s.177-.133.23-.133.644-.198 1.31-.44c2.097-.76 1.595-.462-.925.549-.213.085-.222.11-.087.245s.278.086 1.413-.483c1.459-.731 3.467-1.648 3.512-1.603.017.016-1.024.556-2.312 1.198-1.668.832-2.334 1.211-2.313 1.316.053.248.426.15 2.99-.784 1.356-.495 2.487-.879 2.512-.853.045.044-2.6 1.093-4.38 1.737-.522.189-.854.363-.854.447 0 .206.171.173 1.318-.258.578-.217 1.072-.374 1.098-.348.051.051-.28.2-1.454.655-.412.16-.774.358-.806.44-.036.094-.125.128-.24.092-.258-.082-.455.174-.26.336.082.068.148.184.148.258 0 .173.052.17.347-.024.24-.157.953-.152 1.464.01.14.043.314-.029.581-.24l.382-.304.124.224c.068.123.126.326.128.45.002.125.049.311.104.415.168.314.87.208 1.009-.151.083-.216-.128-.622-.362-.696-.19-.06-.542-.407-.55-.541 0-.035.223-.208.5-.385l.501-.322.182.225a1 1 0 0 1 .182.54c0 .327.245.64.5.64.286 0 .575-.298.575-.595 0-.23-.073-.334-.344-.494-.369-.218-.582-.514-.484-.673.033-.054.27-.204.525-.333l.465-.236.163.277c.09.152.164.41.164.572 0 .354.221.603.537.603.551 0 .738-.8.244-1.044-.287-.142-.605-.507-.538-.616.1-.161.711-.196 1.09-.062.457.161.65.087.868-.336.11-.212.123-.339.049-.477-.056-.103-.102-.378-.103-.61a2.03 2.03 0 0 0-.691-1.483c-.555-.462-1.382-.953-1.516-.901-.07.026-.238.223-.372.436-.249.394-.816.892-1.015.892-.166 0-.312-.337-.312-.72 0-.585-.552-.869-.913-.47-.254.281-.193.522.23.908.214.196.39.403.39.459 0 .089-.898.409-1.147.409-.15 0-.324-.483-.262-.73.04-.159-.005-.293-.146-.434-.253-.253-.505-.259-.802-.019-.194.158-.214.226-.132.454.052.148.182.317.288.377.232.129.435.362.44.503 0 .057-.27.16-.604.228-.547.113-.618.109-.728-.041-.07-.095-.097-.289-.065-.45.07-.346-.183-.67-.521-.67-.246 0-.62.311-.62.516 0 .19.287.559.435.559.106 0 .249.196.249.341 0 .018-.18.063-.399.1-.35.06-.42.117-.573.473-.231.535-.366.644-1.77 1.439-1.21.683-1.361.749-1.361.586 0-.202-.518-.692-.73-.692-.37 0-.475.229-.42.915l.05.619-5.63 3.208a3673 3673 0 0 1-5.884 3.35c-.22.121-.31.122-.668.003l-.413-.138-.032-1.56c-.018-.859-.102-1.934-.187-2.391a14 14 0 0 1-.148-.88c.004-.026.116.26.248.636.314.892.593 2.16.679 3.077.037.403.096.787.13.852.045.083.581-.168 1.746-.815l1.681-.936-.33-.405a19 19 0 0 1-.886-1.266l-.558-.86-.482.783c-.265.43-.52.806-.568.836s.067-.31.254-.753c.46-1.091.934-3.012.78-3.171-.16-.168-2.233-1.041-3.043-1.282a25 25 0 0 0-1.417-.366 10 10 0 0 1-1.29-.386c-.413-.167-.58-.196-.648-.111-.24.3-.723 1.412-.945 2.179-.136.469-.26.866-.276.881-.015.016-.011-.245.01-.58.088-1.423.602-2.702 1.44-3.58l.545-.571-.957-.303c-1.054-.334-1.887-.532-1.954-.465-.023.023-.103.3-.177.613-.073.314-.265.945-.426 1.402l-.293.83-.006-.572a5.4 5.4 0 0 1 .15-1.172c.086-.33.191-.95.234-1.379.098-.966.215-1.084 1.496-1.511.978-.326 1.299-.565 1.394-1.039.046-.23-.006-.37-.253-.679-.267-.335-.303-.447-.263-.807.04-.353.011-.445-.186-.6-.23-.18-.23-.184-.066-.63.163-.438.162-.45-.05-.676-.287-.306-.27-.518.071-.907.343-.39.31-.624-.121-.868a29 29 0 0 1-.872-.53c-.536-.338-.56-.372-.562-.762 0-.296-.07-.49-.257-.712-.378-.45-.217-.465.246-.025.228.217.401.473.401.593 0 .269.01.267.72-.092 1.31-.662 2.56-1.82 3.017-2.796q.455-.973.018-1.141c-.086-.033-.517.068-.959.224-1.355.478-1.99.528-5.629.441-3.376-.08-3.656-.163-1.001-.295.765-.038 1.392-.08 1.392-.093 0-.023-1.049-1.036-1.808-1.747-.215-.201-.492-.406-.617-.455-.346-.136-1.253-.091-2.118.105M33.853 9.64c-.656.082-1.704.374-2.418.673-.72.302-2.337 1.298-2.478 1.526-.036.058.194-.07.51-.284a10.7 10.7 0 0 1 2.844-1.355c.996-.297 2.847-.416 3.985-.256.665.094 1.188.018.773-.111-.645-.202-2.334-.302-3.216-.193m23.057 3.37c-.4.151-1.014.584-1.368.964-.661.712-1.557 1.19-1.119.598.282-.38.352-.985.156-1.343l-.155-.284.055.3c.13.712-.51 1.428-1.445 1.616-.635.127-1.5-.052-2.11-.436l-.374-.236-.264.193-.264.192.195.25c.227.287.24.429.08.872-.104.287-.094.348.095.548.168.179.2.3.153.584-.048.294-.013.413.194.66.717.851.27 1.847-.992 2.21a6.5 6.5 0 0 0-.918.343c-.38.192-.641.541-.501.67.045.042.434.151.864.244.866.186 2.884.808 3.013.929.045.042-.109.21-.342.374-.607.424-.99.81-.896.9.045.042.455.186.912.319l1.612.47c1.075.314 1.395.291 2.606-.186 1.385-.546 1.925-.529 2.474.078.108.119.384.326.615.462.495.29.93.262 1.448-.092.406-.276.435-.429.043-.226-.66.341-.977.187-1.703-.827-.628-.878-1.244-1.098-2.406-.86-.403.083-.75.135-.772.115s.379-.234.89-.476c1.603-.76 2.298-.77 3.497-.05.831.497 1.121.6 1.71.606.824.007 1.687-.5 2.06-1.212.211-.403.17-.419-.215-.082-.435.382-.714.493-1.24.49-.587-.001-.818-.154-1.43-.945-.812-1.05-1.295-1.364-2.285-1.484l-.603-.074.574-.174c.744-.226 1.144-.16 2.135.358 1.321.69 2.482.61 3.443-.236.581-.512.834-1.01.834-1.645 0-.596-.18-.977-.62-1.313-.439-.335-.527-.314-.22.052.196.231.254.407.254.768 0 .778-.552 1.276-1.415 1.276-.647 0-1.003-.185-1.857-.964-1.068-.973-1.442-1.139-2.541-1.128-.569.006-1.034.068-1.316.175l-.437.165.29-.302c.158-.166.57-.44.913-.61.513-.252.742-.307 1.271-.305.737.002 1.137.168 1.691.698.297.285.352.31.307.137-.101-.385-.79-1.056-1.324-1.287-.678-.294-1.671-.302-2.4-.02-.283.11-.93.47-1.438.798-.508.33-1.106.663-1.329.741-.472.167-1.252.185-1.77.041-.512-.142-.597-.327-.113-.248.485.08 1.381-.153 1.894-.492.215-.143.607-.55.871-.905.264-.356.605-.765.757-.91.564-.537 1.428-.705 2.204-.428.465.166.38.018-.144-.249-.471-.24-1.367-.324-1.784-.167m-15.046 8.304c.108.069.723.35 1.368.627l1.173.503.268.82c.515 1.572.519 1.578 1.667 2.74.603.61 1.33 1.46 1.617 1.89.616.922.642.954.513.614-.384-1.01-1.146-2.173-2.094-3.196-.78-.841-.959-1.19-1.246-2.435-.205-.891-.205-.892-.563-.98l-1.481-.352a49 49 0 0 1-1.27-.31c-.081-.025-.059.01.048.08m28.006 4c-.555.324-.994.605-.976.624.153.152 1.61-.437 2.226-.9.023-.018-.02-.096-.099-.174-.123-.124-.27-.066-1.15.45m.766.202c-.532.305-.535.309-.276.395.198.067.358.039.66-.115.432-.221.425-.211.338-.436-.079-.206-.1-.201-.722.156m.55.364c-.262.173-.269.192-.095.285.16.086.378.039.598-.13.047-.036-.095-.34-.16-.34-.034 0-.189.084-.343.185m-1.82.351c-.158.093-.382.124-.635.088-.334-.046-.427-.016-.632.202-.316.337-.207.506.488.76.616.226.836.396 1.048.807l.152.293-.384-.346c-.211-.19-.649-.446-.972-.567-.548-.204-.63-.21-1.17-.091-.462.102-.588.17-.61.33-.04.27.183.438.71.536.622.117 1.139.48 1.39.976.247.489.224.574-.09.344l-.547-.398c-.421-.307-1.368-.531-1.48-.351-.127.207 0 .485.326.708.768.526 1.205 1.155.801 1.155-.22 0-.712.666-.822 1.11-.06.245-.067.577-.017.844.045.242.07.453.053.47-.077.076-.444-.528-.5-.822-.034-.183-.098-.332-.142-.332-.045 0-.269.268-.499.596-.474.676-1.246 1.274-1.943 1.506-.44.146-.485.192-.648.664-.365 1.06-.142 2.822.47 3.71l.215.314-.316-.293c-.174-.161-.456-.579-.627-.928-.293-.598-.311-.698-.311-1.724v-1.09l-.28.145c-.456.236-1.113.896-1.426 1.434-.332.568-.372.512-.135-.189.215-.636.533-1.131.93-1.45l.324-.258-.23-.193c-.127-.106-.281-.192-.342-.192s-.968.57-2.015 1.266l-1.903 1.266-.252 1.065-.252 1.065 1.345 1.277 1.346 1.276.859.263c.472.145 1.02.285 1.217.312.663.09 1.52-.328 2.7-1.322l.52-.437.653.256c.909.356.913.356 1.012-.035.19-.752.795-2.353.862-2.278.039.044.194.424.344.844s.41.948.576 1.173l.302.408.059-2.491c.033-1.385.105-2.6.162-2.736.057-.134.217-.396.356-.58.14-.186.253-.437.253-.56v-.222l-.454.241c-.454.241-.843.286-1.305.15-.21-.062-.166-.088.312-.191.306-.066.662-.203.793-.306.13-.102.573-.8.984-1.552.411-.75.854-1.491.983-1.645.13-.154.352-.542.493-.86.226-.513.245-.63.154-.99-.057-.226-.104-.718-.104-1.093 0-.797-.065-.89-.806-1.166-.778-.29-1.069-.325-1.343-.166m-2.198.642-.293.188h.317c.253 0 .318-.04.318-.195 0-.107-.011-.192-.025-.188a6 6 0 0 0-.317.195m-2.104 1.248c-.616.367-3.055 1.804-5.42 3.193-2.363 1.388-4.32 2.555-4.347 2.593-.054.076-4.261 2.604-4.775 2.87-.206.107-.362.135-.42.077-.059-.059-.8.309-2.002.993l-1.91 1.085.454.03c.417.028.578-.042 2.015-.87.859-.494 1.578-.88 1.598-.86.02.022-.639.435-1.466.919-1.398.818-1.653 1.034-1.302 1.101.127.025 2.832-1.508 3.054-1.73.062-.062.056-.143-.017-.231-.092-.111.343-.407 2.381-1.62 1.372-.817 2.537-1.458 2.59-1.426S57.78 33 60.452 31.402c6.28-3.751 5.788-3.435 5.788-3.714 0-.129-.013-.234-.028-.234s-.531.3-1.148.668m.687.329c-1.702.979-10.046 5.99-10.21 6.132-.107.094-1.228.795-2.49 1.56-4.395 2.659-5.23 3.196-5.643 3.627-.871.91-.488.79 1.7-.532 1.538-.928 1.842-1.148 1.842-1.337s.373-.451 2.39-1.667c1.471-.888 2.429-1.41 2.492-1.357s1.248-.615 3.094-1.74a1788 1788 0 0 1 5.14-3.121c2.16-1.304 2.54-1.583 2.422-1.775-.092-.148-.138-.134-.737.21m.192.603c-.079.074-1.198.771-2.488 1.55a954 954 0 0 0-10.551 6.456 914 914 0 0 1-3.73 2.321L47.4 40.48l.153.233c.087.133.213.211.29.181s.86-.503 1.743-1.055c1.287-.804 1.605-1.045 1.607-1.22 0-.12.1-.28.222-.355 2.203-1.384 4.687-2.896 4.755-2.896.05 0 .104.043.122.096.017.052 1.931-1.084 4.252-2.525s4.567-2.832 4.991-3.09c.666-.405.765-.5.727-.699-.05-.264-.117-.284-.318-.095m16.555 4.726q-.008 1.147-.18 1.783c-.953 3.533-4.447 6.412-11.007 9.068-2.48 1.004-4.082 1.279-5.823.998-1.54-.248-3.454-1.055-5.076-2.14-.936-.626-2.525-2.068-3.014-2.735-.161-.22-.317-.4-.345-.402-.028 0-.023.362.012.807.046.594.144.995.369 1.506.359.819.368.94.114 1.606q-.191.504-.103.667c.048.09.138.645.2 1.232.11 1.048.118 1.074.474 1.41.2.188.566.696.814 1.129.535.934 1.46 1.85 3.792 3.758.963.788 1.58 1.363 1.616 1.505.09.354-.302 1.009-.997 1.67-.342.326-.622.62-.622.653s.302.56.67 1.168c1.313 2.169 2.995 5.45 4.193 8.181l.317.723.582-.555c1.176-1.122 2.446-1.45 4.014-1.04 1.783.469 2.163.453 3.371-.14 2.592-1.27 4.537-5.148 3.913-7.797-.172-.731-.365-1.154-.993-2.172-.578-.938-.923-2.006-.923-2.86 0-1.392.63-3.005 1.637-4.198l.516-.61-.515.209c-.811.329-2.754.941-3.99 1.258-1.861.477-2.881.6-5.22.634-1.858.027-1.988.02-.957-.051 2.898-.2 5.787-.895 9.098-2.189 2.706-1.057 5.59-2.517 6.228-3.15.64-.638 1.255-2.887 1.25-4.577-.006-1.656-.406-2.871-1.421-4.319-.448-.637-1.805-2.178-1.919-2.178-.036 0-.07.517-.075 1.148m-52.163 9.376c-.269.082-.54.163-.601.18-.331.088-.29 5.34.058 7.37.718 4.2 2.296 7.983 5.007 12.01.341.506.663.935.716.953s.217-.441.365-1.019.498-1.772.779-2.655c.352-1.108.474-1.616.394-1.643-.245-.082-1.932-1.184-2.016-1.317-.063-.101.077-.387.495-1.012.848-1.267 1.924-3.05 2.481-4.112l.485-.925-.84-.893c-1.642-1.744-2.66-3.632-3.25-6.03-.106-.432-.128-.428-1.648.293l-1.198.57-.056-.359c-.03-.197-.125-.632-.209-.968-.17-.68-.176-.683-.962-.443m14.147.959c.151.132.36.24.464.24.265 0 .24-.05-.139-.284-.455-.282-.663-.254-.325.044M53.6 45.28c-.218.332-.21.345.235.345.5 0 .584.191.584 1.322 0 .683-.029.835-.171.908-.218.112-2.096.224-2.235.134a.4.4 0 0 1-.146-.195q-.04-.127-.317.162l-.276.288.205.205c.234.235.646.256 2.158.11.822-.08.954-.12 1.148-.345.193-.223.22-.361.216-1.105-.008-1.575-.229-2.07-.924-2.07-.232 0-.363.066-.477.24m-1.269 7.204a78 78 0 0 1-.974 3.78l-.6 2.09-2.053-.055c-2.16-.057-2.188-.06-5.96-.837-1.021-.21-2.142-.41-2.492-.442l-.635-.06.684.2c.376.11 1.3.392 2.052.628 3.176.996 4.861 1.287 7.718 1.331l1.368.022.314-1.457c.173-.802.404-1.977.512-2.612.21-1.226.526-4.023.472-4.183-.017-.052-.2.665-.406 1.595M31.65 74.368c.382 1.075 1.297 2.209 2.057 2.55.336.15.72.207 1.636.242.758.03 1.197.011 1.197-.05 0-.054-.341-.12-.757-.146-1.355-.086-2.414-.64-3.296-1.722-.29-.357-.618-.758-.73-.892l-.201-.245z"/></svg>