<svg xmlns="http://www.w3.org/2000/svg" viewBox="0 0 100 100"><path fill="#fff" d="M21.934 18.488c-.41.147-1.4.757-2.492 1.536-.51.364-1.05.74-1.2.835l-.272.174.311.189c.27.164.419.18 1.103.123 1.027-.085 2.41.146 3.24.543.743.354 1.478 1 1.79 1.572l.233.428-.494-.544c-1.058-1.166-3.076-1.774-4.887-1.473-.601.1-.629.095-1.221-.228a4.4 4.4 0 0 0-2.45-.51c-.726.068-1.3.285-2.346.886-.455.261-1.044.505-1.436.594-.942.214-1.03.178-.238-.096.375-.13 1.034-.477 1.466-.772 1.383-.947 2.356-1.227 3.591-1.036.378.059.702.093.72.076.065-.067-1.013-.71-1.562-.933-.489-.198-.702-.227-1.417-.196-1.064.046-1.677.333-2.699 1.265-.754.688-.914.761-2.1.962-1.885.32-3.056.992-3.306 1.898-.115.415-.036.84.169.909.087.03.861.329 1.72.665 2.827 1.107 4.739 1.63 6.632 1.814 1.18.115 1.19.118 2.406.749 1.895.983 1.823 1.065-.195.22-.976-.409-1.245-.479-2.052-.536-2.01-.142-4.311-.754-6.883-1.832-1.206-.506-1.713-.663-1.725-.534-.049.525.306 1.222.909 1.788.47.44 1.453 1.106 2.577 1.743 2.312 1.31 3.812 3.032 6.148 7.052.83 1.43 1.59 2.354 2.152 2.62.189.09.567.165.84.168.41.003.543-.043.777-.267l.283-.271.389.408c.323.34.449.601.74 1.533.193.619.449 1.238.569 1.378l.218.253.371-.601c.678-1.099 1.802-1.772 4.098-2.455.743-.221 1.368-.384 1.39-.363.02.021-.433.23-1.01.463-1.678.68-2.73 1.257-3.294 1.807-.63.615-.97 1.24-.89 1.637.1.5.903 2.06 1.372 2.666.399.516 1.743 1.71 1.924 1.71.036 0-.013-.209-.11-.464-.23-.609-.349-1.542-.205-1.63.064-.04.107.012.107.132 0 .345.571 1.779.99 2.483.475.8.815 1.19 1.861 2.133l.778.702.299-.177.298-.176-.39.575c-.882 1.299-1.406 2.569-1.817 4.397-.31 1.377-.529 1.813-1.075 2.133-.494.29-1.06.322-1.783.103-.77-.234-1.037-.195-1.5.219-.337.3-.42.445-.464.806l-.053.44.309-.329c.24-.255.356-.312.524-.259.119.038.48.129.802.202s.691.159.82.19l.232.06-.282.297c-.155.164-.859.799-1.564 1.411-1.045.907-1.32 1.203-1.49 1.596-.25.581-.258.798-.045 1.208l.162.313.074-.244c.04-.135.098-.358.128-.497.039-.178.176-.308.46-.436.223-.1.608-.418.857-.707.46-.533 1.358-1.25 1.45-1.156.029.028-.114.35-.316.715-.33.597-.664 1.41-1.377 3.35-.269.731-.243 1.401.073 1.92q.494.82.404-.167c-.049-.536-.034-.594.197-.776.276-.217.42-.57.801-1.953.234-.848.97-2.338 1.094-2.214.027.027-.047.415-.164.863-.186.713-.345 1.522-.682 3.475-.068.389-.052.637.063 1.024.188.636.76 1.248 1.163 1.248h.274l-.264-.276c-.288-.3-.497-.86-.354-.948.152-.093.276-.736.381-1.965.11-1.285.412-2.321 1.04-3.57.558-1.108.626-1.034.714.784.063 1.306.071 1.345.389 1.806.34.495.81.847 1.13.847.171 0 .166-.024-.062-.268-.408-.438-.482-.646-.355-1.008.084-.242.08-.572-.013-1.363-.145-1.215-.097-1.606.334-2.734.174-.457.348-.998.385-1.202.04-.219.36-.798.782-1.416 1.093-1.602 1.391-2.28 1.676-3.799.085-.451.22-.98.301-1.173s.149-.642.151-.995c.004-.608-.035-.718-.745-2.129-.946-1.879-1.68-2.912-3.035-4.268-1.054-1.055-1.063-1.068-.458-.65.339.235.9.686 1.245 1.004.472.432.819.65 1.387.87 1.237.48 7.844 2.885 9.794 3.566 1.77.617 5.057 1.607 5.794 1.744.204.038.349.09.322.118-.132.132-3.512-.64-5.691-1.3-1.682-.509-7.39-2.467-9.34-3.204-.362-.137-.66-.217-.66-.178 0 .038.112.235.249.435.339.5 1.357 2.554 1.55 3.128.085.257.156.638.156.847v.38l1.001.535c3.884 2.074 7.005 2.99 10.774 3.16l1.37.061.513-.901c.691-1.213 1.18-1.864 2.082-2.772.532-.535.845-.949 1.052-1.391.373-.798.72-1.251 1.316-1.722.635-.503.708-.472.2.083-.354.385-1.015 1.445-1.015 1.627 0 .03.362-.14.806-.375 1.022-.544 1.76-.736 2.756-.718.432.008.653.03.492.049-2.442.281-5 2.1-6.712 4.773-.241.376-1.017 1.82-1.724 3.209-1.245 2.447-1.285 2.544-1.285 3.14 0 .784.306 1.778.712 2.318.215.286.53.527.991.76.443.225.99.638 1.584 1.197 1.131 1.064 1.626 1.381 3.323 2.133 1.43.632 2.086 1.047 2.461 1.556.161.218.286.296.418.261.23-.06 1.54.113 1.746.23.087.05-.071.062-.392.03-.765-.078-1.588.157-3.02.863-1.433.706-1.787.77-2.596.47-.896-.333-1.104-.336-1.71-.028-.421.215-.584.369-.757.71-.12.24-.22.523-.22.628 0 .188.005.188.22-.01.121-.11.352-.266.513-.347.267-.133.323-.13.634.038.188.102.535.184.776.184.546 0 .44.106-.38.385-.684.233-1.662.278-2.25.106-.68-.2-1.18-.127-1.775.257-.613.396-.962.907-.962 1.41v.324l.367-.35c.468-.448.83-.644.884-.48.101.303 1.053.308 2.786.016.572-.097.512-.03-.373.415-.875.44-1.531.623-2.685.751-.995.111-1.078.15-1.785.812-.552.518-.85 1.124-.851 1.727 0 .574.145.826.236.41.079-.358.555-1.042.826-1.187.137-.073.263-.071.434.006.206.095.366.052 1.13-.3.538-.248 1.142-.445 1.529-.5.673-.095.92-.198 1.738-.72.277-.175.695-.417.93-.537l.428-.218-.21.297c-.358.502-1.376 1.346-2.153 1.783-1.609.906-1.75 1.028-2.132 1.836-.438.926-.52 1.663-.26 2.333l.179.46.08-.537c.121-.824.439-1.37.88-1.516.229-.076.71-.448 1.277-.988.616-.587 1.18-1.016 1.75-1.33q.84-.463 1.765-1.335c1.058-.995 1.061-.997 2.785-1.67 1.13-.44 1.33-.553 1.677-.947.217-.246.394-.43.394-.406s-.092.304-.205.624c-.214.61-.213.833.008 2.097.11.628.381 1.075.65 1.075.202 0 .33.338.33.873 0 .272.042.495.095.495.052 0 .191-.187.308-.415.164-.32.215-.596.22-1.197.006-.697-.022-.824-.26-1.17-.146-.215-.266-.51-.266-.657 0-.557.394-1.337 1.02-2.02.781-.85.981-1.38.982-2.601 0-1.24-.245-1.734-1.49-3a30 30 0 0 1-1.88-2.155c-.744-.952-1.074-1.287-1.66-1.685-.817-.552-1.826-.926-3.182-1.177-1.202-.222-1.284-.282-.44-.316.692-.029.747-.048 1.142-.412.228-.21.912-.63 1.52-.935 1.425-.712 2.121-1.213 3.029-2.177.844-.898 1.628-2.323 1.914-3.482.16-.654.17-.667.2-.3.06.735-.155 1.603-.728 2.948-.028.066.128.132.399.17.245.033 1.38.366 2.52.739 3.223 1.054 4.298 1.295 10.039 2.25 1.961.327 4.137.707 4.836.845 5.922 1.172 10.438 3.055 12.604 5.256 1.705 1.732 2.046 3.8.92 5.577-.163.256-.276.485-.252.509.11.11 1.92-1.833 2.293-2.464.803-1.359 1.172-2.996.994-4.403-.174-1.373-.938-3.697-1.314-3.995l-.512-.403c-.247-.192-.264-.253-.242-.846.022-.6.007-.65-.248-.83a2.2 2.2 0 0 0-.492-.26c-.122-.038-.352-.18-.513-.315-.274-.23-.293-.29-.293-.926v-.68l-.61-.277a14 14 0 0 0-.776-.332c-.3-.1-.488-.495-.375-.791.204-.538.124-.598-1.121-.841-.322-.063-.66-.18-.752-.261-.153-.136-.154-.177-.012-.532.084-.21.122-.415.084-.453s-.44-.094-.892-.124c-.453-.03-.878-.109-.944-.175s-.12-.336-.12-.6c-.001-.263-.051-.529-.111-.589s-.588-.153-1.173-.207a24 24 0 0 1-1.28-.14c-.263-.053-.438-.35-.51-.871-.064-.46-.193-.509-1.402-.527-.67-.01-.79-.04-1.002-.251-.131-.132-.24-.341-.24-.464-.004-.437-.114-.494-.736-.379-.96.178-1.387.14-1.672-.145-.196-.196-.239-.314-.194-.538l.058-.286h-.671c-.402 0-1.052.099-1.621.247-1.06.275-1.091.267-1.367-.344-.163-.36-.207-.392-.56-.392-.212 0-.714.132-1.117.293-.931.373-1.075.373-1.156.001-.036-.16-.098-.312-.139-.337-.04-.025-.407.112-.816.305-.766.362-1.049.373-1.049.04 0-.106-.034-.214-.076-.24s-.492.065-1.001.2c-1.518.407-2.735.323-3.172-.217-.054-.066-.252-.17-.44-.23s-.49-.199-.672-.31l-.331-.201.313-.324.313-.323-.349-.216c-.192-.118-.349-.263-.349-.32 0-.058.207-.295.459-.527s.44-.437.415-.457a22 22 0 0 0-.5-.345c-.642-.433-.665-.592-.192-1.312s.46-.749-.548-1.209c-.798-.364-.865-.51-.503-1.104.19-.31.193-.345.042-.455-.09-.065-.479-.192-.865-.281-1.001-.232-1.141-.302-1.141-.575a.52.52 0 0 1 .146-.356c.081-.067.147-.155.147-.195s-.385-.106-.855-.145c-1.43-.118-1.75-.353-1.598-1.172.08-.429.072-.46-.153-.546-.132-.05-.753-.114-1.381-.143s-1.212-.073-1.298-.1c-.24-.073-.39-.498-.322-.916.041-.26.02-.399-.073-.458-.073-.047-.676-.093-1.34-.102-1.099-.015-1.226-.036-1.436-.233-.142-.133-.256-.383-.295-.644-.035-.234-.086-.426-.112-.426s-.413.114-.859.253c-.661.206-.85.232-1.024.138-.226-.12-.49-.644-.49-.972 0-.336-.398-.363-2.124-.143l-.513.065v-.354c0-.443-.095-.449-.977-.062-.368.162-.786.293-.93.293-.263 0-.842-.478-.946-.781-.042-.125-.14-.113-.675.083-1.968.725-1.97.726-2.381.623a7 7 0 0 1-.893-.318c-.604-.266-.738-.24-1.698.34-.403.242-.802.442-.887.443-.085 0-.257-.109-.383-.243-.127-.134-.264-.244-.305-.244-.042 0-.29.219-.554.486l-.479.487-.224-.239c-.255-.271-.322-.252-1.047.302-.24.182-.53.331-.647.331-.27 0-.827-.337-1.071-.648-.159-.201-.258-.234-.642-.21l-.454.028-.25-.488c-.213-.416-.3-.496-.585-.538-.252-.037-.369-.121-.473-.342-.075-.161-.35-.563-.611-.893-.693-.876-.657-1.006.495-1.788.595-.405.725-.57 1.473-1.88.443-.775 1.169-1.476 2.443-2.356.988-.684 1.03-.727 1.147-1.195.088-.355.093-.57.017-.801-.134-.409-1.05-1.224-1.79-1.594-.657-.328-1.026-.355-2.11-.15-.403.075-1.26.165-1.905.199-1.52.08-2.388.218-3.187.505-.737.264-1.046.291-1.121.097-.08-.21.193-.742.684-1.33.247-.295.449-.59.449-.656 0-.297-.738-.41-1.32-.2m-6.838 4.265c-.376.174-1.242 1.085-1.032 1.085.056 0 .301.152.545.338.243.186.6.367.791.403.487.091 1.058-.104 1.327-.453.124-.161.317-.41.43-.552l.204-.258-.311-.273c-.336-.294-.73-.475-1.035-.475-.183 0-.185.013-.034.304.203.393.2 1.103-.004 1.417-.127.193-.19.222-.297.134-.357-.297-.4-1.136-.084-1.635.176-.278.044-.287-.5-.035m-6.807.584c-.275.247-.3.301-.16.355.238.093.714-.164.714-.385 0-.296-.203-.285-.554.03m13.56 3.82c-.215.539-.22 2.021-.006 2.326.236.337.516.276.695-.15.27-.646-.002-2.47-.38-2.545-.096-.018-.206.113-.309.369m1.913 3.068c-.07.37-.25.943-.4 1.273-.579 1.277-1.38 1.817-2.696 1.817-1.246 0-2.442-.387-4.715-1.525-.659-.33-1.197-.587-1.197-.573 0 .05 1.502.988 2.326 1.454 2.098 1.186 3.791 1.479 5.063.875.845-.4 1.504-1.464 1.7-2.743.15-.98.084-1.453-.081-.578m7.31 3.704c.027.03 1.687.522 3.687 1.09 2.001.569 4.397 1.28 5.324 1.58 6.33 2.052 11.367 4.498 16.975 8.247 2.456 1.642 3.721 2.375 5.568 3.227 2.864 1.322 5.192 2.187 13.923 5.17 4.407 1.507 7.65 2.862 9.697 4.055.336.195.61.332.61.304s-.527-.364-1.172-.746c-1.592-.942-3.97-2.076-6.204-2.957-1.881-.743-2.802-1.081-6.84-2.514-7.956-2.824-10.919-4.168-14.676-6.66-3.835-2.543-5.42-3.47-8.722-5.102-4.64-2.293-8.278-3.484-15.974-5.228-.967-.22-1.869-.426-2.003-.46s-.222-.038-.194-.006m61.071 28.294c.6 2.364.105 4.659-1.44 6.67-1.579 2.057-5.08 3.913-9.372 4.969-2.4.59-5.058.968-10.985 1.56-6.413.643-9.955 1.197-13.825 2.163-1.798.45-4.594 1.361-5.982 1.95-1.889.802-4.415 2.132-4.063 2.139.063.001.995-.283 2.071-.631 5.319-1.723 9.684-2.616 14.805-3.027 1.652-.133 2.724-.18 10.072-.444 3.363-.12 4.929-.23 7.034-.493 5.465-.68 9.047-2.094 11.274-4.447 2.007-2.12 2.633-5.103 1.7-8.102-.253-.817-.975-2.373-1.286-2.774-.176-.227-.176-.214-.003.467"/></svg>