<svg xmlns="http://www.w3.org/2000/svg" viewBox="0 0 100 100"><path fill="#fff" d="M75.815 8.468c-5.382.546-10.437 2.029-15.441 4.53-4.757 2.377-7.856 4.564-11.412 8.052-2.257 2.213-4.773 5.125-6.4 7.405-.386.541-.519.66-.74.66-.484 0-.886-.71-.886-1.566 0-.596-.097-.568-.464.131-.228.435-.266.624-.267 1.337-.001.757.026.88.315 1.388.237.42.301.629.257.847-.045.228.093.619.636 1.807 1.18 2.579 1.522 4.068 1.521 6.607 0 3.778-1.121 6.89-3.183 8.845-.342.324-.75.68-.906.791l-.283.202.296.43c.163.237.39.514.504.617.204.184.22.183 1-.025 1.12-.3 1.885-.871 3.096-2.311 2.505-2.979 4.127-6.854 4.519-10.796.174-1.758.008-3.078-.607-4.808-.252-.708-.295-.954-.258-1.465a3.9 3.9 0 0 0-.096-1.152 4.2 4.2 0 0 1-.097-1.227c.07-1.133.762-2.193 1.838-2.818l.319-.185-.07.234c-.038.129-.095.61-.125 1.07-.045.673-.024.898.11 1.156l.165.32 1.63-1.598c3.917-3.838 8.06-6.817 12.475-8.97 2.895-1.41 5.538-2.418 8.842-3.368l1.807-.52.168-.614c.25-.91.594-1.543 1.208-2.222 1-1.104 2.566-2.026 4.217-2.481.443-.122.805-.255.806-.296 0-.07-3.804-.077-4.494-.007m6.497 4.876c-3.665.356-8.022 1.32-11.409 2.525-5.164 1.838-8.906 4.059-13.113 7.784-1.753 1.55-5.246 5.182-5.114 5.315.024.024.789-.221 1.7-.545q9.054-3.218 17.82-3.896c1.91-.148 6.42-.126 8.309.042 2.024.178 5.055.6 4.963.689-.016.016-.71-.035-1.544-.112-.833-.077-2.789-.167-4.347-.2-6.982-.148-13.592.83-20.865 3.083-3.053.946-6.757 2.341-6.247 2.352 2.342.051 7.495.852 10.795 1.678 4.69 1.174 9.026 3.132 13.19 5.956 1.754 1.19 2.075 1.49.733.688-2.472-1.478-5.407-2.944-7.865-3.927-3.291-1.316-6.825-2.207-11-2.772-1.81-.246-5.1-.545-5.986-.545h-.478l.77.559a66 66 0 0 1 3.407 2.657c1.185.995 3.707 3.47 4.638 4.552 2.308 2.68 4.293 6.25 5.536 9.955.233.696.412 1.279.396 1.294s-.199-.376-.406-.872c-.94-2.242-2.737-5.547-3.89-7.153-1.358-1.89-3.877-4.55-5.98-6.315-1.837-1.54-5.079-3.881-5.204-3.756-.104.104-.055 3.31.064 4.16.063.457.31 1.907.547 3.224.237 1.316.482 2.808.543 3.314.199 1.65-.054 2.567-.886 3.21-.258.2-1.052 1.045-1.764 1.878s-2.18 2.394-3.26 3.468c-1.082 1.075-2.081 2.108-2.222 2.296-.14.188-.414.729-.608 1.2-.417 1.012-.699 1.476-1.147 1.883-.556.505-.734.6-.402.212.451-.525.664-.987 1.011-2.19.168-.58.373-1.186.455-1.346s1.214-1.347 2.515-2.638c1.3-1.291 2.806-2.877 3.345-3.525.54-.647 1.249-1.41 1.577-1.694.737-.638.845-.954.752-2.209-.036-.484-.259-2.022-.496-3.42-.586-3.45-.732-4.728-.731-6.396.001-2.331.334-3.343 1.696-5.15 2.535-3.366 7.644-7.863 11.491-10.114.732-.428.729-.466-.01-.138-1.808.8-4.715 2.59-6.999 4.307-2.171 1.633-3.533 2.81-5.628 4.862-1.215 1.19-1.696 1.602-1.83 1.567-.479-.126-.866-.857-.874-1.65l-.003-.38-.243.294c-.498.602-.663 1.738-.385 2.647.098.321.126.661.086 1.03-.052.48-.007.713.339 1.76.779 2.353 1.123 4.5 1.127 7.02.002 1.638-.106 3.482-.198 3.389-.025-.024-.088-1.05-.14-2.279-.103-2.391-.213-3.489-.307-3.064-.03.134-.124.683-.208 1.22-.444 2.836-1.882 6.18-3.627 8.44-.305.393-.54.727-.523.742.055.048 3.027-2.175 3.684-2.755.726-.64.704-.547-.08.355-.696.8-2.011 1.964-3.377 2.988-2.05 1.536-2.929 2.053-3.895 2.287-1.528.372-2.95 1.67-3.635 3.319-.269.646-.289.584-.087-.27a5.1 5.1 0 0 1 1.49-2.555c.35-.32.678-.582.73-.582s-.063-.174-.255-.387c-.567-.628-1.139-1.973-1.139-2.68 0-.18.02-.175.27.056.289.27.805.62.805.546 0-.024-.09-.304-.2-.622-.342-.99-.747-3.068-.597-3.068.036 0 .251.273.48.607.316.461.415.553.415.386 0-.412-.308-1.713-.587-2.477-.153-.42-.24-.763-.191-.763s.287.208.53.462c.272.284.443.403.443.309 0-.356-.4-1.666-.765-2.505-.216-.497-.36-.904-.32-.904s.26.16.486.354l.413.353-.062-.28c-.092-.412-.771-1.826-1.125-2.34-.169-.245-.288-.464-.266-.486.023-.023.247.09.498.249.252.159.457.267.457.24s-.137-.323-.304-.657a6.8 6.8 0 0 0-1.352-1.822c-.337-.325-.34-.332-.087-.269.143.036.34.096.44.134.172.066.172.058-.005-.22-.288-.449-1.178-1.52-1.591-1.914-.361-.344-.402-.357-1.23-.398-1.029-.05-1.429-.271-.49-.271 1.158 0 2.362-.567 2.976-1.401.354-.48.661-1.115.664-1.37.002-.155-.047-.173-.315-.117-.175.036-1.087.1-2.027.14-1.57.068-1.758.096-2.296.341-.323.147-.533.214-.468.148.093-.093.084-.144-.042-.236-.142-.104-.145-.154-.024-.448.264-.638 1.266-2.017 1.893-2.604.826-.773 1.323-1.108 2.424-1.634 1.184-.566 2.227-.833 3.517-.9.576-.031 1.026-.09 1-.134-.027-.042-.3-.156-.608-.253-.887-.28-3.408-.25-4.517.051-2.383.649-4.71 2.37-6 4.44l-.452.726-.622.05c-1.142.092-2.485 1.028-3.032 2.114-.283.562-.563.883-1.72 1.978-.76.719-1.64 1.625-1.953 2.013l-.57.707-.002.856c0 .472.02.931.048 1.022.065.221.65.404 1.095.341l.36-.05-.366.107c-.201.059-.366.16-.366.227 0 .21.577.617.955.675.905.139 1.169.392 1.285 1.233l.073.526.149-.33.148-.328.055.28c.066.343-.074 1.135-.272 1.533-.081.161-.134.307-.117.324.017.016.19-.084.386-.224.482-.343.82-.855.982-1.49.114-.446.145-.492.198-.293.035.13.065.345.068.48l.005.244.138-.245c.282-.497.363-1.201.213-1.851l-.14-.605.257-.1c.142-.055.807-.137 1.479-.181.671-.045 1.434-.148 1.694-.228.997-.31 1.695-1.01 1.979-1.987.083-.285.176-.519.206-.519.109 0-.078 1.115-.252 1.507-.29.652-1.443 1.522-2.018 1.522-.227 0-.254.17-.13.804.067.337.13.626.141.643.01.016.263-.04.56-.127.632-.184 1.143-.504 1.296-.812.179-.357.232-.36.219-.009a1.6 1.6 0 0 0 .154.655c.102.197.163.522.156.83-.058 2.519-.191 3.711-.471 4.237a3 3 0 0 0-.26.831c-.033.252-.168.67-.3.928-.224.442-.228.479-.07.596.232.171 1.285.489 1.884.568.27.036.514.101.54.144.027.044-.226.24-.563.437s-.627.37-.644.387c-.017.016.247.121.586.235.882.295 1.493.673 2.356 1.457.551.5.908.74 1.316.882l.56.195-.83.006c-.91.007-1.762-.159-2.443-.475l-.44-.203.773.05.772.051-.186-.21c-.102-.116-.447-.38-.767-.589-.542-.353-.937-.496-3.204-1.162-.416-.122-.862-.291-.99-.376-.224-.146-.186-.154.706-.158.563-.002 1.06-.055 1.236-.133l.293-.13-.489-.17c-.663-.23-1.448-.636-2.132-1.1-1.133-.768-2.527-1.235-3.75-1.256l-.468-.008.697-.221c.756-.24 1.259-.514 1.556-.847.189-.211.188-.211-.035-.142-.367.114-1.3.07-1.9-.09l-1.12-.296c-1.012-.265-2.64-.125-3.46.3-.284.147-.291.145-.191-.04.163-.307.883-.878 1.267-1.008.343-.115.346-.12.108-.188-.134-.039-.596-.074-1.026-.078-1.312-.014-2.66.361-3.652 1.016-.29.19-.541.332-.56.314-.084-.085.408-.88.708-1.144l.336-.295-.272.002c-.367.002-1.482.404-2.055.739-.717.42-1.457 1.177-1.778 1.82-.277.554-.294.569-.357.316-.057-.228.067-.769.322-1.4.084-.208-.484.155-1.102.705-.982.874-1.321 1.86-.981 2.857.087.257.159.501.159.544s-.341.305-.757.583c-1.464.978-1.881 1.413-1.881 1.965 0 .37-.268.646-.968.999-.677.341-2.386 1.566-2.869 2.056-.493.501-.465.878.117 1.54.165.189.329.49.363.672.138.721.634 1.263 1.282 1.4.21.045.367.16.458.336.157.304.878.986 1.041.986.064 0 .08-.07.039-.17-.038-.095-.092-.44-.12-.768l-.052-.597.56-.32c.927-.53 1.67-.383 2.383.474.822.988.871 1.364.29 2.207-.585.851-.768 1.03-1.051 1.03-.268 0-.792-.279-1.156-.613l-.22-.202.003.286c0 .157.09.479.197.715.185.407.186.44.027.616-.158.175-.158.203-.002.498.091.172.195.462.23.645.15.776 1.226 1.377 2.463 1.377h.604l-.15-.228-.148-.227.544.045.544.045-.201-.33c-.296-.485-.266-1.044.08-1.52.51-.706 1.173-.787 1.613-.196.162.218.202.402.189.88-.067 2.499-.07 2.443.153 3.017.119.307.3.659.403.782l.186.224.004-.444c.003-.462.345-1.275.565-1.343.09-.027.122.142.122.634 0 1.51.611 2.897 1.82 4.127.447.454.833.805.858.78s.006-.222-.043-.435c-.123-.528-.12-1.903.003-1.903.053 0 .097.082.097.183s.152.485.338.857c.266.532.574.905 1.456 1.767 1.132 1.107 1.723 1.976 1.723 2.534 0 .325.15.282.306-.09.089-.21.134-.716.134-1.494v-1.177l.555.842c.706 1.073 1.967 2.278 2.89 2.763.378.199.71.361.737.361s-.077-.297-.231-.66c-.155-.362-.283-.716-.284-.786s.269.066.608.306c.808.574 1.662.994 2.695 1.326.962.31 2.046.552 2.125.473.104-.104-.58-1.312-1.26-2.221-.69-.924-.691-.926-.262-.587.827.655 1.573 1.4 1.8 1.797.126.22.326.709.446 1.085s.593 1.63 1.052 2.784c.684 1.722.878 2.33 1.071 3.371.13.699.349 1.773.485 2.388.292 1.313.27 2.024-.083 2.655-.403.722-.63.823-1.776.791-.957-.026-1.01-.017-1.452.263-.252.16-.533.437-.623.614-.09.178-.314.448-.496.6-.436.366-.62.742-.62 1.266 0 .554.086.628.31.261.243-.401.436-.454.71-.196l.23.216.066-.3c.037-.165.107-.325.158-.357.05-.03.242-.292.427-.58.184-.29.425-.573.534-.632.198-.105.198-.104.015.214-.1.176-.212.417-.247.535s-.192.352-.35.52a1.4 1.4 0 0 0-.34 1.26c.036.166.083.3.105.3s.183-.155.359-.347l.318-.347.364.152c.2.084.468.152.597.152.203 0 .242-.058.294-.44.068-.495.343-1.089.62-1.34.101-.091.359-.234.572-.317s.302-.095.197-.028c-.37.238-.634.549-.699.822a1.2 1.2 0 0 1-.207.44c-.17.195-.272.852-.186 1.192l.06.242.281-.28c.26-.26.31-.274.645-.182.425.118.914.05 1.802-.252.354-.12.86-.251 1.126-.29.355-.054.565-.156.797-.388.377-.377.485-.747.626-2.149.124-1.242.268-1.643.748-2.082.34-.311.348-.337.3-.883-.028-.309-.17-1.046-.314-1.637-.228-.933-.27-1.344-.316-3.133-.06-2.34.049-5.964.176-5.837.046.047.148.26.226.473l.143.388.006-.745c.004-.432-.055-.92-.14-1.163-.082-.23-.128-.438-.104-.462s.177.17.34.43l.298.475.002-.317c.003-.508-.338-1.265-.91-2.014-.871-1.146-.984-1.44-1.142-2.964-.054-.527-.162-1.195-.239-1.486s-.103-.487-.059-.44c.168.184.602 1.429.753 2.16.183.888.466 1.493 1.11 2.374.71.97.905 1.42.953 2.198.023.376-.003.877-.057 1.112l-.099.428.848-.064c1.429-.11 3.247-.354 4.12-.556 1.331-.307 2.235-.636 4.934-1.8 3.78-1.629 4.73-1.907 6.448-1.891 1.563.015 1.906.133.586.201-1.205.063-2.335.354-3.541.911l-.728.336.07.515c.1.736.39 1.834.667 2.52.346.856.747 1.477 1.9 2.944 1.305 1.66 1.625 2.309 1.63 3.307.002.644-.04.821-.35 1.465-.708 1.474-2.004 2.947-2.892 3.286-.392.15-.506.155-.993.04-1.084-.254-1.383-.24-1.894.086-.255.163-.54.423-.635.578s-.32.406-.501.559a1.63 1.63 0 0 0-.598 1.245c0 .441.088.502.358.249l.226-.212.237.256c.13.14.358.286.505.323.57.143 4.3.063 5.49-.118.466-.07.883-.485 2.148-2.133a78 78 0 0 1 2.165-2.68c1.572-1.836 1.952-2.344 2.063-2.755.13-.484.064-.73-.485-1.801-.752-1.467-.892-2.713-.451-4.006.18-.53.207-.717.12-.83a27 27 0 0 0-.513-.635 35 35 0 0 1-1.217-1.661c-1.13-1.624-2.254-2.735-3.29-3.25-1.025-.51-1.646-.634-2.96-.593-1.207.037-1.192-.041.049-.258 1.057-.184 1.38-.185 2.248-.002 1.645.346 2.874 1.359 4.594 3.785 1.431 2.02 2.262 2.984 3.26 3.785 1.131.908 3.272 2.183 4.965 2.958.763.35 1.608.797 1.878.995 1.3.954 2.119 2.492 2.495 4.683.178 1.035.184 1.302.04 1.871-.173.69-.442.887-1.308.952-.879.067-1.384.293-1.685.754a9 9 0 0 1-.49.665c-.466.563-.643 1.223-.422 1.573.07.11.112.096.218-.074.162-.259.232-.26.546-.014.36.283.515.25.515-.11 0-.553.217-1.06.603-1.408.472-.427.697-.445.285-.024-.379.387-.707 1.375-.626 1.88.07.431.153.491.362.26.136-.15.271-.17.872-.132l.71.045.013-.54c.017-.716.328-1.28.858-1.557.18-.093.178-.082-.02.133a2.5 2.5 0 0 0-.366.596c-.182.437-.2 1.535-.028 1.77.113.154.139.143.3-.128.166-.283.204-.297.828-.298.703 0 1.47-.279 1.803-.653.094-.106.435-.76.757-1.455.663-1.429.69-1.63.398-2.894-.337-1.46-.58-3.356-.793-6.183-.056-.753-.145-1.503-.198-1.668-.114-.36-.563-.797-1.177-1.146-1.205-.685-2.206-1.763-2.939-3.165-.858-1.641-1.175-2.797-1.347-4.92-.332-4.074-.51-4.963-1.317-6.606l-.52-1.058.39.438c.878.988 1.587 2.615 1.84 4.223l.12.754.89.812c1.77 1.614 2.857 2.408 4.241 3.099 1.588.792 2.902 1.106 4.612 1.103 2.461-.005 4.478-.842 6.033-2.505 1.406-1.502 2.077-3.303 2.077-5.573 0-2.838-1.234-5.221-3.757-7.26-.428-.345-1.546-1.14-2.485-1.767-1.811-1.209-3.187-2.404-3.715-3.228-.842-1.311-.94-2.981-.247-4.18.33-.568 1.044-1.166 1.625-1.36.917-.304 2.215-.154 2.735.317.22.2.153.3-.348.515-.223.096-.468.25-.544.34-.125.15-.114.16.112.104.366-.092.861.076 1.37.464.294.225.68.4 1.127.508 1.09.267 1.442.564 2.033 1.706l.273.528-.271.216-.27.216.228.06c.878.236 1.91-.098 2.27-.734.242-.429.197-.506-.206-.354-.434.163-.725-.064-1.113-.872a19 19 0 0 0-.638-1.2c-.315-.531-.509-1.074-.382-1.074.036 0 .271.063.523.14.252.076.579.165.725.196.147.032.485.25.75.486.266.236.621.46.79.497.393.086.46.273.255.705-.09.19-.15.359-.134.376.017.017.225-.056.462-.162.509-.228.663-.193.705.16l.032.26.26-.206c.143-.113.358-.408.478-.655.19-.393.21-.552.16-1.252-.054-.78-.21-1.327-.377-1.327-.045 0-.082.06-.082.135 0 .074-.066.19-.147.257-.185.153-.64-.134-1.391-.878-.488-.483-.513-.533-.513-1.012 0-.503-.002-.507-.768-1.237-.546-.52-.872-.931-1.125-1.417-.248-.478-.636-.97-1.287-1.634-.995-1.015-1.398-1.687-1.487-2.483-.063-.554-.189-.543-.274.024-.157 1.05.095 1.905.872 2.96.57.774.608 1.119.053.471-.22-.257-.827-.77-1.349-1.139-1.35-.958-2.095-1.999-2.365-3.309-.141-.681-.237-.63-.33.179-.142 1.212.332 2.467 1.348 3.576 1.28 1.4 1.372 1.676.385 1.158-.837-.438-1.562-.631-2.369-.63h-.635l.404.261c.721.468.8.886.146.768-1.293-.234-1.598-.249-2.257-.111-.37.077-.797.207-.948.29-.255.137-.26.149-.058.152.32.006.98.291 1.041.45.069.179-.147.287-.868.434-1.056.216-2.002.712-2.339 1.226-.138.21-.134.215.17.148.405-.089.792.009.83.209.02.099-.226.363-.654.705-.738.589-1.203 1.183-1.43 1.826-.185.523-.188.515.126.293.387-.274.698-.347.762-.179.03.076-.061.442-.202.813-.343.907-.45 1.52-.375 2.154l.062.53.18-.297c.1-.163.22-.296.27-.296s.186.319.304.708c.315 1.045.89 2.078 1.701 3.06.826 1 1.545 1.62 3.673 3.171 2.147 1.565 2.77 2.095 3.445 2.928.928 1.149 1.339 2.211 1.34 3.473.005 2.255-1.332 3.912-3.436 4.259-1.531.253-3.553-.314-5.127-1.438-.94-.67-1.768-1.48-3.244-3.167-3.58-4.095-5.373-5.257-10.319-6.69-2.158-.625-4.226-.714-6.938-.3a35 35 0 0 1-3.135.314l-1.474.061-.252.401c-.138.22-.346.665-.46.987l-.21.586.05-.635c.067-.848.28-1.428.835-2.275 1.38-2.106 3.906-3.75 7.04-4.58.924-.245 1.375-.306 2.54-.346 1.666-.056 2.53.087 3.517.581.822.412.82.411.742.285-.104-.17.116-2.364.343-3.408.89-4.111 3.434-7.014 7.094-8.095 1.019-.301 3.027-.426 3.977-.248.318.06.596.091.618.07.021-.022-.046-.209-.15-.415-.528-1.052-.9-2.785-.9-4.2 0-3.293 1.647-6.27 4.478-8.094.964-.62 2.335-1.259 3.304-1.538l.796-.23-.294-.387c-.162-.213-.486-.782-.72-1.266-1.112-2.303-.898-4.555.621-6.532 1.35-1.757 4.627-3.034 7.376-2.874.968.056.807-.039-.692-.404-3.064-.749-7.014-.985-10.619-.636M33.674 23.998c-1.907.41-3.52 1.574-4.713 3.404-.462.71-1.05 1.818-.99 1.868.01.009.306-.052.655-.135.63-.15.64-.158 1.072-.821 1.071-1.645 3.44-3.685 4.803-4.138.998-.33.443-.45-.827-.178m1.45 6.583c-1.02.103-1.178.184-2.212 1.118-.48.434-.5.469-.236.404.158-.039.576-.288.928-.553.597-.45.824-.548 2.105-.91.54-.152.431-.163-.586-.06m-7.6 2.09a4 4 0 0 0-.398.548l-.182.312.206-.11c.128-.069.394-.086.695-.046.483.064.493.06.879-.362.452-.495.401-.557-.468-.569-.427-.005-.555.035-.733.228m-5.002 3.853c-.327.2-.59.484-.517.557.076.076.932-.435.993-.593.075-.195-.122-.18-.476.036m9.091 3.231c-.103.168-.947.57-1.356.647-.429.08-.513.213-.576.9-.053.58-.084.563.758.407.726-.134 1.292-.42 1.43-.72.17-.375-.07-1.535-.256-1.234m-.177 1.975c-.202.104-.68.228-1.062.276s-.728.124-.768.168c-.077.086-.392.989-.392 1.124 0 .122 1.537.097 1.966-.032.207-.062.45-.193.538-.292.185-.204.298-1.06.17-1.284-.074-.131-.129-.127-.452.04m-.219 1.844c-.107.046-.639.087-1.181.091l-.987.007-.306.66-.306.659.266.078c.373.109 1.756.133 2.201.039.48-.102.752-.523.752-1.167 0-.483-.057-.53-.439-.367m57.717.537c.137.444.352.63.818.705l.378.061-.254-.334c-.243-.318-.815-.773-.972-.773-.041 0-.027.153.03.341m-60.77 1.33c-.183.189-.15.277.147.39.147.055.69.362 1.207.68.516.32.99.58 1.055.58.15 0 .47-.716.552-1.236l.064-.398-.865.011a12 12 0 0 1-1.452-.07c-.437-.06-.617-.05-.708.044m-9.272 2.245a3.5 3.5 0 0 0-.782.267c-.43.219-1.36 1.045-1.06.941a6 6 0 0 1 .391-.116c.108-.026.467-.153.799-.282.584-.226 1.217-.297 1.542-.173.601.231.574 1.862-.044 2.648-.263.335-.18.392.189.13.49-.35.809-.999.856-1.746.081-1.283-.623-1.904-1.891-1.67m-7.01 3.617c-.604.088-.892.266-.993.613-.033.114-.2.328-.369.477l-.308.27.275-.1c.15-.054.428-.098.615-.098.365 0 .917-.237.917-.393 0-.053.176-.271.39-.486.427-.427.434-.423-.527-.283M35.074 53.7c-.531.138-1.91.13-2.265-.013-.098-.04.047.255.36.731.616.936.915 1.74.998 2.684l.06.68-.334-.384c-.443-.513-.748-.777-1.177-1.02l-.356-.202.23.562c.352.858.457 1.527.413 2.606-.029.684-.112 1.201-.274 1.693-.128.39-.258.708-.289.708s-.138-.288-.239-.641c-.26-.906-1.298-2.475-1.09-1.647.456 1.817.285 2.992-.772 5.303-.287.626-.599 1.401-.693 1.724l-.172.586-.235-.513c-.142-.31-.283-.891-.355-1.464l-.12-.95-.256.78c-.402 1.222-.493 1.868-.446 3.138.034.917.099 1.328.31 1.974.148.448.283.8.3.781.018-.018-.033-.363-.112-.766-.144-.726-.127-2.574.027-3.11.062-.214.081-.202.321.2.14.236.408.639.595.895l.34.467.109-.767c.141-.989.24-1.286.94-2.805.318-.694.674-1.613.79-2.044.224-.841.237-.836.41.166.06.349.075.364.195.193.379-.541.954-1.875 1.132-2.624.15-.629.195-1.094.172-1.77-.017-.504-.01-.916.018-.916.045.001.671.836.877 1.17.178.287.237-.03.242-1.295.004-1.098-.03-1.394-.223-1.975-.125-.377-.311-.83-.415-1.007-.237-.408-.237-.508.004-.508.277 0 1.184-.36 1.469-.585.282-.222.24-.225-.489-.035m-10.16 20.267c0 .408-.44 3.736-.598 4.524-.106.532-.45 1.675-.762 2.54a89 89 0 0 0-.833 2.404c-.34 1.066-.615 1.532-1.232 2.086-.597.537-.952.624-1.855.453-.365-.068-.839-.101-1.054-.072-.463.062-1.232.563-1.473.96a2 2 0 0 1-.503.506c-.508.342-.777.806-.777 1.34 0 .253.026.484.056.514s.202-.102.38-.296l.322-.352.341.361c.297.315.667.512.523.28-.234-.379 1.004-2.041 1.537-2.064.044-.002-.055.132-.22.297s-.3.347-.3.403-.152.27-.337.476c-.354.392-.51.897-.404 1.318l.063.251.28-.3c.154-.164.306-.3.336-.3s.2.089.376.196c.383.233.684.243 1.59.05.377-.079 1.18-.145 1.787-.146 1.68-.002 2.002-.209 2.61-1.674.242-.586.463-.954.694-1.157.348-.305.765-.39.854-.175.079.19.53-.36.643-.783.054-.2.17-.715.259-1.143.196-.942.747-2.037 2.004-3.981 2.061-3.187 2.723-4.351 2.51-4.42-.069-.023-.52-.157-1.004-.3a15 15 0 0 1-1.686-.635c-.443-.207-.806-.35-.806-.317s.114.252.253.49c.14.237.228.456.198.486-.094.094-1.46-.45-2.168-.863-.37-.217-.858-.545-1.082-.73-.438-.358-.523-.395-.523-.227"/></svg>