<svg xmlns="http://www.w3.org/2000/svg" viewBox="0 0 100 100"><path fill="#fff" d="M67.87 4.156c-.09.19-.164.399-.164.465 0 .065-.088.174-.195.241-.295.184-.264.68.05.823a.6.6 0 0 1 .303.365c.031.138.096.406.144.594.218.85.034.787-1.062-.365l-.906-.954.589 1.195c.324.657.589 1.24.589 1.295 0 .187-.294.097-1.431-.44-.628-.295-1.15-.526-1.162-.512-.011.014.435.435.993.936.557.5 1.013.958 1.013 1.016 0 .073-.413.09-1.343.051-.739-.03-1.3-.035-1.246-.01.054.023.582.228 1.173.455 1.28.49 1.361.64.458.834-.557.12-.634.117-.798-.031-.28-.254-.62-.155-.74.216a1.9 1.9 0 0 1-.378.605c-.345.36-.284.547.23.7.216.066.418.196.448.29.118.37.68.338.826-.049.065-.17.23-.258.703-.377.376-.095.654-.121.708-.066.055.054-.27.482-.83 1.09-.699.76-.838.952-.578.799 1.465-.867 2.149-1.155 2.149-.907 0 .058-.241.657-.536 1.33s-.477 1.176-.406 1.117c.071-.06.477-.525.902-1.036.425-.51.83-.928.9-.929.1 0 .12.292.098 1.36-.017.747-.009 1.338.016 1.313s.224-.583.44-1.238.435-1.191.487-1.191c.05 0 .194.502.317 1.116.2.994.208 1.134.078 1.278-.249.274-.174.59.218.93.345.297.358.329.232.565-.151.281-.088.556.126.556.199 0 .314.398.143.495-.434.246-.982.714-1.053.9-.045.12-.114.67-.153 1.222l-.072 1.006-.957 1.25c-.526.686-1.092 1.363-1.259 1.503s-.347.37-.4.512c-.146.382-.118 2.511.046 3.517.284 1.751.995 4.19 1.345 4.619.056.068.083.144.059.167-.077.077-.558-.743-.854-1.455-.365-.879-.662-2-.844-3.184-.161-1.056-.19-3.282-.048-3.658.19-.498-.212-.17-.83.678-.52.711-1.616 1.984-1.755 2.037-.25.097-.456.659-.931 2.545-.258 1.026-.474 1.764-.479 1.64-.01-.28.15-1.387.347-2.396.082-.42.122-.792.089-.826-.1-.1-.698.27-.917.566a1.34 1.34 0 0 1-.574.396c-.591.193-1.511.661-1.766.9-.39.364-.68.949-1.281 2.587-.608 1.657-1.304 3.104-1.78 3.704-.17.214-.264.425-.23.515.212.55.558 2.129.604 2.754.059.798.011 1.21-.525 4.532-.34 2.1-.42 2.393-.664 2.393-.093 0-.09-.158.015-.708.074-.39.27-1.588.436-2.662.44-2.842.422-3.713-.12-5.74l-.098-.367-.513.387c-1.47 1.11-3.194 1.312-5.822.684-.441-.105-.818-.191-.838-.191s.089.371.243.826c.584 1.73.624 2.087.55 4.937-.073 2.855-.103 3.127-.343 3.127-.148 0-.163-.277-.16-3.15l.003-3.151-.325-1.075c-.506-1.67-.5-1.663-1.58-2.096-.51-.204-1.61-.68-2.443-1.058-.833-.377-1.703-.737-1.934-.799-.609-.162-1.51-.144-1.86.037-.335.173-.725.643-.9 1.083-.288.722-1.35 3.708-1.329 3.73.014.014.25-.125.524-.31.54-.364 2.292-1.32 2.418-1.32.043 0-.344.282-.86.627-1.915 1.28-2.829 2.09-3.164 2.806-.243.518-.447 1.56-.4 2.043.031.328.033.326.551-.465.903-1.378 1.988-2.287 4.12-3.453 1.113-.608 3.008-1.798 3.762-2.363.219-.163.046.049-.39.48-.835.823-2.071 1.692-3.81 2.676-2.026 1.145-2.624 1.636-3.23 2.651a14 14 0 0 1-.922 1.3c-.747.92-.843 1.088-.967 1.685-.059.283-.278.854-.486 1.27a21 21 0 0 0-.74 1.723 21 21 0 0 1-.94 2.06c-.32.601-.58 1.183-.58 1.293s.087.31.195.447c.107.136.195.307.194.38-.001.225-.477 1.166-1.09 2.16-.524.847-.584.996-.533 1.319.032.2.097.652.144 1.005s.132.727.188.832c.13.242-.043.592-.376.762-.187.095-.234.19-.22.45.011.237-.088.482-.352.874-.202.3-.86 1.323-1.463 2.276q-1.095 1.733-1.358 1.86c-.2.097-.257.19-.237.382.02.199-.026.267-.213.314-.132.033-.268.148-.302.255s-.12.196-.19.196-.192.096-.27.214l-.142.213-.406-.211-.407-.212-.19.373c-.365.716-1.1 1.195-2.376 1.55-.446.124-.557.192-.51.312.163.42.339 1.265.339 1.627 0 .25-.106.614-.277.953l-.276.548.355.286c.306.246.353.337.34.662a2.4 2.4 0 0 1-.128.652c-.147.362-.141.47.04.73.21.3.666.286.98-.028.135-.134.316-.244.404-.244.087 0 .237-.071.333-.158.162-.147.202-.143.527.048.193.114.381.206.419.205s.168-.166.292-.366c.376-.61 1.017-.937 2.08-1.057.58-.065.59-.072.525-.322-.152-.585-.22-1.54-.143-2.005.107-.647.174-.82.472-1.222l.247-.334-.333-.278c-.293-.244-.319-.302-.213-.471a.9.9 0 0 0 .12-.383c0-.105.044-.219.098-.252s.097-.187.097-.341c0-.195.06-.3.196-.343.14-.044.195-.148.195-.361 0-.308.074-.45.93-1.788l1.224-1.925c.53-.836.79-1.16.97-1.204.293-.074.39-.207.392-.54 0-.136.148-.48.326-.763.283-.45.34-.495.452-.362.297.358.982.046.982-.447 0-.092.11-.297.244-.457.135-.16.245-.365.245-.456s.088-.278.195-.414c.216-.275.246-.53.097-.81-.079-.147-.02-.307.295-.794l.394-.609-.492-.43c-.27-.236-.463-.473-.43-.527.034-.056.216.05.416.24.195.186.535.466.755.623.63.446 1.35 1.108 1.201 1.103-.074-.002-.332-.107-.572-.233l-.437-.228-.55 2.211c-1.14 4.578-2.144 7.13-5.254 13.36-3.507 7.023-3.975 9.239-2.549 12.067.317.628 1.426 2.138 1.57 2.138.053 0 .072-.04.041-.09-.09-.147.13-2.802.341-4.111.427-2.633 1.127-4.969 2.783-9.282.526-1.37 1.236-3.327 1.577-4.348s.593-1.702.559-1.514c-.154.847-.887 3.307-1.565 5.251-1.498 4.3-1.998 5.842-2.339 7.226-.192.778-.332 1.432-.311 1.453.02.02.188-.005.372-.058.683-.196 1.303-.12 2.006.247.362.188.671.329.687.312.017-.016.186-.621.377-1.344.614-2.329 1.119-3.663 2.178-5.76.557-1.101 1.102-2.222 1.21-2.49.11-.27.5-1.786.866-3.371.367-1.586.708-2.991.758-3.125l.091-.242.145.291a.87.87 0 0 1 .076.584c-.038.161-.344 1.546-.68 3.078-.648 2.958-.622 2.886-1.818 5.085-1.2 2.21-1.672 3.46-2.618 6.932-.552 2.028-.752 2.595-1.62 4.592l-.699 1.612.545.488c.528.474.542.5.45.818a2.5 2.5 0 0 1-.244.556c-.082.124-.195.438-.252.696-.139.628-1.829 3.137-2.587 3.841-.376.35-.643.923-.704 1.51-.048.466-.03.526.21.715.586.461 2.274.576 3.376.229 1.178-.37 1.866-.965 2.013-1.74.043-.232.132-.336.349-.412.16-.056.467-.241.684-.413l.393-.311-.022-1.426c-.015-.927.021-1.578.102-1.864.07-.242.132-.45.141-.462s.365.13.792.315c1.582.69 2.682.776 4.439.35.457-.111 1.033-.202 1.28-.203h.45l.354-1.197a72 72 0 0 0 1.733-7.184c.231-1.206.2-.496-.053 1.216-.34 2.31-.847 4.857-1.282 6.46-.342 1.258-.348 1.307-.172 1.442.297.228 1.106.435 1.701.435.7 0 1.16-.162 2.265-.8.846-.488.915-.51 1.736-.55.974-.046 1.15-.002 2.696.675.596.261 1.318.526 1.605.587.644.138 1.535.054 2.107-.199l.43-.19.012-3.06c.006-1.681.04-3.651.073-4.377l.062-1.319.07 1.612c.072 1.614.378 6.081.42 6.136.028.033 2.218-.247 2.612-.334.334-.075.344.055.072.924-.147.467-.194.895-.194 1.74v1.12l.415.182c.697.306 1.768.486 2.215.373.363-.092.442-.07 1.211.35.956.52 1.622.696 3.243.854 1.005.098 1.284.092 1.939-.042.929-.19 1.07-.288.988-.693-.18-.909-.18-.908-1.398-1.486-.627-.298-1.244-.593-1.373-.655s-.854-.758-1.612-1.545l-1.378-1.431-.17-.76c-.095-.418-.16-.768-.147-.777.013-.008.276-.158.584-.331.909-.512.897-.442.405-2.401-1.118-4.449-1.424-6.366-1.892-11.824-.173-2.017-.237-2.412-.63-3.86-.24-.886-.809-3.04-1.265-4.787-1.205-4.613-1.426-5.172-2.925-7.408-.672-1.003-1.34-2.066-1.486-2.362-.309-.631-.257-.586.446.391.29.403.789 1.063 1.11 1.466l.614.773c.017.023.058.014.091-.02.16-.16-.2-1.35-.795-2.623-.464-.992-.742-1.755-.972-2.67-.316-1.254-.777-2.495-1.107-2.983-.118-.173-.18-.529-.215-1.221-.035-.71-.082-.97-.17-.953-.171.034-.153-.052.067-.332.237-.302.358-.914.494-2.5.112-1.304.198-1.666.647-2.712.415-.966.386-1.938-.1-3.404-.202-.61-.348-1.126-.326-1.149.049-.048.683 1.29.908 1.915.232.647.208 1.775-.055 2.493-.68 1.861-.684 1.88-.777 3.267-.067.998-.145 1.491-.286 1.81-.152.343-.174.506-.102.756.05.175.091.603.091.951 0 .55.052.733.398 1.398.22.42.612 1.411.873 2.201.26.79.495 1.37.522 1.29.026-.08.071-.388.101-.684.03-.295.163-1.57.297-2.833s.31-3.153.392-4.201c.201-2.586.376-7.534.27-7.64-.049-.049-.187-.048-.321.001-.13.048-.368.116-.53.15-.52.112.557-.402 1.71-.815.856-.307 1.29-.4 2.264-.49 1.35-.122 1.894-.313 2.612-.917.599-.503.684-.538 1.337-.533.85.005 1.884-.437 2.116-.906.414-.834.45-2.559.112-5.225l-.175-1.379.412-.673 1.126-1.84c.735-1.2.983-1.476 1.125-1.25.042.07.265.988.494 2.043.366 1.683.4 1.947.287 2.16-.117.217-.108.257.078.381.183.121.196.174.1.425-.098.262-.078.316.23.634.604.624 1.047.55 1.308-.218.152-.446.15-.475-.04-.734-.17-.228-.18-.299-.075-.47.107-.174.094-.223-.094-.368-.18-.138-.302-.547-.713-2.392l-.496-2.226.434-.51c.432-.507.434-.513.42-1.216-.012-.511-.06-.75-.178-.867-.128-.128-.14-.21-.058-.39.08-.176.067-.282-.06-.475-.089-.137-.207-.248-.262-.248-.06 0-.076-.128-.04-.32.09-.476-.193-.702-.768-.616-.407.061-.434.05-.479-.186-.026-.138-.01-.274.037-.303.15-.093.09-.422-.098-.522-.206-.11-.18-.488.058-.856.164-.252.062-.507-.294-.74-.188-.124-.275-.348-.46-1.188-.124-.57-.193-1.068-.152-1.108s.488.363.993.896c.504.532.917.942.917.91 0-.033-.242-.552-.538-1.154-.533-1.087-.622-1.36-.445-1.36.051 0 .656.265 1.344.587l1.25.586-.39-.358c-1.375-1.263-1.71-1.595-1.71-1.698 0-.088.335-.101 1.344-.054l1.343.062-1.216-.475c-.67-.262-1.232-.522-1.25-.578-.02-.055.177-.149.434-.206.737-.166.868-.17 1.034-.032.086.071.28.115.43.098.211-.024.299-.105.377-.347.056-.174.226-.445.377-.603.318-.332.276-.458-.22-.666-.195-.08-.412-.23-.483-.332-.191-.273-.68-.245-.814.047-.102.224-.378.346-1.136.5-.514.106-.396-.12.559-1.07.482-.48.861-.887.844-.905s-.54.235-1.161.56c-.706.371-1.153.555-1.193.49-.035-.057.162-.619.438-1.25.62-1.41.64-1.465.522-1.34-.051.053-.41.477-.797.941-.878 1.053-.982 1.143-1.093.963-.046-.075-.063-.687-.038-1.362l.045-1.227-.44 1.21c-.242.667-.466 1.237-.497 1.268-.1.1-.223-.199-.341-.824-.1-.532-.094-.638.052-.862.155-.236.156-.272.007-.499-.088-.134-.238-.244-.334-.244s-.323-.154-.505-.342c-.183-.188-.359-.342-.392-.342s-.135.156-.225.346m1.691 3.56c0 .052.073.426.162.832.129.584.195.728.318.693.085-.024.42-.097.742-.163s.623-.153.668-.192c.13-.113-.626-.886-1.06-1.083-.426-.195-.83-.237-.83-.087m-1.837.581a2.14 2.14 0 0 0-.567.927c-.094.3-.144.57-.112.602.053.053 1.53-.21 1.606-.286.08-.08-.316-1.626-.417-1.626-.063 0-.292.172-.51.383m3.115 2.02c-.345.076-.642.153-.66.171-.072.072.32 1.565.42 1.598.19.064.896-.748 1.055-1.213.27-.79.267-.792-.815-.555m-2.694.585c-.895.213-.867.19-.666.54.22.38.748.74 1.352.922l.462.139-.063-.392c-.141-.885-.277-1.365-.385-1.357a9 9 0 0 0-.7.148M48.8 19.436c-3.474.9-5.033 2.08-5.73 4.344-.19.612-.2.78-.122 1.856.047.65.087 1.651.087 2.224 0 .572.031 1.022.069.999.134-.084.844-1.468 1.059-2.067.278-.775.357-.722.137.091-.214.789-.745 1.93-1.446 3.106-.467.783-.55.995-.55 1.398 0 .393.096.754.249.936.015.018.343-.044.729-.138.932-.226 1.407-.133 3.222.637 1.606.681 1.393.69-.723.032-1.427-.444-1.467-.45-2.098-.342-1.394.239-2.93 1.299-3.48 2.401-.133.269-.228.504-.21.522s.249-.089.512-.237c.417-.235.58-.27 1.26-.263.89.008 1.4.182 4.058 1.39 3.019 1.372 5.898 1.968 7.471 1.547 1.517-.406 2.655-1.463 3.588-3.335.187-.376.64-1.452 1.006-2.39.589-1.51.719-1.76 1.125-2.165.445-.446.451-.46.22-.505-.751-.143-1.501.455-2.218 1.769-.21.386-.401.683-.424.66-.022-.022.136-.417.352-.878l.393-.839h-.693c-.868 0-1.71.25-1.796.53-.048.16-2.286 2.435-2.286 2.323.002-.189.462-.803 1.076-1.437.993-1.025 1.076-1.277.78-2.374-.119-.44-.256-.8-.304-.8-.137 0-1.13.578-1.258.732-.063.076-.16.436-.216.802-.12.782-.363 1.73-.427 1.666-.024-.025-.001-.54.052-1.144.124-1.413.214-1.566 1.27-2.152.455-.252.911-.572 1.014-.71.187-.25.187-.256-.02-.682-.114-.237-.208-.568-.208-.736s-.04-.33-.091-.361-.087-.193-.082-.36c.005-.188-.053-.338-.154-.394-.206-.115-.205-.38.002-.74.09-.157.138-.35.108-.43-.03-.079-.344-.286-.697-.46-.583-.287-.648-.35-.706-.678a3.6 3.6 0 0 0-.291-.802 57 57 0 0 1-.662-1.367c-.585-1.245-.799-1.467-1.403-1.461-.258.002-.953.13-1.544.282m.864.384c-1.055.765-1.521 2.2-1.794 5.533a28 28 0 0 1-.404 2.736c-.518 2.526-.498 2.355-.333 2.924.11.378.261.62.554.884.496.448.8.577 2.196.932.606.154 1.292.373 1.524.486l.422.205-.243-.21c-.336-.29-.998-.61-1.809-.874-1.406-.457-1.993-.899-2.196-1.651-.108-.402-.077-.634.336-2.5.227-1.03.308-1.656.541-4.153.058-.618.175-1.41.26-1.759.215-.884.72-1.946 1.155-2.427.427-.473.34-.524-.21-.126m.406.757c-.362.39-1.054 1.992-.86 1.992.027 0 .247-.174.489-.387.54-.475 1.338-.883 1.727-.883h.291l-.237-.254c-.13-.14-.446-.361-.703-.492l-.466-.237zm-.988 5.827c.31 1.03 1.104 1.791 1.966 1.885l.489.053-.44-.16c-.659-.24-1.007-.549-1.565-1.386a26 26 0 0 0-.546-.799c-.021-.023.022.16.096.407M46.31 41.308c0 .109.69.756.946.887.117.06.337.108.488.107.261-.002.255-.012-.115-.18a5.5 5.5 0 0 1-.855-.536c-.255-.195-.464-.32-.464-.278m-2.43 1.555c-.124.495-.484 1.415-.851 2.177-.623 1.293-.638 1.343-.763 2.54-.07.672-.11 1.24-.091 1.263.109.133.24-.27.425-1.306.16-.898.307-1.37.633-2.052.234-.487.52-1.215.635-1.618.116-.403.231-.796.256-.873s.24.275.48.782c.378.8.435 1.007.435 1.568 0 .504.045.703.202.902.185.235.194.324.117 1.143-.046.488-.047.91-.001.938.197.123.367-.202.367-.704 0-.285.04-.627.09-.758.083-.218.135-.236.562-.198l.471.04-.478-.194c-.262-.107-.585-.295-.717-.419-.213-.199-.235-.284-.193-.761.045-.498.016-.594-.39-1.305-.24-.422-.557-1.05-.705-1.395l-.268-.629zm9.214.736c-.465.685-2.327 2.654-2.925 3.092-.278.204-.28.212-.049.15.782-.207 1.554-.863 2.371-2.011.433-.608 1.204-1.94 1.124-1.94-.023 0-.257.319-.521.709m1.54 1.275a5 5 0 0 1-.403.774c-.26.41-.354.475-.954.658-.366.113-.82.29-1.008.393l-.341.189.32.004c.177.002.67-.13 1.095-.294.855-.33 1.013-.503 1.318-1.443.183-.564.16-.8-.027-.28m-10.111 3.799c-.418.157-1.548.399-2.952.632-.574.096-.49-.088-1.224 2.652-1.184 4.423-1.373 6.574-.816 9.3.275 1.345 1.167 3.615 1.42 3.615.225 0 1.447-.717 2.252-1.322a13.8 13.8 0 0 0 4.045-4.782c.632-1.238 1.79-4.778 2.417-7.39.058-.242.02-.273-.694-.57a17 17 0 0 1-3.1-1.708l-.88-.603zm11.006-.042c-.08.051-.089.32-.03.95.044.484.193 2.419.331 4.3a1885 1885 0 0 0 .449 5.96l.44 5.666c.133 1.72.398 5.004.587 7.3l.345 4.173-1.591 1.92a197 197 0 0 0-1.885 2.298c-.162.207-.345.366-.408.354s-1.194-.966-2.514-2.119l-2.4-2.096.05-1.275c.15-3.839.408-21.058.316-21.058-.03 0-.144.34-.253.757-.184.701-.211 1.339-.364 8.573-.09 4.3-.193 9.044-.227 10.544l-.062 2.728.44.413c.241.228.666.605.944.839a257 257 0 0 1 2.264 1.963c.967.847 1.804 1.54 1.86 1.54s1.074-1.165 2.26-2.588l2.154-2.587-.293-3.348c-.162-1.842-.647-7.613-1.079-12.825l-.906-10.935c-.116-1.394-.18-1.607-.428-1.447m-7.83.576c-.186.605.051.738.276.155.078-.202.156-.4.174-.44s-.05-.073-.154-.073c-.13 0-.22.109-.297.358m1.152.364c0 .539.03.655.195.743.187.1.196.075.196-.533 0-.352.01-.672.024-.712s-.074-.088-.195-.105c-.209-.03-.22.001-.22.607m1.612.328c.267 3.429.915 9.2 1.003 8.934.06-.18-.36-5.728-.568-7.493-.24-2.042-.285-2.296-.406-2.296-.06 0-.07.318-.029.855m2.236-.684c.153.516.36 1.883.444 2.944.054.665.127 1.237.162 1.27.077.071-.03-3.599-.118-4.067-.048-.256-.106-.318-.3-.318-.182 0-.227.041-.188.171m-8.684.139c-.376.102-1.098.248-1.605.326s-.952.176-.989.217c-.184.205-1.386 4.849-1.605 6.198-.307 1.89-.145 4.332.4 6.058.293.93.792 2.035.919 2.035.047 0 .56-.317 1.14-.705 1.29-.862 2.91-2.442 3.634-3.545 1.062-1.618 1.867-3.727 2.884-7.552l.242-.908-1.02-.478a21 21 0 0 1-2.078-1.167c-.583-.38-1.1-.685-1.149-.678s-.397.097-.773.199m-.538 2.374c0 .194-.094.73-.21 1.19l-.21.838-.423-.057a4 4 0 0 1-1.215-.426c-.031-.018-.107.178-.169.434-.062.257-.14.559-.171.672-.055.19-.012.209.608.261.8.068 1.009.14 1.009.343 0 .223-1.142 4.419-1.317 4.836l-.147.354.61.17c.335.095.628.164.651.154s.057-.206.075-.435c.075-.947 1.067-4.96 1.226-4.96.235 0 1.32.326 1.658.499.284.144.383.16.413.066.021-.07.108-.342.193-.607.214-.664.205-.689-.237-.706-.214-.008-.716-.087-1.113-.175l-.723-.161.245-.802c.136-.44.329-.963.43-1.161.205-.404.223-.385-.499-.52a8 8 0 0 1-.513-.11c-.14-.04-.17.015-.17.303M35.96 66.2c.005.115.028.138.06.06.028-.07.024-.155-.008-.187-.033-.033-.056.025-.052.128m-9.387 1.902c-.241.212-.765.557-1.164.766l-.725.38.02.621c.011.342-.048.88-.132 1.197s-.136.593-.116.613c.133.132.618-1.81.517-2.071-.03-.08.111-.226.36-.372.548-.322 1.162-.824 1.483-1.212.34-.41.295-.396-.243.078m1.001.455c-1.119 1.517-2.766 4.315-2.3 3.908.505-.442 2.974-4.387 2.833-4.528-.024-.024-.264.255-.533.62m1.039.492c-.32.817-.4 1.11-.46 1.683-.063.611-.078.64-.455.85-.501.281-1.285.956-1.432 1.234-.082.153-.003.114.28-.14.457-.412 1.137-.826 1.506-.917.247-.06.261-.1.328-.899.038-.46.147-1.115.242-1.457.179-.645.174-.821-.01-.354m16.376 5.079c-1.416 3.92-3.762 8.365-5.84 11.066-.27.35-.538.7-.597.779-.308.41.935-.743 1.524-1.414 1.635-1.863 3.035-4.433 4.133-7.582.48-1.38 1.137-3.527 1.091-3.572-.02-.02-.16.305-.311.723M62.005 75.4c-.353 4.72-.431 6.7-.369 9.306.04 1.66.13 1.425.3-.786.114-1.489.268-9.375.182-9.375-.027 0-.078.385-.113.855"/></svg>