<svg xmlns="http://www.w3.org/2000/svg" viewBox="0 0 100 100"><path fill="#fff" d="M71.468 14.127c-2.313.246-4.632.636-7.816 1.318-1.421.304-2.04.486-2.638.775-2.156 1.042-7.225 4.325-11.334 7.337-3.048 2.236-3.4 2.466-3.657 2.384-.556-.176-.656-1.434-.189-2.378.138-.278.234-.506.213-.506-.1 0-.607.365-.942.677-.75.698-1.079 1.732-.923 2.898.06.441.054.805-.015 1.08-.191.76-.133 1.145.288 1.91.784 1.426 1.358 2.695 1.798 3.971.839 2.436 1.222 4.266 1.527 7.294.108 1.075.217 2.108.242 2.296l.046.342-.149-.324c-.24-.519-.412-1.286-.635-2.827-.3-2.08-.954-5.197-1.13-5.387-.02-.021-.008.594.024 1.368.2 4.756-1.299 8.722-4.793 12.678-.31.352 3.958-2.58 5.316-3.651.907-.716.982-.74.5-.162-.488.584-1.482 1.471-2.61 2.33-1.686 1.282-4.66 3.351-5.151 3.583-.286.135-1.047.375-1.69.533-.645.158-1.411.409-1.704.557-.742.376-1.625 1.308-2.079 2.196l-.374.733.059-.44c.145-1.083 1.15-2.408 2.284-3.011.305-.162.929-.39 1.385-.506 1.384-.35 1.59-.48 2.988-1.884 3.022-3.035 4.644-6.102 5.23-9.89.17-1.097.141-3.779-.054-5.055-.272-1.785-.49-2.474-1.239-3.932-.58-1.129-.701-1.445-.694-1.808.06-3.19.082-3.468.3-4.021.522-1.322 1.445-1.984 3.18-2.279l.382-.065-.385.437c-.557.634-.92 1.358-.983 1.96-.095.916.038.87 2.19-.745 2.772-2.083 6.752-4.836 8.541-5.908l.524-.315-.586-.002c-.777-.003-2.95.241-4.348.49-1.467.26-4.814 1.016-5.369 1.213-1.502.533-6.42 3.932-10.263 7.093-1.152.947-1.83.885-1.927-.177-.035-.375.013-.574.243-1.027.3-.59.279-.65-.153-.424-1.083.568-1.572 2.046-1.094 3.305.108.283.196.75.196 1.037 0 .745.212 1.103 1.086 1.826 2.159 1.785 4.196 5.288 4.829 8.3.252 1.199.295 2.953.1 3.993-.387 2.05-1.423 4.047-2.985 5.752-.504.55-.767.737-1.674 1.19-1.331.666-1.726.975-2.304 1.8-.25.358-.486.688-.525.733-.196.229-1.01-.73-1.069-1.256-.063-.574.132-.682.856-.478.229.065.416.098.416.075 0-.106-.376-.624-.858-1.184l-.526-.61.21-.634c.117-.35.256-.662.31-.695.131-.081.722.5.869.853.064.154.161.28.216.28.167 0 .006-1.646-.227-2.326l-.212-.617.265-.727c.151-.413.322-.726.397-.726.182 0 .58.546.783 1.074.309.8.357.695.313-.684-.035-1.071-.087-1.447-.281-2.002-.214-.614-.23-.757-.15-1.393.067-.528.128-.708.238-.708.25 0 .758.452 1.091.972.175.271.339.493.365.493.085 0-.085-1.007-.274-1.619-.173-.563-.654-1.381-1.214-2.062-.229-.278-.521-1.17-.53-1.619-.007-.328.964-.162 1.608.275.2.136.39.224.419.194.03-.03-.116-.3-.324-.6-.442-.643-1.23-1.312-2.005-1.703-.496-.25-1.46-1.155-1.46-1.37 0-.175.281-.242 1.22-.288l.978-.05-.538-.318c-.68-.403-1.627-.702-2.442-.771-.492-.042-.74-.124-1.099-.362-.255-.169-.45-.35-.432-.405.061-.192.844-.546 1.437-.65.39-.07.557-.136.473-.187-.235-.146-1.393-.304-1.974-.27l-.57.033-.27.697c-.568 1.46-1.551 2.454-3.007 3.04-.369.147-.684.312-.701.366-.064.2.827.368 2.015.38.658.006 1.197.018 1.197.028 0 .081-1.436.926-1.856 1.091-.446.176-1.708.496-1.979.502-.391.01.597.613 1.441.88.215.069.43.148.48.176.177.102-.829.404-1.854.557-1.35.2-1.521.297-.652.37.812.068 1.33.267 1.748.671.23.224.36.281.52.231.32-.101.842-.598.98-.932.068-.163.142-.278.165-.255.1.1-.307.83-.671 1.202-.367.376-.393.437-.332.782.11.62.158.716.36.716.237 0 .9-.327 1.355-.668l.34-.255-.233.327c-.243.341-.975.858-1.35.952-.222.057-.35.362-.478 1.134l-.06.367.476-.003a4.2 4.2 0 0 0 1.356-.24c.158-.056.15-.03-.05.135-.249.208-.946.45-1.567.545-.292.044-.396.135-.67.587-.43.71-.431.842-.01.956.333.09 1.32.047 1.712-.075.107-.033.018.038-.197.158-.292.163-.6.229-1.221.26-.73.038-.865.074-1.112.3-.366.337-.842.986-.842 1.149 0 .206.757.352 1.639.316.793-.033.807-.03.493.113-.214.096-.676.15-1.35.16l-1.026.013-.455.559a8 8 0 0 0-.635.894c-.157.292-.161.347-.035.425.237.146 1.148.226 1.894.166l.696-.057-.537.2c-.387.145-.785.203-1.422.208l-.884.008-.314.408c-.382.498-.883 1.481-.92 1.806-.024.218.018.245.517.321.497.076 1.281-.01 2.436-.271.135-.03.007.057-.283.195-.66.313-1.568.53-2.219.532l-.5.002-.247.561c-.28.633-.56 1.794-.56 2.314 0 .29.04.355.254.41.398.099 1.682-.198 2.51-.58.414-.191.752-.328.752-.303 0 .024-.311.246-.692.492-.747.483-1.504.788-2.19.882-.382.053-.437.093-.5.364-.11.483-.06 2.11.084 2.699l.132.537.461-.016c.596-.02 1.486-.44 2.356-1.108l.676-.52-.285.376c-.462.606-1.499 1.401-2.127 1.63l-.575.21.06.517c.11.936.938 2.793 1.311 2.94.382.151 1.665-.763 2.32-1.652.509-.691.549-.663.14.1-.373.7-.993 1.427-1.479 1.734l-.377.238.235.462c.546 1.077 1.669 2.27 2.136 2.27.075 0 .243.116.374.258.472.516 1.82 1.443 2.694 1.854.95.447 2.498.943 3.307 1.059l.488.07-.308-.326c-.465-.493-1.063-1.476-1.364-2.241-.206-.526-.36-.756-.666-.99-1.131-.865-1.791-1.747-2.122-2.837-.165-.542-.194-.84-.156-1.567.04-.775.322-2 .434-1.888.02.02-.01.333-.067.694-.126.784.005 1.948.31 2.761.302.809.936 1.66 1.726 2.317.628.522.75.68 1.034 1.343.606 1.409 1.082 2.016 2.672 3.403l.612.535-.216.635c-.2.586-.217.823-.222 3.03l-.006 2.393-.324 1.074c-.506 1.679-.58 1.846-1.038 2.324-.737.769-1.042.858-2.448.711l-.684-.071-.454.375a6 6 0 0 1-.748.536c-.163.089-.37.274-.46.413-.206.313-.353.93-.28 1.17.049.157.079.143.231-.108.155-.254.933-.689 1.04-.58.022.02-.049.23-.156.467-.19.42-.263 1.066-.134 1.195.035.035.168-.088.295-.274.325-.48.57-.587 1.35-.592.376-.003.766-.043.866-.089.167-.077.172-.064.057.15-.138.257-.172 1.315-.047 1.432.043.04.1.011.128-.065s.19-.292.362-.48c.282-.308.368-.343.842-.35.422-.007.615-.069.967-.312.345-.237.588-.317 1.124-.371.738-.074 1.41-.388 1.65-.771.074-.118.158-.552.186-.964.055-.788.147-1.05.51-1.45.187-.205.229-.383.267-1.123.025-.484.122-1.1.215-1.368.36-1.034 1.468-3.255 1.95-3.908.557-.753.972-1.441 1.08-1.789.063-.206.027-.195-.432.134-.275.198-.526.335-.556.305s.15-.432.4-.892.544-1.09.651-1.398c.217-.626.39-1.782.265-1.782-.044 0-.08.039-.08.087 0 .174-.903 1.085-1.076 1.085-.21 0-.795-.764-1.084-1.418-.112-.253-.328-1.084-.48-1.845-.29-1.465-.548-2.306-.87-2.853-.315-.533-.054-.382.376.218.494.69.746 1.356 1.032 2.73q.378 1.817.875 2.284l.224.21.304-.256c.167-.141.468-.587.667-.99.41-.831.453-.809.572.299l.07.661.336-.063c.67-.125 1.446-.491 1.787-.842.28-.29.554-.424 1.451-.714 2.028-.656 3.276-.794 4.56-.504l.586.132-.928.011c-.98.012-2.362.257-3.172.563-.461.173-.493.21-.652.732-.227.745-.48 2.994-.386 3.415.124.547.264.728 1.141 1.475 1.309 1.114 1.688 1.39 2.625 1.907 1.048.578 1.274.842 1.274 1.483 0 .59-.42 1.25-1.491 2.347-.924.945-1.265 1.083-2.214.895-.533-.106-.681-.101-1.084.035a3.8 3.8 0 0 0-.72.33c-.14.095-.371.222-.513.283-.39.167-.759.715-.83 1.232-.061.451.053.615.228.328.128-.21.546-.459.77-.459.191 0 .204.04.16.502l-.048.501.378-.257c.441-.3.655-.315 1.328-.096.455.15.548.15 1.19.007.384-.086 1.269-.184 1.967-.22 1.721-.086 1.816-.15 2.248-1.511.303-.959.826-1.817 1.718-2.822.915-1.031 1.066-1.287 1.066-1.804 0-.427-.22-.707-.773-.988-.777-.393-1.19-.978-1.717-2.432a3 3 0 0 0-.464-.807c-.164-.186-.267-.394-.236-.475.03-.08.296-.33.59-.557l.534-.414-.15-.346c-.329-.766-.527-1.448-.817-2.818-.296-1.395-.663-2.441-.937-2.668-.074-.061-.134-.159-.134-.216 0-.058.157.046.348.231.495.478.877 1.348 1.215 2.762.161.674.408 1.547.548 1.94.383 1.076 2.071 4.265 2.507 4.738.38.413.846.627 1.677.774.212.038.667.196 1.013.353s1.292.46 2.104.672c1.64.431 1.892.583 2.244 1.36.28.618.348 2.199.128 2.955-.306 1.054-.842 1.451-1.91 1.415-.665-.022-.704-.01-1.008.297a5 5 0 0 1-.65.537c-.5.328-.697.656-.76 1.274-.061.59.042.723.254.328.235-.44.793-.642 1.356-.491.204.055.218.099.16.486-.035.234-.037.531-.005.66.057.228.068.224.486-.194.41-.41.448-.426.962-.403.457.02.61-.023 1.046-.294.28-.175.563-.318.626-.318.08 0 .116.244.116.777 0 .978.134 1.156.448.596.146-.258.316-.421.476-.456.69-.152.912-.273 1.185-.65.158-.22.447-.494.642-.612.654-.395.775-.997.425-2.113-.369-1.178-.52-2.62-.458-4.38.053-1.493.042-1.644-.144-2.03-.233-.487-.593-.706-1.156-.706-.808 0-1.55-.557-2.307-1.73-.551-.854-1.076-1.29-1.822-1.513-.43-.13-.438-.176-.167-1.16.63-2.29.774-4.048.453-5.513-.083-.375-.134-.698-.115-.717s.156.332.304.78c.24.728.27.963.276 2.183.003.753-.026 1.548-.066 1.768l-.072.4.414.123c1.315.39 3.052 1.578 5.144 3.52 4.54 4.215 5.98 5.32 8.532 6.549 2.351 1.131 4.143 1.52 6.62 1.435 1.877-.064 2.796-.276 4.201-.968.899-.444 1.142-.622 1.961-1.44.735-.733 1.023-1.105 1.346-1.735.994-1.94 1.127-4.035.394-6.23-.824-2.47-2.294-4-6.457-6.73-1.972-1.292-2.905-2.33-3.254-3.62-.224-.828-.165-1.96.14-2.66.255-.586.709-1.064.93-.98.27.105.53.67.598 1.303.036.34.096.619.133.619s.32-.544.631-1.208c1.472-3.155 2.735-4.357 6.216-5.915.392-.175-2.918-.056-3.81.138-1.829.397-3.902 1.275-5.032 2.13-.322.245-.894.76-1.27 1.147-.755.775-.791.727.365.487q.76-.157.758.15c0 .074-.215.454-.477.845-.263.391-.577.986-.697 1.322s-.253.61-.293.61c-.041 0-.151-.186-.245-.415l-.17-.415-.09.293c-.122.406-.028 1.15.25 1.957.332.967.401 1.414.22 1.414-.079 0-.28-.115-.448-.256s-.325-.237-.349-.213.07.273.21.552c.162.325.5.73.934 1.117.612.547 1.058 1.09 1.058 1.29 0 .042-.22.054-.489.028-.268-.026-.487-.02-.485.012.011.22 1.709 1.172 2.104 1.18.178.004.939.708.855.791-.044.043-.278.092-.52.11l-.44.03.442.265c.244.145.75.335 1.124.421.684.158 1.368.488 1.607.776.17.204.11.247-.452.333l-.473.072.494.255c.271.14.74.32 1.041.398.614.16.854.303 1.155.686.183.233.189.27.048.323-.087.034-.343.037-.57.007l-.41-.054.269.233c.148.128.541.392.875.588.692.405.81.536.94 1.046.124.483.014.533-.516.237l-.431-.24.097.258c.054.142.293.571.531.955.267.43.434.812.434.997 0 .326-.18.797-.305.797-.043 0-.2-.208-.35-.463l-.27-.463-.073.39c-.04.214-.047.7-.016 1.08l.056.689-.355.312c-.195.171-.392.311-.438.311-.13 0-.194-.371-.131-.764.055-.34.048-.351-.122-.213-.099.081-.367.436-.596.789-.52.804-.588.858-1.159.936-.456.062-.464.06-.395-.171.038-.129.175-.4.305-.601s.22-.366.199-.366c-.131 0-1.071.474-1.487.75-.482.32-.51.326-1.002.221-.278-.06-.505-.145-.505-.19s.209-.266.464-.49l.464-.408-.586.062a10 10 0 0 0-1.146.207c-.478.124-.606.126-.88.011-.175-.073-.377-.203-.448-.288-.109-.132-.094-.177.098-.302.125-.08.347-.176.495-.212s.269-.101.269-.144c0-.1-1.111-.292-1.698-.292-.478 0-.908-.166-1.133-.437-.19-.228-.019-.351.598-.432l.523-.068-.423-.221c-.233-.122-.804-.305-1.27-.406-.707-.154-.893-.236-1.126-.496-.338-.376-.241-.477.462-.479.432-.001.464-.016.342-.163-.183-.222-1.194-.69-1.659-.768-.273-.046-.462-.163-.669-.415-.159-.192-.266-.386-.238-.43.027-.045.297-.082.598-.082h.549l-.231-.245c-.298-.318-.906-.672-1.594-.93-.654-.244-1.117-.717-.927-.947.095-.114.244-.132.66-.083l.538.063-.288-.3c-.4-.418-.988-.743-1.7-.941-.448-.125-.683-.257-.901-.505-.39-.443-.267-.562.562-.541.588.014.626.003.49-.147-.302-.333-1.213-.8-1.872-.959-.733-.177-1.445-.633-1.395-.893.04-.207.522-.325 1.055-.259l.44.055-.294-.252c-.564-.485-1.714-.923-2.437-.93-.316-.002-1.03-.445-1.03-.638 0-.162.46-.345 1.094-.433l.517-.072-.466-.216c-.6-.279-1.625-.495-2.356-.497-.615-.002-1.232-.278-1.232-.552 0-.189.74-.52 1.167-.522.429-.003.298-.129-.337-.325a4.35 4.35 0 0 0-2.003-.174c-.53.07-.705.054-1.055-.098-.368-.158-.408-.205-.32-.37.11-.204.844-.599 1.113-.599.24 0 .201-.163-.055-.231-.409-.11-1.718-.063-2.351.084-.608.14-1.104.09-1.365-.142-.13-.116.317-.584.794-.833l.455-.237-.754-.004a4.5 4.5 0 0 0-1.514.238c-1.407.45-1.993.242-1.294-.457.164-.164.279-.317.256-.34-.1-.099-1.364.202-1.653.394-.482.319-.883 1.206-.952 2.107l-.057.74-.13-.44c-.608-2.079 1.657-4.816 5.12-6.184 2.159-.853 4.255-.95 6.349-.294 1.766.553 2.17.92 2.799 2.54l.33.85.03-.874c.015-.48-.018-1.141-.074-1.468-.205-1.182-.058-2.387.503-4.144.996-3.114 2.953-5.216 5.552-5.961.933-.268 2.622-.358 3.722-.2.993.142 2.437.607 2.964.954.214.14.819.673 1.345 1.184.928.9.953.917.82.541-.225-.64-.74-1.601-1.29-2.409-.598-.878-.832-1.448-1.219-2.967-.585-2.295-.636-4.295-.147-5.748.768-2.282 2.607-3.909 5.19-4.592 1.206-.319 2.415-.131 4.122.64.336.152.61.24.61.196 0-.131-.964-.91-1.921-1.55-.931-.623-1.255-.979-2.27-2.493-.718-1.07-1.625-2.91-1.862-3.777-.272-1-.271-2.333.003-3.148.365-1.083 1.207-2.031 2.223-2.501.696-.322 1.561-.329 3.034-.025.557.115 1.034.189 1.06.163s-.452-.291-1.062-.589c-1.816-.887-5.399-1.773-8.73-2.157-1.582-.183-5.267-.178-7.034.01m-8.745 9.58-1.465.136c-1.539.141-4.22.53-5.732.83-2.575.512-6.1 1.453-6.764 1.806-.436.231-1.077.772-.92.776.195.004 1.365-.28 3.043-.74 7.689-2.105 13.955-2.722 19.654-1.937 3.819.526 8.657 1.792 12.67 3.315.63.239 1.158.42 1.176.402.054-.054-1.512-.742-3.147-1.383-4.036-1.58-8.527-2.693-12.604-3.123-1.22-.129-4.895-.18-5.91-.082m-35.506 1.006c-.506 1.288-1.526 2.159-3.256 2.776-1.45.517-2.346 1.154-3.318 2.36-.365.454-.725.826-.799.826-.2.002-.092-.86.173-1.367.118-.227.193-.436.165-.463-.135-.135-1.315 1.253-1.7 1.999-.228.44-.462.831-.52.867-.17.106-.29-.175-.244-.57.024-.202.022-.367-.005-.367-.13 0-.472.52-.814 1.237-.415.874-.584 1.067-.584.67 0-.232-.063-.192-.733.465-.72.707-.733.727-.733 1.213 0 .456-.031.523-.416.878-.49.45-1.52 1.165-1.878 1.301-.221.084-.263.066-.346-.153a1.8 1.8 0 0 1-.098-.512l-.003-.262-.233.264c-.127.145-.326.513-.44.818-.114.306-.272.647-.35.76-.197.28-.195 1.801.002 2.273.16.386.704 1.112.832 1.112.045 0 .131-.149.19-.33.128-.386.33-.584.738-.72.249-.084.367-.057.794.183l.5.281-.05-.442c-.08-.713.311-1.024 1.525-1.211.895-.138 1.18-.284 1.935-.987.62-.577 1.26-.882 1.834-.873.282.004.272.016-.155.183-.709.277-1.025.551-1.623 1.41-.641.92-1.46 1.779-1.828 1.919-.187.071-.348.058-.604-.05a3 3 0 0 0-.4-.145c-.027 0-.023.2.01.443.057.41.043.45-.188.537-.324.123-.839.12-1.171-.006-.26-.099-.263-.096-.208.246.128.786.787 1.26 1.778 1.276.34.006.718.08.899.174.172.09.499.163.726.163h.414l-.256-.268a2 2 0 0 1-.358-.54c-.093-.244-.067-.305.262-.635.541-.54 1.543-1.177 2.111-1.34.276-.079.904-.189 1.396-.243.808-.09.94-.081 1.344.092.539.23 1.312.346 1.688.251l.274-.07-.293-.148c-.35-.179-1.027-.809-1.024-.953.002-.14.707-.715 1.023-.835.142-.054.486-.103.764-.11a5 5 0 0 0 .8-.082l.293-.072-.39-.17c-.63-.276-1.027-.62-1.027-.893 0-.282.169-.363 1.204-.578.71-.147 1.77-.527 1.692-.606-.024-.024-.366-.087-.761-.141-.758-.104-1.841-.522-1.841-.711 0-.151.406-.382 1.198-.68.943-.355 1.438-.671 2.049-1.312.449-.471 1.056-1.387.919-1.387-.022 0-.295.154-.607.342-.812.49-1.472.712-2.455.828a91 91 0 0 0-1.251.156l-.39.054.305-.204c.168-.111.428-.38.577-.595.502-.723 1.46-1.523 2.314-1.933l1.884-.899c.903-.43 1.184-.622 1.766-1.206 1.002-1.007 1.51-2.17 1.499-3.43l-.005-.587-.331.71c-.627 1.348-1.658 2.374-2.86 2.848-.274.108-1.053.353-1.731.544-1.637.461-2.18.72-3.859 1.847l-1.416.95.828-.795c1.025-.984 2.023-1.66 2.898-1.963.79-.274 1.528-.933 1.926-1.718.318-.629.505-1.626.388-2.07l-.087-.332zm21.095 3.264c-.296.07-.442.144-.37.19.065.04 1.12.228 2.344.416 5.936.912 9.984 2.048 15.169 4.257 3.734 1.59 8.025 4.658 12.051 8.614.636.624 1.141 1.096 1.124 1.049s-.42-.53-.897-1.07c-2.572-2.927-6.478-6.154-9.657-7.98-1.045-.599-3.598-1.733-5.609-2.49a56.5 56.5 0 0 0-8.782-2.521c-2.97-.592-4.33-.71-5.373-.465m-.538 1.438c.188.162.738.565 1.222.895 2.501 1.71 4.384 3.25 6.507 5.326 2.55 2.491 3.57 3.761 5.156 6.423 1.468 2.464 2.879 5.442 3.925 8.286.26.709.476 1.247.479 1.195.008-.173-.601-2.232-.926-3.13-1.126-3.111-2.819-6.49-4.464-8.912-1.967-2.897-6.198-6.958-9.794-9.401-1.148-.78-1.567-.975-2.105-.975h-.342zm-21.838 1.538a9 9 0 0 0-.873.787l-.485.5h.342c.788 0 2.308-.6 3.043-1.202l.267-.218-.706.002c-.389 0-.817-.034-.953-.077-.196-.062-.328-.018-.635.208m21.52.242c.177 1.45.603 3.066 1.864 7.054 1.363 4.309 1.722 6.103 1.355 6.764-.067.12-.406.423-.754.674-.637.46-1.776 1.575-4.833 4.735-1.83 1.892-2.738 2.657-4.1 3.459-.498.293-1.07.715-1.272.938-.416.46-.887 1.413-.984 1.993-.065.387-.063.385.249-.196.545-1.015.998-1.536 1.653-1.905 2.188-1.23 2.937-1.862 6.23-5.25 1.407-1.446 2.897-2.89 3.312-3.209 1.117-.855 1.166-.943 1.158-2.076-.009-1.35-.363-2.67-2.14-7.98-.828-2.471-1.535-4.659-1.571-4.86-.082-.455-.218-.57-.166-.141m-28.944 2.577c-.629.141-.86.283-1.314.807l-.492.568.464-.044c.745-.072.968-.198 1.148-.65.089-.223.23-.483.315-.577s.136-.165.114-.16zm-5.98 3.866c-.11.12-.234.327-.274.459l-.073.24.313-.264c.173-.145.354-.264.404-.264s.09-.088.09-.196c0-.259-.21-.247-.46.025m12.77 30.547c0 .5.545 1.901 1.117 2.873l.277.47-.395.849c-.458.982-.587 1.38-.99 3.042-.243.999-.378 1.348-.758 1.954a20 20 0 0 0-.778 1.364c-.436.868-.915 1.407-1.516 1.707-.592.295-.92.315-1.638.102-.473-.14-.55-.14-.922.008-.223.088-.493.24-.6.336a1.2 1.2 0 0 1-.457.236c-.55.13-1.054.725-1.205 1.424l-.072.336.312-.263c.172-.145.351-.263.398-.263s.06.22.028.489c-.04.334-.023.488.054.488.06 0 .11-.042.11-.094 0-.171.687-.785.878-.785.272 0 .311.128.196.641-.056.253-.081.48-.055.507.026.026.236-.115.467-.313.437-.374.525-.385 1.126-.14.261.105.389.105.733 0 .23-.071.791-.16 1.248-.2.718-.06.938-.126 1.628-.491l.797-.422.266.209c.146.115.361.209.478.209.302 0 .446.184.446.572 0 .33.004.333.192.164.289-.262.527-.97.461-1.374a1.6 1.6 0 0 0-.306-.644c-.302-.359-.315-.694-.053-1.359.297-.755.756-1.415 1.8-2.592a41 41 0 0 0 1.616-1.948c.367-.484.807-1.011.977-1.173.278-.262.98-1.303.98-1.452 0-.032-.157.016-.348.107-.475.226-.548.093-.512-.94l.029-.822-.88-.223c-1.67-.424-3.087-1.123-4.358-2.15-.597-.482-.77-.58-.77-.439"/></svg>