<svg xmlns="http://www.w3.org/2000/svg" viewBox="0 0 100 100"><path fill="#fff" d="M66.754 6.204c-.06.107-.406.393-.77.635-.74.493-.876.74-.773 1.423.077.515.167.547.325.116.064-.175.227-.45.362-.61l.245-.294-.243.537c-.308.68-.313.814-.026.732.3-.087.659-.351.881-.65.22-.294.328-1.247.198-1.742-.083-.315-.098-.327-.199-.147m4.958.036c-.216.055-.248.121-.278.582-.029.436.002.56.188.758.226.241.709.322.823.138.033-.053-.027-.097-.134-.097-.263 0-.502-.257-.502-.538 0-.502.544-.689 1.083-.37.365.215.564.647.642 1.388.06.578.055.594-.172.602a2.3 2.3 0 0 0-.576.132c-.33.12-.361.11-.965-.318-.979-.696-1.62-.792-2.552-.381-.892.394-2.452.944-2.976 1.05-.436.088-.664.2-.904.439-.36.36-.401.643-.174 1.186l.146.35-.38.38c-.41.41-.684.472-.942.214-.245-.245-.14-.833.332-1.858.448-.972.503-1.439.247-2.079-.166-.415-.274-.488-.367-.246-.094.246-.2.166-.39-.296-.186-.453-.501-.735-.574-.515-.027.08-.152.046-.394-.103-.36-.223-1.342-.441-1.342-.299 0 .043.048.107.106.143.089.055.48.854.48.98 0 .023-.066.04-.146.04a.15.15 0 0 0-.147.15c0 .275.276.816.481.944.272.17.256.275-.041.275-.143 0-.245.056-.245.135 0 .165.732.842.91.842.07 0 .228.093.35.207.202.188.216.261.154.806-.037.33-.08.611-.093.627-.014.015-.24-.104-.502-.266a4.5 4.5 0 0 0-1.014-.437l-.537-.143.44-.004c.241-.002.626.08.854.184.247.112.415.146.415.083 0-.248-.438-.785-.787-.963-.452-.23-.58-.24-.58-.045 0 .173.031.17-.39.049-.394-.113-.72-.04-.65.146.03.077-.044.152-.186.188-.261.065-.924.608-.924.757 0 .052.087.066.193.033.109-.035.391.027.648.14.25.11.586.2.747.2.255 0 .276.02.165.155-.27.325.34.435 1.032.185.567-.204.69-.182 1.117.205.464.419.948.576 1.328.432.148-.056.293-.078.322-.049.03.03.009.472-.046.982-.082.752-.144.973-.33 1.17-.325.346-.806.329-1.178-.043-.463-.463-.365-1.18.162-1.18.323 0 .5.26.346.506-.173.278-.067.331.176.089.255-.256.256-.404 0-.728-.149-.19-.29-.258-.543-.258-.45 0-.667.127-.81.472-.11.265-.147.281-.543.237-.363-.041-.463-.011-.678.203-.293.293-.343.845-.095 1.05.134.112.153.103.135-.061-.06-.548.142-.826.6-.826.224 0 .328.07.457.306.445.818.92 1.16 1.612 1.16.505 0 .978-.28 1.312-.774.196-.292.222-.305.222-.112 0 .246.232 1.264.461 2.028.1.332.132.67.092.977-.055.427-.047.452.083.282.228-.3.266-.754.103-1.229l-.15-.44.245.293c.305.366.573 1.246.496 1.631-.185.924-.793 1.47-1.652 1.481q-.922.013-1.412-.713c-.44-.654-.196-1.57.458-1.713.632-.14 1.233.537 1.008 1.134-.133.353.078.396.311.064.273-.39.195-.838-.219-1.252-.484-.483-.919-.572-1.516-.308-.525.233-.758.553-.823 1.132-.094.835.416 1.678 1.234 2.04.483.214.505.183-.498.718-.543.29-.693.425-.868.787-.242.5-.22 1.107.065 1.754l.166.378.076-.342c.048-.216.22-.47.464-.684.497-.44.62-.688.593-1.205-.012-.23.013-.476.056-.545.088-.142 1.241-.71 1.308-.644.024.023-.04.16-.141.302-.438.618-.525.787-.526 1.022 0 .258.455 1.267.57 1.262.105-.004.605-1.199.603-1.443a1.4 1.4 0 0 0-.148-.508c-.19-.368-.069-.631.472-1.028.762-.559 1.103-1.331 1.016-2.3-.056-.616-.254-1.05-.95-2.075-.266-.392-.55-.903-.633-1.136-.17-.481-.197-1.734-.05-2.266.096-.345.114-.356.639-.4.79-.065 1.252-.426 1.758-1.375.222-.417.525-.885.673-1.04.307-.32.951-.522 1.264-.396.178.072.16.085-.122.09-.47.01-1.186.497-1.184.806 0 .017.253.036.563.041.612.011 1.01.175 1.635.672.215.171.553.409.751.527l.36.216-.14.4c-.25.71-.185 1.25.25 2.071.825 1.558.421 2.525-1.446 3.459-1.069.535-1.384.802-2.136 1.813-.896 1.203-1.082 1.918-.767 2.956.191.628.18.655-.07.186-.143-.265-.228-.642-.265-1.172l-.054-.782-.312.635c-.64 1.308-.543 2.03.49 3.614 1.758 2.7 1.768 2.72 1.808 3.427.025.437-.009.738-.102.916-.132.252-.137.237-.098-.307.03-.408-.008-.684-.13-.96l-.173-.388-.08.57c-.045.322-.269.984-.513 1.517-.238.52-.467 1.12-.507 1.334l-.074.39-.077-.286c-.043-.156-.031-.794.026-1.416.206-2.246.205-2.219.042-2.535-.221-.428-.495-.66-1.297-1.103-.387-.214-.837-.54-.999-.724-.162-.185-.314-.336-.337-.336s-.096.311-.16.691c-.26 1.546.216 2.579 1.488 3.226.308.156.588.284.624.284.104 0-.051-.776-.222-1.11a5 5 0 0 0-.457-.689c-.297-.378-.298-.38-.042-.212.355.232.739.755.91 1.24.145.412.172 1.266.056 1.797l-.064.293-.193-.234c-.978-1.183-.984-1.186-2.432-1.157-.622.013-1.131.052-1.132.088-.002.202.827 1.063 1.196 1.242.514.249.75.257 1.445.051.527-.156.527-.156.735.086.115.133.26.506.324.83a2.7 2.7 0 0 0 .42 1.006c.27.375.504.836.711 1.41.054.148.123.019.286-.543.308-1.056.576-1.453 1.974-2.93 1.877-1.983 2.098-2.605 1.493-4.213-.282-.749-.375-.88-1.162-1.645-.606-.588-.875-.923-.922-1.147-.037-.175-.106-.318-.154-.318-.107 0-.387.92-.387 1.276 0 .423.115.875.208.817.047-.029.086.013.086.094 0 .181.449.718.531.635.033-.032.015-.178-.04-.323-.23-.606-.008-.878.433-.53.466.366.852 1.502.63 1.853-.059.092-.087.026-.09-.207-.004-.422-.287-1.058-.586-1.32l-.224-.194.08.293c.114.427.111.757-.008.798-.194.067-.774-.412-1.004-.83-.176-.318-.23-.57-.232-1.071-.003-.647.044-.807.824-2.794.285-.725.886-1.073 1.45-.84.361.15.362.248.003.433-.873.452-1.118 1.756-.432 2.296.354.278.913.266 1.188-.026.374-.398.224-1.142-.23-1.142-.27 0-.324.143-.089.234.198.075.15.54-.07.678-.118.074-.228.057-.415-.066-.544-.356-.192-1.38.555-1.615.173-.055.504-.148.735-.207.232-.06.595-.265.806-.457l.386-.348v.357c0 .5-.207.937-.611 1.293-.408.358-.564.62-.555.931l.006.226.106-.219c.058-.12.348-.402.644-.625l.538-.407-.06.51c-.033.28-.176.843-.317 1.253-.29.837-.273 1.114.1 1.663.136.199.246.497.246.663 0 .202.09.387.274.563.387.37.46.326.17-.102-.285-.418-.306-.596-.105-.862.167-.22.2-.574.046-.479-.057.035-.189-.013-.293-.107-.236-.213-.247-.716-.03-1.286l.16-.418.215.22c.118.12.352.335.521.477.283.237.31.243.364.077a.56.56 0 0 0-.046-.373 1.2 1.2 0 0 1-.103-.477c0-.262-.249-.608-.437-.608-.043 0-.137-.077-.209-.171-.097-.128-.13-.65-.133-2.097-.003-1.814.008-1.932.188-2.029.156-.083.212-.064.3.1.083.154.07.317-.056.696-.32.962-.067 1.734.765 2.337.483.35.588.358.441.036-.09-.199-.078-.386.064-.93.166-.641.167-.707.014-1.107-.104-.273-.335-.571-.647-.834-.267-.225-.486-.444-.486-.485 0-.138.49-.303.894-.303.34 0 1.124.262 1.039.347-.016.016-.209-.02-.429-.078s-.473-.078-.564-.043c-.15.058-.152.088-.017.35.211.408.616.694.982.694.173 0 .471.106.662.235l.348.236.06-.243c.034-.134.01-.404-.052-.602-.303-.959-.705-1.287-1.574-1.287h-.577l.244-.32c.316-.414.466-1.082.354-1.578-.133-.587-.407-.897-1.222-1.377-.159-.094-.16-.123-.007-.487.296-.71 1.002-1.23 1.639-1.21l.32.01-.292.07c-.511.123-1.221.589-1.221.8 0 .042.242.153.539.246.656.207 1.087.11 1.05-.238-.02-.184.024-.215.305-.215.227 0 .372-.064.467-.207.083-.127.289-.233.524-.271l.388-.064-.538-.395c-.67-.493-.795-.54-1.167-.432-.242.069-.298.056-.298-.067 0-.121-.074-.14-.356-.095-.452.073-.763.364-1.116 1.042-.487.938-.49.934-.421-.446.092-1.837-.024-2.132-1.211-3.088-.132-.106-.227-.331-.268-.635-.207-1.533-.928-2.124-2.197-1.803m5.129 1.254c-.384.196-.795.585-1.044.987-.168.271-.19.414-.134.88.098.807.1 1.022.008 1.226-.066.15-.004.133.35-.092 1.027-.655 1.251-1.077 1.076-2.024-.07-.377-.071-.644-.006-.817.125-.327.104-.34-.25-.16m-13.419.958c.23.492.321.845.355 1.378.056.864.216.862.216-.001 0-.488-.06-.736-.295-1.206-.414-.829-.653-.977-.276-.171m9.73.8c-.25.065-.211.148.197.42.201.135.575.437.83.673l.464.429v-.331c-.001-.775-.761-1.382-1.49-1.192m-7.345.77a.54.54 0 0 0-.154.312c0 .118.074.087.293-.123.162-.155.294-.295.294-.312 0-.094-.302-.008-.433.123m1.605.249c-.405.242-.782.576-.782.691 0 .174.553-.056.867-.361.424-.411.374-.606-.085-.33m1.828 1.007c-1.31.352-2.034 1.8-1.61 3.22.073.246.31.599.61.907.89.914 2.091 1.04 3.128.326.242-.166.44-.339.44-.382 0-.044-.194-.035-.432.02-1.205.275-2.404-.765-2.398-2.08.003-.756.651-1.601 1.43-1.866l.375-.128-.293-.067c-.444-.1-.735-.089-1.25.05m3.49.585c-.116.464.015 1.11.302 1.486.15.196.355.515.457.71l.186.353-.053-.468c-.054-.482-.584-2.102-.739-2.258-.05-.05-.114.023-.153.177M46.925 13.33c-1.485.339-2.701 1.203-4.509 3.202-1.224 1.355-1.653 1.685-2.327 1.793-.829.132-.81.392.063.849.752.393 1.449.374 2.403-.067.5-.232.726-.296.726-.206 0 .294-.437 1.527-.842 2.375-.256.536-.63 1.123-.916 1.44-.774.853-1.01 1.267-1.01 1.767 0 .65.26.947.855.982.553.032.999.166 1.667.501.628.315 1.253.71 1.202.76-.021.02-.39-.114-.821-.3-1.286-.555-2.3-.588-3.406-.109-.368.16-.832.517-.832.64 0 .032.385.06.855.062.9.005 1.008.036 3.102.874 1.107.443.572.377-.968-.12-.93-.299-1.224-.35-2.063-.358-.92-.01-1.019.01-1.634.312-1.033.509-1.54 1.25-1.883 2.755-.092.403-.514 2.126-.937 3.828s-.771 3.147-.771 3.21c0 .065.165-.032.366-.214.568-.512 3.346-2.417 3.346-2.293 0 .02-.526.463-1.17.984-2.421 1.958-3.528 3.245-3.908 4.544-.103.352-.324 1.76-.491 3.13-.585 4.801-1.346 8.162-2.87 12.68-.978 2.903-1.91 5.055-4.097 9.45-2.811 5.653-3.451 7.115-3.816 8.72-.201.885-.203 2.258-.004 3.228.165.805.928 2.878.99 2.69a31 31 0 0 0 .214-.731l.177-.62.072.897c.04.494.048.937.018.985-.09.147.111 1.765.286 2.29.281.847 1.258 2.193 2.458 3.385.613.61 1.137 1.087 1.163 1.06s-.017-.393-.097-.815c-.218-1.162-.372-2.916-.337-3.845l.03-.83.41-.03c.538-.04 1.024.215 1.949 1.021.403.352.744.624.76.606.194-.25 1.892-4.879 2.897-7.9.474-1.423.864-2.547.867-2.496.008.133-.801 3.125-1.415 5.233a99 99 0 0 1-1.954 5.95l-.47 1.311.641.609c.69.654 1.575 1.191 2.395 1.456.564.182.71.147.712-.173.003-.448.132-.468.638-.102.823.596 1.23.738 1.901.662.57-.065.586-.06.585.166 0 .128-.108.463-.24.745-.218.468-.226.54-.103.834.128.308.107.393-.445 1.823-.674 1.746-.708 2.053-.277 2.457.828.772 3.862.991 5.144.37.434-.21.806-.666.807-.988 0-.093-.15-.608-.335-1.144-.442-1.285-.498-1.702-.3-2.252.134-.376.14-.528.038-1.038-.167-.849-.112-.94.522-.858.283.037.92.19 1.416.341 1.416.433 2.28.578 3.436.578 1.18 0 2.208-.178 2.89-.498.546-.257.574-.3.636-.968l.05-.537.513-.17c.282-.094.75-.198 1.04-.232l.527-.062.067.399c.05.294.024.472-.098.679-.15.253-.152.308-.02.566.133.257.13.352-.028.953-.234.897-.34 2.136-.203 2.39.198.371 1.817.712 3.283.69.534-.007.923.067 1.78.34 1.932.618 4.255.719 5.637.247.833-.285.93-.417.682-.925-.233-.477-.783-.788-2.214-1.25-.964-.312-1.133-.405-2.051-1.139-.55-.439-1.19-.976-1.422-1.193-.39-.365-.417-.422-.36-.76.053-.313.025-.4-.196-.606-.201-.186-.252-.314-.227-.571l.032-.332 1.089.033c1.183.035 1.726-.108 2.13-.562.189-.213.189-.224-.027-1.456-.565-3.21-1.693-12.25-1.547-12.395.022-.022.092.324.156.77.462 3.25 1.23 7.777 1.697 9.99.12.565.136.587.498.673.485.115 1.605-.067 2.26-.366.666-.304 1.131-.731 1.595-1.465.213-.338.522-.727.686-.866.277-.232.957-.528 1.035-.449.019.019-.011.276-.066.572-.167.898-.036 1.985.4 3.332.538 1.656.694 2.37.678 3.116-.007.35-.03.503-.05.342a13.4 13.4 0 0 0-.725-2.873c-.214-.57-.41-1.097-.436-1.171-.142-.409-.138.147.01 1.52.205 1.894.153 2.981-.249 5.26-.373 2.119-.374 2.327-.007 2.694.364.364.765.375 1.172.032.294-.247.301-.272.301-1.116 0-1.02.117-1.959.444-3.576.31-1.532.307-2.48-.013-4.092-.306-1.538-.281-2.193.153-3.957.166-.672.329-1.57.363-1.996.094-1.18.256-.564.198.751l-.047 1.052.257.054c1.06.226 1.608.63 1.822 1.343.182.612.5 2.4.593 3.337l.068.68.378-.436c.473-.548 1.096-1.802 1.308-2.635.211-.831.214-2.485.005-3.29-.246-.946-1.125-3.123-2.165-5.359a316 316 0 0 1-1.516-3.31c-.529-1.18-.567-1.238-.617-.927-.261 1.606-.462 3.946-.402 4.68l.044.536-.15-.684c-.282-1.277-.084-3.96.595-8.06.182-1.102.358-2.355.39-2.785s.106-1.08.163-1.447c.057-.366.083-.685.06-.71-.076-.075-.887.617-1.171.998-.15.2-.271.319-.271.263 0-.217.59-.892 1.297-1.482.795-.663 1.347-1.387 1.539-2.018.174-.575.255-.601.323-.105.11.806-.204 1.856-.827 2.76-.427.622-.465 1.103-.144 1.864.307.73.313.925.052 1.782-.178.587-.187.714-.077 1.09l.126.425.065-.635c.064-.628.46-1.856.6-1.856.038 0 .097.12.13.268.115.523.202.746.304.78.058.019.09-.064.072-.19-.12-.843-.175-.996-.482-1.336-.656-.725-.69-1.207-.147-2.047.214-.331.408-.602.432-.602s.31.177.636.393c.598.397.71.58.732 1.187.014.401.128.338.204-.112.1-.585-.09-1.03-.583-1.368-.524-.361-.625-.653-.494-1.435l.1-.603.313.132c.251.106.34.225.45.603.136.462.14.465.201.177.103-.48-.058-.844-.518-1.168-.357-.251-.455-.397-.63-.938a8.5 8.5 0 0 0-.616-1.345c-.561-.97-.812-1.688-.891-2.547l-.067-.73-.27.409c-.37.56-.645 1.28-.865 2.265l-.186.83.04-.83c.049-1.057.307-1.821 1.04-3.075.314-.539.802-1.573 1.085-2.299.5-1.287.513-1.343.517-2.345l.004-1.025-.597-1.515c-.698-1.773-.896-2.423-.999-3.273-.08-.673.018-.795.122-.15.034.216.16.646.277.955l.215.563.07-.44c.039-.241.076-.769.083-1.172.023-1.319.072-1.443.685-1.741.47-.229.545-.305.592-.604.03-.188.134-.462.23-.61a.74.74 0 0 0 .115-.601 1.1 1.1 0 0 1 .105-.685c.163-.343.162-.358-.06-.66-.2-.27-.215-.345-.116-.617.061-.17.111-.379.111-.464 0-.216-.554-.662-.821-.662-.122 0-.244-.023-.272-.05-.095-.096.126-1.035.317-1.349.134-.22.19-.49.19-.925 0-1.059.533-1.753 1.421-1.853.377-.042.46-.013.724.25.377.377.398.807.058 1.147-.291.292-.387.298-.642.043-.157-.157-.176-.238-.094-.391.057-.106.146-.193.198-.193a.096.096 0 0 0 .094-.098c0-.166-.45-.108-.62.081-.189.208-.208.682-.037.904.502.654 1.6.353 1.83-.502a1.395 1.395 0 0 0-1.637-1.747q-.316.066-.316-.043c.003-.223.157-.332.687-.484.839-.243 1.231-.795 1.332-1.875.06-.651-.016-.784-.273-.474-.072.088-.442.301-.821.474-.828.377-.992.6-1.122 1.519-.112.786-.252 1.103-.655 1.487l-.282.267-.119-.444c-.139-.52-.26-.499-.35.06-.035.22-.224.716-.42 1.101-.195.386-.457.988-.582 1.337-.124.35-.227.575-.228.502-.005-.325.334-1.373.641-1.984.356-.707.86-2.314.806-2.569-.035-.164-1.294 1.22-1.766 1.942-.38.581-.66 1.768-.66 2.796v.851l-.386.062c-.212.034-.494.16-.627.281-.223.203-.633 1.235-.79 1.99-.054.261-.15.342-.669.562-.67.284-.854.31-1.02.144-.184-.183-.564.141-.842.72-.393.819-.717 2.851-.76 4.766-.013.572-.023.537-.097-.342-.118-1.413.05-3.206.4-4.25.153-.457.27-.839.26-.849-.065-.07-.992.45-1.472.827-.585.459-.613.435-.181-.15.171-.231.2-.329.108-.358-.906-.282-1.642-.043-2.83.92l-.421.343.234-.342c.128-.188.37-.49.535-.672l.302-.33-.523.058c-.288.032-.679.15-.868.26-.468.277-.506.186-.052-.127.501-.344.84-.46 1.352-.46.472 0 .499-.045.3-.515-.17-.406-.813-.983-2.31-2.073-1.282-.935-2.461-1.99-3.147-2.814-.386-.463-.345-.44.51.305 1.304 1.135 3.755 2.84 3.89 2.706.025-.025-.198-.453-.494-.952-.945-1.59-1.674-3.211-1.98-4.41a8.6 8.6 0 0 0-.491-1.297c-.377-.783-.789-1.192-1.813-1.804l-.644-.384-.754.344c-1.013.462-1.137.431-.298-.073 1.082-.65 1.324-.855 1.518-1.284.272-.599.23-.91-.257-1.912-.493-1.013-.827-1.932-.826-2.271.001-.183.045-.15.246.185.234.39.765.813 1.02.813.067 0-.014-.154-.18-.343a4 4 0 0 1-.448-.626c-.212-.41-.56-1.734-.522-1.988.028-.187.071-.153.302.235.193.322.289.646.334 1.123l.063.671.14-.342c.243-.592.116-1.582-.312-2.428-.2-.395-.338-.743-.308-.773.112-.112.8.738.935 1.156l.14.433.034-.322c.055-.523-.237-1.211-.765-1.804-.27-.302-.556-.71-.638-.906-.16-.383-.147-.383.374-.023.386.267.347.03-.084-.511-.52-.652-.778-1.157-.908-1.772-.064-.303-.193-.62-.287-.705-.097-.088-.57-.216-1.095-.297a24 24 0 0 1-1.754-.35c-1.079-.27-2.498-.336-3.293-.155m28.467 1.5c-.093.88-.334 1.443-.867 2.027-.268.293-.448.534-.398.534s.32-.069.602-.152c.84-.25 1.575-1.067 1.575-1.754 0-.395-.286-.919-.586-1.074l-.267-.138zM51 14.82c-.47.228-.927.552-1.278.902-.553.553-.686.79-1.926 3.428-.265.564-.77 1.5-1.124 2.079-.776 1.27-1.046 1.956-1.046 2.655 0 1.04.516 1.734 1.856 2.497.403.23.82.488.927.574.183.15.186.148.052-.023-.077-.1-.406-.359-.73-.576-1.177-.785-1.59-1.344-1.687-2.279-.075-.73.132-1.282 1.063-2.84a26 26 0 0 0 1.306-2.519c.82-1.901 1.102-2.399 1.694-2.982a7 7 0 0 1 1.183-.909c.804-.465.66-.469-.29-.007m22.352 3.784c-.445.237-.993.533-1.218.658l-.408.227.408.151c.29.107.408.206.408.343 0 .163.065.192.418.184.509-.01.924-.361 1.137-.96.192-.545.267-1.034.157-1.034-.05 0-.456.194-.902.431m-3.057-.05a2.5 2.5 0 0 0-.684.507c-.161.18-.216.267-.121.195.094-.072.49-.3.88-.507.711-.378.653-.532-.075-.195m-.878 6.849c.048.08.272.4.5.709.726.99.896 1.996.474 2.812-.088.17-.137.33-.11.357.08.079.518-.862.592-1.27.088-.48-.144-1.289-.497-1.734-.3-.378-1.094-1.102-.959-.874m-23.975 6.7c-.98.977-2.288 1.98-4.897 3.758-4.02 2.738-5.205 3.905-6.21 6.112-.335.733-.872 2.369-.801 2.44.022.02.162-.28.311-.668 1.074-2.795 2.543-4.39 7.042-7.646 2.055-1.487 3.091-2.332 4.177-3.406.755-.746 1.3-1.384 1.127-1.32a23 23 0 0 0-.75.73m21.997 9.475-.707.344.06 1.73c.125 3.536-.286 8.499-.858 10.353-.215.696-.323.741-.976.408-.218-.111-.423-.176-.455-.143-.099.099.755 4.196 1.263 6.06.263.968.707 2.44.986 3.274l.508 1.514.12-1.302c.067-.716.212-1.659.322-2.095.165-.65.2-1.099.2-2.508-.001-1.708-.07-2.742-.184-2.74-.033 0-.159.145-.28.323-.26.383-.278.804-.058 1.423.189.532.127 1.053-.165 1.396l-.193.227.098-.275c.155-.434.117-.789-.145-1.352-.357-.768-.323-1.081.22-1.99.45-.756.462-.798.42-1.414-.12-1.742-.073-2.263.287-3.165.225-.563.504-1.046.814-1.41.941-1.106 1.202-2.082.801-2.997-.18-.414-.196-.405-.292.17-.046.275-.133.404-.35.516l-.289.15v-1.118c0-.842-.047-1.27-.194-1.737-.232-.742-.238-.983-.05-2.378.19-1.431.188-1.612-.024-1.61-.094 0-.49.157-.879.346m1.446 1.906c-.01.487.31 1.323.875 2.29.66 1.125.94 1.792 1.13 2.686l.135.635-.034-.781c-.042-.96-.249-1.527-1.056-2.887-.333-.562-.705-1.285-.826-1.608-.155-.413-.22-.512-.224-.335m.357 4.39c-.212.67-.286.788-.519.822-.185.027-.319.455-.322 1.034-.002.23.02.22.379-.177.447-.494.71-1.205.665-1.795l-.032-.421zm.657 1.636c.173.707.164 1.343-.024 1.686-.214.392-.598.647-.835.557-.227-.088-.205-.571.038-.832.239-.257.43-.28.348-.043-.048.139-.031.135.09-.022.166-.215.157-.454-.02-.513-.064-.02-.294.123-.513.32-.361.327-.398.404-.398.835 0 .42.032.49.271.614.927.48 1.881-1.326 1.301-2.463-.238-.467-.354-.53-.258-.139m-.064 6.986c-.038 1.125.089 2.907.207 2.907.125 0 .382-.644.504-1.264.094-.479.093-.689-.004-1.013-.115-.386-.56-1.24-.647-1.24-.022 0-.049.274-.06.61m-38.023 2.516c-.226 1.723-1.28 6.295-1.973 8.559-1.268 4.138-1.881 6.491-2.226 8.538-.372 2.203-.412 2.972-.071 1.364.337-1.595.877-3.56 1.716-6.249 1.19-3.813 1.709-5.88 2.155-8.586.306-1.863.562-3.886.51-4.041-.022-.067-.072.12-.111.415"/></svg>