<svg xmlns="http://www.w3.org/2000/svg" viewBox="0 0 100 100"><path fill="#fff" d="M49.855 16.927c-.111.244-3.262 5.576-8.962 15.167l-.697 1.173-9.937.025c-6.285.015-9.937.06-9.937.119 0 .051 1.171 2.063 2.603 4.469s3.439 5.782 4.46 7.502 2.047 3.438 2.28 3.818c.235.38.427.745.427.81s-1.04 1.864-2.31 3.997a4682 4682 0 0 0-7.053 11.867l-.501.854 9.97.025 9.97.025 4.59 7.718c2.524 4.245 4.73 7.971 4.9 8.28.172.31.335.56.363.558s2.265-3.74 4.973-8.304l4.922-8.3 9.95-.025 9.948-.025-2.181-3.664c-6.43-10.8-7.68-12.915-7.68-12.994s1.065-1.883 7.534-12.75l2.326-3.907-9.974-.05-9.975-.048-1.193-2.003c-3.631-6.093-5.265-8.85-6.844-11.548-.966-1.65-1.782-3.002-1.813-3.005-.032-.002-.103.095-.159.216m-1.323 13.836c-.792 1.336-1.44 2.456-1.44 2.49s1.336.063 2.969.063h2.97l-1.092-1.832c-.6-1.008-1.264-2.129-1.476-2.492-.21-.362-.407-.659-.436-.658-.03 0-.702 1.094-1.495 2.43m-17.854 8.555c0 .023.17.32.378.66.207.338.852 1.418 1.431 2.398s1.08 1.783 1.112 1.783c.068 0 2.779-4.562 2.826-4.755.026-.106-.504-.13-2.858-.13-1.589 0-2.89.02-2.89.044m11.419 2.18c-.73 1.221-2.17 3.638-3.2 5.37l-1.871 3.147 1.209 2.03 3.201 5.377 1.993 3.346h13.199l3.2-5.376 3.2-5.376-1.582-2.66c-.87-1.463-2.313-3.88-3.205-5.37l-1.622-2.712H43.424zm21.524-2.095c.049.198 2.759 4.749 2.83 4.753.053.004 2.797-4.536 2.9-4.798.019-.046-1.27-.083-2.864-.083-2.336 0-2.892.025-2.866.128M32.105 58.285c-.785 1.32-1.427 2.42-1.427 2.443s1.297.041 2.882.041c1.99 0 2.882-.032 2.882-.105 0-.136-2.764-4.775-2.847-4.777-.035-.002-.705 1.078-1.49 2.398m32.914-.086c-.752 1.271-1.382 2.37-1.399 2.441-.026.105.51.13 2.858.13 1.589 0 2.889-.026 2.889-.057 0-.105-2.856-4.829-2.918-4.827-.034 0-.677 1.042-1.43 2.313M48.491 69.22c.816 1.37 1.506 2.492 1.534 2.492s.61-.934 1.293-2.076 1.355-2.263 1.493-2.492l.251-.415H47.01z"/></svg>