<svg xmlns="http://www.w3.org/2000/svg" viewBox="0 0 100 100"><path fill="#fff" d="M41.163 9.208c-1.431 2.02-1.345 1.83-3.988 8.769a4434 4434 0 0 1-2.296 6.008c-2.535 6.617-3.4 8.892-4.02 10.574-.357.966-.674 1.684-.746 1.685-.21.004-1.31-.582-1.85-.985-.279-.209-.545-.38-.59-.38-.125 0-.903.823-.903.955 0 .115 1.17.702 2.613 1.313.722.305.754.334.649.608-.049.126-.151.144-.533.094-.836-.111-1.205.125-1.187.758.005.184-.052.288-.181.329-.254.08-.417.409-.402.808.007.18-.054.43-.135.554-.087.132-.143.422-.136.7.006.262-.02.622-.057.801-.064.3-.032.361.431.796l.501.47-.266.858c-.215.695-.317.887-.539 1.011-.15.085-.365.344-.478.575-.197.405-.199.437-.042.847.561 1.47 2.749.69 2.214-.79-.104-.286-.083-.398.187-1.034.167-.393.337-.748.378-.79.099-.099 1.093.123 1.29.29.085.071.415.256.733.41.672.327 2.845 1.746 3.404 2.224.42.358.721.408 1.073.178.21-.138.288-.13.95.09.573.193.738.293.812.493.087.236.13.25.781.253.38 0 .985.044 1.345.096.815.118.962.064 1.75-.64.342-.304.789-.638.993-.742.347-.178.366-.211.308-.525-.056-.298-.026-.366.264-.605.18-.148.619-.546.974-.884l.646-.616.12.76c.128.805.685 3.035.921 3.69.078.216.106.436.063.49-.044.053-.096.449-.116.879-.036.775-.042.789-.649 1.687-.473.7-.591.943-.52 1.07.068.122.022.268-.176.56-.695 1.022-3.914 6.992-3.914 7.258 0 .056.098.127.22.157.12.03.298.113.394.183.164.12.132.225-.5 1.645-.372.835-.86 2.045-1.085 2.69-.523 1.496-.499 1.46-.873 1.329-.166-.058-.322-.072-.347-.032s-.076.312-.114.605c-.038.292-.203.861-.367 1.264-.254.624-.3.863-.303 1.612-.004.82.02.933.363 1.654.202.426.477.918.61 1.093.284.372.305.589.08.838-.153.168-.15.257.052 1.375.118.658.24 1.437.272 1.733.072.667.236.941.616 1.025.163.035.319.102.347.148.092.15.816 3.636.936 4.512.11.8.105.884-.104 1.441-.178.478-.198.62-.1.738.1.121.001.268-.6.89-1.028 1.065-1.73 1.573-2.857 2.067l-1.379.607c-.599.267-.843.586-.862 1.129-.017.453-.01.464.362.595.565.199 2.43.349 3.431.276 1.24-.091 2.041-.273 3.177-.723.914-.363 1.017-.383 1.397-.282.489.131 2-.09 2.59-.377l.359-.176-.008-1.033c-.006-.87-.051-1.16-.284-1.828-.226-.649-.259-.853-.182-1.116.078-.266.052-.413-.155-.859-.233-.502-.25-.63-.24-1.954.005-.849.093-2.043.219-2.98.115-.86.21-1.715.21-1.9 0-.255.085-.425.341-.687l.34-.35-.336-1.267c-.542-2.035-.579-2.139-.802-2.238-.122-.055-.256-.256-.325-.489a2.7 2.7 0 0 0-.294-.642c-.15-.211-.156-.273-.043-.427.077-.105.131-.423.13-.757l-.003-.576 1.046-1.098c1.136-1.192 2.62-2.994 3.466-4.21l.535-.768.576.06c.317.032.976.06 1.466.06h.889l.486.998c.69 1.412 1.96 3.676 2.776 4.943.415.646.695 1.186.695 1.34 0 .407 1.029 2.421 1.44 2.82.348.339.362.378.373 1.06.009.58.105.985.525 2.223.283.833.56 1.57.615 1.637.055.068.269.15.475.183s.433.132.507.22c.282.335 2.23 3.725 2.716 4.727.453.933.515 1.136.55 1.807.052 1.006.084 1.13.375 1.477.227.269.254.4.307 1.451.036.713.014 1.406-.056 1.81-.19 1.093.095 1.474 1.44 1.926.827.277 1.716.352 2.37.2.759-.176 1.693-.64 1.984-.987.499-.592.34-1.151-1.008-3.557-.585-1.044-.602-1.094-.584-1.737.016-.595-.012-.704-.277-1.075-.74-1.037-.936-1.7-1.543-5.247-.243-1.423-.484-2.737-.534-2.919-.078-.28-.055-.384.148-.683.132-.194.24-.428.24-.52 0-.091-.37-.881-.82-1.756-.715-1.386-.859-1.603-1.122-1.691-.432-.146-.757-.675-.813-1.323-.067-.772-.778-2.41-1.208-2.785-.212-.185-.336-.381-.336-.533 0-.342-.637-3.408-.922-4.442-.133-.48-.222-.902-.2-.939.024-.037.241-.123.485-.191.243-.068.442-.153.442-.19 0-.035-.121-.416-.269-.847-.26-.76-.296-.807-1.216-1.634a18.46 18.46 0 0 1-4.899-7.209c-.678-1.816-1.407-5.043-1.817-8.049-.254-1.86-.495-4.203-.495-4.81v-.469l1.334-.42c2.48-.78 4.838-1.922 6.686-3.234 1.218-.866 1.23-.893.637-1.435a5.45 5.45 0 0 0-1.953-1.164c-.557-.2-.616-.25-.873-.756-.332-.652-.622-.806-1.378-.728-.614.064-1 .246-1.525.72-.33.298-.419.334-.647.258-.445-.149-.496-.35-.201-.795.168-.254.331-.735.46-1.352.109-.527.282-1.31.385-1.74.158-.659.166-.805.055-.928-.084-.094-.147-.484-.172-1.075-.044-.99-.325-1.974-.793-2.773-.32-.546-1.139-1.3-1.666-1.533a3.2 3.2 0 0 1-.732-.475 2.1 2.1 0 0 0-.638-.396l-.331-.109.198-.448c.41-.926.07-2.065-.774-2.587l-.316-.196.145.347c.213.51.186.517-.255.063a3.3 3.3 0 0 0-.853-.612c-.839-.372-2.193-.332-3.12.091l-.365.167.342.036c.503.054.563.189.117.264-1.006.17-2.064.921-2.61 1.854-.29.494-.277.62.047.447.344-.184.41-.071.17.291-.124.188-.373.683-.552 1.1-.351.817-.866 1.39-1.346 1.495-.77.17-.785.188-.315.377 1.42.573 2.98.074 3.819-1.22.344-.532.449-.514.293.05-.13.469.001.437.445-.108 1.097-1.346 1.452-1.596 2.267-1.596.367 0 .548.054.733.22.366.328.255.682-.319 1.01-.88.506-1.476 1.217-1.874 2.238-.243.622-.235.429-.16 3.908.016.749-.001.814-.399 1.548-.228.42-.387.81-.353.865.094.152.814.441 1.29.518.487.08.54.162.432.68-.122.586-.313.638-.821.222-.237-.194-.553-.4-.703-.456-.848-.323-1.644.167-1.922 1.183-.087.316-.158.38-.58.52-.844.28-1.9 1.065-2.5 1.857-.42.557-.832 1.503-1.013 2.333-.14.64-.26.929-.52 1.252-.49.612-.495.63-.207.896l.263.244-.492.538c-.27.296-.63.782-.799 1.081-.282.5-.335.544-.652.544a.71.71 0 0 0-.572.244c-.207.223-.254.234-.557.128-.182-.063-.406-.21-.498-.327-.152-.194-.284-.217-1.466-.267-1.37-.057-2.107-.18-2.77-.465-.382-.164-.407-.2-.463-.671-.089-.75-.375-1.32-.739-1.47-.322-.134-.44-.448-.135-.36.094.027.61.183 1.148.345s1.301.384 1.698.492l.721.196-.049-.685c-.027-.376-.07-.706-.097-.733-.026-.026-.408-.089-.848-.139-.677-.077-1.962-.366-1.962-.44 0-.013.377-1.073.839-2.357.461-1.283 1.073-2.993 1.36-3.799.285-.806 1.34-3.751 2.343-6.545s2.306-6.444 2.895-8.11a774 774 0 0 1 1.258-3.533c.247-.668.46-1.944.583-3.49.055-.694.1-1.276.1-1.295 0-.188-.291.141-.945 1.064m22.782 24.807c-2.166 1.87-5.198 3.525-8.156 4.45l-1.187.37.061.685c.496 5.52 1.406 10.077 2.542 12.729 1.682 3.926 4.795 7.152 8.791 9.115 1.713.841 1.632.843 2.478-.062 1.807-1.936 3.37-4.953 4.149-8.007.892-3.503.954-6.422.254-11.968-.194-1.543-.595-4.13-.782-5.056-.094-.465-.129-.513-.366-.514-1-.006-3.506-.782-5.52-1.71-.758-.348-1.423-.631-1.479-.628s-.41.271-.785.596"/></svg>