<svg xmlns="http://www.w3.org/2000/svg" viewBox="0 0 100 100"><path fill="#fff" d="M49.905 33.557c-.728.2-1.71.696-2.746 1.386-1.095.73-3.06 2.575-3.971 3.733l-.602.764-1.729.062c-6.806.244-14.823 2.612-20.438 6.037-1.91 1.166-3.181 2.416-3.566 3.507-.188.532-.187 1.409.002 1.96.364 1.066 1.636 2.317 3.545 3.488 1.754 1.076 6.646 3.344 7.214 3.344.256 0 1.239-.696 1.843-1.307a7.9 7.9 0 0 0 1.677-2.502c.52-1.205.637-1.779.687-3.372.044-1.379-.032-2.133-.307-3.028-.033-.108.031 0 .143.24.534 1.147.832 3.197.679 4.671-.231 2.234-1.003 4.014-2.37 5.463l-.477.506.668.198c3.734 1.107 7.492 1.727 11.136 1.837l1.969.06.221.4c1.491 2.693 4.399 5.36 6.098 5.593.4.055.461.034.765-.27.497-.5.768-1.317.825-2.5.081-1.66-.266-2.409-1.336-2.88-1.397-.614-1.562-.7-1.513-.779.028-.045.17-.083.314-.083.956-.003 4.985-1.04 7.26-1.867l1.363-.495.347.277c2.715 2.172 5.257 3.453 6.854 3.453.691 0 .753-.108.765-1.358.015-1.468.206-2.144.954-3.38.195-.323.354-.664.354-.759 0-.18-.528-.559-.78-.56-.167 0-1.369-.552-1.369-.627 0-.087 2.37-.81 3.225-.985a6.7 6.7 0 0 1 1.667-.128c.74.035.941.088 1.663.437.463.224 1.442.865 2.24 1.466 2.224 1.673 3.993 2.708 5.98 3.496 2.021.802 3.787 1.141 4.083.784.187-.225.063-1.017-.35-2.245-.811-2.41-1.73-4.216-2.882-5.667-.515-.648-1.474-1.544-1.92-1.793-.095-.053-.151-.113-.125-.132 1.65-1.219 2.666-2.474 3.737-4.62.77-1.54 1.636-4.055 1.636-4.744 0-.696-.501-.777-2.15-.347-2.582.674-5.298 2.112-8.304 4.397-.618.47-1.494 1.038-1.947 1.262l-.823.409-1.13-.004c-1.788-.005-3.132-.424-7.921-2.464-3.114-1.326-4.786-1.98-6.457-2.53a36 36 0 0 1-1.45-.493c-.088-.067.553-.645 1.036-.935.586-.352.757-.634.613-1.012-.054-.142-.442-.64-.862-1.109-1.123-1.251-1.663-2.114-2.17-3.468-.335-.897-.783-1.085-1.868-.786"/></svg>