<svg xmlns="http://www.w3.org/2000/svg" viewBox="0 0 100 100"><path fill="#fff" d="M28.87 15.113c-1.55 1.069-4.416 1.981-7.132 2.27-.537.057-1.904.147-3.036.2-2.177.102-3.593.315-4.789.722-1.834.625-2.947 1.52-3.16 2.545-.067.323-.162.387-.82.554-.26.066-.623.222-.805.346s-.65.335-1.036.47c-1.294.45-2.196 1.236-2.754 2.4-.27.565-.304.733-.305 1.515-.001.627.052 1.02.183 1.368.214.567.755 1.514.864 1.514.041 0 .075-.187.076-.415.001-.44.35-1.304.614-1.523.126-.104.325-.11 1.01-.026.497.061 1.448.079 2.284.043 1.286-.056 1.5-.041 2.112.144 1.233.375 2.291 1.23 2.795 2.258.32.655.355 1.754.082 2.575-.274.823-.645 1.392-1.766 2.706-.828.971-1.66 2.154-1.66 2.36 0 .042.208-.052.463-.21.522-.32 1.197-.619 1.197-.527 0 .033-.203.286-.452.563-.827.92-1.45 1.947-1.812 2.99-.156.45-.471 1.738-.471 1.926 0 .03.193-.16.429-.421.376-.417 1.036-.913 1.036-.78 0 .026-.13.26-.289.519-.322.526-.703 1.605-.946 2.684-.186.824-.236 3.725-.07 4.022.085.152.13.1.305-.358.208-.544.691-1.383.757-1.317.02.02-.01.233-.068.473-.162.676-.126 2.762.063 3.661a15.6 15.6 0 0 0 1.25 3.566l.503 1.026.13-1.023c.07-.563.164-1.059.207-1.102.044-.043.175.28.293.72.458 1.71 1.558 3.546 3.081 5.141.478.5.888.891.91.868.023-.022-.01-.232-.073-.466-.148-.548-.273-1.452-.199-1.448.031.001.166.18.3.396s.56.726.948 1.131c.638.668.725.809.922 1.485.119.41.491 1.432.827 2.27.82 2.052.92 2.418.917 3.404-.002.783-.207 2.615-.348 3.108-.078.27.013.276.423.026.385-.235.384-.246.12 1.038-.421 2.051-1.381 5.253-1.858 6.199-.667 1.322-2.29 2.016-3.757 1.607-1.199-.334-1.243-.34-1.593-.193a2.2 2.2 0 0 1-.715.14c-.294 0-.461.076-.749.335a3.2 3.2 0 0 1-.782.5c-.806.322-1.226 1.227-.972 2.094l.128.437.24-.48c.172-.341.35-.536.615-.67q.708-.359.47.332c-.143.407-.141.992.003 1.307.138.303.277.324.277.042 0-.268.698-.965.966-.965.113 0 .207.044.207.099 0 .054.142.186.317.293.48.292 1.182.258 1.89-.091.481-.238.698-.285 1.31-.286a4 4 0 0 0 1.305-.202c.406-.143.54-.162.46-.066-.062.075-.231.165-.377.2-.462.113-.987.528-1.204.953-.224.44-.28 1.292-.104 1.605.084.15.114.128.238-.167.295-.707 1.256-1.264 1.618-.938.09.081.284.178.43.214l.267.066-.237.31c-.36.472-.505 1.127-.359 1.616.14.469.26.51.34.119.066-.334.572-.868.9-.95.154-.04.317.006.48.135.562.442 1.328.357 2.398-.266.567-.33.73-.376 1.514-.43 1.091-.074 1.613-.227 2.328-.685.636-.407.897-.434 1.892-.2.471.11.894.14 1.448.099.731-.054.82-.04 1.368.233.41.204.729.292 1.064.292.434 0 .515-.037.858-.397.321-.338.42-.389.656-.337.333.073.633.373.821.82l.138.329.112-.32c.159-.456.134-.864-.08-1.338-.189-.414-.676-.807-1.003-.808-.092 0-.263-.13-.38-.287-.373-.505-.946-.593-2.211-.34-.528.105-.973-.037-1.407-.45l-.403-.383.069-.603c.14-1.25.823-3.387 2.207-6.92l.515-1.314.327.386c.18.212.437.6.57.863l.24.478.108-.283c.227-.597.404-1.584.42-2.348.018-.939.126-.936.555.014l.264.587.163-.538c.34-1.124.427-2.663.186-3.29-.027-.071-.01-.13.04-.13s.247.265.438.587l.347.587.06-.367c.11-.666.066-2.026-.086-2.607-.082-.315-.132-.59-.11-.61.053-.054.65.638.65.753 0 .052.05.094.112.094.081 0 .096-.253.053-.903l-.059-.904 1.779-.001c1.03-.001 2.087-.056 2.511-.13 1.078-.19 2.463-.517 2.41-.569-.025-.025-.368-.122-.763-.216l-.718-.17.977-.176c1.475-.267 3.061-.827 5.098-1.8 1.892-.904 2.862-1.32 2.926-1.256.02.02.083.407.14.859.387 3.117 1.164 4.665 4.142 8.246 1.398 1.683 1.74 2.188 2 2.958.362 1.077.24 2.071-.429 3.499-.868 1.851-2.007 3.283-2.826 3.554-.316.104-.48.097-1.071-.049-1.394-.343-1.966-.202-2.92.717-.958.924-1.293 1.973-.897 2.808.211.445.542.638 1.197.697.304.027.74.118.97.2.462.169 1 .151 3.684-.119 2.125-.214 2.39-.345 2.96-1.466.11-.215.528-.744.93-1.176.403-.432 1.073-1.311 1.49-1.954s1.264-1.891 1.88-2.774c1.822-2.606 2.041-3.298 1.41-4.452-.897-1.642-1.337-3.003-1.451-4.49-.066-.861.118-2.05.432-2.79l.17-.4.699.86c2.032 2.501 3.406 3.537 7.539 5.682 2.406 1.248 3 1.64 3.805 2.499.864.923 1.417 2.095 1.787 3.783.393 1.796.345 3.166-.13 3.673-.173.186-.307.22-.856.22-1.32 0-2.05.407-2.548 1.42-.362.735-.492 1.862-.264 2.283a1.19 1.19 0 0 0 1.084.63 1.12 1.12 0 0 1 .701.195c.393.279 1.466.348 1.917.123.294-.147.329-.146.506.014.436.394 2.321.047 3.281-.605.611-.415.762-.659 1.032-1.666.13-.484.37-1.162.534-1.508.42-.886.45-1.254.22-2.704-.216-1.368-.64-5.296-.788-7.299-.131-1.77-.274-2.006-1.825-3.036-1.828-1.214-2.852-2.349-3.757-4.162-1.11-2.225-1.589-4.112-1.848-7.28-.254-3.109-.325-3.764-.493-4.591-.099-.484-.212-.968-.251-1.075-.137-.376.439.25.988 1.075.947 1.422 2.156 4.06 3.402 7.425 2.118 5.719 4.367 8.937 7.245 10.364 3.564 1.767 7.515.127 8.7-3.613.351-1.104.466-2.083.402-3.43-.118-2.503-.715-3.936-3.258-7.815-.669-1.021-1.411-2.252-1.649-2.736-.914-1.859-.967-3.23-.16-4.091.145-.155.748-.598 1.339-.985 2.074-1.357 2.991-2.806 3.225-5.093l.069-.676-.384.587c-.362.552-.776.945-1.271 1.208-.161.085-.069-.109.355-.742.927-1.388 1.279-2.512 1.279-4.087 0-.793-.297-2.228-.613-2.961l-.141-.329-.068.596c-.146 1.293-.85 2.63-1.76 3.347l-.233.182.186-.489a3.5 3.5 0 0 0 .186-1.05v-.56l-.205.341c-.312.522-.838 1.033-1.718 1.672-.988.716-1.828 1.63-2.047 2.225-.091.248-.203.493-.248.545-.111.127 0-.751.178-1.399.079-.288.124-.543.1-.568-.026-.024-.31.27-.635.656-1.063 1.263-1.606 2.687-1.617 4.246-.01 1.313.325 2.428 1.12 3.725.311.51.428.83.54 1.491.3 1.75.771 2.833 2.26 5.183 2.64 4.17 3.151 5.437 3.15 7.822-.002 1.327-.168 2.203-.568 2.996-.963 1.907-2.733 2.674-4.732 2.051-1.865-.581-3.37-2.156-4.799-5.019-.753-1.508-1.077-2.326-2.063-5.206-2.548-7.44-4.371-10.438-8.227-13.527-1.86-1.49-4.807-2.803-7.555-3.365-2.255-.46-3.975-.49-6.885-.116-2.37.305-2.484.3-3.12-.122-.3-.198-.543-.371-.543-.384s.473-.025 1.05-.028c.935-.004 1.11-.034 1.597-.269.505-.244.955-.606.861-.693a23 23 0 0 0-1-.517l-.96-.48h1.008c.85.001 1.074-.032 1.416-.212.223-.117.424-.267.446-.334.03-.088.433-.01 1.5.288 1.938.544 3.064.726 4.535.732 1.174.005 1.87-.102 2.687-.415l.292-.111-.488-.46a23 23 0 0 0-.878-.785c-.24-.198-.315-.303-.196-.27.696.196 2.82.557 3.788.645 1.268.115 2.822.016 3.836-.243.664-.17 1.658-.635 1.658-.776 0-.051-.462-.297-1.026-.546-1.756-.775-2.573-1.167-2.528-1.212.024-.024.46.029.968.118.693.122 1.524.162 3.318.162 2.688 0 3.276-.097 4.642-.766.817-.4 1.541-.988 1.318-1.07-.08-.029-.938-.231-1.905-.45a82 82 0 0 1-3.08-.76l-1.32-.364h2.786c2.295-.001 2.958-.033 3.758-.182 1.215-.226 2.256-.563 3.08-.997.652-.342 1.761-1.157 1.761-1.293 0-.042-.604-.129-1.343-.194-1.434-.126-4.602-.564-5.007-.693-.158-.05.255-.099 1.172-.137 4.108-.174 7.167-1.081 8.671-2.573.336-.333.61-.647.61-.699 0-.056-1.626-.115-4.127-.15-2.27-.032-4.721-.104-5.447-.16-3.66-.28-7.422-.633-7.354-.691.042-.036.347-.165.68-.286.613-.223 1.398-.798 1.398-1.024 0-.092-.406-.14-1.587-.188-1.76-.072-3.96-.253-6.766-.557-2.32-.252-6.217-.757-6.273-.814-.024-.023.104-.074.282-.113.537-.117 1.393-.53 1.294-.624-.1-.096-3.635-.672-6.001-.979-2.583-.335-3.586-.416-5.96-.48l-2.296-.063.782-.42.782-.42-2.834.048c-4.191.069-6.739.502-9.028 1.537-.344.156-.718.3-.83.32-.344.064-.764.275-1.35.677-1.365.936-2.125 2.634-1.837 4.1.19.968.54 1.57 1.981 3.41.884 1.128 1.394 2.017 1.687 2.94.485 1.527.393 2.84-.295 4.237-.588 1.196-2.022 2.564-3.169 3.022-.394.158-.447.158-.956-.002-.575-.182-.577-.258-.01-.44.199-.063.544-.277.767-.476l.407-.36h-.877c-.856 0-.89-.01-1.419-.374-.459-.316-1.24-1.232-1.24-1.454 0-.037.275.058.61.212.336.154.764.312.951.35l.34.07-.535-.58c-.295-.319-.66-.808-.81-1.088-.312-.574-.874-2.168-.766-2.168.092 0 .916.857 1.124 1.17.143.215.16.22.158.049 0-.106-.087-.581-.192-1.056-.237-1.068-.88-2.443-1.555-3.32l-.511-.664.422.212c.232.117.616.37.853.562l.43.35-.069-.288c-.119-.498-.731-1.712-1.18-2.342-.239-.333-.752-.9-1.14-1.261-.617-.57-.671-.647-.42-.59.158.036.562.19.898.344s.61.244.61.203c0-.042-.3-.446-.666-.899-.8-.99-1.99-2.038-2.99-2.633-.404-.24-.736-.46-.737-.486-.002-.027.237-.175.53-.328.64-.334 1.312-1.027 1.657-1.708a6 6 0 0 0 .252-.534c0-.02-.252.088-.561.237-.31.15-.72.3-.915.334l-.352.061.553-.581c.305-.32.713-.884.907-1.254.344-.655.619-1.496.55-1.681-.02-.05-.255.06-.524.245m-.76 53.448a6 6 0 0 0-.166.631c-.071.307-.312.945-.537 1.417l-.408.859-.175-.538c-.097-.295-.207-.572-.246-.614-.117-.13-1.874 3.735-2.566 5.646-.482 1.33-.528 1.964-.17 2.353.43.468.913.612 1.985.591 1.06-.02 1.05-.014 1.445-.78.159-.305.176-.429.092-.668-.117-.338-.014-.605.342-.885.17-.134.28-.432.471-1.272.428-1.887.908-4.823.805-4.926-.018-.019-.2.099-.403.26-.204.163-.38.295-.391.295s0-.55.027-1.221c.042-1.093.016-1.378-.104-1.148"/></svg>