<svg xmlns="http://www.w3.org/2000/svg" viewBox="0 0 100 100"><path fill="#fff" d="M57.247 6.409c-.25.468-1.232 1.283-1.802 1.496-.3.113-1.097.265-1.786.341-1.826.203-2.207.382-3.837 1.807-1.299 1.136-1.568 1.177-.98.15.157-.272.453-.623.66-.78.696-.528 1.22-1.06 1.408-1.428.275-.538.229-.624-.121-.226-.337.384-.76.627-1.725.99-.92.346-1.428.74-2.041 1.581-.57.783-1.285 1.58-1.417 1.58-.137 0-.08-.428.115-.855.104-.229.151-.416.106-.416-.18 0-1.1.929-1.344 1.355a6 6 0 0 1-.412.634c-.148.175-.157.17-.204-.088l-.049-.27-.574.544c-.485.458-.567.585-.525.804.04.212.002.278-.207.362-.141.056-.47.1-.732.096-.355-.005-.605.067-.996.288-.419.236-.56.273-.715.19-.284-.152-.385-.131-.651.135a.78.78 0 0 0-.24.591c0 .194-.071.489-.158.656-.208.403-.133 1.097.146 1.357.114.106.208.29.21.409.003.42.745 1.73.98 1.73.044 0 .014-.192-.066-.428-.084-.247-.133-.67-.116-1.001.028-.551.04-.572.274-.534.134.021.332.043.44.049.14.007.279.187.496.647.291.616.853 1.365 1.024 1.365.045 0 .018-.183-.06-.406-.314-.889-.264-1.939.092-1.939.078 0 .241.162.363.36.14.227.236.307.26.22.108-.395.11-.396.515-.168.418.234.915.834 1.238 1.493.165.339.182.509.124 1.27-.09 1.181-.147 1.351-.409 1.211-.219-.117-.218-.166-.017.646.066.267-.121.34-.332.128-.186-.185-.21-.059-.065.358.148.432.094.833-.112.833-.074 0-.34-.198-.593-.44a8 8 0 0 0-.48-.44c-.082 0 .208.905.392 1.222.125.215.227.52.227.68-.002.48.458.772 1.688 1.07.644.157 1.164.233 1.32.193l.26-.064-.328-.207-.326-.207.683-.068c.377-.038.86-.145 1.074-.239l.39-.17-.39-.058c-.76-.113-.8-.297-.297-1.349.356-.742 1.076-1.6 1.548-1.844.155-.08.744-.25 1.31-.378.565-.127 1.046-.25 1.068-.272.021-.021-.204-.115-.5-.209-.298-.093-.518-.206-.49-.25.027-.045.275-.13.55-.188.748-.16 1.597.019 2.282.481.5.338 1.224.446 1.62.24.16-.081.42-.33.58-.55.385-.532.375-.338-.012.248-.388.585-.583.686-1.172.608l-.47-.062.254.565c.315.702.425.829.951 1.108.383.203.45.211.743.09a6 6 0 0 0 .82-.47l.496-.336-.342.367a5 5 0 0 1-.773.646l-.431.279-.527-.302c-.29-.166-.542-.286-.56-.267-.035.036-.085 1.178-.065 1.463.017.236.784 1.064.986 1.064.097 0 .542-.106.989-.236.737-.213.79-.218.573-.049-.249.193-1.35.578-1.655.578-.095 0-.358-.201-.585-.447s-.423-.433-.437-.416-.213.356-.441.75c-.47.814-.475 1.014-.041 1.754l.254.434 1.117-.043c.614-.023 1.054-.007.976.036-.208.117-1.318.355-1.822.391l-.44.032-.324-.613-.324-.612-.518.443c-.285.243-.635.61-.776.814-.25.36-.253.386-.118.834.29.962.446 1.039 2.167 1.055 1.273.012.706.188-.814.253l-1.196.05-.194-.428c-.107-.235-.196-.494-.198-.575a.7.7 0 0 0-.092-.286c-.073-.115-.155-.09-.463.142-.928.698-1.595 1.357-1.595 1.575 0 .368.392 1.299.592 1.406.103.055.726.133 1.385.174l1.198.074-.83.127a9 9 0 0 1-1.465.094c-.713-.037-.756-.08-.992-1.01a6 6 0 0 0-.15-.526c-.044-.064-.73.485-1.375 1.1-.493.469-.61.639-.61.883.002.348.381 1.216.619 1.412.11.091.571.15 1.452.186 1.632.066 1.389.22-.46.291l-1.27.048-.206-.427a4.2 4.2 0 0 1-.28-.768 2.6 2.6 0 0 0-.112-.408c-.047-.08-1.267 1.111-1.636 1.601l-.275.363.16.478c.086.263.29.687.453.942l.295.465 1.312-.038c.721-.021 1.25-.004 1.176.037-.256.144-1.28.355-2.024.419l-.746.063-.353-.704c-.194-.387-.354-.797-.356-.911-.004-.181-.043-.163-.318.148-.282.32-1.128 1.753-1.267 2.146-.075.215.256.92.67 1.426.329.4.37.42.868.42.468 0 1.635-.181 2.151-.335.108-.031.014.03-.209.138-.44.213-2.114.686-2.43.686-.182 0-.783-.777-1.124-1.455-.112-.223-.133-.199-.448.515-.362.822-.723 2.085-.723 2.533 0 .224.14.424.64.914.611.6.655.624 1.001.56.333-.06 1.56-.407 2.023-.57.108-.038.02.044-.195.182-.52.333-1.983.858-2.2.789-.179-.057-.905-.794-1.196-1.215-.091-.13-.185-.219-.209-.195-.063.064-.562 3.093-.542 3.292.01.094.007.5-.005.903-.022.727-.023.73-.115.293-.131-.618-.027-3.69.16-4.715.212-1.155.578-2.395.997-3.374.4-.935.462-.753-.645-1.9-.35-.363-.582-.66-.515-.66s.374.086.682.192l.559.193-.56-.53c-1.272-1.199-3.06-1.923-5.192-2.102-.584-.05-1.085-.112-1.112-.14-.122-.121.305-.547.778-.775l.517-.25-.44-.02c-1.154-.052-2.163.16-3.158.664-.557.282-.912.275-.864-.017.051-.312.286-.616.729-.943l.411-.304-.342.062c-.777.14-1.781.753-2.623 1.598-.49.493-.88.807-.977.789-.268-.051-.237-.495.075-1.089l.295-.56-.3.175c-.552.321-1.3 1.243-1.833 2.257-.38.72-.574.995-.707.995-.156 0-.182-.077-.182-.54 0-.297.068-.703.15-.902l.152-.361-.302.289c-.688.659-1.272 1.967-1.423 3.188-.077.62-.309 1.066-.444.855-.048-.074-.06-.322-.027-.55s.032-.416-.003-.416c-.153 0-.665.99-.886 1.712-.133.437-.324.87-.425.96-.177.16-.184.137-.246-.73-.102-1.44-.076-1.983.128-2.637.105-.338.177-.63.159-.648-.072-.072-.59.64-.804 1.104-.125.272-.273.843-.33 1.27-.238 1.815-.307 2.14-.561 2.662-.147.302-.502.793-.788 1.09l-.52.542.32-.486c.498-.756.765-1.493.761-2.103l-.003-.537-.235.516c-.16.352-.472.742-.98 1.221-.41.388-.856.892-.99 1.12-.135.229-.266.416-.292.416-.112 0 .113-.694.46-1.417.47-.98.625-1.595.547-2.162-.055-.407-.325-1.014-.45-1.013-.028 0-.054.32-.056.709-.006.834-.116 1.081-.94 2.109-.7.873-.865 1.187-1.2 2.287-.144.47-.298.854-.342.854-.119 0-.218-.47-.15-.716.057-.21.056-.21-.104-.016-.088.107-.312.524-.498.926-.208.451-.466.837-.676 1.01q-.702.578-.582 1.214c.055.29.022.387-.21.632-.267.28-1.362.978-1.913 1.22-.264.115-.269.133-.267.977.002.947.13 1.331.462 1.379.117.017.331.17.475.342.274.325.803.75.934.75.042 0-.033-.204-.165-.453-.508-.955-.169-1.364.509-.614.34.376 1.071.841 1.17.743.024-.024-.093-.24-.262-.478-.365-.519-.51-1.249-.249-1.249.091 0 .257.049.368.108.187.1.197.088.135-.159-.07-.28-.019-.291.463-.093.16.065.17.035.109-.298l-.07-.37.23.162c.322.225.384.204.384-.128 0-.19.067-.326.195-.394.207-.111.384-.05.894.306l.26.182-.27.289c-.262.28-.36.555-.585 1.66-.148.721-.45 1.079-1.282 1.516-1.358.714-1.858 1.37-1.84 2.418.011.601.013.605.092.204a2.3 2.3 0 0 1 .481-1.07c.158-.204.163-.19.16.39-.002.398.054.701.165.895l.17.293-.06-.447c-.122-.932.337-1.739 1.253-2.203.82-.416 1.287-.927 1.637-1.795.487-1.208.604-1.22.738-.074.062.53.054.562-.143.562-.198 0-.2.012-.056.234a.62.62 0 0 1 .09.488c-.073.29-.082.294-.35.15-.32-.17-.336-.014-.033.302.482.504.11.609-.808.228-.21-.087-.134.141.16.475.154.177.297.408.318.514.06.311.455.457 1.11.41.685-.05 1.252-.262.967-.362-.137-.048-.065-.12.333-.337q.81-.441.298-.441c-.194 0-.205-.037-.156-.513.118-1.14.75-2.364 1.499-2.903.22-.158.764-.42 1.209-.583.444-.162.959-.41 1.144-.551.366-.28.378-.423.019-.231-.205.11-1.936.297-2.033.22-.023-.018.083-.163.235-.322.182-.19.547-.379 1.068-.55.935-.31 1.525-.69 1.92-1.234q.563-.782-.037-.325c-.417.317-1.062.544-1.551.544-.957 0-1.024-.487-.226-1.653.296-.431.538-.803.538-.827 0-.107-1.646.86-1.929 1.135-.37.359-.416.249-.095-.228.137-.204.525-.502 1.002-.77 1.003-.566 1.505-1.076 1.989-2.022.296-.58.392-.703.396-.511.011.597-.63 2.018-1.363 3.02-.843 1.153-.946 1.542-.375 1.427.823-.164 1.752-1.153 3.356-3.572 1.427-2.151 2.182-2.95 3.287-3.472.423-.2.99-.377 1.383-.432.8-.113.946-.217.948-.68 0-.265.025-.318.096-.208.052.08.095.3.096.49.002.336.015.347.661.566 1.052.356 1.141.362 1.32.089.087-.132.2-.389.253-.57l.095-.331.009.316c.004.173-.061.49-.147.702l-.155.388.62.588c.34.324.668.59.727.592.204.006.602-.383.818-.801.18-.35.204-.37.15-.124-.093.416-.327.883-.539 1.074-.174.158-.165.189.276.875.251.391.502.79.558.884.095.162.121.163.407.015a2.2 2.2 0 0 0 .565-.477l.26-.32-.149.304c-.082.166-.31.444-.505.616l-.357.313.206.556c.312.842.573 2.202.633 3.292.055.998.01.922-.232-.39-.154-.836-.693-2.417-1.097-3.218-.387-.769-.942-1.636-1.141-1.783-.235-.174-.824-.3-1.964-.42-1.691-.178-2.803-.54-3.52-1.143l-.291-.245-.427.25c-.583.342-1.272 1.12-2.171 2.453-.724 1.074-.752 1.135-.622 1.377.14.262.785.823.946.823.166 0 .499-.435.597-.782.074-.263.099-.289.105-.112.01.266-.265.894-.393.894-.489 0 .996 1.11 1.649 1.233.459.086.53-.053.483-.94-.038-.721-.037-.727.106-.39.08.187.152.627.16.976l.017.635.777.163c.427.09.92.167 1.094.171.315.008.317.005.315-.456a2.6 2.6 0 0 0-.196-.892c-.154-.34-.163-.401-.04-.3.259.215.461.702.522 1.257l.058.528.83.232c.457.127.897.241.978.253.208.03.244-.76.059-1.307-.145-.426-.145-.428.037-.207.209.253.433 1.197.367 1.544-.035.183.046.302.383.564 1.158.903 1.788 2.3 1.79 3.97 0 1.273-.186 2.061-.987 4.174l-.23.607.438.453a8 8 0 0 0 1.01.844l.572.392 1.431-.052c.787-.028 1.563-.079 1.724-.112.283-.06.28-.056-.048.099-.518.242-2.016.53-2.774.53l-.672.002-.858-.858-.859-.858-.34.59c-.54.937-.827 1.55-.897 1.922-.061.328-.035.373.52.875a9.4 9.4 0 0 0 1.205.903l.62.374 1.466-.055c.806-.03 1.597-.08 1.758-.112.228-.045.258-.034.133.046-.288.184-1.774.492-2.685.557l-.891.063-.527-.35c-.29-.192-.795-.592-1.122-.888l-.595-.539-.402.85c-.421.895-.597 1.5-.601 2.077-.002.379.283.71 1.21 1.406.932.7 1.316.836 2.342.836.806 0 2.002-.159 2.64-.35.41-.124.005.126-.625.386-.78.321-1.825.546-2.543.549-.448.001-.645-.06-1.166-.365a8.6 8.6 0 0 1-1.238-.934l-.61-.567-.26.812c-.31.965-.43 2.357-.243 2.809.165.399 1.34 1.281 2.29 1.72.744.344.798.354 1.513.287.867-.08 1.976-.349 2.617-.632.248-.11.465-.187.481-.17.064.063-.926.648-1.518.898-.343.144-1.001.345-1.463.446l-.84.185-.88-.43c-.483-.237-1.152-.654-1.485-.926l-.606-.495-.078.367c-.043.202-.074.85-.069 1.442.011 1.25.244 2.024.735 2.436.458.386 1.46.914 2.344 1.237.633.23.893.28 1.205.23.69-.114 1.935-.543 2.644-.91.919-.475.92-.476.533-.144-1.047.898-2.98 1.786-3.612 1.66-.556-.112-1.848-.665-2.43-1.042l-.597-.385v.328c0 .791.796 2.942 1.316 3.556.468.554 2.072 1.244 3.441 1.484.571.1.65.088 1.382-.194.761-.294 1.79-.89 2.252-1.305l.233-.21-.113.217c-.185.356-1.462 1.369-2.217 1.757l-.706.363-.767-.128c-.654-.11-1.847-.464-2.52-.748-.161-.068-.14.01.133.5.757 1.355 2.133 2.846 3.037 3.289.623.305 1.492.46 2.706.484.769.015.917-.012 1.397-.258.558-.285 1.08-.655 1.654-1.17.29-.26.272-.22-.137.31-.5.648-1.07 1.162-1.585 1.427-.34.175-1.553.212-2.399.073-.255-.042-.463-.05-.462-.019.006.202 1.79 1.412 2.755 1.868.54.256.72.29 1.493.29 1.814-.001 2.739-.296 3.705-1.18.646-.592.598-.387-.089.378-.567.63-1.24.96-2.29 1.122l-.824.127.707.316c.956.428 2.28.801 2.832.8.938-.004 2.292-.477 3.043-1.063q.894-.699.16.063a6.3 6.3 0 0 1-1.12.868l-.644.377.435.065c.24.035.926.097 1.525.136l1.09.07.45-.61c.53-.72.705-1.28.795-2.543.036-.51.125-1.102.197-1.315s.12-.4.105-.414c-.015-.015-.371-.075-.792-.133-1.085-.151-2.097-.589-2.763-1.196-.172-.156-.332-.195-.742-.178-.702.028-1.781-.207-2.41-.526-.62-.314-1.33-1.005-1.681-1.637-.4-.718-.426-.96-.044-.404 1.25 1.813 3.374 2.424 5.777 1.661.427-.136.79-.233.808-.215.017.017-.283.196-.667.398l-.698.367.28.233c1.015.842 3.157 1.305 3.778.817.327-.258 1.042-.58 1.29-.581.125-.001.015.102-.304.285-1.054.604-1.451 1.384-1.585 3.11-.11 1.402-.29 1.862-1.112 2.822a60 60 0 0 0-.839 1c-.378.468-.697.582-1.013.36-.355-.248-.81-.196-1.19.138-.393.345-.53.358-1.04.098-.55-.281-.763-.248-1.163.18-.194.207-.483.409-.643.448-.386.094-.993.745-1.12 1.202-.118.425-.138 1.296-.03 1.296.04 0 .161-.165.269-.367.126-.236.355-.45.645-.604l.45-.237.272.213c.194.153.406.213.747.213h.475v.423c0 .483.28 1.392.39 1.27.041-.044.124-.235.184-.423.06-.189.22-.462.355-.608.209-.225.284-.25.495-.17.404.153.773.11 1.131-.133.307-.208.886-.456 1.064-.456.09 0 .582.926.583 1.097.002.215.474 1.15.58 1.15.057 0 .103-.055.104-.122 0-.067.102-.34.226-.607.18-.392.317-.533.705-.733.318-.163.551-.372.684-.612.193-.347.213-.357.416-.215.147.103.408.144.836.13.446-.015.687.025.853.141.319.224 1.073.212 1.37-.021.157-.123.297-.158.429-.109.256.098.595.477.682.765.102.334.241.134.31-.44.078-.662-.201-1.298-.715-1.63a4 4 0 0 1-.652-.544c-.306-.334-.56-.374-.98-.155-.4.21-.606.182-.836-.111-.336-.427-.27-.956.248-1.991.375-.75.625-1.08 1.49-1.977l1.04-1.076-.416.07c-.228.039-.415.047-.415.018 0-.028.248-.285.552-.57.497-.466 1.357-1.622 1.27-1.708-.018-.019-.242.058-.496.17-.255.113-.48.188-.501.167s.137-.373.352-.782c.34-.65.777-1.993.777-2.39 0-.082-.198.012-.513.246-.707.523-.813.546-1.179.264a20 20 0 0 0-.946-.659c-.38-.25-.772-.614-.977-.907-.67-.957-1.27-1.462-2.13-1.794-.438-.169-.845-.306-.906-.306-.07 0-.098.156-.075.44.019.241.001.439-.04.439-.04 0-.073-.078-.073-.174 0-.262-.645-1.554-1.055-2.114l-.362-.494.317.225c.174.123.498.439.718.7.346.41.497.505 1.1.688 1.445.437 1.926.78 2.868 2.047.344.463.656.746 1.154 1.048.375.228.746.415.823.416.233.004.887-.5 1.228-.947.39-.51.438-.434.438.696 0 .846-.18 1.644-.497 2.19l-.188.324.22-.068c.122-.037.346-.131.499-.209.27-.137.275-.135.214.086-.173.616-.863 1.836-1.276 2.256l-.456.462h.355c.337 0 .35.01.238.22-.064.12-.498.593-.963 1.05-.904.887-1.434 1.531-1.338 1.627.115.115 2.468-.468 3.076-.761.691-.334 1.252-.959 1.779-1.983.294-.573.302-.58.241-.208-.035.212-.191.639-.348.95s-.285.584-.285.607c0 .066.943-.307 1.807-.713 1.107-.521 1.671-1.154 2.118-2.38.113-.31.218-.55.233-.536.032.032-.198 1.184-.308 1.539l-.075.242.286-.183c.575-.367 1.54-1.069 1.877-1.364.353-.31.9-1.323.902-1.673 0-.108.047-.261.103-.342.073-.105.085.034.043.488l-.06.635.779-.795c.885-.902 1.158-1.366 1.275-2.164l.082-.558.015.489.016.488.237-.29c.41-.502 1.298-2.319 1.657-3.39.553-1.653.76-2.788.76-4.185.004-3.568-1.186-6.661-3.366-8.754-.797-.766-1.998-1.667-2.094-1.572-.026.027.082.305.24.62 1.082 2.144 1.158 5.178.185 7.376-.555 1.253-2.014 2.971-3.195 3.762-.614.41-.797.487-.391.163 2.69-2.147 3.902-4.63 3.783-7.75-.037-.964-.101-1.39-.306-2.023-.266-.824-.448-1.101-.448-.681 0 .38-.115.848-.208.848-.047 0-.085-.256-.085-.568 0-.66-.203-1.407-.587-2.168-.287-.566-1.034-1.563-1.172-1.563-.045 0-.04.155.013.345.052.189.082.552.066.806l-.03.461-.48-.717c-.679-1.018-1.302-1.593-2.23-2.055-.438-.219-.811-.383-.83-.365s.123.27.313.557c.297.451.464 1.066.289 1.066-.03 0-.332-.197-.67-.438-1.114-.796-2.545-1.303-3.71-1.317l-.283-.004.384.279c.409.296.915.849.915.999 0 .154-.396.1-1.139-.156-.978-.338-2.07-.478-2.915-.375l-.684.084.562.276c.587.288.854.594.675.773-.069.068-.336.065-.844-.01-1.072-.16-1.87-.137-2.683.076-.887.233-1.029.354-.497.425.42.057.882.301.882.467 0 .154-.457.289-.979.289-.665 0-1.39.166-2.221.508-.774.319-.893.469-.371.469.351 0 .835.173.835.3 0 .04-.198.188-.44.33-.546.32-2.666 1.918-2.961 2.232-.201.215-.21.282-.136.98.08.755.058.847-.156.632-.163-.163-.147-.073.077.433.194.44.418 1.259.537 1.97l.064.38-.354-.21c-.195-.114-.378-.208-.407-.208-.092 0 .56 1.104.965 1.635.582.762.879.907 2.18 1.058.614.071 1.277.174 1.475.229.417.115.4.123 1.135-.52l.562-.493-.416-.213-.415-.214.615.054.616.055.775-.527c.426-.29.775-.55.776-.578s-.152-.134-.341-.236c-.53-.285-.633-.48-.134-.253.236.106.544.195.686.196.206.002 1.451-.494 1.645-.654.025-.021-.096-.15-.27-.285-.173-.135-.363-.337-.422-.447-.093-.173-.06-.164.235.06.533.407.89.471 1.629.294 1.102-.266 1.032-.219.76-.514-.282-.307-.562-.713-.562-.816 0-.04.187.113.416.341.544.544.95.72 1.79.776l.692.046-.225-.547c-.324-.787-.28-.931.088-.292.457.792.551.899 1.147 1.293.296.196.633.425.749.509.21.153.21.153.173-.464-.042-.677-.037-.663.361.849q.232.879.227 1.66c-.004.683-.045.864-.326 1.427-.315.632-1.415 2.14-1.56 2.14-.042 0-.039-.337.005-.748.044-.412.06-.768.036-.793-.025-.024-.35.228-.722.562-.908.813-1.386 1.12-2.297 1.472-.93.36-1.775.452-2.739.297-.912-.148-2.165-.524-2.153-.648.005-.051.173-.186.372-.299l.362-.205-.567-.157a18 18 0 0 0-1.54-.311c-.534-.085-.986-.168-1.003-.186-.08-.079.32-.298.736-.405l.458-.117-.38-.16c-.603-.254-1.4-.436-2.404-.55-1.659-.186-1.971-.339-2.723-1.332-.598-.789-1.362-2.27-1.447-2.805l-.06-.377.332.169c.182.092.409.235.503.318.453.397.04-.717-.64-1.73-.338-.503-.502-.854-.535-1.147-.026-.233-.008-.423.041-.423.128 0 .535.298.796.584l.225.246-.064-.635c-.035-.349-.19-1.03-.343-1.514-.282-.889-.337-1.207-.304-1.783.011-.2.069-.318.156-.318.179 0 .609.515.805.965l.155.354.097-.342c.124-.438.046-1.583-.177-2.62-.15-.693-.157-.882-.054-1.27.067-.252.158-.493.202-.538.125-.127.48.449.625 1.015.15.589.183.566.405-.293.111-.427.169-1.098.182-2.106.015-1.225.048-1.525.19-1.742.095-.144.214-.262.265-.262.183 0 .509.82.579 1.456l.07.645.22-.488c.351-.781.512-1.664.561-3.078.033-.955.087-1.382.195-1.547.138-.21.162-.216.322-.072.095.086.228.34.295.565.088.294.145.369.201.267.094-.168.39-1.564.39-1.84 0-.434 1.755-1.593 2.997-1.98l.738-.23.383-.784c.211-.432.481-.849.6-.926.149-.098.505-.143 1.144-.145 1.182-.005 1.504-.132 1.75-.688.216-.487.437-.653 1.235-.923.916-.31.993-.374 1.685-1.4.531-.786.66-.926.681-.738.015.127.05.375.078.551l.052.32.567-.509c.554-.498.564-.515.465-.84-.243-.791-1.249-1.551-2.418-1.827-.893-.21-.957-.199-1.605.293-.863.653-1.857 1.099-3.2 1.432-.657.163-1.239.34-1.293.392-.063.061.619.083 1.94.062 1.779-.03 1.983-.018 1.612.092-.234.069-1.348.232-2.477.362-3.392.392-4.931.913-6.937 2.346-.563.403-1.916 1.734-2.382 2.345l-.223.293.219-.391c.615-1.097 1.61-2.204 2.737-3.046l.862-.644-.142-.275c-.211-.409-.167-.47.103-.14.216.265.262.28.509.178l1.15-.475c.484-.198.953-.425 1.043-.503.15-.13.133-.172-.206-.511-.202-.203-.393-.496-.423-.652q-.11-.58.164-.056c.172.334.6.702.815.702.08 0 .394-.187.698-.416.305-.228.653-.48.774-.561l.22-.147-.199-.387c-.11-.213-.198-.52-.196-.684l.002-.297.18.391c.098.215.272.474.387.576.205.183.217.18.987-.171.428-.196.822-.356.875-.356s.112-.231.13-.513c.033-.483.04-.495.115-.198.125.49.264.556.861.409.675-.167 2.231-.168 2.909-.002 1.302.319 2.47 1.15 2.873 2.044.102.225.217.41.256.41.153 0 .71-.66.943-1.115.296-.58.515-1.274.525-1.67.036-1.312.58.116.58 1.52 0 .96-.175 1.572-.68 2.368-.16.253-.282.459-.27.458.013 0 .238-.066.502-.146.736-.223.955-.168.34.085-.301.124-.84.385-1.197.582-.356.196-.648.32-.648.275s.143-.27.317-.5l.548-.724c.51-.674.852-1.871.724-2.538-.047-.247-.07-.224-.278.29-.32.785-.653 1.156-1.7 1.89-.76.535-.964.735-1.226 1.209-.33.596-.435.581-.438-.063-.003-.53-.14-.616-.376-.235-.267.432-1.161 1.271-1.278 1.2-.15-.094-1.167.338-1.324.561a.97.97 0 0 0-.147.474c0 .22-.069.29-.421.424-.62.236-1.85.433-1.996.319-.067-.052-.233-.067-.37-.032-.19.048-.328.23-.587.776-.371.782-.406.997-.207 1.286.073.106.157.436.186.732.056.554.333 1.269.492 1.269.05 0 .062-.075.026-.167-.085-.223.037-1.155.176-1.345.093-.126.162-.132.415-.037.27.103.315.177.41.694.101.54.528 1.44.683 1.441.038 0 .055-.348.037-.774-.043-1.078.174-1.441.575-.96l.183.22.004-.263c.004-.361.17-.433.432-.187.27.253.352.258.352.022 0-.3.237-.433.414-.232.287.329.484.835.49 1.265.008.512-.697 2-1.259 2.656-.389.455-.572.436-.882-.087-.095-.16-.21-.292-.258-.292-.108 0 .015.753.176 1.074.07.14.09.329.05.44-.102.272.039.496.506.805.258.17.595.287.948.327.302.034.827.137 1.167.23.34.092.643.144.672.115s-.085-.168-.253-.31c-.168-.14-.305-.334-.305-.43 0-.238 1.039-1.534 1.59-1.985a7 7 0 0 1 1.067-.677c.522-.26.773-.319 1.642-.38.971-.07 1.595-.207 1.802-.395.054-.049-.099-.084-.36-.084-.817 0-1.181-.276-.792-.6.11-.09.48-.139 1.171-.15.85-.014 1.095-.056 1.548-.263.545-.25.701-.38.344-.286-.298.078-1.405-.161-1.768-.382-.31-.188-.316-.204-.14-.333.103-.075.41-.136.684-.136.659 0 1.576-.244 2.023-.539.447-.294 1.044-.91 1.294-1.332l.19-.32-.336.223c-.59.393-1.298.685-1.825.754-.283.037-.513.04-.513.006s.214-.326.475-.651c.553-.687 1.767-2.926 2.072-3.823.232-.682.399-2.909.197-2.622a.6.6 0 0 0-.105.293c0 .081-.226.604-.5 1.162-.792 1.617-1.576 2.259-3.165 2.595-.98.207-1.23.303-1.72.658-.312.225-.372.245-.29.093.255-.478.887-.868 1.828-1.13 1.183-.327 1.559-.52 2.14-1.102.7-.7.86-1.14.775-2.116-.18-2.064-.994-3.833-2.41-5.236-.63-.625-.819-.726-.71-.38.07.22.233 2.45.184 2.51-.016.019-.079-.157-.14-.39-.164-.623-.82-1.798-1.419-2.538-.93-1.151-2.045-1.972-3.497-2.573-.46-.19-.864-.346-.897-.346s.16.215.43.477c.45.44.703.914.562 1.055-.032.032-.436-.196-.899-.507-.932-.627-2.083-1.07-3.023-1.163-.64-.063-.65-.09.188.453.397.257.734.7.619.815-.031.031-.423-.066-.871-.216-.737-.246-.95-.273-2.203-.276-.888-.002-1.426.036-1.495.105-.08.079.012.124.338.17.533.072 1.03.31 1.03.493 0 .08-.166.153-.433.19-1.425.195-4.397 1.51-6.015 2.662-1.166.83-3.281 2.946-4.055 4.058l-.713 1.026c-.07.101.036-.124.235-.5.625-1.182 1.518-2.403 2.53-3.458 1.076-1.124 2.064-1.902 3.433-2.708.79-.465 1.05-.696 2.11-1.872a81 81 0 0 0 1.877-2.154c.779-.947.922-.946.762.002a7 7 0 0 1-.177.81c-.13.344.43-.225.845-.86.432-.662.694-1.403.966-2.734.107-.526.241-1.042.298-1.148.302-.564.73.253.73 1.394 0 .925.096.85.504-.394.249-.76.278-.983.276-2.12-.002-.767-.066-1.595-.162-2.09-.216-1.104-.114-1.342.356-.835.35.377.653 1.094.761 1.802.054.35.12.7.149.781.105.302.242-.775.248-1.954.008-1.504-.133-2.094-.862-3.598-.832-1.716-.685-1.915.588-.796.864.76 1.406 1.066 2.028 1.144l.413.051-.39-.266c-.902-.616-1.293-1.156-1.91-2.641-.418-1.006-1.001-1.917-1.574-2.458-.18-.17-.722-.604-1.206-.965l-.88-.655.587.04c.434.03.84.159 1.563.495 1.12.52 1.524.615 2.175.512l.463-.073-.537-.114c-.695-.148-1.064-.346-1.932-1.043-.391-.313-.897-.679-1.125-.812-.46-.27-1.47-.537-2.073-.55-.467-.01-.36-.068.733-.397l.733-.22-.77-.076a10.5 10.5 0 0 1-1.66-.348c-1.709-.52-3.235-.32-4.775.627-.685.421-.699.425-.416.121.4-.428 1.32-1.018 1.989-1.274.44-.168.878-.227 2.164-.288 1.807-.085 2.36-.225 3.263-.824.667-.443 1.327-1.28 1.622-2.056.08-.21-.026-.146-.561.34-1.325 1.2-2.268 1.444-4.368 1.126-2.047-.31-3.5-.022-5.122 1.013-1.15.734-2.143 1.25-2.553 1.329-.312.06-.3.045.147-.173.269-.131.994-.6 1.612-1.041 1.334-.954 1.795-1.199 3.035-1.617 1.034-.349 1.568-.648 2.065-1.16.34-.35.712-1.01.86-1.525.103-.36-.017-.384-.2-.04m-10.71 7.343c-.318.178-1.01.761-1.01.852 0 .029.283.052.628.052.562 0 .65-.027.83-.257.112-.142.203-.359.203-.482 0-.155.068-.238.22-.267.126-.024.052-.048-.173-.055a1.6 1.6 0 0 0-.698.157m6.709.092c-.492.083-1.234.354-1.733.634-.72.406-.722.5-.003.216.943-.374 1.707-.524 2.615-.516l.83.007-.537.17c-.783.25-1.273.528-1.67.952-.361.384-.675.811-.675.918 0 .033.45.063 1.002.066.55.004 1.133.048 1.294.098.289.09.285.094-.292.264a6.4 6.4 0 0 0-.87.319c-.308.16-1.232.987-1.232 1.104 0 .04.165.094.367.121s.542.13.757.227l.39.176-.292.036c-.772.093-1.215.329-1.753.933-.294.33-.516.618-.493.641s.318-.185.655-.463c.76-.626 1.402-.838 2.316-.765l.642.05-.418-.372a3.7 3.7 0 0 0-.854-.552c-.24-.098-.437-.21-.437-.247 0-.118.626-.553 1.08-.75a6 6 0 0 1 1.02-.304l.83-.165c.212-.042.167-.08-.33-.284-.566-.23-1.812-.53-2.205-.53-.3 0-.244-.142.205-.526.476-.408 1.02-.604 2.075-.75.778-.106 1.73-.454 1.87-.682.049-.078.037-.1-.03-.057-.341.21-1.203.256-2.155.112-.963-.144-1.467-.165-1.97-.08M41.138 15.33c-.284.399-.253.429.154.153.195-.133.393-.242.44-.242s.084-.044.084-.098c0-.22-.482-.088-.678.187m-5.507.645c-.755.837-1.4 1.143-2.96 1.405-1.75.294-2.263.498-3.605 1.433-.888.618-1.131.71-.586.22 1.51-1.358 1.899-1.663 2.53-1.983l.694-.351-.583.062c-1.353.145-2.323.634-3.667 1.848-1.312 1.183-2.147 1.626-1.602.849.272-.39.093-.324-.646.236-.395.299-.897.634-1.116.743-.482.242-.837.555-.837.737 0 .226-1.02.61-1.739.656-1.555.1-1.76.223-2.07 1.245-.218.715-.197.998.085 1.149.095.05.228.279.297.508.125.416.547 1.06.696 1.06.043 0 .038-.142-.012-.316s-.09-.53-.09-.789c0-.68.253-.585.667.251.187.378.454.75.628.873.284.202.299.204.23.026-.284-.735-.306-1.607-.04-1.607.062 0 .21.09.327.2l.213.2.063-.315.063-.315.292.28.292.28v-.312c0-.363.093-.391.351-.105l.186.206.053-.28c.043-.227.096-.274.292-.252.289.033.845.561 1.141 1.083l.216.38-.433.274c-.29.184-.607.537-.963 1.071-.75 1.128-1.344 1.361-2.357.926-.251-.107-.586-.195-.744-.195-.356 0-.872.208-1.051.425-.125.15-.109.15.216.015.506-.212.676-.188 1.489.208.635.31.79.348 1.21.299.672-.08.944-.245 1.79-1.089.789-.786 1.119-.94 1-.47-.037.148-.112.296-.167.33s-.074.189-.041.343c.071.34-.06.576-.273.494-.183-.07-.186-.059-.065.259.065.171.053.293-.042.422-.128.175-.143.175-.433.004-.361-.212-.371-.147-.062.395.13.227.205.433.166.457-.105.065-.822-.276-.978-.465-.074-.089-.173-.162-.221-.162-.108 0 .163.668.359.884a.64.64 0 0 1 .142.367c0 .365.51.544 1.564.55.51.004 1.06-.03 1.22-.075l.294-.082-.366-.19c-.202-.103-.367-.258-.367-.342 0-.326.735-1.532 1.244-2.041.619-.618 1.45-1.055 2.42-1.271 1.425-.318 2.042-.623 1.295-.64-.475-.012-1.1-.225-1.1-.376 0-.164.136-.243.878-.511l.585-.212-.438-.187-.438-.187.214-.174c.117-.096.634-.323 1.147-.503.514-.18.935-.352.935-.38 0-.03-.241-.066-.535-.082-.814-.045-1.37-.233-1.37-.463 0-.143.23-.307.918-.655.932-.471 1.691-1.016 1.863-1.337.082-.155.02-.146-.513.071-.5.205-.84.26-1.93.315-.727.037-1.423.12-1.547.187-.124.066-.25.096-.28.065-.03-.03.248-.189.619-.353.37-.164.927-.423 1.236-.576s.562-.256.562-.231-.093.162-.206.305l-.205.26.355.03c.66.057 1.474-.273 2.736-1.108l.287-.19-.336.633a4.93 4.93 0 0 1-2.183 2.093c-.408.193-.742.39-.742.438 0 .121.29.179 1.512.302 1.084.11 1.266.152 1.018.238-1.333.46-2.696.971-2.766 1.039-.054.05.039.14.229.22l.32.135-.264.207a2.6 2.6 0 0 1-.595.327c-.402.145-.432.276-.064.278.71.003 2.105.554 2.68 1.059.192.169.413.307.49.307.15 0 .57-.412.746-.733.105-.19.108-.189.111.025.002.12-.151.39-.34.598l-.342.38.303.646c.167.358.366.647.443.647.28 0 .79-.275.997-.538.117-.148.212-.223.212-.166 0 .194-.513.713-.901.91-.318.163-.378.237-.331.412.031.117.058.494.058.837l.002.624.483-.057c.266-.031.617-.127.782-.211.416-.216.372-.104-.077.193a2.5 2.5 0 0 1-.806.321l-.431.073-.264.751c-.145.413-.292.903-.326 1.089l-.064.338.425-.099c.634-.147 2.279-.039 2.916.192l.537.194-.275.11c-.151.059-.297.108-.324.108s-.272.096-.544.213l-.496.213 1.015.171c.558.094 1.328.284 1.71.422.383.138.724.25.758.25.033 0 .061-.167.061-.373s.129-1.03.286-1.832c.158-.802.314-1.667.348-1.922s.1-.464.147-.464c.12 0 .442.48.559.83l.097.294.067-.391c.123-.718-.1-1.776-.594-2.809-.25-.523-.43-.977-.398-1.008.11-.11.644.251 1.048.71.386.439.405.448.338.174-.292-1.193-.871-2.172-1.833-3.101-.585-.565-.757-.787-.675-.87.158-.158.91.069 1.396.421.213.154.386.24.386.192s-.19-.346-.424-.664c-.695-.943-1.678-1.637-2.88-2.03-.538-.176-.732-.395-.496-.556.151-.103 1.392-.053 1.7.069.194.076.194.075.005-.14-.372-.424-1.695-.984-2.594-1.098-1.14-.145-1.27-.174-1.27-.28 0-.166.593-.407 1.14-.464.643-.066.581-.144-.281-.354-.938-.23-2.273-.201-3.326.07-.753.193-1.057.199-.757.014.053-.033.097-.102.097-.152 0-.19-1.137.338-2.051.953-.16.107-.11.018.146-.257.582-.627 1.3-1.048 2.367-1.39.525-.167 1.126-.39 1.335-.496.52-.261 1.307-1.015 1.544-1.48.181-.355.487-1.14.441-1.132-.011.002-.275.286-.587.633m38.589-.19c.202.598 1.112 1.531 1.888 1.938.296.155.902.523 1.346.819s.83.515.857.49c.026-.027-.049-.17-.166-.319l-.212-.27.43.07a6.7 6.7 0 0 1 2.166.798c.31.188.562.359.562.381s-.23-.052-.513-.164c-.878-.351-1.561-.574-1.759-.574-.176 0-.172.03.073.448l.263.448-.229-.122a12 12 0 0 1-.62-.368c-1.462-.923-2.175-1.21-3.67-1.474-1.474-.26-2.181-.603-3.036-1.473-.368-.375-.67-.627-.67-.56 0 .238.567 1.314.882 1.672.432.493 1.064.914 1.949 1.301l.735.322-.781-.057c-.43-.03-.833-.071-.895-.09-.202-.061-1.927.139-2.378.275l-.44.133.693.12c.38.067.842.215 1.025.33l.334.208-.293.067a5.4 5.4 0 0 1-.83.08 5.5 5.5 0 0 0-1.076.155c-.688.183-1.86.761-2.106 1.039l-.19.214.245-.073c.462-.14 1.434-.176 1.647-.062.313.167.257.267-.255.451-1.543.557-2.392 1.142-3.155 2.176-.264.36-.482.686-.483.726 0 .04.198-.08.44-.265.61-.465 1.513-.708 1.513-.406 0 .074-.284.384-.632.689-.782.687-1.547 1.812-1.81 2.664-.11.355-.184.66-.165.68.019.018.177-.145.353-.364.322-.4.924-.77 1.05-.644.037.037-.094.386-.292.774-.539 1.06-.663 1.495-.717 2.514l-.049.929.276-.53c.152-.291.325-.546.385-.565.164-.055.233.456.233 1.737v1.155l.766.399a8.4 8.4 0 0 1 2.666 2.228c.328.414.619.776.646.802s.018-.247-.02-.61c-.037-.363-.031-.66.014-.66s.458.324.916.72c.907.784 1.735 1.802 2.276 2.798.37.681.845 2.03.845 2.4 0 .467.187.312.449-.373.148-.39.3-.744.337-.788.066-.08.386 1.753.386 2.213 0 .24.005.239.758-.191.952-.545 1.537-.72 2.411-.725l.69-.003-.293-.25c-.16-.139-.688-.515-1.172-.837l-.88-.586.88.047c.883.048 2.003.368 2.003.572 0 .053-.077.075-.171.047-.303-.089-1.327-.257-1.36-.223-.018.017.198.192.48.388.695.482 1.246 1.003 1.246 1.178 0 .08-.12.167-.268.196l-.83.16c-.613.12-.84.292-.383.292.702 0 2.283.65 3.338 1.371 1.027.704 1.799 1.75 1.74 2.361-.028.293-.07.332-.47.429l-.44.106.342.11c.188.061.536.141.774.178l.431.067-.222.18c-.123.1-.207.181-.188.182.02.002.398.061.841.133.444.073.906.112 1.028.09.356-.069.679-.368.71-.66.017-.147.116-.363.221-.478.45-.495.551-.98.13-.627-.329.277-.871.519-.961.429-.035-.035.033-.233.15-.442.269-.479.266-.519-.026-.386-.4.183-.577.043-.516-.41.048-.354.034-.388-.134-.334-.151.048-.189.007-.2-.217l-.025-.437a.43.43 0 0 0-.083-.236c-.102-.103-.093-.92.01-.92.046 0 .399.348.783.774.582.644.828.835 1.456 1.132.885.42 1.033.537 1.405 1.117.218.341.279.55.28.977.003.464.02.514.12.347.064-.108.113-.453.11-.769l-.006-.573.178.231c.098.128.241.408.319.622l.14.391.008-.342c.008-.45-.374-1.241-.786-1.627-.18-.17-.703-.51-1.16-.758-.961-.521-1.38-.947-1.63-1.653a2.7 2.7 0 0 0-.579-.91l-.402-.404.24-.305c.451-.577 1.199-.73 1.199-.247 0 .27.115.306.293.091.188-.227.293-.174.293.147 0 .341.096.37.34.1.212-.234.344-.174.344.157v.245l.258-.203c.511-.402.667.098.332 1.067-.102.295-.17.551-.153.568.092.093.749-.638.992-1.103.214-.409.333-.538.5-.538.19 0 .22.05.216.366-.002.202-.066.54-.142.754s-.124.4-.107.417c.067.068.765-.793.858-1.058.054-.156.135-.284.18-.284.176 0 .388-.322.388-.592 0-.296-.156-1.031-.313-1.471-.09-.25-.566-.57-.566-.379 0 .052-.143.007-.318-.1a1.6 1.6 0 0 0-.757-.193c-.637 0-1.57-.464-1.833-.911-.113-.192-.396-.468-.628-.613s-.716-.54-1.077-.879c-.36-.338-.75-.666-.867-.728-.207-.111-.208-.108-.053.113a.95.95 0 0 1 .159.453c0 .217-.01.22-.286.077-.157-.081-.498-.397-.757-.702-1.501-1.763-1.972-2.148-3.169-2.584-1.187-.434-1.732-.743-2.358-1.34-.482-.46-.556-.504-.47-.276.34.892.835 1.43 1.89 2.05.495.292 1.123.75 1.395 1.018.517.508 1.172 1.293 1.08 1.293-.029 0-.373-.27-.765-.6-1.585-1.336-2.471-1.698-4.495-1.837-1.364-.093-1.703-.18-2.705-.685l-.615-.31.267.35c.593.777 1.526 1.305 2.957 1.673 1.016.26 1.747.577 2.218.958l.293.237-.716-.24c-.407-.136-1.127-.275-1.674-.323-1.439-.125-3.367.147-2.281.321.42.068.812.307.812.495 0 .083-.262.163-.764.234-.42.06-1.05.212-1.402.34l-.64.232-.058-1.082c-.05-.92-.233-2.12-.414-2.705-.033-.106-.207-.177-.53-.215a2.8 2.8 0 0 1-.852-.263c-.204-.114-.284-.176-.176-.138.334.116 1.29.165 1.35.068.032-.05.007-.493-.055-.982-.105-.833-.128-.894-.362-.951-.318-.078-1.08-.52-1.08-.625 0-.044.205.023.456.15.623.316.893.305.963-.037.03-.148.112-.498.183-.779l.129-.51-.319-.218a2 2 0 0 1-.49-.509l-.172-.29.382.297c.606.471.69.471.981.003.14-.227.346-.511.456-.632l.2-.22-.197-.22a2.4 2.4 0 0 1-.274-.366c-.042-.08.055.006.217.193l.293.34.38-.262a4.4 4.4 0 0 1 1.865-.743l.565-.075-.44-.226c-.427-.22-1.498-.99-1.443-1.037.014-.013.312.016.662.066.349.049.806.06 1.016.026l.382-.063-.832-.404c-.835-.406-1.635-.953-1.819-1.244-.09-.142-.047-.145.455-.026.601.141 1.419.163 1.72.045.222-.087.233-.078-.82-.605-.44-.22-.96-.576-1.193-.816-.414-.425-1.194-1.613-1.112-1.694.023-.024.32.139.659.36.71.467 1.658.791 2.31.791h.451l-.348-.237c-.192-.13-.43-.36-.53-.512l-.18-.275.238.17c.369.264 1.077.62 1.508.756.47.15 1.354.584 1.3.639-.022.02-.253-.026-.514-.105-.285-.086-.88-.143-1.489-.143-.993 0-1.998-.218-2.353-.511-.068-.057-.147-.08-.175-.052s.152.254.4.502c.31.309.813.63 1.593 1.014.699.344 1.152.626 1.17.727.044.234-.62.395-1.466.355l-.676-.032.274.218c.15.12.516.31.812.422l.97.368c.781.298.561.57-.565.695l-.65.072.451.21c.248.116.774.278 1.17.362.715.15 1.164.357 1.164.535 0 .23-.62.411-1.285.374-.367-.021-.669-.024-.669-.006 0 .017.275.161.611.32.448.212.755.29 1.152.29 1.182 0 2.05.396 2.778 1.267.387.462.93 1.463.93 1.711 0 .083-.156.226-.347.317-.293.14-.32.177-.171.236.097.038.66.073 1.253.076 1.286.009 1.748-.159 1.769-.64.007-.154.105-.455.22-.668.296-.552.27-.708-.073-.42-.329.277-.871.518-.961.428-.035-.034.032-.233.15-.441.281-.501.275-.69-.014-.418-.124.117-.275.212-.335.212-.162 0-.244-.352-.166-.708.06-.276.05-.299-.083-.188-.212.176-.379-.123-.252-.454.068-.18.052-.265-.068-.352-.099-.073-.144-.22-.124-.403.027-.238.084-.294.324-.322.586-.066.954.145 1.817 1.039 1.059 1.096 1.519 1.34 2.54 1.34.628 0 .794-.037 1.098-.245.453-.308.463-.424.021-.24-.383.161-1.296.188-1.517.045-.116-.075-.096-.096.098-.099.42-.006 1.06-.36 1.267-.702.217-.355.27-.599.076-.35-.3.386-.878.662-1.381.66-.655-.002-1.15-.286-1.697-.975-.94-1.182-1.353-1.492-2.164-1.622l-.399-.063.218-.387c.465-.828 1.246-1.366 1.246-.859 0 .228.273.266.356.05.086-.224.22-.176.29.103l.062.25.215-.203q.346-.325.347.11c0 .237.163.228.294-.017.15-.282.47-.25.547.054.06.241-.049.96-.208 1.363-.06.151-.005.13.24-.098.332-.306.62-.796.725-1.235.064-.267.3-.424.475-.315.062.038.083.347.053.801l-.047.739.224-.282c.124-.154.3-.482.39-.727.092-.245.249-.537.35-.648.243-.27.23-.549-.069-1.328-.36-.945-.278-.906-2.045-.992-.936-.046-1.363-.223-1.508-.623q-.122-.34-.57-.624c-.491-.31-.584-.31-.418-.001.183.343.024.234-.777-.53-.423-.402-.814-.732-.868-.732-.058 0-.038.147.048.353.301.72.034.566-1.523-.883-1.06-.984-1.777-1.458-2.542-1.675-.21-.06-.18 0 .22.429.255.274.464.543.464.599s-.22-.034-.489-.2c-.268-.165-.99-.471-1.606-.68-1.316-.449-1.594-.605-2.277-1.28l-.513-.507zm-16.382-.328c0 .016.268.315.596.664 1.64 1.748 2.647 4.006 2.905 6.52l.088.856.013-.75c.021-1.208-.295-2.929-.722-3.932-.066-.154-.049-.176.092-.122.094.036-.012-.143-.237-.398-.447-.507-.73-.987-.639-1.079.06-.06.83.085 1.177.223.179.07.183.063.044-.085-.084-.09-.61-.362-1.171-.605-.56-.243-1.108-.52-1.216-.614-.264-.23-.93-.716-.93-.678m-13.825 1.348c-.078.127.035.488.154.488.05 0 .091-.132.091-.293 0-.289-.125-.388-.245-.195m.737-.025c.005.122.29.46.29.344a1 1 0 0 1 .059-.263c.043-.11.001-.154-.147-.154-.113 0-.204.033-.202.073m4.05.22c-.269.16-.53.304-.582.322-.05.018-.119.272-.15.564l-.057.53-.226-.462c-.22-.45-.792-1.052-1-1.052-.056 0 .035.187.203.415.398.542.687 1.496.697 2.307l.008.649.457-1.387c.488-1.484.737-1.873 1.316-2.06.284-.09.29-.1.067-.108-.134-.004-.464.122-.733.282m8.345 2.958c.44.652.656 1.176.9 2.182.26 1.079.282 2.872.046 3.879-.199.848-.188.93.039.293.793-2.23.298-5.365-1.04-6.582-.246-.225-.243-.212.055.228M46.798 21.15c0 .283.152.406.234.19.09-.234.073-.307-.087-.369-.105-.04-.147.01-.147.18m34.751.066c.348.078.426.142.52.43.145.436.363.545.936.467l.464-.064-.285-.237c-.464-.386-1.227-.708-1.653-.697l-.391.01zm-55.818.079c-.319.076-.793.374-1.01.635-.11.133-.066.151.36.151.507 0 .597-.058.94-.61.092-.148.133-.265.092-.26a7 7 0 0 0-.382.084m20.582.472c.002.038.063.176.135.306.13.236.13.236.24.03.061-.113.078-.223.037-.245-.195-.105-.415-.154-.412-.091m25.284.162a7 7 0 0 0-1.026.555c-.26.179-.691.45-.96.604-.268.155-.411.256-.317.226s.17-.034.17-.009-.22.318-.488.652c-.475.59-1.278 2.026-1.41 2.52-.035.135.114-.087.332-.493.848-1.577 2.393-3.139 3.902-3.944.735-.392.622-.454-.203-.11m-25.58.545c0 .06.048.199.108.31.087.162.125.175.194.067.127-.2.109-.265-.107-.38-.14-.075-.195-.074-.195.003m40.545-.024c0 .042.132.126.293.187.324.122.404-.002.104-.163-.224-.12-.397-.13-.397-.024m-65.755.32c-.105.197-.101.198.192.046.347-.18.377-.247.108-.247-.106 0-.24.09-.3.201m24.14.417c.002.117.08.366.172.554.185.378.467.451.643.166.087-.143.07-.197-.087-.287a3 3 0 0 1-.464-.378c-.258-.257-.269-.26-.264-.055m-17.21.579c-.19.125-.437.431-.576.714l-.245.494-.227-.47c-.125-.26-.315-.518-.421-.575-.172-.092-.167-.063.05.27a2.75 2.75 0 0 1 .415 1.79c-.055.52-.053.527.078.23.075-.17.25-.68.389-1.137.21-.686.32-.89.644-1.183.442-.399.39-.463-.107-.133m52.258.132c.399.314.622.748.9 1.748.191.688.674 1.851.74 1.784.014-.014-.086-.354-.221-.757-.226-.673-.236-.775-.126-1.27.136-.616.325-1.029.613-1.344.11-.121.154-.22.096-.22-.177 0-.683.647-.813 1.04l-.123.373-.123-.355c-.179-.516-.41-.833-.772-1.056-.45-.278-.553-.244-.171.057m-46.52 1.28a1.8 1.8 0 0 1-.282.576c-.135.17-.158.246-.067.216.21-.07.502-.63.461-.882-.031-.194-.046-.182-.111.09m38.427.261c-.979.719-1.747 1.915-2.09 3.252-.205.8-.289 2.2-.172 2.866l.094.537.013-.781c.04-2.315.736-4.174 2.094-5.593.322-.336.567-.61.545-.609s-.24.15-.484.328M20.075 29.49c-.455.428-.742.606-1.27.787-1.82.624-2.542 1.116-3.63 2.477-.29.363-.564.66-.608.66s.176-.515.489-1.144.554-1.159.535-1.177c-.049-.049-1.522 1.265-1.522 1.356 0 .085-2.197 2.068-2.349 2.12-.124.044-.12-.337.006-.574.227-.423-.209-.053-.627.533-.238.334-.639.776-.89.982-.263.215-.533.55-.634.785-.213.498-.791.995-1.32 1.136-.535.143-1.554.632-1.713.823-.075.091-.147.497-.172.974l-.043.817.303.185c.167.102.43.357.585.568s.421.464.594.563l.314.18-.19-.375a3.5 3.5 0 0 1-.26-.694c-.062-.292-.048-.317.176-.317.175 0 .306.1.463.353.19.307 1.044.972 1.134.883.017-.018-.1-.27-.26-.56-.347-.63-.395-1.165-.106-1.165.105 0 .217.044.25.098.034.054.125.098.203.098.106 0 .126-.068.078-.26-.068-.271-.007-.282.477-.083.141.058.17.017.17-.239 0-.3.007-.304.218-.157.304.213.382.19.311-.09-.084-.336.334-.505.86-.349.313.094 1.054.805 1.054 1.013 0 .032-.182.114-.404.18-.67.201-1.353.918-1.945 2.044-.39.743-.612 1.051-.887 1.233-.673.445-1.383.458-1.953.037-.358-.265-.367-.125-.014.212.327.312.701.462 1.18.472l.36.008-.392.191c-.296.145-.532.181-.977.15l-.586-.04.391.187c.795.38 2.057-.008 2.737-.843.176-.216.486-.701.688-1.077.592-1.102 1.082-1.515 1.799-1.515.29 0 .296.01.296.48 0 .602-.07.795-.264.72-.124-.047-.131-.023-.04.147.129.241.138.508.022.69-.068.108-.136.104-.389-.027-.369-.19-.386-.104-.065.33.381.518.15.647-.534.298-.21-.107-.408-.195-.438-.195-.099 0 .216.532.428.723.113.103.205.266.205.363 0 .263.653.437 1.095.291.527-.174.833-.576 1.165-1.53.424-1.221.444-1.252 1.518-2.302.68-.666 1.16-1.042 1.645-1.29.376-.193.794-.444.928-.558l.244-.207-.5.05c-.581.06-.916-.006-.916-.178 0-.066.305-.439.678-.828.478-.498.616-.692.464-.654-.118.029-.401.083-.63.12-.38.06-.415.048-.415-.147 0-.35.359-.943.8-1.32.388-.333 1.422-.895 1.501-.816.02.02-.264.264-.63.543-.627.479-1.275 1.232-1.159 1.348.03.029.388-.01.796-.088.41-.077.744-.114.744-.081s-.34.402-.757.821c-.743.747-.75.76-.415.686.188-.041.781-.07 1.318-.064 1.18.013 1.863.238 2.493.82.232.215.431.39.442.39s.048-.165.081-.367c.086-.517.467-1.29.855-1.733.305-.348 1.383-1.124 1.562-1.124.042 0-.029.23-.158.513-.326.715-.536 1.581-.536 2.213v.536l.279-.44c.154-.242.433-.57.621-.728.27-.226.388-.443.559-1.02.12-.403.344-.96.499-1.237l.281-.504-.411-.335a12 12 0 0 0-.827-.608c-.228-.15-.415-.31-.415-.354 0-.186.447-.297 1.074-.267.367.018.643-.005.614-.052-.071-.115-.977-.509-1.502-.654-.237-.065-.914-.123-1.505-.13-.848-.009-1.075-.04-1.075-.147 0-.252.5-.511 1.23-.638l.724-.126-.44-.13c-.243-.071-.875-.127-1.416-.125-.782.004-1.132.056-1.758.261-.828.272-1.124.316-1.124.169 0-.187.514-.69 1.005-.984l.51-.304-.44.06c-1.5.207-3.008 1.055-3.998 2.246l-.325.391.269-.508c.446-.841 1.153-1.546 2.135-2.126 1.038-.613 1.533-1.087 1.824-1.746.115-.26.194-.487.176-.504s-.297.217-.62.521m-7.912 6.306c-.162.07-.469.322-.683.558l-.389.43.375.03c.428.036.745-.182.745-.512 0-.114.069-.305.153-.424.083-.12.138-.216.122-.214a4 4 0 0 0-.323.132m64.53.785c0 .17.438.89.756 1.242.37.41 2.273 1.98 2.273 1.877 0-.198-.469-.747-1.02-1.195-.353-.285-.64-.53-.64-.543s.362.073.805.19.982.244 1.197.28c.38.063.384.06.147-.08-.135-.08-.53-.24-.88-.356-.892-.298-1.694-.707-2.203-1.123-.239-.196-.435-.328-.435-.292m-62.4 1.156q-.421.46-.42.897c0 .32-.048.315-.455-.043-.48-.42-.607-.36-.198.092.318.352.407.557.617 1.423.054.223.09.075.148-.62.053-.636.15-1.072.319-1.44.133-.291.23-.53.215-.53-.014 0-.116.1-.227.22m70.42.39c.05.175.09.326.09.336s.07.087.154.171c.095.095.325.154.601.154h.448l-.186-.21c-.26-.293-.923-.767-1.073-.767-.095 0-.103.077-.034.317m-76.968.294c-.234.302-.23.394.006.178.143-.13.26-.251.26-.269 0-.08-.18-.019-.266.09m26.181-.013c-1.203.2-2.3.754-3.233 1.633l-.553.52.581-.455c.716-.561 1.456-.94 2.381-1.222.956-.29 2.563-.244 3.577.102.905.31 1.964 1.017 2.812 1.879.647.657.673.673.362.23-.922-1.317-2.55-2.383-4.046-2.65-.874-.155-1.14-.16-1.881-.037m26.062.33a11.7 11.7 0 0 0-4.424 2.04c-1.014.763-1.143.964-.21.329 1.1-.75 1.718-1.077 2.777-1.47 1.385-.515 2.45-.687 3.86-.625 1.794.08 3.218.574 4.45 1.547.45.355.494.374.288.125-.641-.778-1.88-1.523-3.077-1.851-.82-.225-2.847-.278-3.664-.095m29.31.91c0 .045.138.182.307.307.299.221.301.13.005-.215-.155-.18-.312-.226-.312-.091m-6.68.66c.222.235.39.565.524 1.025l.397 1.372c.111.382.22.676.243.654s0-.285-.048-.583c-.13-.802.105-1.654.61-2.206.11-.121.157-.22.104-.22-.144 0-.575.49-.769.873l-.17.336-.18-.482a2.2 2.2 0 0 0-.541-.8c-.481-.423-.58-.405-.17.03M23.552 43.05c-.018.262-1.03 1.646-1.639 2.241l-.664.65.522-.261c.287-.144.924-.349 1.414-.456 1.001-.218 1.404-.426 1.654-.851.272-.461.201-.503-.202-.12-.36.343-.745.508-1.5.644l-.36.065.445-.875c.245-.481.422-.936.392-1.01-.03-.076-.057-.088-.062-.027m68.992 3.703c-.316 2.384-1.976 4.008-4.76 4.656-1.47.34-2.21.753-2.954 1.643-.337.403-.567.748-.512.766.266.09 2.844-.622 3.547-.98.207-.104.396-.17.42-.147.082.083-1.677.923-2.457 1.173a38 38 0 0 1-2.002.551c-2.426.596-3.913 1.59-4.67 3.121-.334.676-.362.798-.362 1.588 0 .471-.03.781-.066.69s-.07-.53-.074-.972c-.01-1.156.333-1.946 1.292-2.981.187-.201.317-.366.29-.366-.208 0-1.263.742-1.854 1.302-.916.87-1.44 1.868-1.605 3.052-.275 1.987.76 4.076 2.71 5.467.35.25 1.433.869 2.405 1.373 2.037 1.058 2.864 1.648 3.585 2.558.65.818.95 1.41 1.188 2.344.365 1.427.17 3.14-.53 4.656-.368.797-1.178 2.036-1.565 2.395l-.256.237v-.408c0-.224-.035-.408-.077-.408-.043 0-.35.366-.68.814-.836 1.128-1.872 2.075-2.016 1.842-.027-.044.056-.308.185-.586q.233-.506.115-.507c-.066 0-.602.288-1.192.639-1.182.703-1.587.86-2.1.81l-.341-.032.488-.527.489-.528-.684.069c-.376.037-1.08.158-1.563.267-.536.12-1.053.179-1.324.148l-.445-.05-.645.848c-.73.96-2.067 2.335-3.009 3.095-.349.282-1.272.917-2.051 1.411-.78.495-1.451.933-1.494.974-.158.153 2.921 1.083 3.59 1.083.523 0 1.345-.429 2.03-1.06.532-.49.578-.515.41-.223-.104.18-.466.583-.804.895l-.615.566.273.056c.657.134 1.575.253 1.953.254.322 0 .539-.088 1.025-.421.34-.232.76-.61.935-.838.174-.23.317-.352.317-.273 0 .185-.812 1.29-1.042 1.419-.304.17.277.246 1.323.174 1.16-.08 1.602-.316 2.284-1.217.255-.337.464-.556.463-.485-.001.158-.545 1.117-.68 1.2-.194.12-.098.246.186.246.418 0 1.632-.27 1.94-.43.347-.182.804-.674 1.188-1.28.348-.548.311-.27-.063.474-.131.261-.215.498-.186.526.061.062.955-.285 1.748-.677.462-.229.638-.391.953-.879.212-.328.386-.642.386-.696s.022-.077.05-.05c.026.027-.016.263-.095.525-.079.261-.124.494-.101.517.11.11 2.133-1.384 2.998-2.214 1.246-1.196 2.095-2.326 2.766-3.68.988-1.998 1.357-3.544 1.35-5.667-.003-1.015-.056-1.596-.204-2.253-.394-1.734-1.224-3.44-2.178-4.473l-.466-.504.323.932c.99 2.85.613 5.715-1.086 8.276-.801 1.206-2.249 2.58-3.284 3.115-.398.206-.327.11.196-.26 2.866-2.036 4.603-5.736 4.211-8.972-.147-1.212-.584-2.495-1.142-3.35-.888-1.36-2.008-2.117-4.754-3.214-2.294-.916-2.762-1.165-3.331-1.774-.61-.651-.929-1.378-.932-2.124-.005-1.008.324-1.704 1.163-2.459.635-.57 1.336-.936 2.965-1.546l1.332-.498.988.148c1.18.177 1.686.186 2.377.039.527-.112 1.239-.432 1.593-.715.185-.148.174-.153-.196-.086-.51.092-1.222.069-1.334-.043-.165-.164.023-.384.529-.62 1.108-.514 2.219-1.428 2.95-2.425.275-.374.266-.466-.032-.307-.175.094-.158.02.136-.603.532-1.127.667-1.805.604-3.054-.029-.59-.113-1.271-.186-1.512l-.134-.437zm-73.936.062c-.193.17-.46.523-.593.784l-.24.476.271-.066a3 3 0 0 0 .55-.205c.247-.124.273-.182.233-.5-.034-.268.004-.413.154-.578.298-.329.028-.265-.375.089m26.382.18c-.323.214-.538.39-.479.39.096 0 .819-.474 1.06-.696.2-.183-.02-.067-.581.306m20.222.719-.682.328.389.164c.56.238.838.173 1.117-.259.13-.201.306-.367.391-.368.135 0 .136-.013.008-.096-.248-.16-.515-.11-1.223.23m-44.387.703c-.063.137-.114.512-.114.834v.585l-.345-.346c-.528-.527-.73-.437-.247.11.494.562.74 1.315.643 1.973-.054.364-.042.43.056.334.09-.088.12-.556.113-1.753-.006-.899.032-1.713.084-1.81s.056-.176.009-.176-.137.112-.2.249m40.064.099c-.12.083-.217.196-.217.25s.097.029.217-.055.295-.152.39-.152.174-.044.174-.098c0-.148-.32-.117-.564.055m-15.796 1.21c-.17.188-1.662.997-2.062 1.118-.164.05-.268-.044-.58-.524-.207-.322-.399-.565-.424-.54-.076.077.6 1.336.747 1.393.165.063.857-.262 1.53-.719.593-.4 1.068-.814 1.007-.875-.025-.024-.123.042-.218.148m-30.527.41c-.059.17-.086.331-.06.357s.076-.036.113-.138a1.4 1.4 0 0 1 .213-.356c.13-.153.13-.171-.006-.171-.083 0-.2.139-.26.309m52.882-.208c-.43.091-.951.433-1.108.726-.174.326-.232.313-.376-.085-.066-.183-.229-.404-.361-.49-.293-.192-.299-.155-.047.259.235.384.255 1.022.053 1.692-.078.26-.131.486-.117.5s.258-.366.542-.846.688-1.027.896-1.216c.353-.318.495-.384 1.02-.47l.196-.032-.196-.052a1.4 1.4 0 0 0-.502.014M41.099 52.88c.17.572.564 1.396.711 1.487.125.077 1.492-.383 2.057-.692.74-.404.998-.658.342-.335-.843.415-2.15.752-2.331.601-.078-.064-.303-.444-.5-.845-.199-.4-.377-.729-.396-.729s.033.231.117.513m21.917 1.6c0 .382.2.653.418.569.244-.094.208-.263-.124-.581l-.294-.281zm-23.645 1.155c.143.377.609 1.024 1.021 1.419l.354.34.95-.163c.804-.137 2.137-.539 2.051-.618-.014-.013-.312.036-.661.11s-1.031.135-1.515.137l-.879.002-.71-.746c-.5-.525-.682-.667-.611-.481m-17.34 4.508c-.833.117-1.529.266-2.1.45-.633.203-2.005.844-1.94.905.02.018.32-.028.67-.102.857-.181 2.298-.172 3.156.019 1.495.333 2.947 1.219 4.12 2.512l.635.702.001-.459c0-.252.046-.486.1-.52.135-.082.589.39.921.958.317.542.433 1.45.264 2.074-.16.593-.633 1.268-1.156 1.653-.258.189-.967.592-1.576.896-1.463.73-2.123 1.181-2.834 1.941-1.58 1.69-1.793 4.051-.557 6.161.385.657 1.362 1.586 2.154 2.048.695.406 1.906.958 1.967.897.02-.019-.226-.237-.545-.485-1.28-.994-2.152-2.565-2.155-3.884-.001-.592.24-1.485.558-2.07.383-.704 1.386-1.592 2.816-2.493 1.52-.957 2.146-1.492 2.674-2.283 1.448-2.168.803-4.998-1.499-6.583-.3-.207-.544-.41-.544-.452s.296-.09.66-.106l.659-.029-.44-.288c-.656-.43-2.067-1.014-2.966-1.229-.778-.186-2.461-.315-3.043-.233m-1.204 12.11c-.524.596-1.15 1.824-1.402 2.753-.286 1.055-.284 2.79.004 3.887.415 1.576 1.463 3.314 2.31 3.832l.195.12-.196-.056c-.109-.03.112.246.501.627.583.57.776.7 1.18.786.266.057.59.08.72.051.188-.042.206-.03.09.052a.8.8 0 0 1-.374.106c-.4.003-.18.23.614.637.865.443 1.502.506 2.105.209l.342-.168-.367.332-.367.333.611.173c.337.096.904.195 1.26.221l.648.048.451-.415c.488-.45.562-.428.255.075-.107.176-.195.346-.195.377 0 .03.554.04 1.23.022l1.231-.035.235-.293c.129-.161.3-.469.382-.684l.147-.39-.055.62-.055.62.421-.07c.232-.037.795-.186 1.252-.33.933-.295 1.039-.414 1.142-1.285.074-.629.222-.444.224.28.001.494.012.516.221.451.582-.18 2.122-1.086 2.934-1.726l.37-.292-.332-.404c-.459-.56-1.163-1.685-1.385-2.212-.101-.242-.378-.651-.614-.91-.236-.257-.6-.835-.81-1.283l-.382-.814-.953.316c-.524.175-1.146.416-1.383.537l-.43.22.505.17c.584.198.645.243.548.4-.183.296-.976.52-1.903.54-.51.01-1.136.025-1.392.031-.255.006-.464.047-.464.09 0 .044.206.224.458.401.421.298.442.332.268.432-.29.168-1.664.1-2.524-.124-.955-.249-.92-.251-.645.042.126.134.209.265.184.29s-.44-.037-.92-.138c-2.751-.578-4.7-1.954-5.616-3.962-.635-1.393-.655-3.095-.051-4.413.13-.287.222-.52.203-.52-.02 0-.211.199-.426.443m18.509 11.985c-.135.23-.44.892-.68 1.47-.496 1.203-.756 1.582-1.465 2.138a8.6 8.6 0 0 0-.94.888c-.83.942-1.816 1.117-2.893.515-.336-.188-.656-.342-.71-.342s-.293.148-.53.33c-.394.3-.453.317-.667.198-.423-.234-.746-.166-1.202.254-.233.215-.497.39-.587.39-.321 0-.942.4-1.178.76-.228.347-.437 1.024-.442 1.434-.002.151.08.105.398-.226.395-.411.725-.6 1.05-.6.145 0 .161.093.129.733-.02.403.001.733.049.733.047 0 .173-.161.279-.358.326-.606 1.038-.907 1.325-.56.102.122.266.148.745.117l.615-.039.007.542c.003.298.04.63.083.737.074.19.079.189.146-.025.086-.268.502-.775.743-.904.127-.068.296-.04.6.098.571.259.749.246 1.408-.1.536-.282.604-.294 1.353-.235.669.053.868.031 1.306-.143.615-.244 1.53-.27 2.038-.058.516.215 1.319.19 1.624-.05.137-.107.337-.195.445-.195.24 0 .765.426.849.688.105.331.222.21.292-.303.099-.716-.223-1.318-.885-1.655a9 9 0 0 1-.739-.419c-.202-.136-.31-.151-.52-.072-.68.26-1.05-.02-.804-.607.179-.429.713-.884 1.511-1.286.627-.317 1.583-1.06 1.583-1.231 0-.046-.297-.28-.66-.522a13 13 0 0 1-1.245-.97c-.323-.291-.74-.608-.928-.704a8 8 0 0 1-.8-.507l-.458-.333z"/></svg>