<svg xmlns="http://www.w3.org/2000/svg" viewBox="0 0 100 100"><path fill="#fff" d="M35.612 6.48c-.944.459-1.503 1.348-1.78 2.83-.244 1.313-.31 1.505-.68 1.991-.37.483-.41.682-.28 1.376.077.41.071.422-.475.973-.304.306-.58.663-.612.792-.033.128-.006.47.059.76.142.633.033 1.277-.396 2.348-.386.964-.383 1.596.01 2.215.472.745.95.963 2.467 1.126.653.07 1.03.175 1.602.447.412.195.758.343.77.329s-.036-.422-.106-.906a13 13 0 0 1-.124-1.514l.002-.635.224 1.092c.196.957.506 2.116.706 2.636.056.147.02.142-.27-.038-.425-.261-1.318-.71-1.414-.71-.04 0-.043.288-.007.64.037.362.019.9-.042 1.236-.139.767-.099.902.49 1.639.504.63.534.706.497 1.246-.064.945.65 2.26 1.53 2.817.31.196.674.455.808.575.137.122.547.291.929.382.877.21 1.47.58 1.848 1.156.166.252.33.461.367.464.177.014.503-1.174.548-1.997.058-1.041.2-.875.21.244.007.934-.074 1.214-.79 2.712-.933 1.948-.908 2.078.474 2.518 1.005.32 1.24.516 1.151.956-.295 1.452-1.762 2.954-3.522 3.605-.474.176-.793.216-1.752.219-1.127.004-1.199-.008-1.85-.317-.918-.434-1.419-.867-1.984-1.713-.592-.885-.903-1.83-.987-3l-.064-.903-.31.477q-.561.864-1.61 1.598c-.604.422-.62.527-.269 1.713a8.27 8.27 0 0 0 3.508 4.639c.188.12.258.19.155.155-.447-.149-1.548-.99-2.227-1.7q-1.263-1.32-1.837-3.317c-.175-.609-.27-.802-.385-.779-.118.025-.147.154-.132.595.016.447-.02.603-.172.755-.222.221-.191.478.138 1.166.164.343.27.447.479.47.148.018.268.066.268.108s.178.35.395.687c.31.48.371.64.283.746-.182.22-.028.57.442 1.004.423.39.76.508.881.31.033-.052.326.102.652.342s.637.436.69.436c.054 0 .072.104.04.231-.068.272.12.473.648.694.472.197 1.015.195 1.127-.004.076-.136.16-.14.684-.037.328.064.744.09.923.056.382-.072 2.426-1.209 3.372-1.876.92-.65 2.136-1.9 2.739-2.82.28-.428.51-.742.51-.7 0 .213-.841 1.654-1.306 2.236-2.17 2.725-6.62 4.782-9.784 4.525-2.696-.22-5.109-1.706-5.83-3.593a4.24 4.24 0 0 1 .537-3.951c.524-.71.962-1.068 2.488-2.032.66-.418 1.413-.974 1.672-1.237 1.197-1.216 1.575-2.982.93-4.342-.46-.969-1.74-1.873-3.044-2.15-2.543-.538-4.949.517-5.987 2.628-.441.897-.635 1.745-.509 2.231.046.178.125.302.175.276s.228-.41.395-.854c.35-.928.67-1.427 1.272-1.982.377-.348.449-.379.622-.27.236.147.52.01.57-.277.068-.38.713-.6.834-.283.067.174.653.2.817.037a.27.27 0 0 0 .052-.26c-.049-.126.009-.138.365-.082.535.086.608.134.538.354-.118.372.72.668.914.322.081-.145.138-.12.469.214l.376.38-.245.058c-.196.048-.25.129-.273.41-.033.387.183.696.423.604.174-.067.189.15.033.493-.123.27-.34.395-.43.25-.11-.178-.544-.092-.794.157-.19.191-.237.316-.196.522.047.236.01.293-.286.434-.302.144-.364.146-.56.017-.447-.293-1.432.257-1.308.73.078.297-.606.748-.897.592-.53-.283-1.648.774-1.284 1.213.162.194-.365.943-.612.87-.265-.079-.608.197-.839.673-.257.531-.26.8-.015 1.045.152.152.174.249.106.465-.047.15-.11.385-.14.524a.6.6 0 0 1-.297.362c-.3.137-.477.726-.387 1.289a1 1 0 0 0 .38.665c.42.353.658 1.23.388 1.428-.138.1-.162.224-.123.633.062.64.48 1.209.945 1.282.376.059 1.037.821.927 1.068-.19.429.166 1.105.781 1.48.33.202.795.248.893.089.035-.057.295.07.616.299.426.305.549.448.527.613-.082.624 1.515 1.35 1.969.896.183-.183.229-.182.938.015.438.121.588.21.61.357.05.34.496.582 1.087.591.576.008 1.007-.16 1.091-.426.042-.13.19-.168.71-.182 1.24-.033 2.223-.22 3.638-.691.78-.26 1.432-.458 1.45-.441.06.054-.997.626-1.548.836-.41.157-1.386.386-2.027.475-.013.002-.024.087-.024.188 0 .315-.758 1.336-1.295 1.747-.713.544-1.262.801-2.016.944l-.646.122.73.126c2.786.48 6.41-.67 8.887-2.82 1.472-1.28 2.338-2.995 1.92-3.803-.309-.598-.752-.556-2.647.254-2.446 1.046-3.568 1.323-5.324 1.316-.997-.004-2.47-.215-2.633-.377-.03-.03.276-.018.679.027 2.461.274 4.277-.07 7.327-1.39 1.084-.468 1.42-.57 1.879-.575.505-.005.59.026.88.314.298.299.319.363.316.977-.003.534-.062.776-.312 1.29-.169.35-.295.647-.279.663.016.015.314-.292.664-.682 1.935-2.166 2.862-3.987 3.294-6.475l.186-1.075.007.782c.003.43-.056 1.045-.132 1.367-.076.321-.122.6-.102.62.088.089.888-1.701 1.276-2.857.498-1.482.556-1.38.144.25-.824 3.26-2.33 5.852-4.762 8.194-2.236 2.154-4.669 3.576-7.216 4.218-.75.189-1.126.22-2.633.218-1.64-.003-1.818-.021-2.638-.273-1.41-.433-2.867-1.09-4.518-2.04-3.368-1.935-4.686-2.406-6.962-2.488-1.067-.038-1.496-.01-2.247.145-1.762.364-3.322 1.154-4.562 2.309-3.667 3.413-3.753 9.008-.189 12.341 1.412 1.321 3.14 2.003 5.093 2.01 2.016.007 3.808-1.027 4.57-2.636.279-.59.315-.762.314-1.497-.001-.71-.04-.902-.264-1.33-.646-1.23-1.916-1.795-2.966-1.318-.556.253-.823.623-.823 1.142 0 .545.15.63.335.188.177-.422.7-.683 1.187-.592.393.074.871.595 1.012 1.102.139.5.14.498-.162.533-.173.02-.343.147-.488.363-.232.345-.3.929-.12 1.039.132.082-.05.307-.395.485-.23.119-.269.113-.374-.056-.144-.23-.656-.25-1.145-.046-.26.109-.339.199-.339.39 0 .229-.035.25-.415.248-.501-.001-.61-.07-.61-.386 0-.18-.1-.298-.391-.462-.464-.263-.799-.284-1.04-.065-.165.149-.2.142-.52-.102-.3-.229-.328-.284-.223-.451.097-.156.086-.25-.057-.516-.224-.417-.703-.717-.893-.559-.107.089-.186.036-.386-.258-.303-.446-.31-.535-.057-.694a.47.47 0 0 0 .196-.363c0-.293-.28-1.021-.402-1.042a3 3 0 0 0-.209-.024c-.161-.013-.253-.23-.262-.62-.006-.275.026-.318.236-.318.295 0 .497-.292.586-.848.055-.341.03-.442-.147-.62-.209-.209-.21-.222-.044-.59.152-.337.198-.369.452-.318.48.096 1.034-.594.914-1.14-.049-.221-.007-.326.212-.53.316-.292.38-.307.458-.106.08.21.542.18.941-.062.426-.258.504-.37.442-.637-.04-.168.012-.232.257-.318.458-.16.67-.135.67.078 0 .23.182.304.746.304.532 0 .816-.138.816-.395 0-.219.095-.232.619-.087.244.068.357.15.325.233-.083.216.206.517.664.692.476.182.933.131.933-.103 0-.186.01-.185.529.067.397.193.431.237.38.493-.067.333.207.676.772.965.459.236.728.236.875.002.11-.177.133-.173.57.096.4.246.45.314.414.562-.055.371.343.75.989.943.483.145.782.088.867-.165.029-.087.18-.066.57.082.442.168.536.245.562.465.041.344.486.615 1.147.698.553.069.922-.056.922-.312 0-.13.104-.144.709-.09l.708.063-.244-.214-.245-.215.342.067c1.838.356 4 .325 5.96-.086 1.358-.284 3.328-.91 4.592-1.459 1.147-.498.872-.284-.537.417a18.5 18.5 0 0 1-4.302 1.481c-1.256.268-3.391.364-4.415.199l-.756-.122-.588.657c-1.336 1.492-2.642 3.672-3.176 5.302-1.733 5.287.591 10.706 5.46 12.733 2.004.835 4.896.913 6.76.183 1.39-.544 2.939-1.88 3.635-3.137 1.028-1.857 1.02-4.08-.022-5.594-.46-.67-1.128-1.148-2.269-1.625-.556-.233-1.113-.488-1.236-.567-.496-.317-.66-1.088-.309-1.464.218-.234.343-.267.436-.116.179.29 1.026-.037 1.026-.396 0-.282.736-.278.81.004.107.41 1.007.512 1.193.136.093-.188.135-.197.442-.096.286.094.335.153.312.37-.05.484.798.937 1.153.615.182-.165.204-.162.533.062.339.23.436.38.246.38-.221 0-.087.517.206.79.327.306.561.356.76.162.1-.098.18-.056.408.214.263.311.272.35.127.51-.187.207-.127.525.173.906.17.217.266.259.49.214.247-.05.3-.013.474.329.233.458.237.49.056.49-.235 0-.277.37-.087.759.14.288.233.363.44.36.228-.002.276.052.367.41.132.525.132.522-.045.522-.342 0-.382.993-.048 1.172.094.05.201.06.239.023s.054.152.037.42q-.03.486-.16.486c-.31 0-.548.749-.313.984.155.155-.255.75-.47.682-.225-.072-.63.345-.585.604.02.124-.193.431-.625.897-1.058 1.144-1.476 2.289-1.26 3.456.108.586.485 1.417.737 1.626.191.159.191.133 0-.397-.225-.623-.202-1.677.05-2.347.28-.742.723-1.298 1.647-2.069 1.674-1.396 2.365-2.821 2.365-4.878 0-3.885-2.617-7.882-6.17-9.421-.919-.398-2.313-.712-3.16-.712-2.534.002-4.488 1.473-4.62 3.477-.062.952.157 1.589.77 2.237.457.483.618.575 2.319 1.33.473.21.826.445 1.04.695.347.406.636 1.263.447 1.326-.387.13-.642.938-.36 1.144.211.155.202.237-.068.574-.187.234-.259.265-.412.18-.135-.076-.252-.07-.432.024q-.648.336-.546.809c.058.26.031.296-.337.44-.397.156-.4.156-.49-.081-.077-.202-.156-.238-.511-.238-.484 0-.855.216-.855.5 0 .169-.055.19-.415.165-.339-.025-.42-.069-.445-.24a.74.74 0 0 0-.213-.375c-.387-.35-1.272-.353-1.272-.005 0 .193-.027.19-.5-.051q-.396-.203-.338-.342l.118-.291c.04-.098-.08-.284-.346-.538-.412-.39-.75-.485-.964-.27-.09.089-.172.063-.36-.114-.347-.326-.39-.544-.153-.78.15-.15.185-.271.138-.47-.163-.677-.54-1.07-.912-.952-.192.06-.223.008-.347-.61-.055-.274-.037-.317.134-.317.29 0 .502-.372.502-.88 0-.506-.212-.879-.5-.879-.14 0-.184-.049-.15-.17.025-.094.074-.337.108-.539.056-.332.081-.357.26-.262.3.161.626-.107.813-.67.172-.519.131-.765-.165-1.005-.186-.15-.186-.167-.023-.488.262-.516.347-.597.494-.475.07.059.25.092.398.075.579-.067 1.224-1.406.763-1.583-.207-.08-.055-.346.392-.686.315-.24.362-.251.5-.113.084.084.226.15.316.149.315-.007.952-.472 1.232-.9.164-.25.165-.286.017-.512-.156-.238-.152-.248.248-.537.485-.352.54-.358.763-.081.17.21.182.21.603.05.844-.323 1.445-1.053 1.061-1.29-.156-.097-.023-.228.507-.497.448-.227.506-.235.66-.095.227.205.62.193 1.061-.033.732-.374 1.077-.869.8-1.145-.117-.118-.032-.198.9-.85l.654-.458.062.464c.28 2.105 1.426 4.383 2.893 5.757.478.448 1.754 1.303 1.943 1.303.09 0 .213-.11.274-.244.186-.409.897-1.112 1.5-1.484.313-.193.57-.38.57-.415s-.127-.137-.282-.228c-.324-.192-1.38-1.304-1.38-1.454 0-.056.095-.177.21-.27.17-.138.197-.234.146-.505a2.4 2.4 0 0 0-.264-.664c-.18-.295-.235-.323-.535-.275-.33.054-.336.049-.483-.445-.187-.632-.186-.66.032-.66.375 0 .541-.37.515-1.148-.012-.356-.341-.752-.556-.67-.107.04-.139-.042-.138-.359.003-.703.078-.853.418-.826.431.033.774-.48.733-1.097-.023-.352-.064-.44-.2-.43-.269.022-.201-.112.196-.386.663-.458 1.097-.592 1.93-.595.65-.003.87.04 1.318.257.296.143.622.328.725.41.176.142.177.163.025.332-.256.282-.196.605.234 1.262.53.813 1.119 1.218 1.312.905.034-.054.096-.098.138-.098.09 0 .986 1.119.986 1.23 0 .04-.071.153-.158.249-.2.221-.135.49.264 1.093.333.503.897.946 1.203.946a.6.6 0 0 0 .353-.148c.147-.133.2-.101.58.348.387.46.405.506.26.668a.7.7 0 0 0-.157.415c0 .317.484 1.074.858 1.34.31.22.749.278.851.112.107-.173.221-.106.524.305l.296.402-.19.258c-.161.219-.174.311-.085.63.199.717 1.062 1.43 1.396 1.152.102-.084.188-.001.4.388l.27.496-.206.144c-.557.39.09 2.188.73 2.028.196-.05.231-.008.31.368.083.396.071.439-.184.648-.504.413-.504 1.643 0 1.955.247.154.26.194.183.575-.074.368-.114.413-.392.44-.564.055-1.121 1.221-.81 1.696.195.297.19.33-.082.664-.2.244-.252.263-.425.154-.263-.164-.671.003-1.155.473-.328.318-.353.381-.302.756.055.396.045.414-.343.633-.362.203-.409.209-.49.064-.118-.21-.769-.212-1.184-.002-.5.253-.654.436-.654.77 0 .271-.053.336-.4.493l-.4.18-.173-.228c-.151-.2-.233-.222-.67-.18-.342.033-.61.133-.854.319-.303.231-.35.317-.318.59.034.289-.002.34-.376.545-.391.213-.424.217-.598.06-.24-.217-.433-.21-.909.033-.47.24-.797.725-.723 1.073.041.191-.022.32-.28.57-.21.202-.36.284-.4.217-.207-.334-.91.055-1.23.681-.229.45-.237.565-.054.769.121.134.107.207-.107.57-.195.327-.303.414-.514.414-.312 0-.524.205-.735.71-.206.492-.192.911.036 1.07.172.12.177.174.067.666-.095.421-.164.54-.326.565-.309.045-.422.242-.484.839-.059.57.122 1.035.4 1.035.29 0 .34 1.072.06 1.248-.256.16-.257.71-.003 1.268.157.347.234.415.466.415.238 0 .313.074.53.518.217.44.235.543.127.692-.167.228-.029.638.355 1.048.24.256.334.295.6.247.268-.047.375-.004.677.277.263.245.344.388.305.54-.066.252.278.653.725.843.388.166.373.166.554-.016.135-.134.2-.125.643.1.338.171.492.309.492.44 0 .218.37.44.9.54.298.056.377.033.484-.139.105-.167.226-.204.668-.204.465 0 .552.03.636.22.078.178.17.217.487.207.586-.017.928-.185.928-.454 0-.173.106-.279.436-.44.257-.124.46-.172.494-.117.106.171.462.1.804-.161.284-.217.33-.304.292-.56-.055-.372.271-.873.517-.795.188.06.429-.18.58-.577.087-.229.077-.315-.052-.457-.12-.133-.143-.273-.092-.573.037-.218.105-.397.153-.397.047 0 .133-.09.192-.2.133-.248-.046-.875-.25-.875-.172 0-.537-.797-.423-.923.138-.152.099-.284-.171-.576-.158-.17-.323-.258-.431-.23-.113.03-.306-.089-.546-.334-.204-.208-.317-.38-.253-.38.28 0 .023-.833-.288-.932-.322-.102-.145-.923.2-.923.247 0 .722-.568.663-.792-.084-.323.593-.746.916-.573.28.15.761.023 1.035-.273.271-.292 1.168-.44 1.307-.215.126.205 1.063.183 1.181-.028.068-.12.218-.171.507-.172 1.224-.002 2.722-.46 3.704-1.13 1.141-.78 1.933-1.96 1.93-2.875L72 77.33l-.314.587a4.83 4.83 0 0 1-2.126 2.025c-1.17.552-1.467.596-4.101.615-2.102.015-2.487.043-3.157.225-1.58.43-2.78 1.345-3.389 2.588-.26.532-.335.818-.37 1.429-.056.962.125 1.542.739 2.375.948 1.285 1.1 1.84.716 2.593-.238.466-.445.648-1.033.908-1.35.598-3.547-.463-4.723-2.28-.59-.911-.814-1.683-.817-2.803-.003-1.436.344-2.56 1.133-3.664 1.074-1.505 2.59-2.452 5.687-3.555.92-.327 2.01-.73 2.423-.893 3.827-1.52 6.356-4.299 7.158-7.864.219-.97.216-3.17-.004-4.282-.574-2.903-1.89-5.491-5.774-11.354-1.843-2.781-1.961-2.968-3.052-4.836-1.704-2.915-2.929-5.652-3.63-8.109-.27-.947-.482-1.905-.347-1.563l.736 1.87c1.038 2.642 2.45 5.415 4.11 8.073.428.687.444.7.499.427.031-.155.118-.306.193-.335.245-.094.907.287 1.544.889.567.536.614.61.503.791-.2.329-.142.572.231.986.39.43.84.533.963.22.058-.15.098-.134.309.122.133.161.309.418.39.571.14.263.137.288-.064.429-.176.123-.206.217-.165.523.028.205.15.512.27.681.198.277.259.304.599.258.352-.047.388-.029.507.258.07.17.158.43.194.577.06.236.04.269-.163.269-.447 0-.601.789-.263 1.343.136.223.267.318.44.318.229 0 .245.032.245.483 0 .341-.046.51-.156.571-.133.075-.044.31.62 1.65.426.86.967 2.146 1.202 2.858l.428 1.296.219-.275c.401-.504 1.29-2.332 1.636-3.365.475-1.42.678-2.643.678-4.098 0-1.458-.147-2.461-.545-3.712-.95-2.983-2.816-5.22-6.183-7.409-1.732-1.126-2.684-1.883-3.669-2.918-1.215-1.277-2.188-2.726-2.676-3.986-.17-.439-.111-.365.412.514.864 1.45 2.262 3.046 3.637 4.153.402.324 1.44 1.062 2.305 1.64s1.92 1.345 2.345 1.703c.79.665 1.074.832 1.423.832.109 0 .274.093.367.208.235.291.918.291 1.19 0 .239-.257 1.036-.3 1.128-.062.036.095.188.147.43.147.533 0 .855-.147.892-.407.046-.315.684-.465 1.053-.247.19.112.35.132.596.073.464-.111.677-.206.692-.31l.024-.208c.007-.074.195-.134.476-.152.365-.024.464.002.464.12 0 .196.352.416.795.497.297.054.379.03.506-.152l.152-.217.373.195c.317.166.368.238.345.48-.041.423.537.964.944.882.244-.049.335-.01.542.237.236.28.24.307.09.537-.147.224-.146.27.019.635.197.437.446.618.727.529.152-.049.208.014.306.34.11.37.104.41-.093.548-.385.27-.24 1.31.183 1.31.158 0 .192.067.192.388 0 .328-.043.41-.281.533-.437.226-.571 1.088-.208 1.338.182.125.188.178.085.818-.06.376-.085 1.101-.055 1.612.1 1.691.755 3.063 1.851 3.87.746.548 1.406.766 2.33.769.658.001.819-.037 1.412-.34 1.134-.58 1.692-1.626 1.406-2.639l-.124-.439-.074.39c-.155.83-.536 1.39-1.152 1.703-1.325.672-2.847-.001-3.436-1.519-.298-.77-.298-2.013.001-3.114.585-2.15.701-2.711.755-3.633.096-1.639-.234-3.095-1.043-4.594-1.145-2.123-2.897-3.537-5.137-4.146-1.11-.302-3.01-.3-4.488.005-2.28.471-3.864.375-5.813-.353-.885-.33-3.224-1.448-3.224-1.54 0-.024.378.131.841.344 2.044.94 4.053 1.428 5.477 1.33.856-.059 1.287-.227 2.255-.879.282-.19.513-.305.513-.256 0 .18.477.205.82.042.664-.315 1.252-1.172.938-1.366-.171-.106-.108-.212.35-.587.33-.271.474-.337.556-.256.19.19.562.121.988-.185.552-.397.776-.78.65-1.114-.09-.235-.063-.275.36-.539.446-.277.462-.28.59-.096.35.5 1.782-.058 1.782-.695 0-.194.06-.283.22-.325.472-.127.705-.067.87.224.291.512 1.472.531 1.694.028.081-.183.148-.21.391-.158.492.105.635.223.635.523 0 .33.398.71.93.885.291.096.387.088.592-.045.235-.154.254-.15.547.144.227.227.275.331.192.414-.427.427.458 1.546 1.095 1.386.186-.046.27.005.435.265l.204.322-.2.187c-.388.361-.009 1.444.528 1.508.377.046.532.833.186.943-.238.075-.405.46-.405.93 0 .295.058.425.26.584.237.187.253.239.172.57-.074.299-.139.369-.365.394-.472.055-.93 1.054-.622 1.361.134.134.123.188-.098.522-.21.319-.286.365-.516.32-.21-.043-.35.016-.634.267-.32.28-.36.362-.313.647.048.296.014.355-.35.619-.274.198-.434.26-.502.192-.153-.153-.504-.119-.74.072-.201.163-.214.26-.231 1.705l-.018 1.532.83-.449c1.493-.806 2.105-1.194 2.936-1.862 1.92-1.543 3.142-3.601 3.566-6.006.868-4.936-2.5-10.254-7.451-11.767-.772-.235-1.015-.263-2.421-.269-1.87-.008-2.657.164-4.201.919-1.312.64-2.133 1.2-4.104 2.791-2.679 2.164-4.073 2.993-5.68 3.376-.726.173-2.226.145-3.015-.057-.709-.18-1.772-.607-1.698-.681.023-.023.37.046.772.154s1.15.221 1.661.252c.81.048.982.03 1.32-.142.322-.164.408-.176.509-.067.17.184.625.01 1.069-.407.3-.283.342-.376.297-.652-.044-.271.017-.414.382-.902.285-.381.503-.58.638-.582.264-.004.539-.374.716-.962.129-.428.126-.48-.038-.642-.166-.167-.168-.227-.037-.954.114-.627.182-.795.353-.87.181-.08.215-.184.24-.75.031-.718-.084-1.052-.362-1.052-.14 0-.203-.123-.29-.562a21 21 0 0 0-.171-.781c-.042-.157-.017-.22.088-.22.216 0 .282-.264.17-.682-.148-.545-.466-.909-.736-.84-.188.046-.273-.033-.573-.538-.367-.615-.413-.724-.267-.634.15.093.316-.208.253-.459-.079-.312-.607-.95-.786-.95-.077 0-.14.087-.14.195 0 .315-.136.23-.57-.355-.457-.618-.492-.724-.211-.65.387.1.185-.761-.277-1.179-.21-.19-.407-.147-.407.089 0 .077-.036.14-.08.14-.087 0-.438-.59-.593-.997-.092-.242-.082-.258.165-.241.237.016.267-.019.294-.343.054-.655-.495-1.304-.64-.755-.04.155-.072.173-.135.073-.117-.184-.107-1.351.012-1.351.054 0 .098.044.098.097 0 .17.38.107.478-.079.052-.097.109-.344.126-.548.023-.281-.014-.399-.153-.483-.14-.085-.194-.082-.228.011-.024.067-.081.122-.127.122-.142 0 .078-.589.356-.953.253-.332.268-.338.343-.136.109.295.348.262.68-.093.331-.355.361-.574.088-.645-.108-.029-.195-.084-.195-.123 0-.106.302-.35.654-.529.38-.192.429-.196.364-.027-.097.253.21.386.597.258.398-.131.516-.322.335-.54-.171-.207-.072-.267.525-.316.495-.041.522-.032.513.183-.01.274.368.443.77.342.205-.051.256-.112.218-.258-.059-.224.126-.25.606-.082.278.097.306.14.252.385-.051.236-.018.297.235.428.377.195.497.192.654-.018.118-.159.152-.147.45.157.211.214.281.345.201.375-.366.137.074.885.462.783q.2-.053.345.156c.204.291.182.524-.056.586-.29.076-.23.663.08.799.34.15.248.814-.095.682-.096-.037-.213.026-.31.165-.187.266-.204.539-.037.595.22.073-.179.554-.41.494-.155-.041-.229.02-.338.277-.086.202-.105.364-.049.421.148.152.104.39-.105.569-.234.2-.254.584-.039.763.112.093.14.226.101.47-.052.318-.011.383.651 1.039.545.54.827.739 1.231.873.677.225 1.763.168 2.138-.112.431-.322.377-.431-.127-.259-1.68.572-3.487-1.1-2.846-2.633.073-.173.38-.622.684-.998.674-.833.918-1.313 1.062-2.09.336-1.807-.976-4.008-3.022-5.071-2.05-1.065-4.142-1.067-6.211-.005-1.1.564-2.317 1.777-2.828 2.818-.57 1.159-.709 1.811-.7 3.273.012 1.968.336 2.946 1.79 5.402 1.322 2.236 1.764 3.515 1.765 5.115.002 1.881-.791 3.178-2.393 3.914-.427.196-.642.224-1.714.224-1.223 0-1.23 0-1.975-.37a6.8 6.8 0 0 1-1.303-.876c-.61-.558-.637-.486-.167.45.345.685.218.656-.244-.056-.754-1.16-1.04-1.893-1.075-2.763-.03-.75-.018-.803.308-1.314l.34-.534-.237-.468c-.254-.5-.247-.537.067-.346.436.266.762-.641.642-1.786-.07-.666-.335-1.387-.491-1.339-.06.019-.197.306-.302.64-.105.332-.218.604-.251.604-.073 0 .058-1.138.209-1.814.094-.422.086-.543-.057-.82-.238-.46-.777-.923-1.501-1.29-.718-.365-.7-.373-1.158.554l-.242.488.051-.502c.028-.276.127-.671.218-.879.092-.208.158-.465.146-.573-.056-.507-.426-1.516-.73-1.986a3.1 3.1 0 0 1-.447-1.165c-.21-1.202-.658-1.914-1.67-2.653-.544-.397-.71-.589-.973-1.122-.285-.578-.31-.7-.253-1.206.127-1.122-.334-2.76-.934-3.319-.485-.452-1.85-1.19-2.311-1.25-.84-.109-.92-.153-1.795-.995l-.872-.839-.872.05c-.48.027-1.081.011-1.337-.035-.256-.047-1.5-.59-2.762-1.205-2.584-1.26-3.552-1.618-4.543-1.681-.58-.037-.758-.008-1.172.194m12.707 7.358c.595.593 1.281 1.339 1.525 1.656.575.75 1.824 2.752 2.272 3.642.392.779 1.097 2.655 1.583 4.214.176.565.322.967.325.895.01-.288-.415-2.167-.677-2.995a23 23 0 0 1-.39-1.364c-.135-.586-1.187-2.384-2.175-3.717-.74-.998-1.803-2.064-2.918-2.926-.553-.428-.5-.36.455.595m-28.2 4.591c.327.416.429.945.26 1.35-.175.42-.578.678-1.474.944-1.977.589-3.101 1.803-3.244 3.506-.032.38-.095.714-.141.742-.153.095-.086.695.106.938.21.266.353.718.313.984-.036.234.351.756.56.756.212 0 .74.535.658.667-.033.053.075.21.24.35.311.261.635.331.696.15.058-.177.959.113.959.308 0 .203.194.284.685.284.281 0 .39-.046.434-.183.08-.25.932-.38 1.055-.16.177.316 1.098.069 1.098-.295q.001-.193.43-.422c.385-.205.44-.213.519-.073.205.367.975-.032 1.054-.547.038-.245.139-.368.44-.539.482-.272.502-.273.57-.015.048.186.098.202.472.142.499-.08.791-.31.711-.563-.05-.16.006-.179.543-.179.56 0 .595.014.536.2-.089.279.076.439.603.586.412.116.463.11.585-.056.127-.173.16-.159.597.265.34.329.635.504 1.109.658 1.06.345 2.032 1.055 2.554 1.865l.284.44-.069-.685c-.182-1.821-.726-3.075-1.802-4.156-.844-.848-1.635-1.306-2.612-1.513-1.931-.41-3.621.074-5.75 1.643-1.313.967-1.734 1.204-2.484 1.396-1.61.413-3.053-.296-3.61-1.774-.39-1.03-.147-2.196.634-3.06.259-.286.69-.565 1.452-.937 1.247-.608 1.329-.666 1.61-1.126.377-.62.197-1.542-.381-1.954q-.56-.397-.2.063m27.265 6.263c0 .054-.318.119-.708.145-.868.056-1.524.364-2.093.982-.643.698-.732.974-.143.444 1.275-1.147 3.075-.998 4.51.371.321.306.584.525.584.486 0-.308-1.095-1.474-1.655-1.764-.834-.431.349-.281 1.46.185l.83.349-.33-.286c-.517-.448-1.426-.889-1.963-.953-.304-.036-.492-.02-.492.04m-21.347 1.234c-.458.151-1.284.568-1.563.788-.108.085.134.002.537-.185 1.823-.845 3.398-.65 4.62.572.44.44.477.46.31.172-.245-.421-.836-.93-1.405-1.21-.543-.266-1.882-.34-2.499-.137m19.81 2.026c-.429.127-.97.689-1.093 1.132-.055.2-.082.38-.061.401.02.021.177-.064.347-.19.437-.323 1.326-.316 2 .015.479.235 1.218.889 1.549 1.369.168.244.168.244.108-.196-.22-1.617-1.652-2.889-2.85-2.531m9.294.813c-.263.401-.524.732-.58.735-.057.004-.56-.147-1.117-.335-.557-.187-1.027-.327-1.044-.31s.353.244.823.505c.47.26.87.486.89.501s-.199.245-.488.51c-.289.266-.608.625-.71.8l-.184.316.53-.4c.532-.402 1.235-.755 1.324-.665.086.086.882 2.438 1.105 3.265.12.446.235.794.257.772.02-.02-.119-.973-.31-2.115-.193-1.143-.328-2.099-.303-2.125s.288.023.583.109c.294.085.567.155.606.155.154 0-.677-.587-.99-.7-.183-.066-.333-.176-.333-.243s.108-.42.24-.783.226-.674.21-.69c-.017-.017-.246.297-.509.698m14.753 1.132c.596 1.625.747 3.76.368 5.193a7.5 7.5 0 0 1-.915 2.086c-.176.27-.168.267.107-.041 1.057-1.189 1.56-3.24 1.242-5.07-.16-.914-.617-2.26-.889-2.613-.09-.118-.057.051.087.445m-25.388 1.05c.17 1.015.56 1.57 1.363 1.945.983.457 2.046.22 2.481-.553.114-.202.207-.394.207-.425 0-.032-.209.055-.464.192-.4.214-.56.244-1.148.213-1.053-.056-1.834-.539-2.234-1.381q-.323-.684-.205.01m12.648.866c0 .126.569.674.633.61.027-.027-.105-.197-.292-.379-.187-.181-.34-.285-.34-.231m-39.374.657c-.775.177-1.22.42-1.865 1.016-.97.899-1.43 2.12-1.333 3.545.06.87.334 1.525.818 1.95.504.442 1.174.351.762-.103-.105-.117-.167-.328-.158-.545.016-.448.069-.498.299-.29.17.154.196.155.342.009.235-.235.21-.833-.037-.898-.202-.053-.236-.207-.132-.595q.06-.225.208-.169c.35.135.688-.61.405-.893-.075-.075-.019-.167.198-.321l.302-.216.175.216c.14.172.234.202.473.15.165-.037.34-.155.388-.264.088-.197.089-.197.354.012.206.162.253.264.207.448-.074.295.189.725.442.725.214 0 .37.46.21.62-.169.168-.12.702.08.883.13.117.203.368.251.858.196 1.988 1.178 4.263 2.481 5.748l.3.342.008-.44c.004-.242.067-.546.139-.677.172-.31.065-.667-.313-1.046-.647-.646-.625-2.09.038-2.524.294-.193.294-.4 0-1.216-.13-.358-.31-1.111-.4-1.673-.231-1.423-.41-2.09-.732-2.728-.743-1.471-2.375-2.275-3.91-1.924m32.485.968a10 10 0 0 1-.604 1.026c-.13.174-.195.317-.144.317.125 0 .755-.709.93-1.048.15-.29.315-1.003.232-1.003-.026 0-.212.318-.414.708m-20.566-.27c-.068.082-.079.147-.024.147.054 0 .152-.066.22-.147.067-.082.078-.146.023-.146-.054 0-.152.066-.22.146m13.846.049c.125.478 1.19 1.378 1.612 1.364.07-.003-.032-.088-.224-.19-.193-.102-.595-.45-.893-.771-.299-.323-.522-.504-.495-.403m-13.255.303c-.186.156-.288.283-.226.283.142 0 .679-.455.613-.52-.027-.026-.201.08-.387.237m-12.852.712c-.452.197-.916.63-1.134 1.058-.11.214-.173.413-.142.444.03.03.055.005.055-.058 0-.209.728-.924 1.124-1.104.487-.222 1.233-.233 1.674-.023.423.2.887.756 1.03 1.233.157.518.231.367.082-.164-.138-.493-.662-1.16-1.081-1.378-.342-.177-1.212-.181-1.608-.008m10.332-.017c-.12.059-.22.144-.22.19 0 .137.16.093.405-.11.251-.21.163-.247-.185-.08m.464.565c-.367.245-.402.293-.213.293.298 0 .575-.154.703-.393.142-.266.025-.242-.49.1m54.285.401c-1.432.19-2.888.91-4.33 2.137-.42.358-.96.889-1.202 1.181-.429.52-.42.515.343-.191 1.37-1.269 2.642-2.063 4.102-2.561.593-.203.865-.234 2.052-.234 1.161 0 1.477.034 2.096.229 1.925.604 3.534 1.82 4.678 3.532.224.335.407.576.407.535 0-.136-.608-1.066-1.107-1.697-1.655-2.086-4.495-3.269-7.04-2.93m-57.01.614c-.12.128-.179.259-.13.29.05.03.216-.075.368-.235.193-.201.233-.29.13-.29-.081 0-.247.106-.368.235m.675.4c-.365.372-.4.44-.23.44.252 0 .718-.452.718-.697 0-.1-.013-.182-.028-.182s-.223.198-.46.44m56.513.29c-.173.13-.134.143.446.143.6 0 .621-.008.39-.14-.316-.181-.6-.182-.836-.003m-2.89.635c-.286.238-.155.24.356.003.356-.165.368-.182.133-.188a.86.86 0 0 0-.489.185m2.953-.06c.108.093.68.149.626.062-.033-.053-.196-.097-.363-.097s-.285.016-.263.035m2.827.126c0 .046.22.204.488.352.516.285.632.243.267-.098-.234-.218-.758-.395-.755-.254m-5.625.473c-.174.133-.163.136.128.04.331-.111.407-.185.19-.185-.071 0-.214.065-.318.145m-55.987.157c-.06.076-.156.28-.215.455-.14.42.099.448.271.032.148-.356.109-.696-.056-.487m.839.154c-.002.098-.087.366-.191.594-.156.344-.164.415-.045.415.199 0 .54-.585.509-.871-.032-.28-.27-.4-.273-.138m60.912-.013c.104.078.258.141.342.14.098-.003.065-.054-.092-.144-.32-.182-.493-.18-.25.004m2.502 1.291c.185.202.37.408.41.46.04.05.074-.007.074-.127 0-.26-.408-.7-.65-.7-.132 0-.095.082.166.367m-74.061.03c0 .75-.768 1.481-2.494 2.375-1.419.734-2.33 1.408-2.828 2.093-1.6 2.198-1.712 5.165-.289 7.71.358.64 1.335 1.753 2.002 2.281l.365.29.253-.432c.139-.237.41-.637.602-.89.324-.423.338-.47.194-.63-.085-.094-.13-.237-.099-.318.068-.176-.369-.724-.646-.812-.108-.034-.256-.013-.33.048-.104.087-.192.033-.41-.252-.187-.246-.237-.377-.155-.404.174-.058.15-.483-.046-.815-.12-.204-.243-.284-.435-.284-.226 0-.283-.057-.369-.367-.122-.437-.126-.516-.03-.501.34.054.484-.339.315-.852-.074-.224-.17-.332-.298-.332-.152 0-.187-.07-.186-.366.002-.446.11-.637.314-.559.343.132.609-.706.353-1.115-.092-.148-.072-.25.11-.544.159-.257.254-.331.328-.256.162.161.404.125.696-.105.222-.174.256-.26.207-.52-.052-.281-.024-.331.278-.494.275-.148.362-.158.485-.057.288.24 1.096-.24.986-.584-.06-.19.388-.561.758-.63.772-.14 1.193-1.75.705-2.694-.19-.367-.337-.36-.337.015m63.214-.01c-.134.103-.22.21-.192.239s.182-.055.34-.186c.341-.278.207-.325-.148-.052m10.503.433c.092.14.211.255.266.255.126 0-.148-.416-.31-.47-.08-.027-.065.048.044.215m-63.769 1.501c.022.363.061.681.086.708.103.11.323-.355.32-.678-.003-.346-.18-.69-.355-.69-.052 0-.074.286-.05.66m-.941.088c.016.26.074.463.127.45.149-.038.121-.832-.03-.882-.096-.032-.12.075-.097.432m51.717.185c-.16.127-.27.251-.244.276.024.025.17-.063.325-.196.364-.313.296-.381-.081-.08m14.808-.053c.002.08.086.322.185.537l.18.39.008-.306a.93.93 0 0 0-.185-.537q-.193-.235-.188-.084m-.45.44c.078.364.244.556.244.282a.74.74 0 0 0-.153-.386c-.146-.18-.15-.175-.09.103m-36.351 1.588c-.366 1.693-1.374 4.19-2.297 5.691l-.21.342.213-.244c.434-.498 1.299-1.883 1.663-2.664.44-.942.678-1.798.756-2.727.056-.67-.016-.9-.125-.398m-28.35.195c.084.094.261.413.394.709.23.516.244.527.336.294.19-.485-.21-1.174-.685-1.174-.183 0-.187.014-.046.171m65.727.875c0 .345.034.522.09.464.169-.17.174-1.021.008-1.021-.054 0-.098.25-.098.557m-66.534-.19c0 .217.356.805.487.805.155 0 .117-.38-.068-.693-.186-.315-.42-.377-.419-.113m66.02.211c-.04.184-.051.356-.024.383.102.102.16-.072.13-.389l-.032-.327zm-63.577 1.713c0 .115 1.08 1.103 1.125 1.029.088-.143-.21-.742-.453-.913-.204-.142-.672-.224-.672-.116m63.668.64c-.147.337-.248.633-.225.656.092.092.454-.415.51-.716.11-.588-.016-.562-.285.06m-.65.096c-.062.115-.093.261-.069.326.024.064.094-.01.156-.166.134-.339.07-.456-.087-.16m-63.507.193c0 .132.611.688.757.689.178 0 .156-.053-.18-.436-.288-.328-.577-.454-.577-.253m28.963.738c.102.476.68 1.623 1.081 2.15.494.645 2.022 2.307 2.074 2.255.023-.022-.154-.28-.392-.573-.653-.802-1.783-2.407-2.335-3.317-.33-.544-.47-.712-.428-.515m-25.869.407c-.12.12-.067.228.111.228.097 0 .407.115.689.255s.538.23.57.199c.03-.031-.099-.212-.289-.402-.26-.261-.427-.345-.68-.345-.185 0-.365.03-.401.065m48.178.269c-.951.253-1.784 1.14-2.193 2.334-.258.756-.23 2.004.063 2.753.289.74 1.13 1.614 1.722 1.788.591.174 1.486.144 1.943-.064.514-.235 1.175-.966 1.499-1.657.234-.5.26-.665.26-1.678 0-1.058-.019-1.161-.308-1.773-.656-1.385-1.778-2.024-2.986-1.703m11.542.409c-.223.24-1.32 1.147-1.851 1.533-.148.107-.074.088.19-.049.38-.197 2.1-1.725 1.954-1.735-.031-.002-.163.11-.293.25m-59.883.33c0 .147.574.41.813.372.193-.031.18-.055-.129-.25-.358-.226-.684-.284-.684-.122m3.59.115c-.437.162-.308.278.31.278.318 0 .659.028.757.063.163.056.161.044-.016-.137-.242-.247-.695-.335-1.05-.204m44.966.584c-.374.147-.862.666-.992 1.055-.317.95-.002 2.242.644 2.641.4.248.7.252 1.09.015.714-.436 1.021-2.023.56-2.893-.376-.706-.842-.999-1.302-.818m-45.024.366c-.097.062-.072.098.098.144.339.09.863.076.863-.024 0-.193-.705-.282-.96-.12m34.731 2.132c.63.79 1.335 2.14 1.598 3.058q.21.733.28 2.052l.068 1.319.082-.763c.138-1.296-.11-2.758-.65-3.829-.309-.61-1.107-1.728-1.501-2.103-.307-.291-.29-.253.123.266m-48.901-.308c-1.379.299-3.138 1.41-3.85 2.432-.114.165.121-.01.523-.388 1.31-1.234 2.871-1.84 4.73-1.84 1.882.002 2.99.389 5.588 1.951 1.49.897 3.221 1.801 3.435 1.796.035-.001-.305-.2-.755-.441-.45-.242-1.476-.88-2.28-1.418-2.076-1.39-3.125-1.877-4.613-2.14-.78-.138-2.02-.117-2.778.048m49.132 1.426c-.001.034.085.254.191.489.158.347.193.38.193.181 0-.203-.377-.862-.384-.67m-18.017.63c-.089.23-.07.656.038.822.067.104.095-.017.096-.415.002-.578-.03-.677-.134-.408m-25.435.366c.053.158.652.495.734.413.078-.078-.336-.413-.595-.48-.106-.028-.162-.002-.139.067m34.374.97c.231.282.433.531.45.553.015.023.054.015.086-.017.176-.176-.481-1.05-.79-1.05-.123 0-.058.132.254.514M15.49 55.48c-.1.313-.807.892-1.09.892-.206 0-.24.033-.18.17.265.602.149 1.463-.26 1.928l-.295.336.302.273c.42.38.599 1.213.362 1.686-.09.18-.163.337-.163.35s.15.05.333.085c.182.034.448.154.59.266.144.112.286.179.317.148.03-.031.211-.663.4-1.404.307-1.196.346-1.49.35-2.617.002-1.034-.033-1.36-.188-1.75-.208-.528-.384-.661-.478-.363m64.726.658c-.198.226-.298.433-.279.58.02.146-.07.332-.25.52-.235.245-.331.282-.615.236-.288-.047-.387-.007-.683.276-.413.395-.532.66-.406.9.136.258-.327.851-.608.778-.228-.06-.617.254-.836.676-.177.34-.174.56.01.764.217.239-.021.764-.422.932-.231.097-.326.221-.411.538-.135.5-.055.877.201.943.279.073.27.806-.013 1.061-.168.152-.193.255-.142.575.065.407.289.736.5.736.068 0 .155.14.192.311s.257.754.488 1.295c.52 1.22.684 2.038.54 2.708-.14.65-.334 1.002-.714 1.291-.623.474-1.11.457-1.7-.061l-.36-.317.07.28c.17.68.684 1.04 1.485 1.04 1.293 0 2.392-1.286 2.55-2.983.07-.748-.084-1.658-.485-2.872-.264-.796-.31-1.082-.312-1.913-.003-1.142.157-1.752.703-2.68.362-.615 1.77-2.142 2.494-2.703l.366-.283-.168-.806c-.093-.444-.193-.806-.221-.806-.029 0-.435.33-.903.734-1.843 1.592-2.955 3.278-3.35 5.079-.125.567-.13.573-.137.18-.018-.911.737-2.645 1.649-3.788.487-.611 1.593-1.709 2.324-2.306.35-.287.424-.41.477-.803l.063-.464h-.394c-.33 0-.444.057-.703.352m-53.69.285c.355.22.732.318.732.192 0-.115-.653-.438-.879-.435-.222.002-.209.025.147.243m41.705.132c.033.181.061.442.061.578 0 .137.027.221.06.188.107-.106.054-.874-.067-.987-.089-.083-.102-.032-.054.221m-18.502.865c0 .11.086.304.19.431l.19.23-.123-.364c-.15-.444-.257-.568-.257-.297m-20.175.07c.36.175.924.207.761.043-.06-.06-.321-.126-.581-.147l-.473-.038zm49.003.703c-.113.143-.185.278-.163.301.076.076.443-.17.549-.367.16-.3-.139-.248-.386.066m-18.093.215c.428.54.599.67.599.456 0-.19-.603-.832-.78-.832-.064 0 .018.169.181.376m16.523 1.798c-.21.344-.084.515.15.205.133-.175.195-.523.093-.523-.027 0-.137.143-.243.318m-23.491.028c-2.037.515-3.342 1.927-3.614 3.912-.062.449-.043.518.263.923.674.894 1.48 2.387 1.776 3.294.208.635.577.957 1.765 1.546 1.369.677 2.161.85 3.957.86 1.135.007 1.721-.035 2.34-.17 1.593-.347 3.265-1.008 4.085-1.614l.417-.307-.218-.296c-.163-.22-.228-.467-.257-.972-.033-.594-.007-.731.217-1.113.14-.24.255-.457.255-.484 0-.07-.593-.356-.736-.356-.066 0-.174-.066-.241-.147-.182-.219-.414-.179-.868.15-.364.264-.407.335-.381.643.025.306-.012.37-.321.551l-.35.205-.219-.219c-.172-.172-.285-.205-.53-.156-.528.106-.8.369-.79.758.01.317-.018.35-.376.458-.212.064-.448.14-.523.168-.088.034-.136-.016-.136-.142 0-.32-.246-.442-.788-.39-.565.054-.702.153-.702.507 0 .243-.022.252-.586.252-.501 0-.569-.02-.468-.142.29-.35-.24-.782-.888-.72-.256.024-.337.08-.36.251-.039.267-.033.267-.504.026-.388-.198-.586-.392-.4-.392.226 0 .095-.478-.197-.724-.335-.282-.626-.325-.746-.111-.062.11-.13.067-.311-.197-.217-.316-.222-.351-.072-.516.211-.234.203-.624-.02-.9-.217-.268-.444-.171-.38.163.024.128.004.233-.045.233-.048 0-.075-.275-.06-.61.03-.598.035-.61.291-.584.324.033.57-.28.57-.727 0-.363.133-.477.512-.437.192.02.352-.055.557-.26q.553-.555.772-.202c.12.192.736.261.84.094.104-.17.445.007.445.231 0 .226.216.467.513.572.253.09.213.508-.07.73-.133.105-.419.219-.635.253-.482.077-.516.28-.077.463 1.242.521 2.646-.608 2.482-1.995-.114-.959-.86-1.792-1.99-2.22-.745-.282-2.359-.353-3.198-.14m10.065.607c.87 1.323 1.688 3.294 2 4.811.175.849.202 1.229.157 2.199-.064 1.383-.22 2.02-.803 3.273-.489 1.05-.344.938.238-.184.7-1.35.844-1.994.837-3.724-.006-1.36-.034-1.604-.273-2.384a15 15 0 0 0-.6-1.593c-.333-.72-1.552-2.667-1.67-2.667-.034 0 .017.12.114.269m-29.333.653c-1.72 1.872-2.599 3.99-2.599 6.259 0 2.15.79 4.008 2.276 5.353 1.04.941 2.747 1.651 3.896 1.62.448-.011.448-.011-.134-.096-1.45-.212-2.644-.819-3.73-1.899-1.426-1.417-2.07-3.18-1.96-5.364.029-.594.123-1.343.208-1.666.362-1.371 1.182-2.943 2.177-4.176.336-.417.593-.758.572-.758s-.34.327-.706.727m28.27-.664c-.034.034.08.256.25.495.33.46.478.43.232-.045-.17-.328-.394-.538-.482-.45m-41.391 1.592c-.123.228-.13.397-.02.397.071 0 .31-.417.31-.542 0-.121-.202-.02-.29.145m55.062.116c-.085.426-.078.534.027.423.132-.141.235-.728.128-.728-.052 0-.121.137-.155.305m-59.853 1.047c0 .085.428.309.59.309.212 0 .073-.184-.214-.284-.37-.128-.376-.129-.376-.025m2.662.276c-.067.027-.122.09-.122.139 0 .14.431.104.64-.054.181-.137.176-.143-.103-.14a1.6 1.6 0 0 0-.415.055m45.116.057c.001.067.086.298.187.513.173.365.186.373.193.127.009-.296-.175-.762-.3-.762-.046 0-.082.055-.08.122m12.12.912c.004.114.028.137.059.06.028-.071.024-.156-.008-.188-.032-.033-.055.025-.051.128m-63.152.316c.231 1.544 1.297 3.37 2.494 4.268 1.216.915 2.189 1.27 3.447 1.256 1.805-.02 2.826-.67 4.135-2.638.326-.49.711-.985.855-1.098.628-.494 1.48-.45 1.944.101.294.35.39.318.298-.1-.094-.427-.583-.86-1.118-.987-.899-.216-1.807.192-2.652 1.191-1.078 1.276-1.26 1.433-1.594 1.38-.413-.066-.843.11-.843.345 0 .212-.18.306-.594.306-.213 0-.285-.046-.285-.184 0-.256-.22-.411-.67-.472-.32-.043-.404-.017-.494.151l-.108.203-.344-.202c-.268-.158-.33-.246-.282-.399.136-.428-.577-1.112-.89-.853-.108.09-.175.046-.334-.214-.11-.18-.178-.381-.15-.448.026-.068.073-.183.102-.256.039-.094-.182-.229-.744-.455a10.6 10.6 0 0 1-1.512-.788l-.714-.467zm40.38 1.456c0 .123.28.367.345.301.026-.026-.041-.127-.15-.224-.107-.098-.195-.132-.195-.077m11.447.711c.004.514.008.524.106.22.072-.225.07-.384-.003-.538-.09-.185-.105-.135-.103.318m-4.11.054c-.183.08-.308.17-.277.2s.245-.033.478-.14c.487-.224.302-.278-.2-.06m-2.746.826c-.238.076-.237.078.049.08.16.002.38-.034.488-.08.178-.077.173-.084-.049-.081a2 2 0 0 0-.488.08m6.217 1.937c-.094.178-.155.375-.134.437.058.174.386-.385.344-.586-.03-.137-.075-.105-.21.149m-1.772 2.46c-.154.161-.249.293-.21.293.132 0 .536-.304.59-.445.087-.229-.079-.162-.38.152m-2.564 1.636c-.175.087-.318.192-.318.233 0 .11.556-.103.69-.264.148-.178.028-.168-.372.031m-1.002 1.436c-2.358.806-3.174 1.22-4.537 2.303-.74.588-1.81 1.84-2.187 2.557-.136.259-.154.328-.046.18 1.697-2.34 3.175-3.394 6.819-4.861.86-.346 1.582-.648 1.604-.67.091-.09-.208-.002-1.653.491m-1.807-.244c-.358.17-.37.186-.133.193a.86.86 0 0 0 .488-.184c.292-.244.148-.247-.355-.009m-2.632 1.478c-.23.172-.32.286-.225.286.177 0 .736-.443.658-.522-.028-.027-.222.08-.433.236m-2.19 2.066c-.109.174-.176.339-.147.367.062.062.523-.458.523-.59 0-.19-.183-.08-.375.223m-1.51 2.507c-.096.235-.154.447-.13.472.094.093.368-.458.337-.674-.027-.188-.062-.155-.207.202m-.7 3.002c-.064.425-.023.627.102.502.11-.109.16-.83.063-.89-.057-.035-.126.127-.165.388m.275 2.847c.159.569.186.625.27.541.106-.106-.083-.712-.223-.712-.052 0-.073.077-.047.171"/></svg>