<svg xmlns="http://www.w3.org/2000/svg" viewBox="0 0 100 100"><path fill="#fff" d="M61.006 12.556c-.266.117-2.134.295-5.122.49-1.463.094-2.653.311-3.686.671-.525.184-2.317.823-3.983 1.421s-3.642 1.266-4.392 1.483-1.506.468-1.678.558c-.173.09-1.949 1.833-3.945 3.875a1369 1369 0 0 1-4.842 4.932l-1.211 1.219-.286-.17c-.158-.092-.357-.141-.443-.108-.364.14-.834-.698-.852-1.518-.006-.273-.046-.495-.088-.495s-.19.228-.329.507c-.426.854-.312 2.084.247 2.68.108.115.212.371.23.57s.049.37.067.381c.519.328.77.609.908 1.014.216.636.258.68 1.406 1.434.556.365 1.339.993 1.741 1.395 1.53 1.53 3.776 4.915 4.335 6.534.447 1.293.345 2.884-.305 4.731a32 32 0 0 0-.446 1.329c-.071.288.87 1.283 1.598 1.689l.567.316-.386-.063c-.838-.136-1.732-.788-2.386-1.738-.304-.442-1.412-2.705-1.324-2.705.106 0 .86.523 1.21.84l.382.344-.102-.372c-.31-1.131-1.131-2.444-2.097-3.356-.74-.7-1.094-.963-2.096-1.559l-.822-.489h.444c.387 0 1.081.14 1.705.343.108.035-.126-.247-.52-.626-1.147-1.106-2.537-1.665-4.15-1.67-.663 0-.802-.116-.289-.24.41-.098 1.226-.69 1.434-1.043.182-.308.182-.312-.001-.237-.874.361-2.317.472-3.294.253-2.032-.455-3.268-.245-4.639.79l-.522.395.155-.3c.256-.495.725-.967 1.334-1.343.317-.196.576-.372.576-.391 0-.066-.817.077-1.559.273-1.754.462-3.067 1.543-3.483 2.868l-.123.39-.007-.564c-.003-.31.06-.723.14-.916.215-.514.195-.513-.35.019-.59.575-1.056 1.44-1.134 2.103-.067.562.11 1.28.372 1.518.101.092.184.227.184.3 0 .074-.35.499-.777.943-.922.961-1.04 1.202-.833 1.698l.147.352-1.062 1.087c-.584.598-1.134 1.226-1.222 1.396-.144.28-.145.322-.007.46.192.192.46.192 1.009.001.236-.082.547-.124.69-.093.184.04.341-.006.535-.158l.274-.215-.069.236c-.089.309-.59.773-.833.773-.2 0-.412.327-.529.815l-.067.278-.274-.375a4.3 4.3 0 0 0-.5-.571l-.225-.196.066.245c.037.134.11.458.162.72.117.583.4 1.06.822 1.382.175.134.338.242.362.242.025 0 .026-.16.003-.357-.037-.318-.022-.349.142-.28.1.042.414.15.696.24s.636.283.787.428c.15.144.305.263.342.263s.068-.179.068-.397c0-.378.02-.405.46-.6.41-.18.487-.188.706-.065.323.181.67.704.75 1.13.078.42-.198.845-.58.89-.209.025-.314-.05-.568-.41-.171-.244-.345-.422-.386-.397-.04.026-.103.18-.14.345-.04.186-.112.28-.19.251a4 4 0 0 0-.578-.116c-.332-.05-.517-.145-.696-.357-.2-.237-.255-.261-.303-.134a.7.7 0 0 0-.01.35q.051.196-.135.296c-.235.126-.236.463 0 .769.178.232.177.244-.051.674-.276.519-.308 1.233-.083 1.881.144.416.802 1.419.88 1.34.02-.02-.024-.272-.1-.56-.154-.583-.13-.571.378.179.407.602.488.85.432 1.33-.11.946.927-.397 1.06-1.373.072-.524.202-.457.307.157l.073.43.22-.355a3.5 3.5 0 0 0 .339-.853c.147-.62.267-.64.267-.043v.455l.205-.186c.342-.309.493-.71.55-1.46.065-.861.137-1.019.376-.82.425.352.56 1.365.285 2.144-.08.23-.343.817-.582 1.307-.54 1.102-.755 1.919-.717 2.718l.03.615.21-.391c.116-.215.347-.52.513-.678.364-.346.386-.24.136.664-.117.423-.166.974-.165 1.87 0 1.157.027 1.35.3 2.166.285.854.792 1.864 1.187 2.366.184.233.184.232.137-.505-.026-.406-.015-.907.024-1.113l.072-.374.308.88c.541 1.547 1.384 2.81 2.965 4.443l.9.93.004-.767.003-.767.434.577c.77 1.025 1.84 1.893 3.136 2.547.906.457.934.452 1.079-.173l.124-.538-.625-1.27c-.662-1.345-.97-2.37-1.06-3.517l-.053-.684.149.489c.487 1.599 1.04 2.73 1.875 3.839l.538.713-.254 1.046c-.297 1.224-.428 2.19-.504 3.708-.071 1.426-.26 2.385-.642 3.268-.571 1.319-.664 1.6-.76 2.3-.074.525-.176.81-.414 1.157-.444.645-.989 1.168-1.475 1.416-.382.195-.503.206-1.527.143-1.08-.066-1.122-.061-1.485.178-.228.152-.461.43-.602.72-.126.26-.36.56-.52.665-.438.29-.732.882-.734 1.48-.002.597.122.732.293.32.067-.162.246-.384.399-.492l.276-.197.125.2c.069.11.169.197.223.195.152-.006.52-.635.642-1.097.28-1.054.743-1.395 1.737-1.28l.65.075-.634.074c-.554.065-.675.118-.947.413a2.1 2.1 0 0 0-.414.719 1.54 1.54 0 0 1-.357.618c-.388.362-.543.74-.543 1.32 0 .738.086.804.402.306.334-.527.484-.591.938-.402.195.082.488.135.651.119.287-.03.305-.06.506-.862.253-1.014.488-1.434.935-1.673.367-.196.937-.237 1.174-.084.11.071.068.095-.176.096-.626.003-1.21.482-1.344 1.105a1.9 1.9 0 0 1-.238.557 2.15 2.15 0 0 0-.355 1.437c.086.631.16.682.355.245.096-.213.226-.42.289-.458.063-.04.518-.079 1.011-.088.802-.015.962-.05 1.505-.332.37-.192.865-.352 1.264-.408.96-.136 1.158-.368 1.514-1.78.354-1.403.968-2.358 1.126-1.752.073.278.133.257.447-.156.208-.274.268-.462.268-.831 0-.735.27-1.881.705-2.997.685-1.76 2.353-4.993 3.053-5.922.351-.466.639-.863.639-.883s-.159.03-.353.111c-.639.267-.485.06.531-.72l.228-.174-.388-.78c-.649-1.303-.73-1.914-.46-3.417.18-.99.184-2.181.011-2.915-.161-.686-.067-.617.246.18.214.544.231.73.241 2.589.011 2.184.015 2.204.665 3.494.194.386.354.771.354.856s-.157.398-.348.697-.324.567-.295.596c.118.118 2.057.14 2.909.032 1.061-.134 1.95-.352 1.74-.426a11 11 0 0 0-.636-.174c-.792-.198-.804-.252-.086-.386 1.433-.267 2.64-.696 4.986-1.771 1.636-.75 3.352-1.38 4.04-1.482l.342-.052-.391.156c-.215.086-1.127.526-2.027.977l-1.637.82v.437c0 .578.263 1.718.544 2.354.348.79.772 1.345 1.998 2.618 1.29 1.34 1.607 1.867 1.596 2.663-.01.678-.492 1.653-1.353 2.737-1.057 1.333-1.69 1.595-3.014 1.25-.897-.234-1.657.061-2.165.838-.16.248-.418.526-.571.619-.349.212-.645.848-.648 1.392 0 .228.023.415.054.415.03 0 .209-.163.397-.362l.341-.362.242.31a1 1 0 0 0 .58.373c.312.058.338.09.338.416v.354l.294-.357c.272-.33.319-.35.61-.267.47.135 1.799.104 2.467-.058a6.6 6.6 0 0 1 1.27-.143c1.286-.004 1.565-.182 2.296-1.467.567-.997 1.22-1.857 2.613-3.444 1.748-1.99 1.886-2.414 1.117-3.432-.816-1.08-1.153-2.117-1.058-3.25.067-.795.388-1.76.773-2.325l.262-.385-.55-1.032c-.716-1.345-1.098-1.917-1.613-2.417-.876-.85-2.082-1.225-3.938-1.222-1.283.002-1.275-.077.033-.33 1.388-.27 2.706-.12 3.605.406.939.55 1.512 1.3 2.958 3.87.983 1.748 1.91 3 2.67 3.61.691.554 2.65 1.572 4.12 2.141 1.525.591 2.4 1.167 2.845 1.87.132.21.398.852.59 1.427.437 1.305.539 2.424.282 3.097-.206.538-.405.657-1.239.737-.799.077-1.206.342-1.48.963-.109.247-.31.597-.448.778-.191.252-.26.475-.29.95-.056.89.035 1.063.306.584.295-.52.493-.632.735-.413.104.094.343.214.53.265.305.084.347.137.395.496.08.596.214.662.442.218l.194-.377h.67c.367 0 .79-.039.937-.085.25-.077.269-.063.273.196.002.154.058.404.122.556l.119.276.315-.447c.293-.416.345-.448.744-.448.526 0 1.204-.229 1.5-.507.243-.228 1.006-2.493 1.006-2.985 0-.158-.195-1.018-.433-1.91-.483-1.81-.691-3.036-.83-4.886-.133-1.767-.178-1.84-1.522-2.501-1.272-.625-1.955-1.254-2.51-2.31-.534-1.017-.744-1.908-.859-3.65-.233-3.534-.443-4.802-1.101-6.677-.184-.524-.322-.953-.306-.953s.181.275.368.611c.693 1.245 1.247 2.993 1.404 4.421l.074.684h.308c.247 0 .442.128.977.642 1.086 1.042 2.62 1.97 3.496 2.111.284.047.402.014.59-.162l.235-.22.713.41c1.338.772 3.094 1.16 4.408.977.673-.094.85-.217.85-.595v-.28h.884c1.131 0 2.087-.214 3.081-.689.814-.388 1.741-1.125 1.851-1.47.035-.112-.003-.295-.088-.425-.148-.226-.14-.236.505-.604.38-.217 1.008-.726 1.495-1.211.668-.667.925-1.008 1.252-1.67.227-.457.437-1.012.466-1.231.046-.342.018-.431-.191-.614l-.246-.213.422-.798c.716-1.356.877-2.033.872-3.68-.004-1.73-.125-2.182-.594-2.227l-.306-.03-.048-1.387c-.04-1.161-.091-1.522-.316-2.217-.426-1.317-1.076-2.473-1.574-2.8-.23-.15-.255-.147-.48.065-.227.213-.241.215-.298.038a8.16 8.16 0 0 0-3.649-4.564c-.625-.372-1.907-.946-2.112-.946-.026 0-.052.209-.058.464a5 5 0 0 1-.078.757c-.06.262-.073.238-.132-.232-.132-1.053-.602-1.583-1.46-1.644-.68-.05-.815.042-.618.418q.332.64-.117.192c-.567-.567-1.332-.745-2.326-.542-1.272.259-2.45 1.205-2.891 2.321-.33.835-.315 1.979.039 2.972.33.926.33 1.087.013 1.725-.317.636-.882 1.042-1.746 1.256-.569.14-.698.141-1.223.013-.323-.079-.587-.118-.587-.087.001.103.627.485 1.074.656.692.265 2.305.242 3.167-.045 1.801-.6 3.372-1.796 4.084-3.108.31-.57.565-1.48.565-2.01v-.372l.439.017c.356.013.418.041.329.148-.154.185.45 1.08 1.263 1.867.765.743 1.702 1.315 2.781 1.698.689.244.905.278 1.49.236l.684-.049-.611.29-.61.29v.519c0 1.066.555 2.327 1.456 3.303.462.5.648.627 1.204.813.361.121.629.249.594.283-.035.035-.322.063-.638.063h-.576l-.186.421c-.301.682-.418 1.694-.296 2.576.159 1.154.335 1.579.914 2.206.285.31.478.562.429.562-.05 0-.308-.119-.574-.263l-.484-.264-.346.187c-.686.37-1.381 1.486-1.651 2.651-.168.723-.127 1.202.162 1.89l.185.44-.519-.574-.518-.574-.51.11c-1.004.215-2.184.997-2.615 1.732-.144.247-.32.69-.388.986-.172.741-.236.752-.236.041 0-.51-.037-.644-.234-.84-.382-.383-1.222-.573-2.251-.51-1.24.076-1.585.199-2.13.762-.256.263-.465.458-.465.433s.09-.274.2-.553c.168-.426.182-.554.086-.787-.166-.4-1.075-1.195-1.708-1.495-.522-.247-1.863-.637-2.184-.636-.085 0-.258.18-.383.4-.125.219-.244.381-.265.36-.02-.02.027-.25.105-.512.32-1.063.098-1.567-1.32-2.988-1.225-1.227-2.623-2.199-4.447-3.093a95 95 0 0 1-2.087-1.054c-2.279-1.206-4.453-1.527-7.87-1.163-1.288.136-2.98.143-3.913.015-.224-.03-.69.729-.796 1.293-.12.642-.228.659-.23.035-.007-1.316.627-2.531 2.09-4.003 1.785-1.796 4.69-3.329 7.386-3.898 1.569-.331 3.774-.285 5.155.106.525.15.623.259.743.828.034.161.173.307.393.412.28.133.367.251.491.672.084.28.153.843.155 1.25l.003.739.187-.224c.506-.606.726-1.907.453-2.672a1.6 1.6 0 0 1-.084-.645c.026-.18-.04-.453-.175-.715-.265-.52-.23-1.13.148-2.624.752-2.966 2.464-5.82 4.541-7.569 2.418-2.036 5.681-3.394 9.303-3.872l.847-.112.51.403c.472.373.54.398.936.34.38-.058.496-.023 1.093.332.368.218.924.648 1.236.956.527.518.563.538.5.274-.209-.876-.982-1.953-1.75-2.44-.232-.146-.487-.38-.568-.521-.1-.173-.289-.293-.588-.373-.435-.116-.446-.13-.889-1.074-1.594-3.408-1.512-6.107.262-8.57 1.104-1.533 3.231-3.06 5.51-3.96l.463-.182.387.234c.449.272.792.298 1.098.083.195-.136.277-.136.78-.008.849.218 1.587.515 2.203.886.306.184.556.305.556.269-.001-.17-.446-.765-.886-1.187-.533-.511-1.374-.998-2.02-1.17-.229-.06-.416-.146-.416-.189 0-.248-1.09-.407-1.456-.212-.117.062-.622.016-1.564-.144-4.882-.827-8.075-.983-13.953-.68-2.282.116-3.863.148-5.127.102-2.12-.078-2.098-.084-3.67.934-.5.324-1.446.866-2.102 1.205-6.517 3.364-8.84 4.613-11.67 6.274-.496.292-1.134.611-1.417.71-.283.1-.597.215-.698.256-.101.04-.33.386-.507.767-.288.618-.323.66-.329.382-.011-.555-.164-.813-.483-.813-.233 0-.306-.057-.393-.307-.17-.486-.126-1.122.131-1.924.064-.2.051-.216-.107-.13-.317.172-.824.727-1.04 1.135-.167.32-.209.575-.215 1.324-.003.51-.045 1.011-.092 1.112-.06.13-.018.306.143.602.22.4.223.444.1 1.099-.152.804-.111.966.528 2.074 1.183 2.05 1.804 4.267 2.347 8.37.133 1.01.29 2.006.35 2.213.086.302.08.396-.033.488-.077.063-.276.316-.441.563-.393.586-1.076 1.203-2.992 2.702a75 75 0 0 0-2.255 1.824c-.376.328-.754.651-.841.718s-.558.207-1.048.312-1.133.309-1.43.454c-.955.468-1.982 1.688-2.361 2.804-.225.662-.282.369-.09-.46.378-1.63 1.496-2.851 3.048-3.328.683-.21.887-.387 1.92-1.665 1.979-2.45 3.161-4.777 3.689-7.26.285-1.344.36-3.894.158-5.415-.15-1.133-.246-1.42-.841-2.517-.36-.665-.452-1.223-.314-1.912.094-.468.084-.569-.083-.853-.175-.297-.184-.425-.108-1.636.093-1.502.27-2.013.922-2.665.38-.381 1.301-.862 1.892-.99l.312-.066-.346.675c-.257.5-.36.842-.398 1.322-.051.633-.046.65.21.748.214.081.3.065.467-.091.112-.105.488-.3.835-.435.347-.134 1.56-.77 2.697-1.413 1.763-.997 2.834-1.585 6.14-3.373l.46-.248-.33-.49c-.919-1.366-.598-3.202.825-4.723.679-.727 1.707-1.464 1.947-1.397.636.177.767.165 1.088-.106.304-.256.375-.271 1.21-.26.55.007 1.05.071 1.318.17.237.087.449.14.47.118.023-.022-.167-.198-.42-.392-.55-.42-1.523-.742-2.244-.742-.286 0-.548-.044-.581-.097-.084-.136-.624-.109-.985.05m15.151 4.997c-.376.022-2.437.163-4.58.313-3.326.233-3.915.297-4.017.436-.079.107-.26.163-.527.163-.224 0-.77.14-1.21.309-1.09.419-5.456 2.637-7.79 3.958-2.639 1.494-6.85 4.064-7.746 4.73-.043.032-.118.444-.167.916-.07.69-.142.939-.362 1.262-.322.476-.415.827-.485 1.834-.042.602-.003.944.201 1.759.345 1.373.891 3.03 1.654 5.017.351.913.73 2.008.84 2.433.189.72.301 1.01.301.77 0-.232-.313-1.877-.453-2.373-.082-.296-.435-1.415-.783-2.488-1.111-3.424-1.355-4.744-1.056-5.73l.174-.576.741.407c3.2 1.756 7.758 4.832 9.471 6.39 1.073.976 3.014 4.113 5.016 8.103 1.049 2.09 1.104 2.135.37.293-1.01-2.528-3.422-7.433-4.095-8.321-.215-.285-.868-.833-1.72-1.443-.754-.54-2.338-1.686-3.52-2.546a219 219 0 0 0-3.926-2.784c-.977-.672-1.778-1.248-1.78-1.28 0-.032.383-.087.853-.12l2.858-.206c3.707-.267 6.849-.373 9.612-.325 3.205.055 3.204.055 8.56 1.409 3.846.972 5.812 1.52 7.616 2.126.723.242 1.326.429 1.34.414.045-.044-1.878-.835-3.241-1.334-1.42-.52-3.162-1.078-6.985-2.237a169 169 0 0 1-3.282-1.022l-.694-.237-5.95.082c-3.273.045-6.895.084-8.05.087l-2.101.005.781-.502c4.834-3.101 8.096-5.024 10.899-6.425 3.253-1.626 3.722-1.759 8.153-2.306 4.447-.55 5.702-.65 8.89-.713 1.846-.037 2.82-.086 2.492-.127-.679-.085-5.39-.175-6.302-.121m-25.353 4.291c-2.041.167-4.752.499-5.54.68-.867.197-7.271 2.978-9.92 4.306-1.038.521-1.068.545-.863.688.2.14.335.093 2.235-.78 2.866-1.316 7.284-3.273 8.014-3.549.862-.326 2.486-.597 8.321-1.39l.635-.085h-.635c-.35-.001-1.36.058-2.247.13m-15.92 6.958a1.5 1.5 0 0 0-.103.268c0 .025.261.045.58.045.93 0 4.002.276 6.015.54 1.02.134 2.054.266 2.296.293l.44.049-.391-.152c-1.11-.432-5.707-1.13-8.178-1.242-.5-.023-.568-.002-.66.199m12.765 7.995c-.087 2.372-.477 3.966-1.485 6.071a20.4 20.4 0 0 1-2.048 3.344c-.602.792-.625.868-.145.482a60 60 0 0 1 1.9-1.383c1.453-1.025 2.784-2.13 3.171-2.632.165-.214.183-.308.1-.526-.155-.41-.258-.933-.536-2.731-.258-1.674-.692-3.795-.826-4.042-.04-.073-.099.565-.13 1.417m-21.123 1.328c-.305.109-1.09.6-1.515.947l-.244.2.226.001c.125.001.316.05.425.109.164.087.245.063.458-.136.67-.625 1.537-.734 1.905-.238.304.409.34 1.375.073 1.979-.114.257-.19.485-.168.507.02.021.172-.124.336-.323.548-.664.632-1.662.21-2.489-.312-.61-.961-.823-1.706-.557m-3.553.485c-.462.079-1.202.509-1.582.92-.233.25-.223.249.445-.08.376-.186.937-.438 1.247-.561.847-.336.808-.437-.11-.28m-4.008 3.628c-.114.184-.207.45-.207.592 0 .277.304.647.532.647.262 0 .262.193 0 .537-.314.412-.265.424.321.08.316-.185.561-.255.834-.24.489.03.768-.154.992-.652.155-.343.231-.404.576-.462.368-.063.384-.078.214-.202-.101-.075-.41-.135-.688-.135-.426 0-.593.06-1.095.397-.454.306-.668.39-.917.367-.45-.044-.615-.377-.419-.846.189-.453.113-.497-.143-.083m57.523.3c-1.186.423-1.88 1.623-1.69 2.924l.073.507.16-.782c.273-1.342.847-2.102 1.917-2.542.548-.226.56-.238.235-.236a2.5 2.5 0 0 0-.695.129m-52.262.785c.143.374.126 1.275-.03 1.648-.17.404-.688.906-1.156 1.122-.403.185-.443.27-.237.503.318.36.837 1.573.965 2.255l.137.733.07-.489c.076-.522-.009-1.022-.326-1.94l-.198-.574.267-.204c.71-.542 1-.916 1-1.284 0-.47.152-.42.562.185.342.505.404.422.173-.23-.148-.42-.94-1.67-1.189-1.876-.117-.097-.123-.074-.038.15m59.01.295c.079.096.395.345.702.554.308.209.86.633 1.226.942.656.554.66.556.343.15a7 7 0 0 0-.753-.79c-.485-.426-1.75-1.14-1.518-.856m-34.16 2.865c-2.164 2.446-3.195 3.474-4.2 4.185-.804.57-.912.683-.963 1.001-.117.726-.535 1.935-.827 2.395-.166.26-.26.458-.212.44.226-.086 1.118-1.271 1.399-1.859.262-.548.517-.847 1.604-1.879 1.446-1.371 2.021-2.053 3.544-4.198 1.612-2.27 1.593-2.275-.345-.085M19.59 46.31c-.033.054.032.097.146.097.45 0 1.122.55 1.554 1.27.243.408.25.381.06-.254-.154-.521-.517-.94-.96-1.107-.347-.13-.721-.134-.8-.006m4.779 21.347c-.96.859-2.318 1.866-3.358 2.492-1.929 1.16-2.153 1.456-2.588 3.417-.258 1.162-.621 2.04-1.321 3.19-.373.612-.406.719-.373 1.21.02.296.13.736.243.977.114.241.238.592.276.78.101.499.284.811.68 1.158.39.343.702.416.586.137-.165-.402-.221-.806-.11-.805.163.002.275.102.589.522.303.407.916.741 1.364.745l.279.002-.31-.353c-.26-.297-.492-.708-.492-.875 0-.023.06-.042.133-.042s.244-.087.379-.193c.244-.192.245-.192.428.014.25.28.736.472 1.182.469l.37-.004-.245-.203c-.543-.451-.735-1.01-.433-1.261.455-.378.596-1.36.291-2.036-.194-.432-.154-.923.101-1.24.145-.178.15-.175.095.082-.085.399.183.348.655-.124l.392-.393-.052-.657c-.03-.361-.012-.734.039-.828.142-.267.762-.537 1.607-.7 2.514-.485 2.997-.596 3.751-.862.73-.257 1.855-.779 2.228-1.032.09-.06-.079-.221-.586-.557a12 12 0 0 1-1.429-1.165l-.717-.692.063.488c.035.269.085.594.112.723.039.185-.126.075-.795-.533-.464-.42-.895-.839-.958-.928s-.403-.47-.757-.845l-.643-.682zm13.304 3.262c-.098.87-.352 1.63-1.135 3.388-.376.846-.668 1.554-.65 1.573.092.09 1.607-2.536 1.808-3.13.237-.705.301-1.759.135-2.21-.074-.197-.1-.136-.158.379m33.16 3.574c0 .025.264.224.587.443.718.488.828.65 1.066 1.57l.187.726.008-.46c.012-.611-.164-1.397-.365-1.638-.146-.173-1.483-.751-1.483-.64M19.265 77.16c-.266.89-.233 1.119.243 1.676.482.562.575.494.222-.164-.292-.544-.3-.589-.235-1.417.037-.47.051-.854.032-.854-.02 0-.137.342-.262.76m-1.512.466c-.31.632-.322.835-.076 1.375.249.548.43.64.249.126-.179-.508-.179-.779 0-1.453.078-.293.13-.545.116-.559s-.145.215-.29.51m31.582 5.389c-.296.249-.46.535-.63 1.104l-.074.244.218-.195c.12-.108.303-.36.405-.56.219-.429.616-.661 1.132-.663.276-.001.333-.026.225-.096-.303-.196-.946-.112-1.276.166m19.966.709c-.44.268-.632.688-.596 1.303l.029.508.178-.575c.238-.773.424-1.03.893-1.244.39-.177.39-.18.101-.181-.16 0-.434.084-.605.189m2.707.104c-.663.156-1.098.987-.926 1.77.084.382.163.256.33-.526.122-.572.548-1.149.847-1.149.076 0 .139-.044.139-.097s-.011-.094-.025-.088a9 9 0 0 1-.365.09"/></svg>