<svg xmlns="http://www.w3.org/2000/svg" viewBox="0 0 100 100"><path fill="#fff" d="M33.665 5.74c.152 1.624.75 2.96 1.841 4.109 1.3 1.367 2.852 2.19 5.65 2.993 1.84.528 2.297.708 2.429.954.125.234-.083.5-.597.76-.492.25-2.07.737-2.98.921-.752.152-.803.15-1.34-.039a3.8 3.8 0 0 0-1.04-.197c-.568 0-1.598.301-2.38.695-.509.257-.65.282-1.57.282-1.313 0-1.856.162-2.508.748l-.504.453-1.19.14c-1.59.187-4.732.121-5.637-.119-1.133-.3-2.038-.797-2.738-1.506-1.234-1.246-1.695-2.613-1.701-5.04-.002-.806.03-1.598.07-1.76.07-.282.067-.285-.087-.097-.088.108-.372.636-.633 1.173-1.123 2.322-1.23 4.696-.297 6.643.677 1.416 1.593 2.318 3.125 3.08 1.541.767 3.093 1.073 5.804 1.145 1.548.04 1.91.075 1.828.174-.057.069-.37.172-.698.23-.82.144-1.225.366-2.522 1.381-.617.483-1.156.878-1.197.878s-.075.037-.075.081c0 .125 1.615.6 2.457.725.698.103.797.094 1.49-.134.409-.134.744-.22.747-.19.002.03-.229.755-.513 1.61-.512 1.54-.523 1.562-1.177 2.27-.599.651-.66.755-.659 1.133 0 .298.083.54.293.856.193.29.292.563.293.804 0 .539.272 1.134.594 1.3.151.078.445.143.653.143.303 0 .418.055.587.283.115.156.405.358.645.45.38.145.584.154 1.613.069 1.396-.115 1.612-.216 2.259-1.048.25-.322.62-.679.824-.793.405-.229 1.949-.573 2.113-.472.136.084.017.629-.188.863-.088.1-.408.352-.71.558-1.291.879-2.113 2.205-2.461 3.969-.176.891-.188 1.12-.093 1.772.06.412.204 1.036.318 1.386l.21.636-.437.651c-.769 1.146-1.142 2.585-.964 3.72l.085.54-.594.112c-1.039.195-1.72.603-2.776 1.658-.877.877-1.022.981-1.767 1.269-1.044.402-1.203.38-1.297-.172-.076-.448-.137-.56-.9-1.68-.55-.804-.917-1.022-1.598-.946-.497.056-.757.262-.908.72-.106.321-.123.33-.468.258-.583-.123-1.033-.08-1.29.122-.132.105-.625.593-1.095 1.086-.957 1.002-1.02 1.186-.651 1.907.177.347.19.456.098.82-.133.528-.04.79.43 1.202.254.222.394.452.474.774.096.39.185.505.594.773.264.173.567.466.673.651s.307.389.446.452c.139.064.805.14 1.48.17 1.09.048 1.312.03 1.974-.167.555-.165.904-.21 1.363-.177.424.031.832-.013 1.301-.14.516-.14 1.238-.207 2.931-.27 2.989-.113 3.639-.3 5.232-1.516.4-.305 1.002-.685 1.336-.845.744-.354.9-.545 1.245-1.518.316-.89.474-1.138 1.242-1.951.314-.333.697-.873.855-1.207l.286-.604.193.378c.106.208.372.617.591.909.365.485.393.563.327.926a4.4 4.4 0 0 0 .161 2.123c.218.65.218.653.03 1.026-.103.205-.263.831-.356 1.391s-.205 1.115-.25 1.232c-.044.118-.487.583-.983 1.034-2.01 1.825-2.615 2.403-3.354 3.205-2.037 2.209-3.215 4.321-3.878 6.953a10.6 10.6 0 0 1-.888 2.375c-.732 1.46-.781 1.816-.422 3.04.364 1.24.574 1.566 1.355 2.106.44.304.804.66 1.061 1.034.562.822 1.334 1.583 2.617 2.578 1.652 1.282 1.944 1.803 1.695 3.025-.167.821-1.244 3.012-1.838 3.742a6 6 0 0 1-1.01.937c-.757.517-.988.783-1.387 1.6-.339.693-.352.706-1.216 1.17-.988.53-1.227.716-1.227.953 0 .091-.095.25-.21.352-.64.564-2.135 2.967-2.135 3.43 0 .093.197.126.74.126.69 0 .735.013.678.193-.093.293.224.328 2.427.27 2.154-.058 3.467-.243 4.167-.588l.44-.216.068-.684c.165-1.653.22-1.888.515-2.196.205-.213.374-.296.61-.296.284 0 .333.038.384.293.076.38.244.37.65-.035.363-.364.514-.822.61-1.85.186-2.01 1.39-4.56 3.233-6.849.87-1.079 1.013-1.362 1.013-1.997 0-.699-.102-.897-.901-1.753-.872-.933-1.053-1.384-1.152-2.862-.088-1.33-.335-1.889-1.174-2.666l-.581-.538.56-.337c.309-.186.847-.48 1.196-.654 1.705-.848 2.869-1.807 4.459-3.676l1.027-1.208h1.119l1.09 2.174c.6 1.196 1.228 2.57 1.397 3.053.568 1.629 1.106 2.545 2.038 3.469.641.635 1.045.938 1.717 1.29.617.323.95.565 1.113.808.129.192.459.511.733.711.275.2.807.675 1.183 1.056.768.777 1.074.941 2.931 1.576 1.686.576 2.037.788 2.357 1.427.14.28.433.772.652 1.094.589.87 1.01 1.852 1.347 3.145.28 1.071.297 1.228.233 2.18-.087 1.308-.087 2.156 0 2.833.063.487.044.574-.2.928l-.497.722c-.14.204-.228.474-.228.702 0 .204-.043.485-.096.624-.053.14-.184.68-.29 1.201-.226 1.106-.203 1.178.544 1.673.927.614 1.595.665 2.264.173.268-.196.512-.356.544-.356s.146.17.252.38c.238.466.477.537 1.35.398 1.251-.199 2.153-.53 2.833-1.039.377-.282.401-.546.165-1.79-.084-.441-.126-.92-.095-1.063.043-.195-.04-.42-.33-.904-.535-.886-.558-1.035-.296-1.942.2-.692.211-.831.107-1.285-.065-.28-.297-.793-.517-1.14-.52-.824-.872-1.62-1.291-2.918-.47-1.455-.65-2.468-.745-4.183-.053-.961-.142-1.649-.259-1.999-.202-.607-.714-1.175-1.435-1.589-.508-.292-.697-.623-1-1.75-.497-1.852-1.355-2.934-2.795-3.52-1.045-.427-1.06-.462-1.06-2.557 0-2.402-.454-4.718-1.411-7.198-.31-.8-.347-.998-.347-1.816q0-.92.11-.918c.179 0 1.338 1.267 1.817 1.987.827 1.243 1.374 2.528 2.506 5.886 1.67 4.949 2.15 5.932 3.627 7.423 1.357 1.369 2.742 1.998 4.393 1.996q2.973-.005 4.699-2.903c.44-.74.547-.85 1.343-1.366 1.368-.887 1.998-1.908 2.169-3.513.067-.631-.128-1.922-.374-2.476l-.152-.342.054.541c.053.536-.166 1.7-.357 1.89-.052.052-.087-.249-.088-.732 0-.624-.07-1.063-.298-1.845-.526-1.807-.385-2.893.502-3.863.268-.293.432-.534.363-.534s-.502.183-.962.406c-1.614.78-2.667 2.178-2.971 3.942l-.135.782-.075-.572a4.9 4.9 0 0 1 .102-1.724l.06-.245-.206.245c-.345.409-.864 1.576-.99 2.225a5.6 5.6 0 0 0-.067 1.245c.028.348.032.633.01.633-.024 0-.13-.187-.235-.415l-.193-.415.054.752c.068.95.286 1.583.885 2.568.8 1.315.719 2.174-.307 3.271-1.48 1.583-4.075 1.453-5.947-.298-1.515-1.417-2.053-2.608-3.462-7.661-.76-2.727-1.123-3.74-1.871-5.23-1.056-2.105-2.425-3.745-4.186-5.014a2.3 2.3 0 0 1-.67-.796c-.136-.269-.4-.74-.588-1.047-.283-.462-.357-.698-.423-1.36-.064-.631-.143-.899-.376-1.274l-.296-.476.083-1.439c.046-.791.132-1.56.191-1.71.06-.149.402-.698.76-1.22.709-1.034 1.381-2.37 1.658-3.296.096-.322.186-.602.2-.622.013-.02.212.124.44.32a4.4 4.4 0 0 0 2.129.96c1.477.222 1.665.439 1.666 1.917 0 1.568.29 2.34 1.396 3.727.322.403.714 1.005.872 1.339.36.763.591 2.035.505 2.791-.059.524-.1.597-.563 1.014-.275.248-.75.619-1.053.825-.763.519-.961.796-.964 1.347-.001.248-.09.844-.195 1.325-.26 1.173-.25 1.294.116 1.601.67.561.765.688.765 1.013.001.722.684 1.322 1.378 1.211.3-.048.443-.01.742.193.316.214.438.243.811.189.242-.035.77-.072 1.174-.081.598-.014.787-.059 1.015-.237.183-.144.414-.22.665-.22.334 0 .46-.073.963-.552.365-.348.616-.681.68-.904.176-.601.234-2.867.1-3.914-.116-.913-.111-.99.1-1.618.205-.605.214-.714.108-1.332-.158-.92-.15-1.126.129-3.346.392-3.121.29-4.65-.43-6.449a5.2 5.2 0 0 1-.367-1.512c-.033-.409-.114-.879-.18-1.044-.167-.411-.653-.946-1.344-1.478-.728-.56-1.097-1.135-1.681-2.618-.254-.645-.577-1.385-.717-1.645-.319-.59-1.624-1.829-2.54-2.41-.65-.413-.701-.472-.851-.977-.418-1.408-1.392-2.939-2.394-3.762-1.457-1.196-3.484-1.867-5.425-1.797-.61.022-.626.016-1.576-.619-1.53-1.02-2.359-1.391-4.083-1.825-.88-.221-1.28-.388-2.173-.906a21 21 0 0 0-2.003-1.01c-.5-.206-.925-.388-.946-.403s.053-.107.166-.202c.248-.211.995-1.121.995-1.213 0-.036-.34-.043-.757-.015-.53.035-1.112-.011-1.945-.156-.654-.114-1.437-.206-1.742-.206h-.554l.773-.397c2.644-1.355 3.668-3.085 2.82-4.76-.71-1.4-2.541-2.214-6.215-2.762-2.55-.38-4.118-.879-5.56-1.766-.979-.602-2.147-1.754-2.696-2.659-.215-.354-.425-.645-.467-.647-.041-.002-.048.293-.014.656"/></svg>