<svg xmlns="http://www.w3.org/2000/svg" viewBox="0 0 100 100"><path fill="#fff" d="M35.733 18.571c-.482.114-1.297.53-1.773.904-.528.416-1.289 1.62-1.55 2.45-.268.854-.284 2.333-.039 3.561.252 1.265.238 1.356-.253 1.567-.481.206-.924.67-1.523 1.595-.516.797-.593 1.101-.61 2.42-.018 1.357-.173.703-.18-.764l-.007-1.008-.561.06c-1.097.12-1.296.169-1.649.408l-.357.242-.45-.19c-1.29-.543-2.917-.602-4.799-.174-1.63.371-1.525.334-1.345.477.359.285 1.235 1.776 1.115 1.897-.02.02-.178-.183-.35-.451-.379-.589-.973-1.215-1.401-1.476-.252-.154-.493-.192-1.207-.192h-.892l-.04.903c-.034.77-.09 1.01-.369 1.613-.33.716-.522.937-.253.292.233-.557.36-1.245.362-1.949l.001-.654.732-.744c.823-.837 1.644-1.472 2.26-1.749.395-.178.44-.18.997-.024.72.2 1.73.206 2.442.015a4.5 4.5 0 0 1 .948-.145c.547-.002.898-.175.98-.482.085-.32.048-.501-.146-.718-.141-.158-.138-.184.034-.314.103-.078.217-.143.254-.145.175-.008.168-.42-.014-.776-.406-.797-1.22-1.867-1.47-1.93a1.6 1.6 0 0 1-.477-.243c-.249-.193-.84-.245-.94-.083-.032.054-.156.098-.274.098-.117 0-.346.088-.507.195s-.388.195-.504.195-.534.271-.928.602c-.958.804-1.466 1.118-2.026 1.253-.303.072-.635.258-.947.527-.637.552-1.171.908-2.287 1.526-1.177.652-2.424 1.504-3.173 2.17-.419.37-.525.435-.376.224.238-.336 1.404-1.467 1.839-1.783l.293-.213-.342-.002c-.601-.004-1.386.264-2.589.882-1.929.992-2.045 1.117-2.255 2.422a8 8 0 0 1-.435 1.569c-.646 1.518-.508 1.98 1.058 3.528.643.636 1.229 1.122 1.521 1.262.435.21.559.223 1.466.168a15 15 0 0 0 2.016-.297c.564-.13 1.037-.226 1.05-.214.036.033-1.242.521-1.564.598-.148.035-.29.098-.316.139-.048.078 2.262.7 4.191 1.128 1.656.367 3.048.796 3.69 1.138.653.347 1.804 1.382 2.524 2.27.371.458.697 1.05 1.172 2.129.361.822.924 2.093 1.25 2.824.441.99.657 1.634.845 2.523.138.656.32 1.325.404 1.487.206.399.76.907 1.409 1.29.497.295.541.35.593.753.05.378.16.656.498 1.264.046.08.11.204.143.274.035.073-.247.528-.665 1.074l-.727.948-1.655.85c-1.532.787-1.711.909-2.402 1.623-.642.663-1.716 2.229-1.606 2.34.02.02.251-.072.513-.205 1.028-.521 1.66-.665 2.897-.658 1.094.006 1.172-.007 1.483-.245.18-.137.603-.599.939-1.025s.629-.775.65-.775c.083 0-.57 1.076-1.162 1.917-1.16 1.644-1.746 2.516-1.746 2.595 0 .195 1.093.068 1.873-.218.447-.163 1.121-.404 1.497-.535l.684-.238-.293.25c-1.178 1.007-1.504 1.332-2.228 2.216-2.01 2.456-4.642 6.788-4.807 7.913-.07.474.393 2.423.772 3.25.266.582.725 1.13 1.183 1.413.389.24 1.735.708 2.833.985.43.108 1.343.464 2.028.79 1.704.812 1.822.818 3.114.155.571-.292 1.178-.631 1.349-.753.274-.195.383-.214.919-.156.988.105 2.921-.113 6.61-.749 2.798-.482 3.685-.599 4.592-.605 1.279-.01 1.407.024 3.023.798.615.294 1.399.64 1.743.77.997.375 1.275.549 2.442 1.521 1.866 1.555 2.912 1.969 3.744 1.48.368-.216.674-.744.674-1.164 0-.846-.986-3.007-1.777-3.895-.304-.34-.907-.83-1.477-1.2-1.272-.822-1.748-1.318-2.559-2.667-.712-1.185-1.366-1.97-1.847-2.218-.367-.19-1.1-.123-1.757.16-.289.125-.772.493-1.221.93-.91.885-1.219.989-2.684.904-1.193-.07-1.618-.154-3.574-.716-1.33-.381-2.728-.605-3.879-.621-.077-.001-.11.336-.105 1.097.005.949-.03 1.204-.257 1.863-.144.42-.374.97-.51 1.222-.137.251-.218.369-.18.262.573-1.633.749-3.016.501-3.931l-.138-.512 1.035-.397c.57-.22 1.26-.545 1.533-.725 1.395-.918 3.767-3.604 5.612-6.355.611-.912 1.253-1.623 1.809-2.006.217-.15 1.514-.874 2.882-1.61 3.946-2.123 5.55-3.1 8.293-5.053.668-.475 1.526-1.011 1.906-1.19.855-.405 2.74-1.02 4.354-1.422 1.577-.393 2.427-.67 2.75-.896.143-.1.493-.5.778-.89.284-.39.647-.86.805-1.046.158-.185.367-.517.464-.737l.177-.4 1.074-.12c2.31-.256 4.116-1.06 6.132-2.732.873-.724 1.638-1.213 2.84-1.816 1.804-.904 3.007-1.35 3.788-1.405.653-.045.711-.03 1.27.308 1.16.704 2.658.965 3.085.54.333-.334.746-1.321.973-2.325.34-1.503.449-1.741.973-2.145.623-.48.927-.966 1.267-2.027.372-1.16.524-2.066.47-2.799-.037-.518-.082-.63-.354-.872-.393-.351-1.001-.378-1.607-.07-.602.305-.82.5-1.377 1.22-.355.461-.655.732-1.037.934-1.075.57-1.529.85-2.247 1.387-1.463 1.094-3.417 1.847-6.12 2.359-3.636.688-6.263 1.345-8.458 2.115-1.403.492-1.44.512-1.581.865-.301.752-.475 1.648-.539 2.782l-.067 1.172-.082-.679c-.101-.835-.01-2.353.188-3.112.081-.311.147-.608.147-.659 0-.146-.775-.668-1.142-.77-.502-.138-1.059.074-2.116.806-1.454 1.006-1.703 1.106-2.906 1.165-1.493.074-1.643.16-3.163 1.818-.696.76-1.284 1.382-1.305 1.382-.04 0 .085-.204.631-1.02.178-.266.308-.5.288-.519-.053-.053-2.287.427-3.566.766-1.019.27-3.429 1.126-5.137 1.823-.847.345-1.05.667-1.044 1.656.006 1.025.388 1.7 1.685 2.97l1.055 1.034-.799.784c-.44.43-1.442 1.315-2.227 1.965-1.554 1.286-2.037 1.802-3.093 3.302-.94 1.335-1.563 1.995-2.428 2.574-.88.589-1.938.943-3.268 1.094-.793.09-1.323.079-2.985-.064-1.111-.095-2.377-.15-2.812-.122-.652.043-.73.034-.449-.052.214-.064 1.404-.096 3.175-.083 3.076.02 3.792-.053 4.904-.505 1.359-.552 2.193-1.324 3.665-3.39.987-1.387 1.526-1.956 3.203-3.38a55 55 0 0 0 1.675-1.483l.651-.613-.761-.77c-1.539-1.558-1.962-3.36-1.077-4.582.235-.324.43-.445 1.192-.742.5-.194.959-.386 1.018-.425.06-.04.207-.379.328-.755.232-.721.547-1.288.963-1.734.137-.148.209-.269.158-.269-.375.002-1.946.35-2.562.568-.951.337-1.61.779-2.658 1.782-.457.436-.994.878-1.193.98-.347.179-1.148.257-1.28.125-.034-.035.062-.222.214-.416.654-.834.694-1.327.17-2.088-.195-.282-.354-.586-.354-.674 0-.275.981-2.137 1.329-2.522.38-.422 1.33-.913 2.056-1.064.277-.057 1.31-.153 2.296-.212s2.057-.167 2.38-.24 1.18-.422 1.905-.775 1.422-.642 1.549-.642c.126 0 .36.11.52.244.274.231.355.244 1.48.247.654.001 1.362.042 1.573.091.248.058.451.054.571-.01.24-.13.6-.925.811-1.793.091-.376.194-.716.229-.755.034-.04.435-.142.89-.228s2.015-.545 3.465-1.022c3.24-1.063 3.657-1.17 4.541-1.17.573 0 .83.056 1.395.303.596.262.761.295 1.189.238.273-.036.973-.096 1.555-.133.969-.06 1.076-.087 1.255-.308.15-.185.182-.328.137-.604-.048-.301-.026-.373.13-.422.372-.118.692-.451.692-.72 0-.145-.155-.482-.344-.75a35 35 0 0 1-.723-1.073c-.61-.947-.843-1.156-1.22-1.095-.177.029-.8.329-1.387.667-1.388.801-2.024 1.058-2.628 1.06-.268.002-.818.074-1.22.16-.746.16-2.417.153-6.271-.025l-1.337-.061-.153.526c-.22.76-.513 2.16-.647 3.096-.064.445-.138.789-.164.763-.145-.145.355-3.82.615-4.523.138-.374.138-.436-.01-.722l-.162-.312-.992.082c-.545.046-1.412.07-1.926.055l-.935-.028-.502.397c-1.11.878-1.265.915-2.41.578-.647-.19-.78-.2-1.258-.093-.538.12-2.038.844-2.948 1.422-.803.51-.814.493-.109-.16l.674-.624-.614-.275c-.502-.225-.695-.264-1.064-.214-1.434.194-1.48.191-2.571-.176-.903-.304-1.169-.351-1.956-.351a6 6 0 0 0-1.639.201c-.613.17-.795.185-1.16.093-.238-.06-.468-.074-.51-.03-.043.042-.217.407-.387.81s-.382.815-.47.914c-.407.46-1.111.575-1.87.308a4 4 0 0 0-.482-.147c-.036 0-.258.275-.492.61-1.316 1.885-2.897 3.881-6.486 8.183-2.867 3.436-2.956 3.522-1.057 1.026 2.567-3.375 4.022-5.324 4.022-5.389 0-.038-.22-.497-.489-1.021-1.864-3.629-2.758-7.06-2.1-8.062.206-.315.364-.303.242.019-.143.377-.114 1.52.06 2.367.243 1.181 2.306 6.41 2.504 6.345.038-.013.82-1.024 1.737-2.246.917-1.223 1.72-2.221 1.786-2.22.066.002.361.089.657.193 1.183.416 1.61.186 2.175-1.173.212-.51.471-1.196.576-1.523.158-.494.243-.619.503-.733.345-.152.321.027.243-1.798-.027-.632-.004-.723.296-1.194l.324-.51-.064-1.054c-.117-1.937-.463-2.816-1.52-3.855-.75-.738-1.85-1.337-2.924-1.589-.687-.16-2.072-.185-2.663-.046m-24.93 13.033c.128 1.029.682 1.611 1.733 1.822 1.007.203 2.468-.207 3.34-.936.28-.234.27-.233-.244.038-.879.463-1.576.62-2.53.572-.6-.03-.955-.102-1.238-.248-.508-.263-.603-.384-.888-1.125l-.234-.61z"/></svg>