<svg xmlns="http://www.w3.org/2000/svg" viewBox="0 0 100 100"><path fill="#fff" d="M47.58 7.796c0 .043.255.131.566.196.447.092 1.457.584 1.36.662-.011.01-.368-.052-.793-.135-1.455-.286-2.67.054-4.4 1.231-1.249.85-1.57 1.001-2.302 1.087l-.537.063.342.191c.26.145.532.19 1.134.192l.793.001-.456.307c-.746.503-1.396 1.303-2.002 2.465-.903 1.73-1.595 2.348-2.651 2.366l-.482.007.39.185c.456.216 1.118.237 1.636.052l.364-.13-.169.305c-.311.56-1.44 1.613-2.013 1.875-.69.316-1.674.402-2.387.209l-.517-.14.222.236c.333.355 1.142.786 1.791.955 1.72.448 3.572-.086 4.998-1.441.566-.538.702-.63.622-.42-.173.454-.304.656-.72 1.108l-.402.436.363-.152c1.165-.487 1.882-1.296 2.91-3.283 1-1.933 2.736-3.032 4.323-2.735.722.134.854.236.79.606-.089.516-.101.53-.542.6-.71.113-1.788.699-2.481 1.348-.8.749-1.324 1.622-1.81 3.022-.432 1.241-.542 1.438-.998 1.786-.334.255-1.65.838-1.89.838-.287 0-.102.317.576.985.614.604.673.692.443.652-.19-.032-.325.02-.481.185-.119.127-.273.23-.344.23s-.557-.243-1.082-.54c-1.135-.642-1.875-.89-2.174-.73-.111.059-.449.482-.75.94s-.641.89-.755.963-.686.247-1.272.387c-2.256.538-4.02 1.287-4.372 1.857-.158.257-.176.42-.125 1.178.094 1.418.048 1.522-1.084 2.446-1.095.894-1.647 1.538-1.582 1.846l.361 1.74.319 1.538-1.003 2.223c-2.807 6.223-4.649 9.36-6.954 11.847-2.44 2.632-3.977 3.983-7.953 6.985-1.849 1.396-3.892 3.377-4.577 4.437-.498.77-1.183 2.136-1.108 2.21.025.025.305-.159.623-.408.885-.694 2.106-1.232 2.826-1.245l.586-.01v.586c0 .322-.035.712-.079.867-.075.27-.053.261.526-.223.914-.763 1.42-1.035 1.696-.91.314.144.366.557.148 1.18-.223.638-.732 1.325-1.853 2.502-.911.956-1.297 1.496-1.528 2.14-.168.467-.546 2.122-.496 2.172.019.019.267-.14.551-.354.595-.447 1.042-.528.932-.169-.037.12-.283.58-.546 1.02-.968 1.612-1.066 2.078-.824 3.918.172 1.312.443 2.659.535 2.657.032 0 .3-.603.593-1.338.678-1.694 1.077-2.315 1.786-2.785.301-.2.672-.522.823-.717.972-1.25 1.244-1.567 1.524-1.773.172-.127.327-.19.344-.138s-.1.374-.261.718-.325.753-.364.909l-.07.283.428-.367c.497-.425.746-.508 1.245-.412.584.112.715.08 1.085-.268.468-.44 1.273-1.006 1.557-1.094.192-.059.221-.041.178.11-.028.1-.103.503-.166.896-.11.68-.144.747-.702 1.344-.578.617-.604.71-.156.544a6 6 0 0 1 .504-.15l.277-.068-.318.444c-.175.244-.62.733-.986 1.088-.367.354-.668.665-.668.692 0 .14 2.852-.29 3.412-.514.218-.087.507-.333.72-.612.41-.538.798-.791.961-.628.059.059.136.25.171.424.053.259.136.342.447.45.21.073.463.205.562.294.168.153.196.146.47-.117.348-.333.35-.318.084.556-.2.661-.202.707-.048 1.48.087.44.158.975.157 1.19 0 .367-.277 1.65-.436 2.027-.148.35.15.152.924-.615 1.249-1.237 2.189-2.827 3.124-5.283.212-.558.388-.968.39-.911s-.15 1.023-.34 2.149-.372 2.59-.406 3.256l-.062 1.21.235-.155c.13-.085.582-.534 1.006-.997.49-.536.804-.807.863-.748.052.052.094.407.094.789 0 .387.042.695.095.695.248 0 .602-.294 1.57-1.303.796-.83 1.068-1.06 1.136-.957.118.176.308 1.674.308 2.429 0 .578.016.616.54 1.254.567.693.692.971.585 1.308l-.066.206-.358-.215a2.7 2.7 0 0 1-.592-.5c-.169-.205-.29-.27-.44-.23-.12.031-.951-.19-1.98-.53-.974-.32-1.82-.583-1.88-.583s-.108.106-.108.235c0 .227-.034.238-.952.317-.524.046-2.008.083-3.298.083-2.136 0-2.424-.02-3.236-.228-.764-.195-.946-.283-1.266-.61-.205-.211-.42-.383-.476-.383s-.234.107-.395.237l-.293.237-.245-.247c-.634-.641-2.856-1.642-3.514-1.583-.136.012-.572-.038-.97-.111l-.722-.133-.23.287c-.126.158-.356.638-.511 1.068-.284.783-.892 2.885-.892 3.081 0 .058.154.169.342.247.188.08.342.158.342.176 0 .143-.332.94-.963 2.31-.73 1.584-.744 1.627-.779 2.513-.043 1.108.191 2.386.516 2.811.123.161.47.47.772.684.301.215.549.416.55.447.002.047-4.37.285-5.323.29-.21.001-.251.025-.146.084.08.045.85.111 1.71.147.86.037 2.442.108 3.517.158 2.243.106 11.091.353 15.485.433l5.569.102c9.781.178 30.17.125 37.908-.099.994-.029 3.61-.097 5.813-.15 6.445-.159 14.354-.486 14.24-.589-.04-.037-1.15-.118-2.467-.18s-3.23-.154-4.25-.205c-2.168-.109-9.616-.35-13.654-.444-1.545-.036-2.809-.082-2.809-.104s.174-.445.387-.943c.477-1.117 1.047-3.07 1.121-3.842.03-.317.1-3.302.156-6.634.056-3.331.187-10.563.292-16.071s.236-12.498.292-15.535c.055-3.036.147-5.783.204-6.106s.212-.78.344-1.02l.24-.432-.632-.57c-.74-.669-.99-1.189-.683-1.424.148-.113.45-.13 1.552-.086 1.566.062 2.237.226 2.74.667.333.292.35.296.537.126.107-.097.352-.413.544-.703.42-.632.404-.75-.207-1.58l-.443-.601-.4.32c-.385.31-.428.32-1.243.31-.914-.013-2.829-.327-3.653-.601-.512-.17-.513-.17-.574-.659a8 8 0 0 0-.115-.7c-.064-.25.077-.387.795-.77.757-.405 1.016-.75.98-1.306-.018-.284.033-.562.139-.76.205-.382.21-.582.022-.941-.129-.247-.127-.31.015-.585.227-.44.187-.827-.119-1.146-.247-.26-.253-.285-.103-.498.23-.33.197-.807-.079-1.129-.216-.251-.294-.275-.952-.284l-.717-.01-.02-1.553c-.01-.854-.066-2.45-.124-3.545-.093-1.75-.088-2.012.043-2.157.19-.21.193-.552.005-.624-.105-.04-.13-.145-.089-.377.102-.584.33-1.2.576-1.564.294-.433.3-.56.053-1.045-.72-1.411-2.504-1.35-3.18.108l-.223.482.323.48c.414.615.701 1.749.484 1.912-.19.144-.183.47.015.635.135.112.147.241.077.867-.092.837-.119 1.495-.172 4.28-.022 1.09-.055 1.992-.076 2.005s-.345.1-.72.192c-.854.209-1.139.5-1.93 1.97-.745 1.384-.762 1.463-.351 1.674.435.223.733.461.99.793l.214.275-.243-.168c-.668-.459-1.11-.673-1.645-.798-.565-.132-.595-.13-.779.072a1.4 1.4 0 0 0-.256.425c-.163.536-4.814 3.628-5.277 3.507-.184-.049-1.131.465-1.127.611 0 .035.088.677.195 1.428s.191 1.454.188 1.563c-.006.172-.02.166-.105-.046a16 16 0 0 1-.332-1.111c-.129-.477-.25-.885-.27-.905s-.374.119-.786.309c-.665.307-.748.375-.747.611 0 .22.333 1.825.538 2.602.138.523-.259-.374-.589-1.328l-.358-1.036-.358.001a2.8 2.8 0 0 1-.608-.067c-.197-.054-.343.002-.68.258-.375.287-.604.543-1.395 1.563-.097.125-.015-.09.181-.478.22-.432.578-.924.925-1.27l.568-.565-.7-.711c-.675-.685-.689-.708-.383-.647.277.055.318.037.318-.14 0-.11-.175-.539-.388-.951l-.388-.75.247-.423c.298-.508.312-.472-.719-1.845l-.73-.972.313-.279c.172-.153.364-.262.427-.24.063.02.337.328.61.684.273.355.65.832.837 1.058l.34.412.465-.7c1-1.502 2.68-2.98 4.249-3.737.38-.184.692-.36.694-.392.001-.032-.584-.538-1.3-1.124s-1.453-1.238-1.637-1.45c-.383-.443-.417-.46 1.131.561l1.172.773.214-.49c.425-.968.82-2.21.961-3.025.15-.86.2-2.859.072-2.853-.04.001-.16.068-.265.148-.183.138-.2.115-.371-.516-.325-1.193-.818-2.047-1.681-2.915-.765-.769-1.363-1.144-2.617-1.645-.324-.129-.366-.185-.366-.48 0-.185-.067-.391-.148-.459-.129-.106-.084-.191.335-.634.809-.855.977-1.887.48-2.946-.3-.635-.471-.728-.357-.193a1.64 1.64 0 0 1-.003.76q-.093.323-.103.126c-.056-1.29-1.542-2.652-3.303-3.025-.71-.15-2.177-.195-2.177-.066m-5.032 19.216c2.55.41 4.4 1.843 5.611 4.347.219.453.398.88.398.95 0 .08-.123.127-.326.127-.52 0-1.81.365-2.58.73a9 9 0 0 0-3.072 2.327l-.52.607.587-.52c1.837-1.63 4.032-2.557 6.053-2.557.406 0 .737-.04.737-.088 0-.049-.16-.47-.354-.935-.648-1.548-1.74-2.976-2.92-3.818-1.102-.786-2.683-1.32-3.858-1.303-.537.008-.537.008.244.133m6.263 6.719c.04.067.157.245.261.396s.174.285.155.298a6 6 0 0 1-.524.146c-1.023.258-2.327 1.015-3.321 1.929-.552.507-.464.479.41-.131 1.088-.76 2.905-1.474 3.81-1.497a1.7 1.7 0 0 0 .463-.08c.163-.065.097-.15-.483-.629-.65-.536-.917-.686-.77-.432m17.985.928a2 2 0 0 0-.105.341c-.047.196-.2.339-.575.532-.639.33-.41.411.353.126l.552-.207v-.433c0-.385-.11-.562-.225-.359m-16.967.88c.002.04.068.158.147.262s.143.22.143.259c0 .038-.363.248-.806.468-.85.422-1.61 1.02-2.08 1.64-.265.348-.237.334.397-.19.73-.605 2.072-1.348 2.771-1.534l.428-.114-.424-.433c-.403-.41-.583-.522-.576-.359m14.1 2.313c-.564.409-3.16 3.56-3.16 3.834 0 .105-.156.34-.345.524-.3.29-.37.319-.538.215l-.376-.234c-.159-.098-.284-.032-.904.474-.396.323-.929.728-1.184.9s-.464.35-.464.394.066.238.146.43c.08.194.106.372.057.403-.048.03-.432.125-.854.212-.478.1-.915.262-1.163.432-.218.15-.675.414-1.013.586-.835.425-1.456.381-2.682-.188-.705-.326-.976-.403-1.44-.403-.631 0-.597.04-.75-.877l-.073-.439-1.254-.708c-1.406-.794-1.429-.726-.092.278.598.45.932.77.973.933.248.989-.9 4.892-1.973 6.707-.367.62-.418.893-.184.983.083.032.261.298.396.592.234.51.24.57.135 1.33-.06.438-.089.816-.065.84.025.025.684.194 1.466.377 2.463.575 6.31 1.762 6.158 1.901-.046.042-.252.13-.457.196s-.359.133-.342.149.47.193 1.008.394c2.01.75 4.108 1.795 5.441 2.709.14.095.228.041.565-.341.22-.25.622-.617.894-.817.398-.292.512-.337.582-.226.048.075.09.181.094.235.098 1.325.303 2.328.624 3.046.378.846.639 1.876.639 2.523 0 .955-.732 2.885-1.503 3.958-.316.44-.34.53-.436 1.661-.056.658-.118 1.211-.136 1.23s-.2-.08-.402-.217c-.203-.138-.385-.234-.405-.214-.077.077-.717 1.83-.964 2.643-.143.47-.289.855-.323.855s-.136-.066-.226-.148c-.151-.137-.19-.08-.48.708-1.638 4.435-2.254 6.444-2.254 7.346q0 .468.245.929c.135.254.22.503.189.554-.031.05-.278.204-.548.34-.51.26-.6.415-.136.239.31-.118.31-.117 1.209.584.461.36.673.589.644.694-.034.12.135.226.702.44.516.196.77.347.826.493.106.274.27.37.598.345.146-.011.434.067.64.174.205.107.834.289 1.397.403 1.487.303 1.777.49 2.221 1.443.18.386.213.543.127.596-.16.1.739.197 1.823.198l.9.001-.3-.66c-.402-.887-.527-1.24-.924-2.613-.404-1.394-.388-1.064-.53-10.796L65.505 59.5c-.241-16.573-.281-18.138-.483-18.71-.094-.268-.253-.603-.352-.743l-.181-.255.591-.46c.638-.495 1.09-1.242.878-1.453-.058-.058-.49-.122-.961-.143-.666-.029-.903-.003-1.067.116M15.641 60.093a3.4 3.4 0 0 1-.39.282c-.221.124-.064.234.228.16.137-.034.315-.192.398-.353q.263-.506-.236-.09m36.53 7.806c-.63.34-.923.356-2.585.15a37 37 0 0 0-1.272-.147c-.07 0-.032.713.115 2.174.435 4.332.444 5.332.066 7.01l-.166.733-.224-.724c-.123-.398-.267-.766-.318-.818-.155-.155-.304.589-.304 1.52 0 .991-.18 1.618-.81 2.844l-.409.793-.06-1.124c-.05-.949-.107-1.242-.368-1.888-.28-.694-.308-.861-.308-1.826 0-.979-.018-1.083-.233-1.333l-.233-.271-.064 1.17c-.197 3.63-.474 6.203-.87 8.07l-.221 1.038.835.163c.46.09.989.238 1.177.33.551.267.458.47-.514 1.127-.78.526-.888.639-1.22 1.273-.23.437-.63.965-1.074 1.418-.39.398-.71.727-.71.733s1.496-.001 3.323-.016l3.321-.027v-.78q0-.777-.111-.778c-.18 0-.027-1.045.309-2.092.218-.682.282-1.03.236-1.279-.06-.322-.047-.346.228-.401a.56.56 0 0 0 .407-.308c.1-.222.08-.283-.185-.556-.163-.17-.297-.339-.297-.377 0-.039.169-.322.375-.63.449-.67.645-1.153.898-2.212.235-.983.428-3.51.363-4.749a18 18 0 0 1 .021-1.856c.068-.896.063-.935-.16-1.129l-.231-.2.693-1.453c.616-1.291.68-1.478.574-1.677-.14-.262.01-.524.3-.524.095 0 .25-.12.343-.268s.282-.39.419-.536c.234-.251.239-.278.085-.447-.09-.1-.163-.232-.163-.295 0-.2-.422-.124-.977.175m-27.695 2.167c-.23.274-.736 1.168-.736 1.302 0 .028.058.052.13.052.163 0 .488-.352.675-.733.143-.292.3-.928.227-.928-.02 0-.154.138-.296.307M18.661 85.67c0 .054-.29.343-.645.644-.434.369-.7.53-.817.493-.123-.04-.306.103-.65.505-.262.307-.465.614-.45.68.015.068-.065.172-.179.233-.2.107-.202.116-.027.31.098.11.425.39.727.623.585.451.868.908.868 1.4 0 .295.012.303.367.257.426-.056 6.56-.219 12.905-.343 2.437-.048 4.455-.11 4.485-.14s-.14-.143-.376-.25c-.369-.167-.642-.195-1.926-.197l-1.497-.002.073-.22c.184-.561.237-.53-2.307-1.405-3.012-1.038-4.884-1.624-6.336-1.984-1.699-.421-1.952-.44-2.8-.207-.945.259-.978.256-1.123-.094-.126-.303-.292-.476-.292-.303"/></svg>