<svg xmlns="http://www.w3.org/2000/svg" viewBox="0 0 100 100"><path fill="#fff" d="M45.087 11.449c-.262.632-.312 2.437-.098 3.5.413 2.052 1.721 4.528 3.613 6.838.923 1.127.868 1.114-.434-.098-2.3-2.14-4.502-4.771-5.727-6.84-.317-.536-.608-.975-.645-.975-.128-.001-.225.726-.203 1.518.027.966.377 2.24.913 3.318.658 1.325 1.594 2.53 3.314 4.263 1.39 1.402 1.532 1.572 1.027 1.229-1.982-1.345-5.525-4.23-6.423-5.231-.202-.224-.395-.408-.429-.408-.115 0 .063 1.242.26 1.815.626 1.82 2.287 3.678 4.761 5.328.416.277.8.545.854.595.28.26-3.608-1.738-5.118-2.629-.397-.234-.743-.404-.769-.378-.095.095.086.733.368 1.297.657 1.315 2.147 2.57 4.335 3.653.751.371 1.318.675 1.26.675-.105 0-3.907-1.263-4.267-1.418-.165-.07-.178-.048-.116.205.163.67.495.986 1.545 1.474 5.496 2.552 6.173 3.14 8.086 7.012 2.283 4.622 4.41 7.147 7.624 9.048 1.466.868 2.002 1.344 2.356 2.092.319.674.374 1.08.068.5-.327-.621-1.047-1.236-2.238-1.91-1.815-1.026-2.763-1.712-3.962-2.864-1.797-1.728-3.278-3.843-4.563-6.518-.848-1.765-1.303-2.5-2.017-3.258-1.14-1.21-2.057-1.771-5.529-3.387-2.636-1.226-4.463-2.22-5.66-3.08-.403-.288-.733-.502-.733-.474 0 .186.59 1.193.99 1.687l.479.591-1.54-.756c-4.268-2.096-7.254-3.87-10.041-5.964-3.065-2.304-6.096-5.336-7.605-7.607-.7-1.053-.81-1.025-.71.178.082.995.359 1.874.948 3.018.643 1.25 1.275 2.072 2.674 3.478 1.365 1.372 2.553 2.341 4.365 3.563.713.48 1.26.873 1.217.873-.12 0-2.385-1.206-3.82-2.033-3.821-2.203-6.873-4.496-9.697-7.285-1.137-1.122-1.197-1.167-1.197-.886 0 .947.867 2.892 1.893 4.25 1.746 2.31 4.996 4.72 9.39 6.965.804.411 1.403.748 1.33.748-.244 0-4.282-1.562-6.088-2.355-2.728-1.198-5.776-2.846-8.016-4.335-.31-.206-.59-.347-.623-.314-.088.088.57 1.426 1.044 2.125.557.82 1.64 1.945 2.585 2.682 2.102 1.643 5.68 3.374 9.7 4.695.767.253 1.381.472 1.365.49-.042.04-2.328-.452-4.324-.934-2.85-.687-5.896-1.622-7.95-2.44-.558-.222-1.035-.383-1.06-.358-.1.1.702 1.155 1.316 1.728 1.99 1.862 4.784 3.08 9.208 4.013l1.808.382-1.515-.055c-1.68-.06-5.235-.37-6.594-.574-.484-.073-.894-.12-.912-.105-.103.087.282.514.924 1.025 1.92 1.525 4.786 2.308 8.673 2.367.84.012 1.45.053 1.355.09-.163.064-2.81.35-5.298.573-.615.055-1.137.118-1.159.14-.074.074 1.171.824 1.693 1.02 1.11.415 2.052.543 4.005.543 1.021.001 2.098-.032 2.394-.073.326-.044.48-.039.39.014-.17.102-2.986.824-3.885.996-.337.064-.637.154-.665.2-.082.133.828.66 1.522.882.895.287 2.84.352 4.142.139.531-.087.981-.143 1-.124s-.613.303-1.404.631-1.45.633-1.463.676c-.041.13.598.498 1.233.712.932.314 2.074.272 3.868-.144.19-.044-.066.166-.726.598l-1.02.665.433.194c.329.146.647.193 1.313.192 1.306-.001 2.388-.322 4.86-1.44.31-.14.563-.238.563-.217 0 .095-1.557.986-2.883 1.648-.806.402-1.55.825-1.652.94-.185.205-.184.21.039.447a1.6 1.6 0 0 0 .569.354c.469.155 1.79.054 2.461-.187l.733-.264c.107-.04-.252.209-.798.551-1.536.964-1.471.909-1.301 1.114.56.677 2.101.704 3.553.062.262-.116.5-.211.531-.211.03 0-.25.217-.623.481-1.504 1.068-1.564 1.19-.776 1.57.71.344 1.634.251 2.754-.278.91-.43.903-.418-.346.56-.438.341-.796.674-.796.738 0 .065.187.224.415.355.339.194.55.238 1.148.238.671 0 .807-.037 1.612-.436.484-.24.924-.455.977-.478.054-.023-.178.18-.515.452a38 38 0 0 0-.97.808c-.342.3-.35.32-.172.45.309.226.942.352 1.512.3.539-.048 1.575-.457 2.175-.857.173-.116-.048.137-.49.562-.444.426-.807.806-.807.846 0 .157.709.356 1.27.356.516 0 .913-.098 1.808-.445.181-.07.18-.058-.025.167-.28.308-.278.528.007.714.542.356 1.709.252 2.729-.243l.415-.202-.485.455c-.267.25-.583.49-.702.536-.12.046-.825.154-1.567.241-1.101.13-1.87.147-4.183.093-2.66-.061-2.895-.053-3.845.144-1.64.338-3.193 1.003-4.78 2.047-.498.328-.986.596-1.085.596s-.943-.162-1.878-.36c-1.524-.324-1.85-.36-3.164-.362-2.494-.001-3.843.48-6.35 2.262-2.017 1.434-2.598 1.677-4.049 1.694l-.837.01.44.142c.713.23 1.723.269 2.464.094.362-.085 1.185-.419 1.83-.742 1.152-.577 1.754-.79 1.08-.38a12 12 0 0 0-.929.669c-.805.635-1.341.959-2.114 1.277-1.133.467-2.008.613-3.346.556-1.417-.06-2.474-.359-3.29-.93-.819-.573-.824-.575-.619-.218.322.558 1.334 1.502 1.976 1.842.362.192.969.399 1.461.498l.843.171-.757.113c-1.356.201-2.172.122-3.964-.386-1.901-.539-3.208-.548-4.577-.033-.631.237-1.94 1.053-2.564 1.598l-.342.3.586-.211c.451-.162.824-.213 1.612-.22 1.28-.01 1.524.105 2.78 1.302 1.592 1.516 2.821 2.07 4.743 2.137.772.027 1.318-.006 1.743-.105.794-.185.655-.046-.28.282-.576.2-.978.265-1.902.303-1.408.059-2.224-.088-3.328-.598-.417-.193-.774-.335-.793-.315-.092.092 1.572 1.283 2.269 1.623 1.356.663 2.126.833 3.757.831 1.553-.002 2.307-.15 3.693-.721 1.502-.62 3.249-1.998 4.33-3.418.262-.344.477-.59.477-.547 0 .206-.954 1.791-1.467 2.437-.865 1.087-1.719 1.682-3.711 2.585-.385.174.826.04 1.698-.189 2.046-.536 3.723-1.574 4.87-3.015.715-.897 1.278-2.014 1.879-3.723.255-.726.497-1.355.538-1.4.041-.043-.027.373-.151.926-.125.553-.208 1.023-.185 1.046s.06-.02.082-.094c.691-2.317 1.471-3.53 2.678-4.17.516-.272 1.292-.546 1.292-.454 0 .021-.162.29-.359.599-.197.308-.525.945-.729 1.415-.724 1.67-.864 2.567-.96 6.137-.082 3.12-.095 3.188-.825 4.285-.736 1.107-1.514 1.799-2.712 2.411-.583.299-1.126.643-1.206.766s-.23.615-.333 1.095c-.472 2.212-1.226 4.49-2.071 6.259-.369.771-.639 1.171-1.22 1.803l-.745.813.06.511c.052.44.03.547-.16.767-.213.248-.236.252-.678.134-.404-.108-.502-.101-.83.057l-.52.249c-.614.29-1.029 2.679-.61 3.517.224.448.443.465 1.151.088 1.05-.56 1.687-1.054 2.155-1.675.632-.838 1.073-1.297 1.675-1.747.599-.448.694-.613 1.203-2.09.872-2.528 1.974-5.01 2.452-5.52.126-.136.442-.398.7-.583.26-.186.693-.637.965-1.003.388-.524.767-.862 1.776-1.585a502 502 0 0 0 2.31-1.665 39 39 0 0 1 2.393-1.563c2.012-1.202 2.46-1.612 3.732-3.419.82-1.165 1.412-1.734 2.161-2.08.484-.222.687-.255 1.58-.258.694-.003 1.232.052 1.66.17.695.19 1.044.4.429.258-.59-.137-1.738-.108-2.488.063-1.064.242-1.72.742-2.75 2.092-1.591 2.086-2.287 2.688-4.568 3.956a24 24 0 0 0-2.853 1.828c-.613.45-.658.509-.714.938-.24 1.82-.875 4.516-1.259 5.337-.127.272-.434.73-.683 1.016-.401.464-.451.573-.451.99 0 .703-.14.77-1.107.534-.333-.081-1.007.113-1.303.376-.4.354-.909 1.802-.91 2.593-.003.849.282.97 1.39.59 1.045-.357 1.545-.663 2.542-1.558.53-.476 1.182-.984 1.448-1.129.267-.145.567-.399.667-.564.1-.166.324-.916.497-1.669.372-1.612 1.1-4.017 1.384-4.575.535-1.049 2.039-2.201 3.466-2.656a33 33 0 0 0 1.598-.56c.878-.341 4.732-2.426 5.206-2.817.209-.172.549-.686.901-1.361.527-1.01 1.222-1.94 1.6-2.143.105-.056.785.028 1.919.235 3.12.57 3.34.59 6.202.585 3.095-.005 3.724-.08 6.565-.791l1.826-.458-.241-.411c-.143-.245-.34-.883-.482-1.572a36 36 0 0 0-.424-1.819c-.101-.363-.165-.66-.142-.66.104 0 .643 1.362.92 2.319.337 1.17.41 1.341.71 1.672.37.41.716.519 1.766.558.633.024 1.493.149 2.346.34.865.193 1.84.333 2.726.39 1.558.103 2.602.252 3.058.44.72.296.848 1.13.317 2.07-.963 1.703-1.705 2.548-2.523 2.871-.702.277-.725.301-.584.611.105.23.092.29-.11.503-.301.322-.52.307-.903-.06-.304-.29-.342-.3-.898-.236-.762.086-.845.138-1.309.833-.516.774-.817 1.583-.833 2.247l-.013.537.362.03c.199.017.855-.06 1.457-.17.928-.17 1.187-.26 1.69-.587.801-.52 1.424-.785 2.019-.855.858-.102 1.023-.283 1.947-2.138.875-1.759 1.516-2.783 2.253-3.6.245-.273.52-.604.61-.737.228-.334.212-1.137-.042-2.077-.26-.961-.497-1.18-1.991-1.824q-2.6-1.122-4.519-2.376c-.658-.43-1.197-.798-1.197-.818s1.177.549 2.614 1.261c1.437.713 2.987 1.442 3.444 1.62.457.18.928.386 1.047.46.15.095.492.13 1.123.118 1.133-.023 1.479.124 1.652.704.14.465.01 1.02-.616 2.622-.34.869-.484 1.105-1.02 1.673-.35.372-.623.749-.623.862 0 .66-.448.95-1.033.67-.329-.156-.33-.156-.565.158-.273.362-.705 1.207-1.087 2.122-.146.35-.376.782-.512.962-.22.292-.23.342-.098.475.133.133.204.13.672-.025 1.245-.413 1.864-.732 2.457-1.267.37-.335.947-.712 1.486-.973.483-.235.978-.532 1.098-.66.14-.149.34-.672.554-1.449.51-1.847.997-3.17 1.545-4.195.571-1.067.613-1.432.276-2.39-.232-.66-.504-1.095-.843-1.35-.127-.095-.881-.345-1.675-.555-1.39-.369-2.07-.589-3.997-1.292l-.893-.326.373-.617c.97-1.602 1.144-2.935.73-5.572-.147-.933-.242-1.82-.211-1.972.03-.151.457-1.19.949-2.309 1.637-3.723 2.166-4.58 3.096-5.02.254-.122.477-.23.494-.244s-.068-.215-.19-.448c-.175-.338-.225-.614-.245-1.353-.022-.829-.016-.87.062-.39.174 1.078.605 1.9 1.332 2.538.5.439 1.034.655 1.817.737.479.05.781.146 1.11.355.248.157.963.544 1.589.858 1.275.642 1.582.911 1.84 1.617.236.643.627.864 1.398.79.98-.094 1.721-.225 1.942-.343.262-.14.597-.664.598-.935 0-.108.132-.474.293-.815.424-.895.396-1.075-.303-2.006-1.034-1.378-2.727-3.797-3.128-4.469a5.3 5.3 0 0 1-.553-1.368c-.16-.689-.2-.754-.9-1.457a14 14 0 0 1-1.222-1.416l-.489-.682.27-.537a6.3 6.3 0 0 0 .419-1.26c.167-.804.156-1.879-.02-1.937-.063-.02-.258.232-.434.562-.311.585-.945 1.234-1.554 1.594l-.302.178.014-1.48c.008-.814-.005-1.5-.029-1.524-.103-.103-.94.782-1.344 1.421-.728 1.155-.97 1.47-1.134 1.47-.085 0-.403-.154-.707-.342-1.423-.878-2.834-1.03-5.144-.556-1.626.334-1.539.42.399.391 1.157-.017 1.418.007 1.75.164l.391.185-.684.073c-1.855.198-2.747.21-3.482.046-.948-.21-1.822-.63-2.375-1.14-.495-.457-.532-.444-.252.083.255.483.463.729.931 1.104.324.259.349.301.147.247-.77-.207-1.885-.286-2.556-.182-.811.125-1.888.625-2.476 1.15l-.39.348.393-.191c1.309-.633 2.613-.658 4.15-.08l.927.35-1.416.007c-1.685.01-2.008.073-3.227.641-1.412.658-2.084.728-2.901.305-.298-.155-.312-.154-.254.008.1.283.447.619.857.83l.386.197-.581.27c-.32.148-.733.385-.918.525s-.372.256-.416.256c-.187 0-.077-2.509.177-4.01.58-3.424.32-4.39-1.891-7.027-.61-.727-1.409-1.776-1.776-2.33-.745-1.126-.85-1.13-.732-.023l.068.634-.537-.632c-3.382-3.988-5.817-7.962-7.051-11.507-.353-1.013-.842-3.032-.842-3.474 0-.142-.037-.257-.082-.257-.127 0-.562.965-.705 1.563-.16.673-.163 2.304-.005 3.077.286 1.394 1.184 3.591 1.977 4.838.73 1.148.408.825-.975-.979-1.999-2.607-3.517-5.22-4.512-7.767-.231-.59-.451-1.11-.489-1.154s-.146.11-.242.342m20.03 28.083c-1.02.2-1.338.288-1.838.505l-.576.25.065.494c.036.271.08.508.099.527.018.018.246-.12.506-.304 1-.712 1.5-.88 3.108-1.05 1.486-.158 1.629-.233.704-.37-.73-.11-1.66-.132-2.068-.052m-.83 2.774c-.242.042-.56.124-.708.181-.244.095-.258.127-.155.352.139.305.272.308.848.019 1.192-.599 1.196-.758.015-.552M8.879 62.497c.478.113.871.316 1.678.865.58.395 1.232.808 1.45.92.538.274 1.51.492 2.16.483l.537-.008-.538-.17c-.68-.216-1.2-.48-2.266-1.152-1.08-.68-2.262-1.102-3.058-1.092l-.586.007z"/></svg>