<svg xmlns="http://www.w3.org/2000/svg" viewBox="0 0 100 100"><path fill="#fff" d="M37.81 9.481c0 .445.029.51.29.66l.291.166.027 1.515.027 1.514.415.03c.32.023.415.07.415.202 0 .095.067.398.15.673.18.606.97 1.52 1.472 1.7.23.084.358.203.4.371.033.137.16.37.283.517.263.317.382.97.29 1.587-.058.387-.096.44-.311.44-.353 0-.58.149-.711.467-.156.374-.006.75.377.948.164.084.297.216.297.294s.095.228.21.336c.239.222.246-1.172-.065 12.61l-.29 12.994c-.08 3.681-.191 8.65-.245 11.04l-.294 12.994c-.107 4.756-.218 8.787-.247 8.959-.03.18-.174.414-.342.555-.205.172-.29.331-.29.542 0 .244-.058.323-.317.432-.515.218-.709.507-.709 1.055 0 .441.035.513.416.865.228.21.415.441.415.512 0 .07.088.204.195.296.475.406.099 1.13-.696 1.343-.6.161-.716.234-.752.474-.02.133-.155.264-.364.35-.655.274-.942 1.22-.53 1.745l.198.25-.37.031-.368.03v3.713h25.891l.026-1.88.027-1.881h-.344c-.378 0-.409-.053-.195-.336.08-.105.144-.376.144-.603 0-.477-.306-.916-.774-1.11-.165-.068-.303-.206-.32-.32-.034-.23-.154-.303-.75-.463-.844-.226-1.17-.943-.648-1.427.135-.124.245-.316.245-.426s.062-.2.137-.2.257-.14.402-.313c.365-.434.304-1.07-.14-1.467-.168-.15-.37-.272-.45-.272-.094 0-.145-.097-.145-.278q-.001-.278-.335-.623c-.196-.202-.357-.482-.388-.675-.028-.18-.12-3.384-.204-7.119L58.96 59.06c-.175-7.837-.597-26.557-.73-32.388-.128-5.567-.128-5.525.048-5.701.08-.08.189-.26.241-.398.053-.138.16-.251.238-.251.203 0 .547-.473.547-.75 0-.31-.414-.716-.73-.716-.18 0-.279-.071-.347-.25-.207-.545-.05-1.537.29-1.846a1 1 0 0 0 .25-.449c.045-.204.148-.306.388-.385.357-.118 1.11-.866 1.361-1.352.088-.168.186-.503.219-.743.059-.43.065-.437.462-.466l.403-.029.027-1.514.027-1.515.29-.166c.262-.15.29-.215.29-.66v-.493H37.81zm.311.118.03.318h23.742l.03-.318.031-.318H38.091zm.568 2.076v1.417h22.667v-2.834H38.689zm.88 1.979c.003.664.853 1.824 1.525 2.08.15.057 3.65.093 8.939.093 8.438 0 8.703-.005 9.067-.19.723-.37 1.376-1.34 1.376-2.044v-.208H39.57zm1.992 2.621c.033.085.06.173.06.195s3.775.041 8.39.041c8.309 0 8.391-.002 8.442-.195.05-.194.003-.195-8.45-.195-7.712 0-8.496.014-8.442.154m.52.798c.04.148.074.61.073 1.026l-.002.757h15.745l.005-.806c.003-.443.037-.905.075-1.026l.07-.22h-16.04zm-.956 2.283c-.08.15-.082.271-.005.44l.105.231H58.81l.11-.207c.081-.151.083-.272.006-.44l-.105-.232H41.236zm.708 1.136c.031.16.5.17 8.188.17 7.69 0 8.158-.01 8.189-.17.03-.162-.412-.171-8.189-.171s-8.219.009-8.188.17m.314.994c.01.466.017.48.27.43.204-.041.295.003.43.209.157.24.165.518.104 3.6-.194 9.76-.57 29.014-.744 38.073-.272 14.156-.294 14.775-.537 15.043-.132.147-.275.202-.454.176-.24-.035-.267-.005-.325.358-.035.218-.128.496-.207.617l-.144.22h18.963l-.14-.22c-.076-.121-.168-.4-.203-.62-.058-.362-.088-.396-.306-.355-.312.06-.608-.206-.67-.602-.025-.167-.093-2.634-.15-5.482l-.44-21.934c-.627-31.278-.59-28.58-.397-28.875.14-.213.221-.25.454-.203.283.056.284.055.284-.43v-.486H42.137zm1.276.6c-.224.247-.233.491-.48 14.454-.083 4.755-.196 10.998-.249 13.873-.461 24.838-.507 27.754-.44 28.023.158.634.794.815 1.23.351l.237-.252.069-4.07c.062-3.67.174-11.614.471-33.382.055-3.977.14-9.758.19-12.848.085-5.206.08-5.642-.075-5.96-.21-.43-.656-.518-.953-.19m1.673.028c-.226.225-.23.264-.29 3.004a1686 1686 0 0 0-.158 10.788c-.208 17.116-.3 24.38-.392 30.824-.128 8.984-.124 11.586.018 11.853a.84.84 0 0 0 1.162.357c.458-.245.454-.19.523-8.058.093-10.479.332-35.117.41-42.257.06-5.414.051-6.04-.09-6.314-.254-.49-.8-.58-1.183-.197m2.046.005a1.2 1.2 0 0 0-.284.562c-.028.18-.098 6.945-.155 15.032s-.15 20.517-.207 27.622c-.098 12.209-.094 12.933.067 13.205.336.569 1.024.666 1.528.215l.32-.285.022-2.475c.012-1.361.066-13.898.12-27.86.105-27.281.125-25.878-.372-26.144-.337-.18-.786-.124-1.039.128m2.27.012c-.134.136-.269.366-.298.513s-.058 12.766-.065 28.042l-.012 27.775.29.29c.468.468 1.275.361 1.58-.209.133-.248.129-55.34-.004-55.923q-.168-.734-.878-.733a.78.78 0 0 0-.612.245m2.432-.135c-.456.265-.44-.964-.345 27.979.05 14.992.115 27.54.146 27.886.047.516.105.676.332.903.52.52 1.438.265 1.617-.448.035-.138.015-6.308-.044-13.71s-.154-19.834-.212-27.626c-.058-7.791-.126-14.269-.151-14.394-.115-.56-.843-.88-1.343-.59m2.205-.045c-.068.028-.193.184-.277.347-.162.312-.14 4.748.156 31.39.051 4.62.118 11.919.148 16.217.03 4.3.078 8 .105 8.223.103.825.946 1.212 1.452.666.126-.136.246-.345.266-.464s.007-2.658-.032-5.64l-.223-16.951c-.083-6.34-.195-15.112-.247-19.491-.168-14.11-.169-14.12-.642-14.302a1.2 1.2 0 0 0-.706.005m1.683.137c-.228.253-.23-.09.056 19.68.103 7.147.256 18.204.341 24.571s.176 11.716.201 11.885c.119.782.877 1.098 1.317.548l.215-.27-.064-3.76c-.035-2.07-.15-8.378-.256-14.02-.293-15.642-.469-25.174-.59-31.948-.124-6.844-.12-6.809-.732-6.869a.53.53 0 0 0-.488.183m-13.42.27c-.116.216-.204 3.603-.793 30.499-.055 2.498-.21 9.265-.343 15.036-.227 9.786-.232 10.51-.082 10.74l.162.248.171-.211c.222-.275.228-.455.537-16.434.136-7.066.289-14.848.34-17.293.425-20.65.445-22.665.226-22.738-.064-.02-.162.048-.218.152m1.27 0c-.056.105-.158 3.534-.248 8.329l-.25 13.329c-.6 31.865-.635 34.205-.507 34.485.077.168.19.247.357.247.539 0 .523.2.634-8.06.057-4.191.147-10.544.201-14.118s.142-9.574.195-13.336c.053-3.761.145-9.945.204-13.741.078-5.1.078-6.957-.003-7.108-.136-.252-.454-.267-.583-.027m1.65-.029c-.13.156-.154 1.591-.533 31.652-.087 6.825-.196 15.044-.243 18.267-.092 6.22-.081 6.406.356 6.52.256.067.585-.07.704-.293.065-.12.137-4.188.203-11.46.057-6.201.146-15.43.198-20.508.222-21.645.232-23.883.11-24.11-.137-.257-.605-.297-.795-.068m2.014.07c-.12.188-.157 2.303-.25 14.387-.058 7.792-.149 19.354-.2 25.695-.134 16.532-.14 15.794.108 16.059.28.3.83.256 1.074-.085.166-.232.18-1.516.28-25.842.135-33.217.145-30-.093-30.238-.268-.268-.738-.255-.919.025m2.415-.143c-.064.04-.16.187-.212.326-.062.164-.105 10.098-.12 28.019-.024 27.268-.021 27.769.163 27.95.322.316.661.339.98.065l.282-.243-.035-27.828c-.024-18.974-.068-27.89-.137-28.024a.9.9 0 0 0-.209-.267c-.14-.094-.564-.093-.712.002m2.164.159c-.14.215-.145 2.687-.05 27.576.057 15.037.119 27.57.136 27.851.02.322.097.584.21.708.241.268.768.26 1.042-.013l.21-.211-.065-9.34c-.058-8.42-.127-16.917-.317-39.174-.06-6.933-.07-7.275-.246-7.45-.265-.265-.73-.238-.92.053m2.19-.019c-.12.225-.1 4.694.11 23.915.05 4.594.139 13.629.198 20.077.067 7.376.143 11.82.205 11.98.196.509.773.552 1.019.076.128-.248.14-.702.092-3.192-.059-3.017-.262-18.1-.444-33.045-.224-18.337-.247-19.578-.372-19.808-.163-.3-.647-.302-.808-.003m1.86-.007c-.081.152-.094 1.137-.049 3.639.035 1.886.128 8.024.206 13.64.08 5.615.187 12.979.24 16.364.054 3.385.146 9.782.206 14.215.117 8.678.104 8.5.617 8.5.437 0 .462-.138.456-2.557a146 146 0 0 0-.057-3.744c-.028-.806-.095-4.082-.149-7.28-.053-3.196-.141-7.989-.195-10.648-.053-2.66-.207-10.94-.342-18.402-.153-8.54-.28-13.634-.343-13.751-.134-.249-.45-.236-.59.024m1.501-.043c-.056.147.07 7.91.369 22.597l.387 19.035c.185 9.096.33 14.463.393 14.582.132.245.353.238.488-.014.099-.185.001-5.73-.346-19.632-.03-1.209-.185-8.111-.345-15.339l-.38-17.127c-.088-3.917-.122-4.27-.413-4.27-.049 0-.117.076-.153.168M40.155 80.749v.244H59.89v-.488H40.155zm-.737.777a.8.8 0 0 0-.24.542c0 .19.088.39.24.542l.24.24h20.729l.24-.24a.8.8 0 0 0 .24-.542c0-.19-.089-.39-.24-.542l-.24-.24h-20.73zm.567 1.739c.032.096 2.127.122 10.038.122s10.007-.026 10.04-.122c.032-.097-2.02-.122-10.04-.122s-10.07.025-10.038.122m.443.758c.053.364-.134.839-.405 1.029-.18.125 1.026.142 10 .142s10.18-.017 10.001-.142c-.271-.19-.459-.665-.405-1.029l.043-.294H40.384zm-1.64 1.611c0 .13 1.313.147 11.235.147s11.236-.017 11.236-.147-1.314-.147-11.236-.147-11.235.018-11.235.147m-.551.536c-.572.232-.698 1.014-.238 1.474l.285.286h23.478l.286-.286c.368-.367.387-.855.05-1.247l-.236-.274-11.708-.02c-6.476-.01-11.802.02-11.917.067m-.915 3.665v1.612h25.402v-3.224H37.321z"/></svg>