<svg xmlns="http://www.w3.org/2000/svg" viewBox="0 0 100 100"><path fill="#fff" d="M64.617 5.231c-.132.202-.177.488-.19 1.205l-.015.94-1.683 3.127a1443 1443 0 0 0-2.593 4.836c-1.028 1.934-4.05 7.589-5.43 10.16-.972 1.812-1.252 2.02-.632.47.507-1.266.5-1.283-.73-1.96-2.444-1.347-3.318-1.637-4.925-1.634-.542 0-1.26.066-1.597.145-1.505.355-3.54 1.511-3.54 2.012 0 .092.157.446.35.787.323.572.344.661.284 1.157-.127 1.042-.339 1.846-.679 2.572-.188.403-.397.935-.463 1.181-.066.247-.148.449-.184.449-.06 0-.287-.478-.774-1.63-.118-.278-.27-.527-.34-.554s-.354.018-.633.1-.52.133-.535.115a20 20 0 0 1-.394-.85c-.337-.754-.361-.864-.302-1.418.063-.59.052-.63-.58-2.012-.353-.777-.661-1.43-.684-1.452-.022-.023-.092.162-.155.41-.062.249-.145.452-.184.452s-.151-.176-.248-.391c-.113-.251-.24-.39-.357-.39-.226 0-.237.29-.027.697.2.385.12.45-.304.248-.442-.21-.435-.212-.437.104-.003.534-.16.57-.373.087-.189-.426-.418-.574-.553-.356-.033.053.028.295.135.537.216.488.181.543-.147.234l-.22-.206-.066.353c-.037.194-.094.353-.129.352-.034 0-.162-.176-.285-.39s-.267-.39-.32-.39c-.19 0-.216.314-.053.655.09.19.143.368.116.394s-.228-.022-.446-.11a4 4 0 0 0-.437-.158c-.022 0 .284.625.68 1.39.656 1.267.76 1.412 1.163 1.644.655.375.825.56 1.202 1.307l.341.678-.254.185c-.32.233-.321.461-.006.999l.249.425.721.067c1.334.125 5.545.105 5.846-.028q.556-.247.744.436.201.72-.178.072c-.158-.266-.253-.338-.379-.287-.664.267-4.278.245-7.398-.045-.756-.07-.905-.06-1.061.079-.274.243-.65 1.046-.804 1.715l-.137.596.033-.733c.022-.502.098-.86.24-1.136l.206-.403-.362-.06c-.783-.13-1.423-.068-1.853.178-.906.518-2.485 1.888-2.701 2.343-.193.406-.207 1.504-.024 1.939.174.416.763.935 1.855 1.635.94.603 1.045.687 1.318 1.057.14.188.302.243.935.314a9.5 9.5 0 0 1 1.29.238l.522.152-.475 1.34c-1.843 5.213-4.322 10.65-6.04 13.244-1.565 2.366-2.535 3.593-6.384 8.078-4.344 5.062-5.583 6.79-7.058 9.846l-.506 1.048.01 1.074c.025 2.372.99 4.567 2.952 6.705.438.478 1.778 1.649 1.885 1.648.021 0 .048-.45.06-1.001.054-2.37.674-5.804 1.09-6.026.37-.2 1.416-.299 2.052-.197 1.088.176 1.608.529 2.393 1.626.587.82 1.694 1.519 2.927 1.847.745.198 1.143.17 2.654-.194.752-.181 1.381-.318 1.397-.304s-.106.24-.273.501c-.33.52-.328.748.008 1.22.19.267.19.273-.05 1.57-.131.715-.357 2.092-.5 3.06-.284 1.915-.404 2.363-.85 3.153-.262.464-.289.585-.239 1.07.051.496.002.697-.524 2.15-.48 1.325-.581 1.71-.581 2.224 0 .435.046.667.154.775.78.78 3.87.986 5.132.343.496-.253.656-.768.485-1.558-.312-1.44-.487-2.587-.43-2.813.034-.138.163-.399.285-.58.185-.271.221-.449.212-1.032-.013-.806-.115-.568 1.564-3.661l1.127-2.078.508-.147c.279-.081.58-.202.669-.267.098-.073.275-.583.448-1.292.449-1.842.318-1.686 1.442-1.726 1.648-.06 2.28-.495 3.45-2.378.368-.59.793-1.193.945-1.337.24-.228 1.871-1.056 2.081-1.056.042 0-.032.296-.163.658-.218.6-.237.777-.208 1.995.017.735.061 1.366.097 1.402.134.133.499-.081 1.013-.595 1.125-1.126 1.177-1.224 2.57-4.943l1.306-3.48.62-.263c.364-.155.672-.232.747-.186.07.043.635.482 1.255.976.937.744 1.182.996 1.438 1.477.32.6.6.81 1.083.81.395 0 .644.214.572.49-.035.133.005.337.096.491.15.253.144.28-.12.626-.276.363-.356.814-.202 1.148.06.129.019.181-.176.23-.245.062-.253.089-.253.813 0 .516-.091 1.099-.292 1.87-.16.617-.292 1.172-.293 1.233 0 .062.212.25.473.417l.475.304.062.658c.034.362.192 1.318.351 2.124.396 2.006.448 2.636.262 3.15-.14.386-.136.442.047.858l.197.444-.217.35c-.2.324-.205.37-.069.596.137.224.129.3-.094.94-.208.594-.243.867-.24 1.857.002.865.036 1.182.134 1.243.256.159 1.122.298 2.206.353.96.05 1.104.037 1.158-.104.09-.236.441-.204 2.012.182 2.412.592 4.995.658 6.31.162.505-.19.52-.238.31-1.018-.13-.483-.365-.622-1.696-1.005-.612-.177-1.32-.413-1.575-.526-.669-.296-2.257-1.458-2.849-2.086-.46-.487-.503-.571-.453-.878a.8.8 0 0 0-.117-.603c-.152-.23-.165-.416-.108-1.551.058-1.144.395-4.154.473-4.217a5 5 0 0 1 .47-.16l.439-.136-.035-1.384c-.027-1.078.004-1.547.139-2.118.16-.68.16-.751.013-.976-.133-.204-.137-.26-.025-.354.073-.06.154-.295.18-.521s.193-.807.372-1.29c.297-.804.325-.973.322-1.955-.004-.936-.042-1.188-.303-1.954-.164-.483-.33-1.066-.367-1.294-.038-.228-.111-.44-.164-.473-.052-.032-.267.055-.478.195l-.383.254-.236-.465c-.13-.255-.879-1.47-1.665-2.701-1.301-2.037-1.416-2.252-1.28-2.401.082-.09.149-.2.149-.245 0-.14-1.75-2.395-2.9-3.735l-1.107-1.29.203-.542c.112-.297.24-.541.284-.541s.303.243.574.54l.494.54.318-.285c.288-.257.308-.308.205-.534-.062-.137-.513-.593-1.001-1.012-.754-.648-.882-.8-.846-1.008.023-.134.347-1.113.718-2.175.589-1.683.718-1.968 1.007-2.209.325-.27.33-.285.215-.667-.138-.458-.522-.909-.777-.909-.099 0-.375.1-.615.22-.422.213-.436.234-.417.643.015.319-.133.816-.596 2.003a66 66 0 0 0-.786 2.098c-.094.285-.213.503-.265.486-.051-.017-.107-.316-.122-.664-.016-.348-.062-.754-.103-.902-.056-.206-.04-.269.072-.269.143 0 .105-.337-.175-1.54-.09-.386-.4-.609-.843-.609h-.406l.066-1.24c.045-.839.11-1.29.202-1.393.175-.196.442-1.13.449-1.568a4.5 4.5 0 0 0-.058-.7c-.043-.247.014-.625.184-1.221.135-.475.284-1.04.331-1.254l.086-.391.254.44c.14.241 2.585 4.528 5.433 9.525l5.18 9.086-.053.84c-.06.96.076 1.554.36 1.554.253 0 .404-.226.468-.703.03-.23.117-.48.193-.554.096-.096.118-.25.073-.514-.117-.695.713-2.718 1.656-4.036.234-.326 1.073-1.34 1.865-2.252 2.8-3.226 3.55-4.292 4.752-6.75 1.35-2.763 2.08-5.38 2.38-8.541.1-1.055.22-1.784.347-2.108.18-.464.183-.52.04-.865-.23-.55-.16-.954.18-1.044.422-.112.555-.273.555-.673 0-.218.064-.42.157-.497.113-.094.145-.24.112-.527-.029-.259.002-.44.088-.521.159-.149.171-.543.025-.817-.077-.144-.077-.229 0-.306.316-.316-.02-.897-.605-1.047-.666-.17-.7-.188-.585-.303.07-.07.52-.081 1.386-.033l1.282.07-.25.33q-.254.332-.118.33c.074 0 .943-.236 1.932-.523 1.735-.505 1.785-.527 1.458-.63-.601-.191-3.295-.9-3.418-.9-.068 0-.012.141.13.328l.25.328-1.035.063c-1.806.11-1.688.138-1.687-.4.001-.256.043-.53.093-.609.062-.098.031-.24-.098-.448-.106-.171-.256-.732-.341-1.273-.516-3.265-1.15-5.46-2.222-7.688-1.36-2.83-2.506-4.354-5.745-7.642-2.441-2.479-3.466-3.687-3.97-4.682-.423-.835-.732-1.75-.728-2.155a2 2 0 0 0-.13-.684 3.4 3.4 0 0 1-.194-.603c-.034-.169-.144-.381-.244-.472-.173-.156-.192-.15-.356.1m-3.039 8.08-5.258 9.844a442 442 0 0 0-2.47 4.663l-.251.51.416.81c.25.486.391.874.354.971-.035.09-.224.2-.422.248-.31.074-.36.125-.365.374-.009.346-.117.81-.244 1.045-.142.263-.13.27.514.27h.605l-.336-.354-.337-.353 1.448.069c1.319.062 1.503.094 2.058.354l.61.285 8.738-.097c4.806-.053 8.968-.098 9.25-.098.467-.002.513-.022.513-.222 0-.12-.104-.39-.23-.6-.201-.331-.219-.432-.135-.781.362-1.51-.259-4.882-1.44-7.827-1.233-3.075-2.53-4.976-5.737-8.412-.897-.962-1.849-2.02-2.114-2.352-.738-.923-1.472-2.204-1.817-3.168l-.31-.87zM38.787 27.322c0 .265.7 1.695.83 1.695.236 0 .216-.131-.137-.896-.358-.775-.693-1.161-.693-.799m-.88.308c0 .22.747 1.778.852 1.776.32-.006.305-.187-.078-.98-.37-.766-.515-.967-.7-.97-.04-.002-.073.077-.073.174m-.977.503c0 .338.673 1.763.833 1.763.058 0 .184-.057.28-.126.162-.119.15-.173-.186-.881-.255-.538-.44-.798-.643-.902-.284-.147-.284-.147-.284.146m8.946 3.111c-.533.3-.92.563-.858.583s.564-.17 1.117-.423c.922-.424 1.064-.46 1.737-.455l.733.006-.489-.13c-.883-.233-1.179-.178-2.24.42m16.456 1.287-4.641.051-.578.275c-.523.248-.712.28-1.954.33l-1.376.056.286-.305c.157-.168.264-.327.238-.353s-.272-.02-.547.012c-.423.05-.509.095-.559.295-.045.18.012.308.242.537l.3.301.802-.159c.934-.185 2.188-.204 3.264-.049.862.124.968.182.823.452-.098.183-.057.194.93.25.57.032 1.06.084 1.092.116s.001.15-.069.261c-.125.202-.12.203.786.145a18 18 0 0 0 1.259-.119c.305-.052.36-.03.462.194.144.316.462.33 1.021.045.326-.166.519-.197.973-.156.545.05.567.043.567-.178v-.23l3.298-.005c3.299-.006 4.19-.063 4.79-.31.26-.107.355-.108.52-.005.183.114.24.083.609-.342.224-.257.567-.634.762-.836l.355-.369-4.508.023c-2.478.012-6.595.045-9.147.073m12.4 4.985c-.11.166-.262.227-.626.254-.264.02-.724.107-1.022.192-1.11.32-4.076 1.307-4.525 1.507-.256.113-.508.18-.56.148-.052-.033-.397.031-.767.141-.83.248-.895.248-.895.005 0-.238-.143-.244-.86-.036-.402.117-.75.144-1.302.101a6.6 6.6 0 0 0-1.34.045c-.58.102-.587.107-.795.592-.18.418-.242.481-.424.432-.936-.254-1.355-.29-1.9-.168-.307.07-1.069.157-1.69.194-.935.055-1.216.11-1.613.313-.437.224-.489.287-.569.696-.08.41-.06.5.231 1.021C57.776 46 66.684 61.551 66.73 61.551c.032 0 .134-.247.227-.549.423-1.374 1.382-3 2.816-4.776 1.518-1.88 2.725-3.495 3.207-4.294 1.951-3.23 3.25-7.353 3.395-10.778.045-1.059.024-1.413-.117-1.933-.162-.6-.163-.647-.006-.821.092-.101.191-.363.22-.582.054-.398.053-.399-.277-.4-.181 0-.552-.027-.823-.06-.438-.053-.51-.035-.639.16"/></svg>