<svg xmlns="http://www.w3.org/2000/svg" viewBox="0 0 100 100"><path fill="#fff" d="M57.582 15.278c-1.857.397-3.191.912-3.498 1.35-.194.277-.197.908-.007 1.447.296.838.208 1.377-.498 3.065-.354.848-.625 1.56-.602 1.583.06.06 2-1.184 2.503-1.605.847-.71.932-.735.404-.124-.295.343-.999.995-1.563 1.449-.923.742-1.395 1.059-3.093 2.073-.911.544-1.133 1.458-.63 2.596.108.242.176.44.154.44-.023 0-.23-.077-.459-.17-.25-.102-.673-.17-1.052-.17-.633 0-1.563.202-1.563.339 0 .04.2.148.443.24.741.284 2.106 1.254 2.837 2.018.67.7 1.375 1.669 1.948 2.676.358.63.297.57-.445-.44-.739-1.003-1.892-2.165-2.685-2.703-1.299-.881-2.91-1.497-3.917-1.497-1.882 0-3.576 1.222-4.388 3.166l-.16.382.472-.394c1.356-1.132 2.448-1.625 3.599-1.625 1.607 0 3.135.937 5.04 3.089 2.145 2.425 3.515 3.62 4.893 4.273.823.389.526.37-.458-.029-1.475-.598-2.515-1.418-4.832-3.81-1.498-1.546-2.195-2.108-3.227-2.595-.643-.304-.828-.347-1.514-.352-.694-.004-.853.03-1.417.314-.349.176-1.09.704-1.646 1.173s-1.36 1.102-1.786 1.406l-.774.552.37.306c.202.168.852.544 1.443.837 1.82.9 3.664 1.413 5.1 1.419.6.002.723.025.577.11-.325.188-2.518.037-3.528-.243-1.353-.376-2.072-.641-3.008-1.108l-.859-.43-.62.528c-.342.29-.824.672-1.071.85-.248.177-.45.353-.45.39 0 .117 1.679.849 2.54 1.107.77.23 1.606.412 2.928.637.555.094.81.016 1.444-.44.43-.31.211-.07-.274.3l-.494.376-.996-.058a15.2 15.2 0 0 1-4.722-1.055c-.306-.122-.31-.12-1.646 1.043-2.218 1.928-2.415 2.087-3.18 2.563-1.092.679-1.22.802-1.715 1.643-.248.423-.517.843-.597.933-.132.15-.083.223.523.797.99.937 1.617 2.105 1.753 3.27.05.423.032.397-.228-.325-.506-1.41-1.506-2.593-2.752-3.258-.335-.178-.623-.31-.64-.29-.094.106-.474.939-.692 1.514-.138.368-.642 2.031-1.12 3.697-.896 3.127-1.533 5.102-1.999 6.204-.388.918-.402 1.087-.124 1.526.508.8.838.887 2.171.578.788-.183.85-.183.538-.002-.325.188-1.714.634-1.976.634-.118 0-.39-.192-.637-.45-.236-.246-.44-.433-.452-.414-.216.33-1.757 2.978-1.907 3.278-.352.703-.213 1.699.31 2.212.173.17.39.453.482.628q.168.318.451.375c.197.04.349.17.493.428.22.391.63.61.975.52.144-.037.234.025.345.24.167.323.33.412.751.412.312 0 1.014-.556 1.119-.887.074-.235.223-.234.531.002.181.14.243.28.245.56l.003.374.465-.006c.52-.007.814-.181 1.287-.766.26-.32.298-.445.299-.97v-.603h-.49c-.388 0-.595-.067-.994-.322-.277-.178-.561-.393-.632-.479-.114-.137-.1-.146.114-.08.134.042.366.138.516.214.267.136.275.132.431-.232.305-.71.278-1.338-.108-2.53-.403-1.244-.475-2.133-.179-2.21.119-.031.26-.322.455-.93l.283-.884-.21-.268c-.262-.332-.271-.475-.022-.342a.9.9 0 0 0 .331.1c.134 0 1.727-2.614 1.727-2.832 0-.054-.16-.274-.354-.489s-.324-.39-.29-.39.28.11.546.244c.265.134.527.244.582.244s.218-.187.362-.415c.145-.229.545-.845.888-1.37.594-.91.619-.971.516-1.282-.1-.304-.074-.384.371-1.146.264-.45.595-1.024.736-1.275.189-.336.347-.486.6-.57.237-.078.357-.185.39-.35l.099-.476c.069-.332.593-.704 1.436-1.02.497-.187 1.023-.506 1.738-1.054 1.154-.883 3.24-2.278 3.407-2.278.077 0 .11.467.11 1.559v1.558l.318.3c1.088 1.028 3.402 2.214 4.84 2.48l.323.06-.389-.463c-.692-.825-.925-1.414-.952-2.416-.022-.778-.015-.819.058-.355.182 1.154 1.166 2.603 2.153 3.17.523.3 1.432.551 2.048.566l.443.01-.44.092c-.604.124-1.199.039-3.2-.46-2.362-.588-3.455-1.025-4.82-1.93l-.254-.168-.057 1.247c-.044.948-.11 1.395-.28 1.863-.15.415-.19.639-.12.684.057.038.517.363 1.023.724.892.637 2.201 1.755 1.602 1.368-.51-.33-2.628-1.462-2.87-1.535-.178-.054-.28-.015-.44.171-.113.133-.527.512-.92.843-.395.334-.656.617-.585.638 1.01.299 2.374.91 3.147 1.409.502.324 1.815 1.298 1.815 1.346 0 .02-.286-.14-.637-.354-1.667-1.02-3.65-1.834-5.055-2.075l-.683-.117-.433.486c-.581.653-1.399 1.716-1.399 1.82 0 .045.324.083.72.083.93 0 2.286.343 3.647.925.976.416 1.947.906 1.583.799l-1.347-.402c-1.253-.375-2.617-.67-2.74-.593-.04.024-.368.46-.728.968-.36.507-.722.949-.805.98s-.466.052-.85.045l-.701-.012.665-.078c.365-.042.735-.135.82-.207.17-.14 1.124-1.586 1.227-1.86.095-.25-.461-.369-1.72-.37-1.055 0-1.06.001-1.318.294a8 8 0 0 0-.635.904c-.331.54-.368.661-.322 1.067.045.4-.005.572-.39 1.362-.983 2.02-1.627 3.797-2.122 5.85-.288 1.194-.486 2.485-.439 2.863.031.253.053.24.513-.33.562-.697 1.898-2.098 1.943-2.037.016.022.087.326.156.675.646 3.272 3.485 5.334 7.088 5.15.594-.03 1.364-.112 1.71-.18.61-.122.657-.153 1.431-.96.878-.915 1.433-1.563 3.26-3.81.67-.825 1.505-1.736 1.856-2.026.533-.44.639-.577.639-.827 0-.276.064-.333.83-.736.457-.24 1.248-.69 1.759-1.002 1.376-.838 1.54-.91 1.914-.84.22.042.594-.018 1.136-.182.753-.228 2.03-.48 2.097-.414.016.016-.224.108-.532.204-1.06.33-2.173.86-2.173 1.034 0 .265.749 1.345 1.297 1.87a7.94 7.94 0 0 0 3.737 1.978l.65.136 1.19-1.05c.653-.576 1.303-1.198 1.442-1.381.617-.81.927-1.707 1.027-2.975.083-1.044-.1-1.662-.769-2.594-.698-.974-1.079-1.19-2.663-1.512-1.226-.25-1.352-.257-3.664-.205-4.067.09-7.36.68-11.255 2.013-1.593.546-4.012 1.567-4.556 1.924-.126.082-.246.132-.267.11-.044-.043 2.086-1.292 2.852-1.673 1.976-.98 4.805-1.88 7.413-2.358.484-.088.971-.178 1.083-.2.14-.028.242-.167.326-.448.185-.616.475-1.018 1.617-2.241.573-.614 1.214-1.38 1.424-1.7l.383-.583-.291-.3c-.387-.4-.368-.458.075-.226 1.13.592 3.124-.445 3.885-2.02.261-.54.284-.675.287-1.71a43 43 0 0 0-.068-2.296l-.072-1.172.268 1.006.268 1.006.776.533c1.001.689 1.18.861 1.559 1.509.327.558.514.695 1.198.874.391.102.418.134.672.813.407 1.083.554 1.266 1.558 1.928.51.337.929.653.929.704s-.131.281-.291.514c-.329.478-.32.496.4.81.42.184.647.374.555.467-.022.022-.367-.088-.767-.243-.6-.234-.749-.336-.85-.584-.095-.234-.183-.3-.394-.3-.57 0-.998.583-.998 1.36 0 .753.363 1.137.835.884.361-.193.532-.061.537.415.002.23.057.535.122.678.13.288 1.55 1.645 1.72 1.645.198 0 .498-.387.498-.643 0-.138.033-.235.074-.214.523.269.89.379 1.14.34.166-.024.427.02.582.099.18.092.392.12.587.078.167-.037.516-.061.774-.055.414.01.512-.03.807-.324l.335-.336v.316c0 .537.213 1.409.38 1.555.086.076.257.169.38.206.212.065.219.05.159-.326-.173-1.08.495-1.316 1.28-.454.231.255.582.426 1.677.82 3.102 1.116 5.137 1.412 6.797.988.426-.109.556-.29.207-.29-.687 0-9.134-3.721-9.203-4.054-.048-.237.224-.59.563-.731.356-.148.382-.252.08-.332-.762-.205-1.101.031-1.638 1.138-.177.365-.366.691-.42.725-.064.039-.071-.007-.022-.126.242-.584.462-1.417.476-1.808.014-.36-.036-.513-.256-.781a44 44 0 0 1-.753-.969c-.894-1.18-1.814-1.694-3.023-1.69-.713.003-.727-.001-.396-.123.74-.272 1.692-.1 2.52.457.231.155.439.282.46.282.023 0-.046-.203-.152-.452-.106-.248-.373-1.047-.593-1.774-.521-1.725-.674-2.067-1.09-2.432-.47-.412-.952-.555-1.675-.497-.921.074-1.83.627-2.311 1.405-.306.495-.356.32-.055-.193.335-.572 1.042-1.184 1.61-1.394.25-.093.47-.18.487-.192s-.086-.2-.23-.418c-.218-.329-.356-.423-.814-.554-.488-.14-.643-.256-1.361-1.018-.81-.86-.81-.86-1.173-.777-.199.046-.714.079-1.143.072s-.65-.028-.489-.047c.743-.088 1.502-.261 1.887-.43l.421-.184-.702-.702c-.685-.685-.71-.7-1.007-.593-.671.24-1.611.406-2.26.4l-.684-.008.698-.127c.383-.07.867-.181 1.075-.248.466-.152 1.467-.648 1.538-.763.03-.046-.081-.212-.245-.368s-.53-.613-.816-1.017a10.6 10.6 0 0 0-1.015-1.214c-.439-.426-.502-.46-.56-.293-.218.637-.562 1.256-.906 1.63-.369.399-1.34 1.026-1.437.928-.024-.024.213-.244.526-.49.555-.437 1.191-1.382 1.191-1.771 0-.214-.03-.205-.561.173-1.068.758-1.17.689-.255-.172.83-.78 1.5-1.611 1.5-1.861 0-.059-.352-.318-.783-.576-.93-.557-.985-.55-1.778.206-.311.297-.565.507-.565.468 0-.187.753-1.176 1.019-1.338.463-.283.754-.227 1.887.362.841.438 1.146.548 1.53.554.4.005.517-.036.696-.245.12-.137.247-.456.285-.707.06-.403.108-.473.409-.6.286-.119.336-.184.31-.406-.023-.202.034-.306.239-.435.228-.144.268-.235.268-.614 0-.271.048-.457.122-.478.068-.02.312-.086.543-.15.231-.062.446-.18.478-.263.031-.082-.082-.596-.252-1.143-.17-.546-.308-1.08-.307-1.187s.155-.416.34-.686a4.2 4.2 0 0 0 .49-1.026l.153-.536-.042.61c-.028.426-.118.742-.294 1.044-.254.433-.305.688-.195.973.07.185 2.124-2.424 2.578-3.274.474-.89.46-.929-.951-2.583-2.388-2.798-3.42-3.684-5.362-4.604-1.86-.881-3.767-1.106-5.764-.678m10.564 6.843c-1.433.356-2.761 1.335-5.471 4.032-1.214 1.208-2.471 2.355-3.078 2.81-.564.423-1.173.905-1.353 1.07-.88.814-1.284 1.896-1.107 2.964.088.531.676 2.038.761 1.952.017-.016-.061-.314-.173-.66a5 5 0 0 1-.21-1.364c-.01-1.244.36-1.801 2.15-3.229.76-.606 2.21-1.963 3.693-3.46 2.59-2.609 3.358-3.232 4.712-3.82 1.042-.453 1.064-.541.076-.295M50.383 35.66c-.485 1.767-1.643 3.31-2.94 3.917-.516.242-.83.317-1.503.361-.973.063-.789.19.299.206.836.012 1.574-.239 2.288-.777a8 8 0 0 1 1.26-.734c.398-.182.724-.356.724-.388s-.195-.028-.433.008l-.434.065.34-.785c.335-.776.662-2.049.603-2.352-.017-.086-.109.13-.204.478m2.769 1.906c0 .16.066.574.147.918.161.683.139.789-.123.59-.096-.072.007.065.228.304 1.564 1.69 2.113 2.82 2.112 4.343-.001.906.145.718.241-.31.101-1.083-.287-2.09-1.329-3.444-.515-.67-.707-1.024-.96-1.766q-.316-.928-.316-.635m6.577 2.344c-.062.484-.098.895-.08.914.088.092.247-.837.222-1.284-.028-.474-.038-.448-.142.37m-.98 1.782q-1.206.798-1.816 1.687l-.302.44.481-.446c.265-.245.878-.715 1.361-1.045a30 30 0 0 0 1.112-.786c.227-.182.228-.187.031-.238-.134-.035-.42.092-.867.388M83.827 43.7c-.485.86-1.995 2.357-3.127 3.099-1.317.863-3.944 2.1-5.593 2.633-.241.078-.367.177-.367.291 0 .147.18.779.246.865.011.015.148-.022.303-.082.21-.08.409-.078.781.01.495.117.505.115 1.173-.274.768-.447 2.59-1.313 2.646-1.257.02.02-.646.44-1.48.932-.836.493-1.518.927-1.516.965s.112.193.245.344l.242.275.268-.184c.147-.102.62-.375 1.05-.608 1.38-.746 2.517-1.571 3.429-2.487.743-.746.964-1.044 1.345-1.817.496-1.003.772-2.087.726-2.842l-.03-.47zm-68.832 4.04c.168 2.653.931 4.918 2.39 7.096.748 1.116 1.278 1.75 2.57 3.077.815.835.91.903 1.263.903.463 0 .862.344.862.743 0 .258-.598.93-1.176 1.318l-.23.156.268.176c.226.149.324.159.63.067.612-.185 1.062-.645 1.48-1.515a22 22 0 0 1 .989-1.752c.68-1.073.826-1.637.54-2.073-.217-.332-.449-.32-.45.023-.001.292-.403 1.23-.572 1.335-.143.088-.651-.186-.838-.453a.9.9 0 0 1-.152-.437c0-.164-.184-.344-.727-.71-2.428-1.638-5.488-5.576-6.553-8.434-.294-.787-.367-.667-.294.48m33.692.75c-.114.44-.407 1.35-.651 2.022s-.472 1.31-.507 1.417.14-.177.39-.632.542-1.086.648-1.4c.174-.519.435-2.099.359-2.176-.018-.017-.125.33-.24.77m26.786 4.563c-.035.056.188.212.507.355.962.43 3.573 1.41 3.67 1.378.05-.017-.165-.135-.479-.263a77 77 0 0 1-2.032-.901c-.804-.368-1.494-.669-1.533-.669-.04 0-.1.045-.133.1m-56.24 1.97c.686.835 2.031 2.162 2.837 2.798.572.451.813.472.348.03-.158-.15-1.078-1.017-2.045-1.926-1.563-1.47-1.689-1.57-1.14-.902m23.463.482a10 10 0 0 0-1.417.29c-.778.234-2.201.943-2.638 1.313-.288.246-.284.245.296-.038 1.1-.537 1.852-.806 3.066-1.099.667-.16 1.326-.354 1.466-.43.282-.153.26-.154-.773-.036m12.115 3.246c-.135.071-.618.374-1.075.673-.457.298-1.17.71-1.584.915-.858.423-.822.272-.395 1.652.132.43.394 1.089.58 1.465.187.376.295.64.24.586-.176-.17-1.08-1.722-1.204-2.064-.065-.181-.144-.33-.176-.33-.217 0-1.611 1.372-3.146 3.096-1.903 2.138-2.334 2.571-3.456 3.474-.921.741-1.713 1.208-2.177 1.282-.43.069-.491.126-.897.856l-.293.525.063-.415.062-.415h-.339c-.718 0-1.853.382-2.783.937-.504.301-.984.65-1.067.776-.197.301-.191 1.513.013 2.769.22 1.35.238 1.38.82 1.38h.482l.072.66c.039.362.019 1.56-.045 2.662-.102 1.762-.098 2.073.038 2.589.317 1.203 1.316 2.39 2.329 2.77 1.597.598 5.149.496 6.42-.183.188-.102.207-.169.153-.558-.094-.693-.394-1.069-1.322-1.663-1.295-.829-1.89-1.308-1.771-1.427.059-.059.102-.577.102-1.233 0-2.035.271-3.566.776-4.37.348-.554.36-.532.106.205l-.191.557.446.606c.66.897.906 1.445 1.223 2.738.33 1.342.546 1.823.955 2.114.802.57 2.567.851 4.696.746 2.116-.104 2.125-.108 2.008-.89-.099-.655-.41-.94-1.75-1.604l-1.203-.595-.42.148c-.603.213-.668.183-.266-.121.407-.31.416-.366.204-1.264-.115-.485-.142-.911-.1-1.57.032-.514.014-1.014-.04-1.16-.083-.215-.06-.293.148-.5.136-.136.246-.284.246-.329s.143-.156.318-.247c.265-.138.626-.167 2.174-.17 1.701-.006 2.035.024 4.006.355 1.182.199 2.413.39 2.735.425.553.06.614.093 1.075.588l.488.525 1.298-.294a37 37 0 0 1 2.795-.486c.824-.105 1.559-.217 1.633-.248.075-.03.25-.221.39-.423.23-.33.34-.39 1.095-.59 1.2-.317 2.113-1.035 3.03-2.386.546-.805.552-2.827.01-3.944-.59-1.221-4.123-3.939-7.094-5.458-.586-.3-1.126-.531-1.2-.514s-.505.369-.959.783c-.722.659-.83.801-.878 1.152-.069.514-.144.597-1.162 1.282-.925.622-2.534 1.94-3.426 2.806l-.56.544-.671-.216-.672-.216-1.531.904-1.531.905.467.065c.782.108 1.953.088 3.593-.063 4.285-.393 5.094-.38 6.888.106.918.25 3.293 1.143 3.448 1.298.044.045-.304-.022-.774-.147-.47-.126-.87-.214-.886-.197-.06.06.26.857.611 1.525.194.369.6.945.904 1.28.712.787.298.587-.533-.257-.557-.567-1.35-1.896-1.52-2.549-.044-.172-.206-.244-.92-.409-1.239-.286-2.333-.425-3.066-.39l-.635.031.005 1.27.005 1.27-.167-.537a7.7 7.7 0 0 1-.238-1.294l-.07-.756-.353.047a39 39 0 0 1-5.824.312l-1.952-.056-.539.304c-.956.54-2.075 1.27-3.288 2.148-.652.472-1.217.858-1.256.858-.117 0 .894-.88 1.894-1.65 1.247-.96 2.456-1.751 5.036-3.296l2.144-1.284.621.234.62.234.9-.812c1.107-.999 2.222-1.888 3.164-2.524.393-.265.715-.536.715-.603 0-.071-.369-.208-.904-.335-1.056-.251-2.422-.902-3.217-1.533-.74-.586-1.476-1.487-1.892-2.313-.187-.371-.395-.675-.461-.674-.067 0-.231.059-.365.13"/></svg>