<svg xmlns="http://www.w3.org/2000/svg" viewBox="0 0 100 100"><path fill="#fff" d="M23.404 10.66c.708.443 1.018.76 1.277 1.308.266.563.31 1.377.095 1.788-.256.493-1.092 1.07-1.386.958-.16-.061-.18-.425-.042-.785.15-.396-.038-.305-.646.31-1.025 1.04-1.252 1.95-.72 2.892.367.65.376 1.07.033 1.574l-.26.383-.13-.448a1.6 1.6 0 0 0-.497-.766c-.451-.392-.601-.641-.614-1.02l-.01-.294-.16.321c-.134.272-.14.388-.042.759.178.664.154.813-.145.887-.524.132-1.094-.43-1.176-1.158-.057-.504.112-.9.63-1.48.352-.391.613-.907.612-1.206 0-.331-.2-.892-.397-1.12l-.198-.227.06.31c.12.621-.109 1.085-.926 1.88-.845.82-.98 1.11-.98 2.1 0 .677-.077.657-.246-.061l-.121-.516-.117.293c-.196.49-.308 1.249-.243 1.64.08.482.408.86 1.072 1.235.7.396 1.312.953 1.477 1.347.167.4.164 1.178-.006 1.484l-.13.236-.116-.352a2.4 2.4 0 0 0-.315-.604c-.232-.295-.86-.639-1.167-.639-.207 0-.207.005.032.193.53.417.692 1.176.417 1.957-.187.528-.186.986.001 1.435.081.194.13.37.11.391-.074.074-.658-.486-.806-.772-.204-.396-.234-.32-.12.309.225 1.228.748 1.76 2.134 2.17.388.116.471.193.715.668.151.295.413.68.58.855.291.302.296.317.089.317-.312 0-.797-.22-1.164-.53-.248-.21-.318-.234-.318-.11 0 .315.272.797.625 1.107l.36.316-.254.097c-.871.332-1.9-.246-2.348-1.316-.078-.187-.142-.433-.142-.548 0-.176.04-.2.252-.146l.252.063-.178-.31c-.405-.705-1.142-1.386-1.858-1.717-.839-.388-.922-.4-.582-.086.508.472.234.749-.42.425-.499-.247-.805-.637-1.083-1.38-.274-.735-.592-.944-1.433-.945-.332 0-.632.044-.665.098s.049.097.193.097c.387 0 .897.249 1.078.526.09.137.245.566.345.955.283 1.102.413 1.219 1.764 1.59.3.082.663.242.806.354.504.397.945 1.435.745 1.757-.07.114-.165.066-.484-.246l-.396-.387.14.466c.273.908.932 1.505 1.954 1.77.683.177.712.198.543.402-.095.114-.258.148-.592.125-.375-.027-.442-.009-.355.096.234.281.852.506 1.39.506.639 0 .983-.13 1.968-.744.471-.293.876-.47 1.15-.5.581-.066 1.088.187 1.332.666.262.512.78.884 1.316.945.241.027.439.095.439.15 0 .215-.877.94-1.212 1.002-.375.07-.929-.16-1.914-.795-.472-.305-.598-.342-1.033-.31-.388.03-.6.118-.976.406-.264.202-.601.39-.75.42-.224.045-.258.091-.21.285.046.184.008.25-.188.324-.387.147-.883-.047-1.456-.568-.646-.59-1.037-.792-1.522-.792-.463 0-1.189.209-1.5.432l-.23.165.293-.076c.878-.228 1.62.023 2.533.857q.826.755.118.605c-.207-.044-.208-.043-.013.12.588.494 1.415.565 2.256.192.304-.134.734-.245.956-.246l.403-.003-.314-.266c-.379-.32-.31-.532.227-.71.508-.167.999-.053 1.988.463.682.356 1.003.466 1.461.499.814.059.996-.007 1.72-.62.849-.721 1.204-.856 1.563-.593.155.113.165.162.061.287-.069.083-.265.182-.436.22-.304.066-.306.07-.077.154q.909.338 2.332-1.126c.91-.935 2-1.495 2.22-1.14.032.052-.138.637-.379 1.299-.75 2.068-1.134 3.876-1.134 5.334 0 .82.227 2.234.383 2.39.058.058.377.051.856-.018.597-.087.978-.222 1.741-.618 2.415-1.252 2.614-1.335 3.566-1.496.816-.138 1.017-.215 1.661-.636.938-.612 1.402-.795 3.078-1.216a54 54 0 0 0 1.841-.489c.42-.13.468-.13.418 0-.07.184.696 1.487 1.537 2.614.713.954.802 1.232.7 2.18l-.068.64.41.379c.239.22.725.506 1.157.681 1.194.484 1.203.492.453.427a40 40 0 0 1-.782-.072c-.147-.02-.179 1.1-.036 1.273q.122.145.02.211c-.162.106-.326.473-.326.732 0 .288.466.51 1.8.856.478.124.826.24.772.259-.054.018-.644-.053-1.31-.157l-1.213-.189-.541.553c-.733.748-1.2 1.457-2.201 3.348-1.378 2.599-2.197 3.919-3.683 5.933-.37.502-.657.929-.637.949.089.088 3.29-2.056 4.563-3.056.407-.32.315-.205-.363.45-1.996 1.932-4.184 3.413-8.96 6.064-5.303 2.945-7.04 4.029-8.253 5.152-.968.897-1.119 1.215-1.12 2.376-.002.676.058 1.141.22 1.711.324 1.14.335 1.15.762.632 1.23-1.49 3.836-3.688 5.851-4.936.393-.243.35-.202-.781.738-1.635 1.359-2.864 2.532-3.835 3.661-1.674 1.946-2.467 3.387-2.467 4.485 0 .56.247 1.463.555 2.028.406.746 1.592 2.114 2.586 2.983.961.84 2.55 2.091 2.596 2.045.015-.015-.043-.485-.128-1.045-.208-1.362-.206-4.104.003-5.463.486-3.161 1.549-5.468 3.376-7.33 1.454-1.48 2.811-2.264 6.497-3.752 6.945-2.805 8.564-3.675 10.558-5.668 1.473-1.473 2.896-3.767 3.666-5.908.42-1.167.298-.429-.15.913-1.378 4.122-3.49 6.528-7.478 8.516-1.243.62-2.31 1.057-6.058 2.483-3.696 1.407-5.343 2.325-6.812 3.796-1.117 1.12-2.08 2.786-2.606 4.507-.258.846-.553 2.052-.502 2.052.016 0 .198-.071.406-.158.633-.264 1.473-.143 2.632.38 1.136.514 1.976.707 2.733.629.376-.039.534-.021.534.06 0 .063-.085.632-.188 1.264-.15.927-.236 1.207-.44 1.448-.138.165-.251.38-.251.478 0 .102-.273.4-.63.69-.817.663-.962.972-1.013 2.17-.037.866-.023.967.159 1.123l.2.172-.24.879c-.553 2.024-.579 2.216-.386 2.928.359 1.326 1.142 2.587 1.824 2.94.367.19 1.201.183 1.396-.011.083-.084.287-.578.453-1.1.27-.848.311-1.143.394-2.826.11-2.234.374-3.952.655-4.26.297-.326.412-.605.412-1 0-.466.65-1.902 1.644-3.634.423-.738.926-1.627 1.117-1.977.311-.567.4-.653.82-.805.683-.247.909-.461 1.11-1.056.155-.46.222-.54.504-.613.405-.105 1.703-.047 1.828.083.147.152-.776 1.75-1.032 1.786-.12.018-.257.148-.322.307-.096.232-.204.294-.67.391-.74.154-1.593.585-1.754.885-.095.177-.116.498-.077 1.172.065 1.146.124 1.368.36 1.368.272 0 .243.677-.07 1.624-.36 1.09-.4 1.779-.155 2.745.22.872.629 1.81.911 2.092.271.271.873.243 1.151-.053.18-.192.276-.552.513-1.93.203-1.177.39-1.932.613-2.475.177-.43.399-1.024.494-1.32.225-.697.505-1.258.779-1.563a7 7 0 0 0 .471-.623c.138-.209.72-.854 1.291-1.433l1.04-1.054.545.187c.653.225 1.113.56 1.495 1.087l.283.39.727-1.5a36 36 0 0 0 2.65-7.635c.268-1.207.266-.82-.003.721-.618 3.543-1.82 6.854-3.5 9.644-.692 1.147-1.727 2.58-2.292 3.172-.45.472-.337.468 1.12-.031 2.056-.706 3.865-1.774 4.976-2.938 1.116-1.169 1.185-1.383 1.65-5.103.571-4.565.76-7.934.774-13.837.008-2.992-.03-4.845-.114-5.667-.2-1.948-.595-4.15-.964-5.366-.312-1.03-.33-1.16-.223-1.546.102-.363.094-.475-.056-.808-.137-.304-.161-.526-.114-1.047.075-.816-.007-.992-.382-.822-.266.121-.266.121-.101-.103.233-.318.54-.987.608-1.325.037-.187-.048-.616-.245-1.23-.291-.908-.303-1.013-.305-2.678-.002-.953-.043-2.15-.093-2.658-.049-.51-.076-.94-.06-.955.016-.017.128.422.248.974.146.668.246 1.576.299 2.714.07 1.521.114 1.82.394 2.722l.315 1.013-.218.528c-.205.494-.21.549-.068.847.117.246.133.45.073.897-.06.435-.043.666.065.925.101.242.127.517.085.915-.05.475-.003.764.282 1.743.71 2.445.988 4.538 1.102 8.307l.07 2.278.683-.036c1.33-.07 2.47-.594 3.045-1.402.164-.23.474-.792.69-1.25.215-.456.529-1.015.697-1.243.308-.417 1.101-.906 1.47-.906.404 0 .263-.184-.655-.856a22 22 0 0 1-1.827-1.534l-.88-.841.988.73c1.821 1.349 3.98 2.61 5.119 2.993.889.298 2.055.244 2.875-.133 1.304-.599 2.054-1.513 2.789-3.399 1.22-3.13 2.163-4.298 4.151-5.14l.486-.205-.378-.07c-.656-.124-3.26.033-4.745.285-2.102.357-2.825.397-3.923.218-4.026-.656-7.91-3.51-10.503-7.716-.303-.49-.599-.924-.658-.963-.06-.04-.306-.077-.548-.084l-.44-.011.587-.137c1.036-.243 2.306-.21 3.44.09.892.236 1.145.261 2.393.24 1.39-.022 1.401-.02 2.457.348 1.228.428 2.633.66 2.824.469.085-.085.12-.524.117-1.46-.004-1.412-.19-2.392-.782-4.136l-.243-.713.432-.433.433-.432.325.19c.387.226.898.918.85 1.15-.029.141-.103.12-.502-.145-.258-.171-.489-.29-.514-.266-.025.025.22.347.544.714l.59.668-.064.564c-.055.493-.032.616.183.985.283.483 1.01.97 1.065.714.027-.127.08-.12.35.046.368.225.707.73.707 1.057 0 .125.044.198.098.165s.098-.296.098-.585c0-.639-.236-.964-1.023-1.408-.57-.321-.736-.532-.736-.934 0-.173.076-.287.24-.362.32-.146.671.08.794.507.073.254.183.35.579.509.278.111.686.19.95.182.439-.012.47.004.65.355.522 1.015 1.457 1.33 2.621.884l.566-.216-.571-.065c-.616-.07-1-.289-1.237-.708-.18-.319-.091-.489.463-.881.525-.372 1.095-.425 2.26-.212 1.24.226 1.63.132 2.293-.552.515-.532.54-.668.079-.43-.381.198-.74.197-.938-.002-.144-.144-.143-.181.017-.454.297-.508.66-.71 1.263-.703.506.005.525-.003.334-.147-.111-.084-.473-.258-.803-.386-.58-.225-.593-.237-.366-.353.429-.219.908-.248 1.507-.092.321.084.626.194.677.245.173.173.529.093.78-.176.623-.667 1.046-1.284 1.286-1.876.787-1.946 1.122-2.332 2.1-2.426.554-.054.526-.183-.067-.317-.232-.052-.563-.044-.867.02-.404.086-.588.202-1.03.653-.527.54-.958.89-1.094.892-.037 0 .017-.186.12-.415.104-.228.19-.537.191-.686.002-.266-.002-.268-.241-.111-.343.225-.538.117-.538-.297 0-.553.271-1.099.669-1.346.196-.121.707-.291 1.136-.377l.78-.156-.531-.199c-.293-.109-.547-.244-.566-.3s.265-.267.631-.467c1.31-.719 1.556-1.147 1.45-2.523-.074-.94.084-1.351.63-1.638l.34-.18h-.32c-.389 0-.855.227-.992.483-.056.104-.101.378-.102.61 0 .982-.439 1.68-1.017 1.623a.53.53 0 0 1-.441-.291c-.134-.24-.13-.28.036-.464.182-.2.18-.202-.166-.202-.286 0-.407.07-.674.386-.328.387-.478.442-1.142.41l-.328-.015.316-.359c.38-.432.584-.892.584-1.315v-.314l-.237.223c-.293.275-.447.194-.447-.235 0-.688.196-.828 1.5-1.072 1.49-.279 1.974-.587 2.223-1.418.095-.319.08-.506-.094-1.193-.251-.985-.18-1.376.344-1.885.59-.573 1.757-1.025 2.652-1.028.675-.002.384-.166-.523-.295-.843-.12-1.714-.071-2.188.121a1.3 1.3 0 0 1-.476.09c-.27-.016-.687.186-.925.45-.095.105-.263.516-.373.913-.32 1.155-.907 1.748-1.732 1.748-.338 0-.481-.057-.709-.285-.503-.503-.307-1.143.48-1.576l.358-.196-.88.034c-.94.036-1.336.175-1.84.643-.289.268-.6.78-.522.858.025.024.193-.046.373-.156.582-.354.627-.307.612.654-.019 1.19-.012 1.156-.28 1.46l-.241.274-.003-.423-.003-.424-.381.302c-.377.299-1.193.714-1.263.644-.02-.02.019-.205.087-.41.23-.693.282-2.134.056-1.545-.08.209-.428.182-.548-.042-.158-.297-.119-.787.1-1.24.268-.552 1.364-1.57 2.128-1.976.339-.18.6-.343.58-.362-.07-.07-1.26.252-1.848.5-1.254.527-2.437 1.459-2.58 2.031-.033.13.011.445.098.7.142.417.143.514.011.966-.25.864-1.168 1.68-1.671 1.487-.252-.097-.166-.52.15-.745.162-.115.293-.286.293-.38 0-.147-.091-.127-.681.154-.665.317-.98.653-.98 1.047 0 .278-.217.623-.463.735-.314.143-.335.115-.219-.292.14-.487.125-.51-.185-.28-.34.251-.636.216-.678-.082-.03-.215.165-.456.79-.972.144-.12.29-.329.324-.465.087-.348-.03-.876-.252-1.143l-.19-.227-.003.458c-.004.59-.233.861-1.122 1.333-.951.505-1.027.636-1.055 1.84-.023.942-.039 1.01-.32 1.357-.162.2-.39.428-.506.505-.2.133-.223.118-.422-.271-.259-.507-.206-.887.2-1.45.161-.22.276-.401.256-.401s-.35.13-.735.288c-.802.33-1.495.798-1.67 1.125-.106.196-.088.275.134.601.297.439.321.72.084.993-.217.249-.781.61-.67.427.232-.374.005-1.234-.427-1.625l-.213-.192.066.29c.035.16.084.362.107.449.077.287-.158.698-.775 1.352-.946 1.002-1.064 1.66-.507 2.824.189.392.342.799.342.904 0 .495-.682.217-1-.409-.1-.195-.173-.56-.175-.872-.004-.512-.01-.526-.14-.294-.212.38-.28 1.122-.15 1.658.09.382.204.555.543.833.235.193.506.484.602.647.197.337 1.323 1.133 1.376.974.02-.057-.054-.217-.163-.355-.325-.413-.443-.887-.304-1.222.065-.158.147-.287.18-.287.034 0 .192.23.352.513l.29.512.089-.471c.077-.417.057-.532-.169-.979-.416-.822-.273-1.835.333-2.36l.226-.195-.08.195c-.098.237-.187.83-.126.83.024 0 .301-.088.615-.196.936-.322 1.13-.617.681-1.033-.278-.258-.307-.515-.101-.913.24-.464.394-.434.394.079 0 .396.028.455.223.483.165.024.338-.097.669-.464.245-.273.482-.496.526-.496s.01.18-.076.4c-.133.339-.138.467-.035.854.067.251.158.493.202.537s.171-.189.283-.518c.14-.416.354-.766.695-1.14.551-.602.622-.878.249-.972-.626-.157.04-1.097.953-1.348.282-.077.688-.163.903-.19l.391-.051-.488.22a2.9 2.9 0 0 0-.814.592l-.324.37.251.262c.138.144.251.346.251.447 0 .156.05.137.318-.122.175-.17.478-.375.674-.456.355-.149.357-.148.423.115.063.25.072.254.17.07.196-.368.518-.657.93-.836l.416-.18-.013-.534c-.009-.395.044-.624.204-.883.213-.344.283-.379.996-.493.464-.074.84-.376.953-.766.088-.305.09-.302.099.134.011.567-.111.714-.773.926-.91.293-1.031.416-1.125 1.147-.052.411.052.513.619.607.232.038.404.087.382.109s-.298.087-.614.145c-.694.129-1.268.407-1.418.687-.069.13-.086.402-.046.726.048.384.025.596-.09.818-.086.165-.134.3-.109.3.226 0 .598-.31.836-.696.3-.487.598-.695 1.174-.82l.342-.073-.317.297c-.23.214-.318.382-.318.608v.311l.297-.25c.277-.233.346-.246 1.05-.197 1.172.081 1.677-.276 1.68-1.19.002-.455.233-.726.774-.907.5-.168.508-.144.088.275-.378.379-.385.399-.323.904.057.453.034.562-.185.884l-.249.366h.238c.13 0 .327-.096.437-.214.172-.185.199-.19.199-.044 0 .256-.27.728-.483.841-.104.056-.485.1-.848.1-.844 0-1.33.237-1.825.889-.204.268-.479.537-.61.597-.333.152-.3.304.053.253l.293-.043v.544c0 .375-.062.647-.199.87l-.198.325.223-.069c.482-.15.757-.44.909-.963.148-.51.413-.847.762-.97.16-.057.158-.038-.024.194-.197.25-.263.74-.143 1.053.08.209 1.018.208 1.46-.001.338-.161.698-.576.898-1.039a.55.55 0 0 1 .388-.322c.833-.173.851-.185 1.16-.763.165-.31.403-.661.528-.78l.227-.214-.198.266c-.119.159-.225.503-.265.86-.072.635-.268.934-.665 1.015l-.502.105a1.03 1.03 0 0 0-.489.314 8 8 0 0 1-.472.519l-.264.264.287.275c.158.152.312.351.34.443.03.092.27.26.534.374s.509.254.545.312c.035.058-.05.225-.19.371-.14.147-.255.334-.255.417 0 .27.337.474.79.477.39.003.414.016.251.14q-.55.416-1.476-.007c-.483-.221-.621-.247-.852-.16-.391.148-.346.036.207-.508.47-.463.479-.484.344-.745-.305-.59-.923-.822-1.55-.583-.238.09-.246.082-.188-.207.056-.28.045-.296-.174-.233-.221.065-.327.168-.906.886-.165.205-.42.35-.822.472-.902.27-1.166.622-1.113 1.479l.018.293.19-.311c.239-.392.513-.54.913-.496l.313.035-.256.11a1.5 1.5 0 0 0-.47.383c-.272.345-.971.814-1.228.822-.383.013.27.201.733.212.493.01.98-.204 1.345-.593l.243-.26-.203.403c-.22.436-.724.916-.96.916-.115 0-.132.07-.08.318.038.175.086.347.107.383.09.155.994.374 1.312.317l.337-.06-.292.203c-.52.361-.77.356-1.394-.03-.31-.192-.642-.349-.737-.349-.157 0-.159-.019-.02-.23.24-.366.101-.562-.346-.49-.251.04-.599-.01-1.06-.15-.977-.296-1.002-.47-.06-.412l.294.018-.32-.296c-.26-.243-.402-.296-.781-.298-.254 0-.561-.027-.682-.06-.201-.054-.215-.033-.16.241.066.332-.01.373-.793.434l-.39.03.365.168c.259.119.484.15.764.104.373-.06.425-.037.822.353.372.365.468.411.777.375.511-.06.39.11-.35.49-.579.297-.67.317-1.02.222-.234-.063-.54-.262-.775-.505-.214-.22-.516-.468-.671-.55-.267-.139-.279-.137-.208.033.106.257.344 1.029.344 1.116 0 .04-.12.042-.268.002-.17-.045-.452-.312-.773-.73-.277-.361-.66-.776-.852-.92-.19-.145-.349-.293-.35-.329s.267-.31.599-.61c.553-.502.64-.546 1.066-.546.41 0 .544-.061 1.173-.538.89-.674 1.231-.71 1.848-.195.457.382.977.473.976.171 0-.222-.834-1.099-1.253-1.319-.18-.094-.309-.223-.288-.286s.267-.192.547-.287c.467-.159.549-.16 1.012-.023.376.111.56.123.731.045.378-.172.27-.385-.333-.655-.745-.332-1.082-.38-1.683-.236-.276.067-.53.093-.563.059-.034-.034.111-.239.323-.455.288-.296.55-.444 1.047-.595.714-.217.978-.404.926-.656-.027-.132-.15-.155-.706-.137-.878.03-1.18.138-1.859.665-.309.24-.604.436-.656.436-.096 0-.029-.439.132-.865.047-.127.306-.441.573-.7.378-.364.487-.537.487-.77 0-.4-.219-.398-.786.007-.761.543-.982.796-1.375 1.573-.42.834-.987 1.472-1.396 1.575-.218.054-.34-.001-.7-.317-.449-.396-.935-.549-1.238-.39-.269.14-.201.44.16.716.308.235.743 1.025.743 1.35 0 .13-.706.695-1.794 1.432-.342.232-.495.289-.548.203-.135-.218-.523-.065-.73.29-.177.3-.2.499-.193 1.66.008 1.524.187 2.219.97 3.762.484.954.279.785-.296-.244-.84-1.503-1.172-2.762-1.099-4.165.027-.504.028-.916.003-.916s-.387.192-.805.427-.965.506-1.216.601c-.509.195-.722.489-1.193 1.644-.336.823-.39.734-.144-.232.102-.402.168-.75.145-.774s-.415.327-.87.78c-.455.452-.827.787-.827.743s.183-.34.406-.659c.223-.318.388-.595.366-.616-.022-.02-.667.032-1.434.116l-1.395.153-.755-.31c-.415-.171-.806-.31-.87-.31s-.338.257-.612.571-.682.72-.909.903l-.412.332.243-.326c1.135-1.52 1.533-2.125 1.453-2.21-.05-.051-.4-.111-.78-.133-.656-.037-.706-.024-1 .252-.17.16-.53.435-.798.612-.269.177-.61.433-.757.57s-.269.205-.269.154c0-.052.335-.423.743-.825.951-.934 1.309-1.419 1.309-1.776 0-.156-.14-.798-.311-1.426-.308-1.128-.311-1.169-.292-3.153.018-1.816.004-2.026-.153-2.164-.379-.335-2.955-1.659-3.69-1.895-1.405-.453-2.977-.217-4.23.633-.323.22-.757.608-.963.862-.207.254-.738.823-1.182 1.264-.443.44-.806.844-.806.896 0 .289 1.067.275 1.793-.024l.571-.235-.063.36c-.133.756-.467 1.567-1.031 2.503-.853 1.414-.806 1.719.382 2.503.433.285.772.533.755.551s-.446-.128-.951-.323c-.542-.21-1.165-.376-1.52-.406-.636-.052-1.89.134-1.89.28 0 .048.061.087.136.087.357 0 2.534 1.287 4.915 2.904.433.294-.382-.093-1.582-.752-2.894-1.588-4.125-2.083-4.775-1.92-.314.08-.822.599-1.14 1.165l-.219.388.462-.07c.253-.037.639-.131.856-.208s.576-.137.798-.134c.39.004.378.014-.379.293l-.919.34c-.086.032.16.257.66.602.438.303.782.566.763.585-.019.018-.476-.162-1.016-.402-1.053-.467-1.962-.74-2.466-.74h-.313l.384.465c.554.671 1.214 1.588 1.142 1.588-.033 0-.619-.548-1.301-1.218-.765-.752-1.388-1.279-1.627-1.377-.213-.088-.616-.332-.896-.541s-.527-.382-.55-.382.043.32.148.709c.155.575.184.938.153 1.93-.06 1.918-.493 3.025-2.18 5.593-.451.685-.846 1.245-.878 1.245s.028-.143.135-.317c.924-1.515 1.764-3.191 2.098-4.193.687-2.052.56-4.35-.295-5.366l-.251-.298.19-.262c.105-.144.408-.363.674-.487.985-.459 1.155-.562 1.337-.809.247-.335.372-.938.282-1.36l-.073-.341-.178.37c-.097.203-.266.417-.374.474-.178.095-.19.083-.13-.125.036-.127.131-.559.211-.96.178-.89.283-1.059.91-1.46.64-.412.774-.769.56-1.502-.133-.458-.901-1.703-.993-1.61-.02.019.029.248.107.51.251.833.12 1.612-.326 1.923-.108.076-.297.346-.421.601l-.226.464-.129-.246c-.144-.276-.318-.327-.318-.095 0 .084-.044.126-.098.092-.23-.142-.095-.809.305-1.499.323-.558.402-.789.402-1.178 0-.647-.32-1.206-1-1.743l-.88-.698c-.187-.151-.451-.49-.585-.753-.238-.467-.245-.472-.277-.194-.064.56.19 1.146.725 1.681.614.615.79 1.055.624 1.56l-.116.35-.188-.308c-.107-.177-.365-.387-.606-.494-.464-.205-.691-.422-.793-.755-.096-.314-.211-.196-.355.363-.123.481-.284.577-.285.17 0-.118.073-.501.162-.852.095-.368.136-.75.097-.904-.107-.428-.544-.832-1.378-1.275-.9-.48-1.125-.776-1.215-1.612l-.06-.554-.22.463c-.35.74-.226 1.704.266 2.056.231.166.52.63.456.734-.03.048-.303.052-.62.01-.606-.083-1.005-.392-1.005-.781 0-.414-.39-.977-.811-1.168-.226-.102-.494-.187-.596-.188-.171-.002-.174.011-.031.169.247.273.382.729.317 1.073-.059.312-.066.316-.324.18-.145-.076-.434-.314-.642-.528-.61-.63-.596-1.425.044-2.455l.27-.436.067.265q.131.523.329-.044c.183-.525.126-1.07-.181-1.718-.51-1.08-1.614-1.895-3.19-2.36-.913-.27-.947-.261-.376.097m53.515 1.173c-.282.108-.625.334-.769.504-.24.286-.255.355-.197.924.069.667.003.876-.411 1.32-.383.41-.21.409.428-.005.723-.468.867-.724.797-1.41-.06-.575.005-.752.448-1.221.165-.175.28-.315.256-.313a9 9 0 0 0-.552.201m-58.934.416c-.28.453-.263.991.043 1.433.145.21.252.508.26.727.013.338.026.354.148.188.073-.1.184-.353.246-.561.104-.348.09-.427-.168-.92-.162-.308-.278-.679-.273-.867.005-.18-.005-.329-.022-.329s-.122.149-.234.33m12.497 1.06c0 .025.07.187.157.36q.156.314.098.674c-.2 1.224-.2 1.234.135 1.615.371.423.48.45.414.105-.026-.138.03-.51.126-.827l.174-.575-.234-.455c-.19-.37-.87-1.07-.87-.898m39.353 1c.065.791-.028 1.008-.719 1.669-.618.59-.628.61-.628 1.118 0 .555.174 1.273.308 1.273.045 0 .082-.116.082-.258 0-.731 1.13-1.603 1.543-1.19.255.256.805-.596.8-1.24-.002-.19-.006-.19-.17.014a1.4 1.4 0 0 1-.382.317c-.28.143-.556.04-.46-.172.04-.087.091-.39.113-.671.033-.424-.005-.591-.217-.953-.142-.242-.27-.44-.286-.44s-.009.24.016.534m-55.702 1.616c-.1.242-.204.75-.232 1.13-.068.923.086 1.219.83 1.595.587.297.909.564 1.258 1.042l.21.288-.136-.663c-.18-.871-.328-1.138-.903-1.62-.558-.467-.682-.72-.777-1.581l-.07-.63zm20.013-.226c.067.245-.127.675-.43.949-.33.3-.214 1.053.22 1.413.124.103.137.066.092-.266-.039-.29.012-.52.204-.927.309-.652.318-.85.056-1.153-.198-.227-.2-.228-.142-.016m51.939.087c-.223.283-.35.614-.268.696.083.083.528-.237.652-.468.115-.215.064-.48-.092-.48-.052 0-.183.113-.292.252M82.63 16.91c-.094.055-.242.236-.328.402-.145.281-.144.298.008.24.09-.035.178-.064.194-.064s.147-.154.29-.342c.26-.34.19-.442-.164-.236m-58.396.884c-.265.616-.293 1.416-.06 1.77.092.14.398.346.7.468.587.239.724.407.723.894 0 .352-.124.57-.757 1.347-.229.28-.443.616-.475.745-.112.444-.233.233-.233-.405 0-.566-.03-.667-.259-.88-.142-.131-.313-.239-.38-.239-.289 0-.542-.343-.559-.757-.017-.452-.114-.373-.217.177-.057.305-.021.401.292.776.32.383.353.475.316.873a8 8 0 0 1-.221 1.086l-.18.64.226.467c.124.256.33.514.457.572s.232.142.232.187c0 .14-.733.091-.934-.061-.296-.224-.363-.178-.292.2.104.556-.231.402-.55-.25-.27-.554-.668-.979-.92-.979-.11 0-.092.07.076.297.156.211.238.497.284.998.06.66.086.722.44 1.027.351.304.415.323.993.296.71-.033.75.007 1.043 1.019.089.307.273.692.41.855.441.524-.111.326-.82-.294-.424-.372-.962-.568-1.382-.504-.212.033-.197.053.153.21.386.173.559.352 1.12 1.16.54.778 1.344.96 2.235.505q.758-.387 1.446-.2c.52.14.615.293.142.231-.44-.057-.885.096-.972.334-.034.095-.209.337-.388.539-.404.455-.418.614-.037.417.385-.199.499-.19 1.177.096.634.266 1.031.304 1.407.133.388-.177.401-.373.02-.312-.249.04-.38-.003-.604-.2l-.286-.25.555-.003c.374-.003.786-.095 1.27-.285.393-.155.772-.298.84-.319.086-.025.03-.168-.179-.45-.256-.35-.358-.415-.643-.415-.436 0-.834-.206-1.5-.775-.296-.253-.62-.49-.718-.527-.235-.087-.925.225-1.23.556-.244.265-.719.352-.842.153-.117-.19.762-1.198 1.272-1.459.263-.134.494-.293.513-.353s-.132-.19-.335-.288c-.377-.183-.867-.212-1.507-.091-.414.078-.769-.073-.769-.328 0-.125.197-.25.7-.447.715-.279.754-.28 1.914-.096.228.036.415.027.414-.02 0-.048-.176-.292-.39-.542-.305-.355-.544-.514-1.08-.719-.706-.27-1.026-.572-.914-.863.075-.198.097-.197 1.082.02.835.183.867.2 1.694.873.284.23.564.403.624.383.3-.1.105-.913-.394-1.65-.194-.285-.387-.637-.429-.781-.1-.339.09-.62.353-.527.348.123 1.18 1.27 1.67 2.303.492 1.038.927 1.56 1.472 1.767.31.118.502.057.956-.303.465-.37.943-.465 1.268-.252.31.203.307.313-.01.578-.813.677-.999.883-1.213 1.34l-.237.506.34.304.338.303.05-.379c.041-.327.065-.358.174-.226.23.279.317.773.209 1.176-.182.676-.598 1.002-1.898 1.489-.645.241-1.228.516-1.296.61l-.443.61c-.24.33-.434.478-.78.594-.51.17-.51.285 0 .285.482 0 .838-.223 1.234-.773.452-.63.626-.734 1.627-.98 1.452-.355 1.876-.813 2.051-2.212.101-.806.256-1.31.403-1.31.047 0 .086.046.086.104 0 .19.416.047.592-.202a1.9 1.9 0 0 0 .238-.635l.066-.391-.228.212c-.25.233-.766.403-.766.253 0-.051.088-.173.196-.27.239-.216.425-.86.334-1.153-.037-.118-.237-.4-.445-.628s-.378-.477-.378-.556a.27.27 0 0 0-.11-.21c-.075-.047-.097.056-.07.336.047.493-.092.525-.446.103-.316-.376-.318-.591-.009-1.046.27-.396.303-.665.13-1.044-.113-.248-.115-.247-.268.21-.133.394-.222.494-.62.69-.611.303-.795.59-.733 1.143.043.38.03.419-.11.331-.452-.286-.815-1.46-.648-2.099.072-.275.074-.276.174-.058.056.12.136.22.178.22.135 0 .208-.398.14-.761-.172-.915-.76-1.544-1.75-1.874-.644-.214-.908-.447-1.127-.994-.084-.21-.093-.198-.098.123-.008.456.242.769.921 1.152.296.167.546.358.557.425.05.328.022 1.538-.036 1.538-.105 0-.471-.501-.471-.644 0-.32-.257-.638-.675-.835-.247-.117-.52-.274-.609-.349-.141-.12-.172-.1-.27.182-.11.315-.465.767-.604.767-.039 0-.047-.263-.018-.583.034-.373.007-.694-.075-.891-.143-.346-.59-.584-.974-.518-.301.052-.932-.301-1.212-.678-.156-.212-.2-.401-.185-.806.01-.292.004-.53-.013-.53s-.128.225-.246.501m42.52.563c-.265.21-.561.55-.66.756-.17.36-.17.393-.005.816.095.243.2.639.235.88l.063.437.217-.277c.281-.358.363-.812.232-1.297-.119-.441-.036-.836.286-1.357.115-.186.188-.338.161-.338s-.264.171-.53.38m24.01 1.797c0 .07-.12.268-.268.44-.206.242-.39.338-.785.41-.749.138-.878.238-1.224.948-.31.634-.447.76-1.142 1.046-.34.14-.338.141.428.149.945.01 1.432-.127 1.79-.503.234-.247.246-.283.081-.255-.262.045-.313-.269-.085-.523.099-.11.407-.3.685-.424.435-.193.521-.277.61-.6.132-.471.135-.814.008-.814-.054 0-.098.057-.098.126m-75.662.73c.032.147.217.4.41.561.36.301.64.587 1.239 1.27l.342.391v-.293c.001-.161-.083-.478-.185-.703-.151-.334-.296-.466-.77-.705-.32-.162-.67-.406-.778-.542-.252-.32-.331-.314-.258.02m6.422.02c.23.272.264.399.264.97 0 .685.097.891.422.891.15 0 .173-.044.117-.22-.038-.12-.092-.491-.12-.823-.053-.645-.233-.915-.707-1.059l-.24-.073zm31.165 1.29c-.829.414-1.378.987-2.122 2.216a19 19 0 0 1-1.368 1.921c-.809.965-1.13 1.522-1.129 1.96.002.877.526 1.586 1.75 2.365.434.276.79.485.79.463s-.373-.353-.828-.736c-.966-.814-1.257-1.23-1.256-1.794 0-.498.165-.818.999-1.95.362-.492.977-1.386 1.366-1.987.39-.6.905-1.273 1.146-1.495.475-.438 1.701-1.076 2.068-1.076.128 0 .202-.043.168-.098-.129-.209-.967-.098-1.584.21m14.592.634c-.215.215-.256.341-.25.757l.01.5.122-.44c.067-.241.196-.582.287-.757.2-.385.167-.396-.17-.06m-16.084 2.232c0 .166.483.442.777.442s.244-.153-.13-.383c-.385-.238-.647-.262-.647-.06m35.664 2.36c-.167.14-.37.384-.452.541l-.147.286.391-.2c.519-.264.877-.252 1.279.045.503.371 1.025.323 1.635-.15.214-.166.21-.168-.293-.156-.435.01-.576-.035-.941-.305-.552-.407-1.036-.428-1.472-.062m-1.127 2.691c-.108.059-.393.296-.635.527s-.594.462-.782.512l-.342.093.275.11c.504.202.993.138 1.327-.173.167-.156.303-.367.303-.47s.065-.272.144-.376c.256-.339.116-.446-.29-.223m-64.07 1.607c-.08.08.771.527 1.004.527.293 0 .346-.21.103-.407-.213-.172-.972-.255-1.107-.12m51.86.913c-.031.051.07.236.226.41.256.286.347.32.944.359.696.044.833-.1.206-.218-.183-.035-.497-.194-.698-.353-.378-.3-.578-.359-.678-.198m-43.428.602c-.37.148-.589.385-.589.64 0 .27.202.298.413.057.14-.16.504-.813.445-.8-.015.004-.136.05-.27.103m52.415.028c-.162.07-.49.293-.731.495-.725.608-1.14.676-2.103.345-.312-.107-.726-.192-.919-.187l-.35.007.292.105c.162.058.535.268.83.467.813.547 1.125.683 1.564.683.48 0 .828-.168 1.221-.59l.293-.316-.268.064c-.196.047-.269.027-.269-.073 0-.34 1.144-.742 2.143-.754l.641-.008-.39-.185c-.464-.22-1.511-.248-1.954-.053m-54.615 1.642c-.44.251-.548.272-1.1.219-.542-.053-.663-.03-1.036.188-.348.204-.941.814-.941.968 0 .022.248-.085.55-.238.655-.33.774-.338 1.16-.081.54.36 1.315-.018 1.71-.834.12-.246.201-.46.181-.474s-.255.1-.524.252m13.971 2.433c-.698.267-1.454.552-1.68.634-.389.142-.444.215-1.102 1.466-2.616 4.973-5.422 7.966-9.284 9.904-1.37.688-2.55 1.1-4.782 1.665-2.304.585-3.589 1.01-4.871 1.615-.862.406-2.466 1.405-3.089 1.925l-.286.239.584.052c.73.067 1.483.384 1.873.79.164.171.483.641.708 1.044.508.91.79 1.218 1.412 1.544.415.217.617.256 1.331.26.832.003.857-.004 1.954-.551 1.233-.615 4.526-2.755 6.485-4.214l1.27-.946-.781.74c-.932.883-2.486 2.143-3.75 3.042l-.916.652.526.107c.289.06.627.172.752.25.245.153.934 1.144 1.289 1.852.604 1.206 1.256 1.7 2.4 1.818l.595.062 1.36-.755c.747-.416 2.087-1.171 2.977-1.68l1.619-.924 1.263-1.703c1.527-2.057 2.327-3.317 3.377-5.318 1.497-2.853 1.767-3.304 2.479-4.13.794-.922.824-1.017.861-2.71l.018-.83-.5-.488-.502-.489-.07-.928c-.08-1.072-.15-1.27-.868-2.429a24 24 0 0 1-.835-1.46c-.168-.333-.36-.602-.426-.598s-.692.226-1.39.492m-4.983 3.738c-2.481 2.509-5.363 4.391-8.092 5.285-1.59.521-2.878.727-5.531.883-3.983.235-5.99.696-8.563 1.97-3.1 1.535-4.614 3.537-5.239 6.92-.16.87-.156 3.564.007 4.593.127.799.567 2.91.662 3.175.029.08.239-.381.467-1.026.97-2.738 1.901-4.382 3.535-6.236 2.637-2.992 6.117-4.94 10.761-6.022 3.54-.826 6.293-2.32 8.902-4.837 1.324-1.276 2.85-3.254 3.77-4.888.15-.268.36-.63.465-.806.105-.174.176-.312.158-.306s-.604.589-1.302 1.295m41.327-1.21c-1.553.175-2.367.47-5.13 1.86-1.047.528-2.124 1.033-2.393 1.122-1.35.45-2.764.554-3.999.292-.372-.079-.696-.125-.719-.102-.072.073 1.95.997 2.765 1.264 1.893.619 3.092.679 5.875.293 1.642-.227 2.044-.25 3.699-.2 1.5.043 2.053.1 2.882.296 2.65.627 4.644 1.723 6.857 3.769l.751.694-.248-.906c-.957-3.502-2.895-6.34-5.116-7.497-1.394-.725-3.496-1.081-5.224-.886"/></svg>