<svg xmlns="http://www.w3.org/2000/svg" viewBox="0 0 100 100"><path fill="#fff" d="M41.474 12.614c-.997.144-2.308.567-3.16 1.02-.77.409-2.067 1.348-2.067 1.497 0 .037.13.116.288.176.406.153.712.675.647 1.104q-.108.718-.835.988c-.465.173-.558.297-.739.982l-.125.475h.37c.203 0 .497.026.652.057.274.054.294.032.594-.687 1.148-2.75 3.04-4.64 5.528-5.526l.508-.18-.538.005c-.295.002-.8.042-1.123.089m3.761.474c-2.04.438-3.432 1.202-4.844 2.658-.874.902-1.4 1.635-1.93 2.685l-.35.7.753.233.753.235.452-.69c1.126-1.715 2.676-3.105 4.31-3.864 1.23-.57 2.238-.795 3.884-.864l1.513-.063-.882-.41c-.928-.43-2.167-.816-2.582-.805-.136.004-.62.087-1.077.185m-12.629.73c-.536.191-.672.337-.639.682.026.266.086.32.515.462.267.089.5.209.52.266s-.056.552-.168 1.099c-.468 2.295-.113 3.216 1.19 3.09.638-.06.876-.312 1.276-1.347.296-.763.352-.841.74-1.03.23-.111.459-.265.507-.341.162-.256.1-.659-.127-.817-.3-.21-.587-.19-.907.062-.278.218-.752 1.147-.873 1.709-.085.395-.318.613-.407.38-.103-.27.043-.887.402-1.705.58-1.318.437-2.048-.481-2.465a2.1 2.1 0 0 0-1.548-.045M47.81 15.28c-2.506.479-4.577 1.84-6.31 4.149-.256.34-.465.656-.465.702 0 .047.264.264.587.483.705.48 1.186.947 1.524 1.481l.25.396.26-.242c.499-.463.81-.598 1.508-.653l.686-.054.248-.708.248-.709h1.888c1.038 0 1.917-.01 1.954-.024.07-.026.416 1.22.42 1.514.001.158-.167.171-2.172.172l-2.174.001.33.26c.325.257.79 1.092.793 1.423 0 .157.156.171 1.894.171h1.893l.207.827c.114.455.208.85.208.88 0 .028-.99.052-2.199.052s-2.198.037-2.198.083c0 .045-.239.463-.53.928l-.531.845h5.922l.158.61c.086.337.185.71.218.831l.062.22h-7.72l-.11.61c-.06.337-.12.765-.133.953l-.023.342 4.215.026 4.215.025.066.35c.091.49-.018.883-.31 1.113-.24.19-.39.196-4.364.198l-4.115.003-.411.608c-.226.335-.436.674-.465.755-.048.129.324.143 3.044.12 1.703-.016 3.078-.01 3.054.01-.024.022-.34.218-.702.437-.362.218-.87.575-1.13.794l-.471.398h-4.781l-.363.734c-.2.404-.364.802-.364.885 0 .131.257.146 2.052.12 1.129-.016 2.052-.019 2.052-.006 0 .014-.149.234-.33.489a8 8 0 0 0-.491.782l-.161.317h-3.886l-.302.79c-.166.435-.302.83-.302.88s.781.089 1.809.089h1.808l-.393.782-.392.781h-1.698c-1.532 0-1.702.017-1.746.171l-.249.877-.2.706 1.474.027 1.473.027-.516.683c-.284.377-.565.717-.625.756s-.58.073-1.153.073l-1.043.002-.113.562c-.063.309-.149.726-.192.928-.079.365-.078.366.242.366.49 0 1.497-.344 2.15-.735 1.286-.77 2.378-2.167 3.586-4.587 1.246-2.495 2.353-4.082 3.474-4.982 1.156-.928 2.734-1.514 4.077-1.514 1.496 0 3.074.637 4.232 1.71.84.777 1.32 1.49 2.301 3.416.523 1.026.939 1.692 1.386 2.222.352.417.687.758.746.758.072 0 .09-.286.054-.904-.085-1.466-.888-3.96-1.75-5.43-.33-.564-1.706-2.014-2.548-2.685-.385-.308-.464-.425-.464-.693 0-.277.098-.41.687-.934.898-.798 1.104-1.2 1.103-2.153-.002-1.604-1.456-6.825-2.886-10.356-.949-2.344-1.704-3.651-2.638-4.569-.466-.457-.598-.53-1.204-.658-1.015-.216-2.42-.262-3.235-.107m.699.69c-.377.516-1.216 1.978-1.22 2.128 0 .04.553.073 1.23.073h1.233l-.065-.268c-.235-.97-.675-2.467-.726-2.467-.034 0-.237.24-.452.534m-14.263 4.162c-.922.154-.893.13-1.215.967-.333.863-.352 1.037-.187 1.749.109.472.101.509-.203 1.008-.173.286-.686 1.02-1.139 1.63-1.076 1.454-1.094 1.76-.14 2.347.399.246.489.352.486.571a.9.9 0 0 1-.146.46c-.21.276-.178.739.07 1.002.165.175.187.254.097.343-.202.202-.137.707.12.93.23.2.235.234.202 1.508-.033 1.307-.146 2.235-.593 4.869-.333 1.957-.354 2.01-.924 2.298-.53.268-.68.472-.68.926 0 .432.16.679.543.839.77.321 1.924-.01 2.454-.705.213-.279 1.395-3.172 2.518-6.163.296-.788.406-.864 1.045-.72.69.155.67.11 1.41 3.17l.326 1.355L37.666 40c-1.017 2.416-1.891 5.147-2.359 7.369l-.171.816-.3-.05a3 3 0 0 1-.465-.117c-.26-.103-.322.304-.322 2.15 0 2.256.303 3.645 1.21 5.545 1.02 2.136 3.183 4.794 5.13 6.303l.577.447-.058-1.556c-.058-1.528-.236-2.619-.599-3.656l-.154-.44.196.245c.345.432.894 1.684 1.156 2.638.24.877.254 1.045.244 3.077-.012 2.289-.412 8.217-.671 9.944-.185 1.234-.342 1.86-.826 3.295-.274.815-.395 1.364-.44 2.002-.075 1.034-.245 1.639-.687 2.445-.471.857-1.045 1.46-1.686 1.775-.511.25-.64.27-1.522.25-1.225-.03-1.526.097-2.511 1.06-.835.817-1.068 1.328-1.068 2.342 0 .676.13 1.007.455 1.155.465.212.522.157.522-.511 0-1.17.445-2.103 1.245-2.61.551-.35.73-.375.342-.049-.157.132-.432.517-.613.855-.275.516-.334.743-.368 1.398-.038.744-.028.793.22 1.023.212.198.36.243.816.244l.556.003.062-.684c.033-.376.118-.874.188-1.105.153-.51.796-1.267 1.232-1.449.537-.224.568-.15.107.255-.502.443-.717.838-.87 1.603-.247 1.226.123 1.598 1.486 1.494.406-.031.868-.107 1.025-.168.158-.061.889-.15 1.624-.197s1.535-.135 1.777-.196c.495-.125 1.162-.646 1.39-1.086.083-.16.295-1.002.472-1.87.427-2.094.646-2.63 1.287-3.138.274-.218.555-.482.624-.587.072-.11.162-.733.21-1.466.102-1.547.234-2.24.865-4.533 1.131-4.12 2.909-9.058 3.978-11.051.995-1.857.955-1.748.951-2.543a35 35 0 0 0-.084-1.857c-.124-1.712.22-3.231 1.08-4.767.372-.667.523-.764.28-.18-.56 1.337-.776 3.734-.49 5.43.106.633.153 1.278.122 1.702-.044.628-.123.828-.989 2.512-.965 1.878-1.767 3.747-1.673 3.899.029.047.436.292.906.544 2.737 1.47 3.982 2.62 4.866 4.49.58 1.227.656 1.659.142.812-.51-.84-1.707-2.112-2.463-2.616-.324-.217-.63-.395-.677-.395-.143 0-.097 1.616.068 2.422.206 1.002.688 2.267 1.215 3.187.391.685.728 1.15 2.477 3.43.315.411.535.783.488.826-.046.043-.59.204-1.208.358-1.073.267-1.224.28-3.37.28-2.612 0-2.67.016-3.688 1.034-.635.634-1.01 1.35-1.098 2.092-.136 1.147.485 1.477 2.872 1.524l1.214.024.16-.578c.09-.318.234-.717.323-.886.261-.496 1.618-1.684 2.293-2.008.697-.334 1.346-.373 2.906-.175a10 10 0 0 0 1.71.047c.787-.061 2.791-.401 2.952-.5.09-.056-.227-.699-1.029-2.088-3.364-5.834-4.216-10.745-2.505-14.436 1.795-3.87 5.913-4.645 10.006-1.883.42.283 1.075.82 1.458 1.194l.695.68-.772-.51c-1.013-.667-2.528-1.383-3.624-1.712-.746-.224-1.064-.265-2.1-.27-1.058-.004-1.3.027-1.808.225-1.61.63-2.639 1.755-3.219 3.522-.373 1.136-.482 1.892-.479 3.322.007 3.079 1.177 6.516 3.57 10.49l.816 1.357.73.258c.78.275 1.796.847 2.097 1.18.171.19.148.187-.347-.04-1.34-.613-2.434-.702-4.194-.342-1.24.255-3.223.314-4.993.15-.888-.081-.968-.073-1.466.155-.72.33-1.845 1.32-2.116 1.862-.621 1.244-.397 2.614.428 2.614.221 0 .233-.032.233-.618 0-.34.07-.82.154-1.07.175-.513.802-1.275 1.234-1.498.289-.149.288-.147-.107.376-.504.667-.704 1.23-.718 2.018-.01.567.014.647.256.855.202.174.384.23.75.23h.483v-.572c0-.98.418-1.804 1.124-2.218.545-.32.614-.3.248.066-.589.588-.926 1.664-.746 2.38.138.55 1.02.671 2.403.328.783-.194 1.174-.21 6.888-.27 6.712-.07 6.46-.045 7.056-.724.73-.831.654-1.482-.364-3.163-.898-1.481-1.39-2.852-1.52-4.228l-.05-.539.33.88c.18.483.495 1.209.698 1.612.457.91 1.398 2.344 1.538 2.344.186 0 1.389-1.315 1.731-1.893 1.197-2.02 1.807-5.527 1.576-9.053-.059-.884-.129-1.68-.156-1.77-.037-.116.14-.287.634-.616 2.155-1.432 3.189-4.137 2.544-6.656-.504-1.973-1.6-3.454-3.764-5.091-1.626-1.23-2.38-2.362-2.466-3.705-.057-.891-.016-.96 1.256-2.164 1.043-.987 1.451-1.632 1.657-2.623.12-.578.098-2.51-.03-2.638-.14-.14-1.185.15-2.024.563-1.477.728-2.47 1.971-2.74 3.433-.13.703.03 3.577.247 4.418.082.322.332.96.555 1.416.426.874.601 1.066 3.377 3.713.588.56 1.092 1.14 1.273 1.465.837 1.499.92 2.756.268 4.073-.254.515-.473.808-.755 1.013-.22.158-.449.288-.51.288-.062 0-.28-.517-.483-1.148-1.21-3.752-3.308-7.88-5.674-11.162-1.726-2.394-3.45-4.349-7.283-8.252-1.531-1.56-3.015-3.145-3.296-3.521s-.892-1.425-1.358-2.332c-.976-1.898-1.456-2.58-2.251-3.204-1.845-1.448-4.079-1.724-6.058-.749-.852.42-2.088 1.593-2.84 2.696-.319.47-.989 1.645-1.488 2.612-1.127 2.181-1.744 3.128-2.613 4.006-1.206 1.218-2.73 1.905-4.232 1.905-.934 0-.895.155-.48-1.905.995-4.936 2.926-9.942 5.185-13.438.446-.691.481-.792.572-1.66.052-.509.166-1.293.251-1.742s.142-.824.125-.833-.196-.092-.399-.184q-.56-.254-.56-.9c0-.23.002-.23.286.055.389.388 1.026.402 1.466.032.45-.378 1.638-2.212 1.81-2.792.271-.91.139-1.677-.379-2.194-.875-.875-2.22-.36-2.853 1.091-.294.674-.291.673-1.048.569l-.454-.062v-.537c0-1.18-.487-1.896-1.733-2.544-1.83-.952-4.173-1.382-5.935-1.087M36.7 37.737c-1.053 1.476-1.76 2.86-2.363 4.622-.602 1.761-.801 3.45-.495 4.184.147.352.535.765.675.718.048-.016.255-.698.46-1.515.54-2.15 1.21-4.116 2.153-6.311l.414-.964-.127-.672c-.07-.37-.162-.673-.204-.673s-.273.275-.513.611m-.965 24.819c.067 2.43.108 6.044.091 8.032l-.031 3.615-.317 1.026a9 9 0 0 0-.397 2.13c-.072.983-.12 1.184-.428 1.808-.428.866-.938 1.473-1.47 1.753-.342.18-.57.213-1.48.217-1.266.005-1.59.133-2.387.944-.706.717-1.094 1.548-1.099 2.352-.004.765.187 1.187.604 1.333.435.151.582.062.52-.318-.119-.735.482-2.14 1.084-2.535.372-.244.388-.197.07.205a3.4 3.4 0 0 0-.444.834c-.187.566-.208 1.763-.033 1.9.186.147.672.215 1.11.156l.395-.053.118-.698c.18-1.063.532-1.653 1.5-2.51.997-.883 1.332-1.01 2.588-.984 1.29.027 1.809-.24 2.508-1.295.534-.804.727-1.402.83-2.57.069-.783.198-1.386.498-2.324.667-2.086.837-3.45 1.236-9.866l.164-2.632-.221-.147c-1.47-.976-3.235-2.524-4.17-3.656-.407-.493-.79-.95-.851-1.016-.083-.088-.08 1.011.012 4.299"/></svg>