<svg xmlns="http://www.w3.org/2000/svg" viewBox="0 0 100 100"><path fill="#fff" d="M43.232 4.788a2.6 2.6 0 0 0-.186.83c-.01.484-.023.497-.296.29-.107-.08-.399-.144-.667-.144-.51 0-.489-.035-.319.558.08.28.597.712.852.712.16 0 .187.045.14.22a2.2 2.2 0 0 0-.06.455c-.001.228-.007.23-.196.059-.11-.1-.406-.196-.683-.223l-.49-.047v.894l-.339-.141a1.58 1.58 0 0 0-1.293.007c-.635.265-.663.33-.302.705.403.42.764.612 1.148.612.164 0 .298.035.298.078 0 .151-.237.312-.46.312-.185 0-.224.053-.224.296 0 .29-.004.293-.24.138-.298-.195-.405-.134-.482.274-.052.277-.098.318-.36.318-.28 0-.298-.021-.257-.293a1.3 1.3 0 0 0-.048-.537c-.097-.26-.552-.782-.68-.782-.043 0-.158.157-.256.348l-.179.347-.135-.253c-.171-.32-.623-.6-1.114-.691l-.38-.07.044.526.044.526h-.51c-.626 0-.722.08-.447.373.262.279.27.426.024.504-.155.05-.179.121-.132.407.049.304.033.343-.13.312-.111-.02-.196-.131-.214-.278-.055-.464-.24-.78-.578-.99-.282-.173-.356-.186-.427-.073-.214.338-.025.864.41 1.14l.319.201-.35.066c-.2.037-.435.02-.55-.041-.306-.164-.813-.126-1.164.088-.175.106-.317.234-.317.284 0 .103.774.498.977.498.073 0 .326-.093.562-.207.54-.262.776-.12.329.199-.172.122-.275.267-.244.346.03.079-.044.185-.176.253-.288.15-.667.492-.667.604 0 .047.161.153.358.235.449.187.907.11 1.298-.22.199-.166.358-.227.49-.185.185.059.187.075.037.304-.148.226-.147.25.026.382.24.18.729.275 1.164.224.283-.033.335-.012.283.112-.157.378-.149.481.048.586.307.165.251.243-.26.364-.428.102-.483.093-.708-.112-.534-.487-.942-.568-1.033-.205-.094.376-.33.392-.688.045-.25-.243-.428-.32-.818-.358l-.499-.048.19.502c.183.48.184.501.013.501-.302 0-.487.11-.487.29 0 .129-.104.187-.403.227-.574.077-.659.2-.39.565.215.29.217.306.044.437-.102.077-.415.137-.728.139-.608.003-.893.164-1.188.672l-.174.298.345.065c.19.035.498.036.685 0 .34-.063.34-.063.285.258a5 5 0 0 1-.093.444c-.053.172.39.156.743-.027.158-.082.29-.18.29-.22a.7.7 0 0 1 .132-.239c.11-.144.172-.152.436-.052.5.189.385.434-.307.657-.332.107-.368.15-.341.411.026.26-.012.306-.344.421-.46.16-.696.367-.855.75-.155.376-.031.47.625.472.39 0 .52-.047.753-.28.294-.295.387-.294.387.004 0 .099.07.18.153.18.185 0 .55-.185.66-.333.043-.059.049.047.012.235a3 3 0 0 1-.079.344c-.281.051-.888.323-.917.41-.021.065.1.203.268.305l.305.186-.253.185c-.274.2-.575.91-.444 1.047.102.104.781-.007.987-.163.084-.064.232-.237.328-.385.121-.185.258-.269.444-.269.148 0 .384-.09.526-.202.186-.147.257-.165.257-.068 0 .075.057.213.127.308.12.165.138.163.366-.022l.24-.195.098.448c.054.247.144.464.201.483s.27-.11.473-.286c.306-.264.38-.4.423-.783l.052-.464h.952c.946 0 .955.002 1.263.317.17.174.441.522.602.773.161.25.358.48.438.511.079.03.495.085.923.12.429.036.779.092.778.125-.003.14-1.13.792-1.368.792-.147 0-.558-.194-.932-.44-.708-.465-1.02-.529-1.477-.303-.152.076-.441.207-.643.292-.447.189-.462.3-.059.441.49.171.785.128 1.086-.16l.28-.269.356.207c.49.285.491.39.002.468-.55.087-.844.29-1.014.696-.184.443-.188.436.209.436.445 0 .817-.196 1.097-.577.215-.292.25-.303.957-.303.673 0 .794-.032 1.447-.39.565-.311.813-.391 1.206-.391.603 0 .82.167 1.058.813.144.393.243.504.597.67.233.11.539.336.679.502.236.281.25.347.19.953-.06.608-.047.67.195.959.211.25.248.371.2.648l-.117.669a1 1 0 0 0 .104.642c.154.299.152.332-.051.721a4.5 4.5 0 0 1-.543.775c-.41.453-.419.574-.038.498.4-.08.368.046-.137.542l-.43.422-.602-.41c-.331-.225-.687-.548-.791-.718-.244-.4-.242-1.001.006-1.652.238-.628.24-1.01.013-1.826-.219-.78-.35-.635-.258.284.068.676.012 1.077-.15 1.077-.173 0-.886-1.064-.941-1.406-.08-.487-.228-.34-.228.226 0 .387.07.57.391 1.044.436.642.459.782.235 1.437-.154.454-.153.462.147 1.103.166.356.302.668.302.695 0 .08-.706-.077-.975-.216-.426-.22-1.27-1.196-1.534-1.772-.213-.463-.243-.637-.193-1.11.055-.527.038-.59-.277-1.033-.185-.26-.361-.59-.393-.734a1.14 1.14 0 0 0-.297-.486l-.239-.225v.432c0 .32.089.58.342 1 .188.31.342.61.342.665 0 .122-.252.049-1.03-.301-.655-.295-.927-.59-1.675-1.81-.386-.63-.558-.816-.938-1.011-.614-.316-.71-.186-.192.261.248.214.533.605.708.97.162.337.294.634.294.66s-.19.047-.423.047c-.317 0-.517-.072-.806-.29-.321-.243-.475-.29-.95-.293-.65-.003-.677.155-.044.257.282.045.535.185.837.463.418.385.454.398 1.049.382.594-.017.626-.005.869.314.14.184.56.492.945.695.739.388 1.035.727 1.303 1.489.228.647.209.696-.274.696-.381 0-.48-.054-.97-.529-.3-.29-.648-.56-.772-.6a1.9 1.9 0 0 1-.503-.301 1 1 0 0 0-.614-.23c-.374 0-1.015.233-1.015.37 0 .141.321.392.712.555.324.135.4.136.715.004.372-.155.445-.14.796.176.287.259.278.312-.077.459-.164.067-.345.211-.403.32-.091.17-.081.187.077.123.493-.198.875-.173 1.252.082.278.19.499.255.854.255.43 0 .526.044.939.424.253.233.742.614 1.086.845l.627.421-.557.282c-.576.292-.69.447-.794 1.092a1.06 1.06 0 0 1-.865.896c-.461.087-1.354-.195-1.73-.546-.27-.251-.287-.315-.287-1.01 0-.766-.128-.985-.248-.426a2 2 0 0 1-.114.396c-.083.14-.332-.152-.624-.73-.216-.429-.38-.614-.672-.763-.518-.265-.713-.25-.318.023.184.127.424.445.571.757.877 1.855 1.069 2.18 1.433 2.422.399.266.386.328-.099.49-.44.146-.814.015-1.42-.499q-.952-.806-1.029-.57c-.02.061-.24.112-.493.113-.25.001-.643.087-.87.19-.499.226-.565.423-.1.29.175-.05.591-.091.926-.091.584 0 .627.017 1.116.451.28.249.665.517.855.597.328.137.337.152.16.28a.8.8 0 0 1-.387.139c-.244.001-.514.158-.425.246.034.035.275.07.534.076.367.01.555-.047.855-.256.21-.148.679-.358 1.04-.468.542-.164.724-.18 1.046-.094l.39.105-.014.952c-.008.638.05 1.225.178 1.782.105.457.205.85.222.873.061.085.83-.737 1.073-1.146.292-.495.374-.48.233.045-.142.525-.588 1.198-1.306 1.967-.78.836-1.277 1.456-1.466 1.829-.083.162-.182.712-.222 1.221s-.132 1.018-.205 1.13-.33.345-.57.518c-.351.252-.607.339-1.296.442-.472.07-1.04.22-1.26.334-.414.21-.925.824-1.291 1.55-.114.225-.353.52-.531.657-.278.211-1.523.83-2.442 1.213-.251.104-.268.144-.206.48l.067.367-.216-.193c-.12-.105-.356-.407-.527-.67-.343-.53-.563-.652-1.18-.652-.34 0-.466.054-.679.293-.368.414-.5.372-.633-.202-.154-.665-.145-1.026.05-2.013.173-.883.159-1.006-.223-1.994l-.173-.448.311-.645c.171-.355.311-.769.311-.92 0-.334.305-.857.588-1.008.15-.081.29-.083.508-.007.73.255 1.178.108 2.062-.677.382-.34.446-.44.342-.538-.376-.348-1.444-.445-2-.18-.185.087-.47.354-.634.592-.165.239-.322.41-.35.382-.08-.08.156-.928.335-1.201.093-.141.495-.399.957-.612.96-.444 1.31-.872 1.555-1.9l.067-.283-.547.056a2.9 2.9 0 0 0-1.083.359c-.375.212-.545.264-.57.177a20 20 0 0 1-.158-.678c-.185-.837-.225-.866-.64-.47-.435.413-.821 1.195-.82 1.659.001.188.115.606.254.928.14.322.274.7.3.837.055.298-.105.948-.3 1.214-.132.18-.147.17-.3-.195-.182-.437-.308-.952-.405-1.66l-.067-.49-.18.392c-.23.5-.226 1.034.011 1.71.104.295.19.713.192.93.004.429-.282 1.06-.496 1.094-.155.024-.926-.885-1.197-1.413-.253-.49-.173-1.466.216-2.663.312-.96.57-1.42 1.233-2.203.373-.44.387-.482.368-1.102-.023-.771.104-1.305.426-1.8l.238-.367h.707c.814 0 1.155-.158 1.6-.739.154-.2.427-.533.608-.74l.33-.377-.378-.16a3.5 3.5 0 0 0-.842-.209c-.256-.025-.465-.067-.465-.092s.088-.169.195-.319.331-.662.5-1.139c.167-.476.37-.992.449-1.146l.144-.281-.637.068c-.35.037-.87.13-1.157.207-.668.177-.692.176-.574-.044.054-.101.22-.214.37-.25.895-.218 1.394-.966 1.394-2.088 0-.386-.016-.702-.036-.702-.136 0-1.532.923-1.768 1.169-.269.28-.293.37-.342 1.224-.04.725-.09.96-.233 1.097-.177.169-.18.158-.12-.364.072-.629-.036-1.062-.39-1.574-.257-.37-.7-.73-.79-.64-.026.026-.097.333-.156.682-.147.855-.007 1.311.568 1.851.239.225.434.456.434.513s-.088.277-.195.487c-.131.257-.196.578-.197.974 0 .427-.067.724-.24 1.078-.133.269-.244.555-.247.635-.005.115-.036.108-.144-.035-.12-.158-.115-.241.04-.635.437-1.114.317-1.934-.421-2.885l-.43-.553-.353.882c-.555 1.386-.459 2.132.378 2.933.664.636.747.86.807 2.148l.054 1.167-.283.359c-.684.866-.624.897-.599-.303.021-1.013.007-1.107-.26-1.631-.27-.533-.944-1.31-.81-.934.033.094.042.171.018.171-.128 0-1.504-.905-1.71-1.124-.212-.225-.249-.367-.278-1.062-.05-1.182.074-1.535.644-1.846.598-.327 1.078-.826 1.2-1.25.114-.401.128-2.338.016-2.338-.043 0-.34.156-.66.348-.83.497-1.302.989-1.427 1.483-.057.229-.136.416-.175.416-.069 0-.297-.657-.297-.854 0-.055.127-.124.282-.155.22-.044.339-.17.538-.57.36-.724.33-1.065-.193-2.141a19 19 0 0 0-.484-.957c-.112-.113-.674.763-.985 1.534-.09.225-.095.222-.333-.146-.26-.401-1.174-1.01-1.517-1.01-.197 0-.206.037-.165.66.067 1.02.17 1.173 1.22 1.818.279.17.385.518.129.42-.565-.217-1.716-.395-1.716-.266 0 .052.105.384.234.738.484 1.333 1.056 1.807 2.274 1.885l.716.046v.623c0 .66-.06.737-.336.432-.29-.32-1.52-.653-1.52-.412 0 .133.307.36.809.597.591.279.754.587.754 1.426 0 .894.181 1.227.966 1.775.79.552 1.351 1.068 1.528 1.405.212.403.271 1.166.152 1.951-.114.75-.654 2.632-.754 2.632-.17 0-1.088-.897-1.37-1.337-.35-.546-.62-1.413-.62-1.99 0-.28.053-.381.253-.488.458-.245.677-1.002.426-1.47-.101-.19-.107-.19-.402.02-.365.26-.587.757-.51 1.143.088.437-.085.442-.503.014l-.378-.387.35-.366c.693-.725.728-1.093.212-2.193-.402-.856-.413-.857-.918-.07l-.309.48-.285-.392c-.156-.217-.582-.585-.946-.818-.653-.418-1.19-.943-1.192-1.167-.004-.314-.187.234-.245.734-.036.313-.085.568-.11.568-.023 0-.176-.099-.34-.22-.26-.192-.416-.22-1.242-.22-1.35 0-1.388.046-.714.87.806.986.963 1.08 1.839 1.105.663.02 1.009.127 1.009.315 0 .037-.266.147-.59.244s-.687.258-.806.357l-.216.18.293.245c.747.627 1.444.777 2.15.463.386-.171.732-.18.732-.016 0 .046-.083.11-.185.142-.222.07-.694.495-.694.624 0 .121.54.308.89.308.168 0 .408-.117.615-.299.327-.287.35-.292.582-.14.302.197.527.664.656 1.362.055.298.163.694.241.88s.142.369.142.404c0 .151-.644-.083-1.061-.386-.25-.182-.622-.384-.828-.45-.22-.072-.581-.335-.879-.64-.648-.665-1.003-.767-2.37-.675-.727.049-1.017.104-1.017.193 0 .07.22.366.488.66.27.294.489.55.489.57s-.187.022-.415.005c-.545-.042-1.19.299-1.612.851-.467.611-.432.694.293.691.805-.003 1.353-.252 1.675-.764.249-.393.593-.595.75-.439.047.048-.062.298-.251.572-.327.475-.636 1.35-.518 1.468.033.032.263-.01.512-.095.248-.084.584-.153.745-.153.69 0 1.489-.664 1.616-1.342.033-.177.098-.345.144-.373.118-.073.558.18 1.018.585l.39.344-.244.195a4 4 0 0 1-.643.386c-.49.233-.957.75-1.117 1.235-.121.368-.094 1.666.039 1.882.093.15 1.482-.98 1.685-1.373.11-.215.144-.488.117-.968l-.038-.67.421-.16c.643-.246 1.045-.084 1.774.712.633.69.763 1.026.656 1.694-.088.551.023.75.94 1.672.664.669.914 1.009 1.28 1.74.522 1.041.592 1.4.158.8-.164-.226-.57-.583-.904-.793-.43-.272-.683-.519-.874-.85l-.268-.466v.516c-.002.63.192 1.124.525 1.342.224.146.451.42 1.203 1.444.205.28.567 1.598.633 2.304.03.31.007.339-.36.449-.493.147-1.347.58-1.482.752-.157.197-.243.943-.134 1.147.053.1.252.273.441.384.19.112.345.243.345.29 0 .048-.131.28-.292.516-.485.717-.328 1.384.416 1.761.525.266.572.342.504.819-.098.683.046.874.855 1.134.393.127.913.253 1.155.28l.44.051.118.78c.082.542.09.974.026 1.417-.127.876-.118 1.828.018 2.084.062.117.277.433.477.702.547.733.739 1.178 1.062 2.46.572 2.266.626 2.808.635 6.442l.008 3.333.703 1.405c.776 1.551 1.122 2.617 1.3 4.004.065.505.15 1.007.191 1.114.106.283.328-1.603.284-2.413-.02-.377.001-.619.05-.57.16.161.178 2.279.032 3.716-.168 1.648-.115 2.229.325 3.54.34 1.017.374.895-.565 2.053-.493.608-1.442 1.424-1.541 1.324-.024-.023 0-.193.053-.377.169-.587.117-1.79-.103-2.375-.11-.293-.265-.587-.345-.654-.127-.105-.133-.086-.045.144.133.35.128 1.568-.009 2.06l-.108.39-.238-.83c-.382-1.332-.947-2.397-1.634-3.084-.611-.61-1.072-.838-1.965-.969-.362-.053-.34-.032.303.286a3.72 3.72 0 0 1 1.802 1.845c.267.576.677 1.878.822 2.607l.067.342-.212-.342c-.32-.518-.977-1.165-1.408-1.388-.62-.32-1.182-.276-1.869.148-.649.4-.778.423-1.266.219-.402-.168-.443-.052-.082.232.359.282.925.262 1.551-.055.613-.31 1.008-.272 1.519.15.45.37 1.279 1.541 1.014 1.433-.495-.203-.958-.254-1.297-.142l-.35.115.526.135c.289.074.675.227.858.34l.333.205-.504.171a2.6 2.6 0 0 0-.934.592c-.236.232-.444.402-.463.379-.018-.024-.146-.24-.285-.483-.139-.242-.39-.541-.56-.666l-.307-.226.249.492c.137.27.249.567.249.658 0 .146-.028.141-.22-.039a1.6 1.6 0 0 0-1.08-.414h-.312l.42.208c.396.196.984.814.877.922-.028.027-.243.005-.478-.05-.854-.196-1.3-.132-2.315.333-.76.348-1.129.456-1.828.536-1.598.181-2.39.32-2.336.407.03.048 2.65.09 5.983.094 3.261.004 6.127.037 6.368.073l.438.066-.976.232c-.536.128-1.015.256-1.065.285-.163.095.31.205 1.38.321 1.141.124 2.703.075 5.158-.16 1.591-.152 7.508-.187 6.888-.04-.188.044-1.001.15-1.807.234-1.71.18-2.278.309-2.108.48.086.084 1.436.105 5.312.08 9.644-.06 10.757-.058 14.675.027 3.707.08 5.343.034 4.885-.14-.108-.04-.624-.156-1.148-.256-.524-.101-.953-.21-.953-.242s.719-.115 1.597-.185c1.586-.126 1.6-.125 1.886.087.232.171.5.23 1.358.299.589.047 1.086.07 1.105.05.02-.019-.069-.222-.195-.452-.22-.4-.357-.505-1.011-.789-.443-.191-.555-.51-.424-1.214.15-.811.051-1.239-.38-1.623-1.118-1-1.103-.978-1.103-1.6 0-.601-.067-.905-.341-1.545-.153-.355-.153-.375-.004-.252.31.257.646.964.706 1.484.064.55.077.568 1.183 1.565.508.458.6.804.474 1.78-.11.855-.108.859.614 1.255.192.105.38.331.5.6l.19.43.416-.096c.283-.066 1.018-.058 2.32.026 1.987.127 5.044.082 5.47-.081.227-.087.21-.101-.243-.196a27 27 0 0 0-1.392-.227c-.497-.07-.904-.159-.904-.2 0-.04 2.173-.087 4.828-.103 5.432-.033 5.868-.085 3.905-.467a55 55 0 0 1-1.84-.397c-.481-.114-1.064-.193-1.295-.174-.231.018-.42.005-.42-.03 0-.16.812-.77 1.17-.877q.404-.12.275-.2c-.391-.248-1.453.088-1.843.584l-.203.258.069-.291c.121-.514.742-1.603 1.085-1.905.422-.37.208-.378-.367-.014q-.779.495-1.351 1.629c-.152.301-.31.541-.35.533-.042-.008-.11.041-.151.11-.055.087-.233-.02-.626-.38-.566-.517-.958-.668-1.519-.586-.16.024-.292.018-.292-.013s.167-.276.37-.544c.613-.81.937-.814 1.84-.018.495.435.555.304.15-.332-.732-1.155-1.629-1.29-2.413-.363l-.272.321.072-.291c.116-.469.696-1.643.933-1.889.288-.299.602-.409 1.165-.409.553 0 .803-.213 1.035-.882l.152-.437-.4.464-.4.464-.658-.06c-.908-.085-1.392.195-1.955 1.135-.262.437-.26.297.007-.494.172-.51.32-.733.787-1.18.536-.512.58-.59.658-1.135.145-1.024.456-1.393 1.556-1.846l.548-.225-.391.002c-.815.004-1.777.545-2.035 1.145-.086.2-.206.559-.267.8-.088.346-.257.577-.824 1.123l-.713.686-.066-.763c-.056-.647-.037-.821.124-1.148.213-.43.155-.495-.147-.165-.373.41-.42.625-.425 1.948-.003.715-.036 1.47-.074 1.675l-.067.374-.342-.52c-.472-.716-.879-.923-1.94-.983-1.536-.088-1.986-.555-2.362-2.454-.117-.597-.48-1.109-1.098-1.548l-.29-.206.068.527c.036.29.132.763.212 1.051s.128.541.107.562c-.075.076-.555-.997-.703-1.57-.22-.856-.194-2.324.059-3.332.181-.722.194-.903.097-1.386-.109-.54-.103-.574.231-1.25.257-.52.343-.82.343-1.194 0-.442.045-.55.39-.95.216-.25.392-.472.392-.495 0-.114-.301-.02-.614.193-.191.13-.373.21-.404.179-.111-.111-.055-.984.09-1.395.166-.468.133-.58-.112-.377-.348.287-.53.915-.51 1.767.014.591-.027.917-.152 1.202l-.171.39-.174-.537c-.095-.295-.358-.889-.584-1.319-.52-.988-.625-1.89-.347-2.96l.176-.678-.529-.845c-.509-.812-.53-.832-.553-.525-.068.885-.249 2.224-.3 2.224-.033 0-.158-.121-.279-.269l-.22-.268-.008.342a2 2 0 0 1-.142.635c-.129.28-.134.264-.142-.422-.005-.409-.11-1.12-.247-1.66a24 24 0 0 1-.407-2.293c-.094-.74-.206-1.31-.251-1.264-.045.044-.223.474-.396.955-.284.788-.315.982-.317 1.982l-.002 1.11-.195-.426c-.152-.33-.194-.622-.19-1.304.006-.782.057-1.029.464-2.223.25-.74.51-1.662.573-2.051l.117-.707.125.487c.068.269.154.785.19 1.148.035.362.101.66.146.66.136 0 .382-.981.382-1.523 0-.28-.071-.854-.159-1.276-.207-1.004-.142-2.31.155-3.091.126-.33.445-.834.77-1.215.928-1.091 1.135-1.265 1.592-1.338.549-.088 1.167-.713 1.4-1.416.239-.718.138-.812-.211-.197-.438.77-.686.96-1.46 1.118-.604.124-.711.183-1.083.6-.227.253-.443.43-.48.394-.037-.037-.015-.241.05-.455.079-.265.317-.58.755-1.002.782-.75.885-.938 1.017-1.85l.198-1.368c.05-.357.122-.727.159-.822.04-.106.028-.149-.034-.11-.127.078-.45.995-.65 1.847-.148.633-.398 1.151-.554 1.151-.125 0-.206-.303-.264-.992-.05-.587-.026-.714.252-1.307.29-.62.295-.648.086-.512-.12.08-.318.294-.438.477-.12.182-.263.385-.318.45-.129.153-.125.574.012 1.559l.112.798-.491.57c-.62.72-.805 1.088-.906 1.803-.072.51-.39 1.16-.567 1.16-.037 0-.184-.517-.327-1.148-.273-1.204-.273-1.27.021-2.635.072-.334.1-.639.063-.676s-.178.035-.312.16c-.134.126-.27.202-.304.168-.034-.033-.066-.293-.073-.578-.008-.385.063-.68.28-1.153.222-.48.292-.777.292-1.221 0-.535-.036-.637-.42-1.172-.49-.68-.644-.762-1.086-.576-.272.114-.313.171-.254.356.179.567.165.77-.089 1.288-.206.421-.343.57-.67.721-1.822.848-1.907.9-2.455 1.491-.305.33-.71.825-.9 1.102-.424.614-.364.33.162-.774.457-.958 1.007-1.505 1.763-1.752.832-.272 1.246-.516 1.407-.827.21-.406.185-.698-.092-1.073-.294-.4-.404-1.047-.254-1.502.062-.186.327-.585.59-.885.383-.438.49-.64.539-1.012.111-.858.157-.952.738-1.5.326-.307.66-.733.765-.976.163-.375.481-1.581.653-2.474l.054-.284.432.479c.237.264.707.978 1.044 1.587.803 1.449 1.062 1.71 1.958 1.977 1.586.472 2.495 1.145 2.76 2.044.061.21.018.187-.307-.157-.422-.45-1.083-.849-.986-.597.362.943.482 1.595.545 2.96.077 1.695.054 1.638 1.14 2.779.582.612.75.866 1.005 1.528.412 1.069.458 1.43.272 2.15-.22.848-.196 1.168.142 1.883l.298.629.186-.307c.103-.168.255-.517.338-.775l.151-.47-.032.55c-.025.44-.099.645-.37 1.026-.186.262-.413.64-.504.842-.106.236-.381.52-.778.807-1.102.797-1.052.723-1.052 1.559 0 .935-.128 1.236-.816 1.923-.304.303-.552.6-.552.657 0 .059.115.404.255.768.23.596.254.782.24 1.86-.011 1 .011 1.208.137 1.257.273.105.61-.236 1.071-1.08.48-.881.523-1.079.403-1.874-.072-.477-.062-.514.252-.846.181-.191.445-.483.586-.65a.84.84 0 0 1 1.06-.205c.28.15.557.687.624 1.208.038.296.153.583.305.765.135.16.246.364.247.454 0 .09.045.572.097 1.07.092.873.087.92-.14 1.27-.179.277-.545 1.584-.545 1.946 0 .026-.195.237-.433.468q-.433.421-.548.846c-.063.234-.2.591-.303.795-.212.415-.174.559.144.559.252 0 .562-.192 1.042-.645a2.4 2.4 0 0 1 .733-.45c.382-.124.397-.147.692-1.035.258-.779.374-.982.806-1.42.559-.565.566-.597.395-1.726-.116-.769.013-1.856.221-1.856.1 0 .907 1.647 1.012 2.065.032.128-.01.495-.093.814-.083.32-.15.833-.15 1.14 0 .716-.11.991-.541 1.37-.407.357-.632.751-.632 1.106 0 .138-.118.601-.263 1.028-.144.428-.237.803-.206.834.139.138.753-.264 1.102-.722.21-.275.66-.68.998-.899s.667-.494.73-.612c.064-.117.17-.631.236-1.142.073-.56.24-1.23.423-1.688.166-.417.301-.873.301-1.012s-.148-.654-.33-1.145c-.282-.764-.505-1.723-.4-1.723.017 0 .084.165.147.366.064.202.309.793.545 1.315s.43 1.017.43 1.1-.15.524-.333.978c-.346.855-.527 1.616-.385 1.612.045-.001.35-.254.678-.562l.596-.56.059-.718c.04-.492.137-.869.308-1.195.333-.638.314-.923-.102-1.541-.573-.851-.72-1.26-.722-2.017-.003-.71-.012-.733-.646-1.626-.415-.584-.528-.97-.528-1.796 0-.694.005-.708.295-.828.31-.129.779-.617.78-.813.003-.268.492-1.139.727-1.293.247-.162.276-.157.912.133.36.165.773.33.917.364.162.04.304.17.379.35.182.44.618.751 1.144.816.255.031.59.098.744.149l.281.091-.05-.382c-.113-.837-.711-1.29-1.738-1.314-.502-.012-.742-.073-1.084-.274-.67-.392-.74-.518-.365-.65.563-.196 1.456-.13 1.894.14.518.318.994.305 1.905-.055.403-.16.854-.29 1.001-.29.148 0 .269-.043.269-.096 0-.179-.984-.874-1.329-.938l-.344-.065.202-.214c.355-.378.18-.593-.39-.479l-.297.06.314-.506c.35-.561.54-1.652.27-1.543-.075.03-.444.15-.82.266-1.505.463-2.04 1.028-2.062 2.179-.015.76-.14.945-.646.945-.153 0-.437.066-.632.148-.194.081-.375.125-.403.098-.108-.108.328-.855.574-.982.631-.326.971-1.099.971-2.207 0-.462-.012-.486-.22-.424-.344.103-.98.492-1.214.744-.393.422-.544 1.213-.337 1.762.09.238-.037.494-1.07 2.148-.559.896-.73.954-.823.276-.038-.275-.226-.86-.419-1.3-.303-.692-.351-.906-.356-1.583-.006-.694.032-.867.33-1.515.365-.79.416-1.35.167-1.825l-.135-.258-.126.383c-.069.21-.362.902-.652 1.537-.29.636-.568 1.383-.617 1.661-.285 1.603-.268 1.567-.28.604-.014-1.083.042-1.296.819-3.126.342-.806.717-1.828.834-2.27.267-1.015.643-1.588 1.31-2 .287-.178.67-.52.853-.762.495-.654.704-.724 2.268-.765 1.243-.033 1.352-.022 1.294.13-.234.61-.136.93.463 1.506l.346.333.109-.284c.281-.74.242-1.12-.166-1.605-.213-.253-.235-.325-.122-.397.18-.114.284-.113.284.003 0 .124.802.59 1.013.59a.26.26 0 0 0 .224-.151c.05-.13.093-.12.29.065.163.154.39.23.782.263l.55.045-.064-.428-.064-.428.637.032c.351.018.638.006.638-.027 0-.2-.347-.832-.598-1.091l-.294-.305.49-.047c.535-.051 1.018-.351 1.376-.854l.206-.289-.308-.159c-.17-.087-.534-.181-.81-.209-.448-.045-.546-.018-.916.252-.228.167-.437.303-.465.303s.02-.165.106-.366a8 8 0 0 0 .239-.635c.08-.268.08-.27-.404-.27a2.6 2.6 0 0 0-.835.147c-.451.189-.425.2-.425-.19 0-.45-.12-.498-.63-.252-.44.213-.654.454-.784.882-.122.4-.514.852-.786.904-.207.04-.24.019-.183-.11.04-.088.09-.346.114-.574.053-.53-.148-.557-.623-.083-.273.273-.332.406-.332.746 0 .35-.064.485-.409.865-.547.603-1.021.889-1.478.89-.31 0-.365-.029-.322-.171.028-.094.123-.567.212-1.05.204-1.111.291-1.274 1.025-1.91.55-.476.617-.509.81-.388.343.214.868.294 1.255.191.352-.093 1.35-.8 1.35-.956 0-.092-.79-.5-.988-.51-.075-.004.03-.068.233-.142.476-.175 1.257-.736 1.213-.87-.02-.058-.262-.219-.54-.358-.49-.245-.498-.256-.27-.36.4-.182.76-.77.986-1.613.119-.441.249-.88.29-.974.06-.139.023-.17-.198-.17-.588 0-1.529.227-1.856.45-.424.287-.434.287-.434.007 0-.322-.278-1.218-.402-1.295-.126-.078-.827.582-1.031.972-.088.167-.134.454-.114.708.02.235-.008.428-.06.428-.051 0-.231-.134-.4-.298-.36-.349-.422-.306-.674.469-.092.282-.227.513-.299.513s-.285.18-.473.4l-.343.4-.164-.327c-.17-.337-.714-.962-.838-.962-.038 0-.19.306-.336.679-.262.668-.28.994-.09 1.628.056.188.016.211-.437.255-.274.026-.526.076-.56.11-.102.101.285.743.631 1.05.263.232.41.284.806.284.47 0 .485.009.485.28 0 .154.092.561.204.904a3.2 3.2 0 0 1-.127 2.346c-.343.748-.701 1.127-1.384 1.468-.329.164-.697.39-.817.5l-.22.202v-.348c0-.191.11-.727.244-1.19.283-.978.302-1.325.093-1.728-.158-.307-.337-.302-.337.01 0 .1-.05.417-.111.702-.103.477-.119.498-.205.273-.052-.134-.073-.72-.047-1.3l.047-1.055-.41-.606a21 21 0 0 1-.727-1.162c-.291-.515-.334-.551-.555-.467-.132.05-.24.062-.24.025 0-.036-.044-.02-.1.034-.113.114.192 1.205.515 1.84.22.433.243 1.096.061 1.747l-.114.407-.128-.672c-.148-.777-.257-.923-1.004-1.343-.97-.545-1.408-1.01-1.928-2.045-.231-.46-.276-.697-.335-1.753-.077-1.402-.003-1.665.545-1.926.285-.136.41-.143.833-.046.443.103.549.093.975-.09.264-.114.535-.275.604-.358.132-.16.134-.16-.95.03-.16.027-.358.006-.439-.049-.128-.086-.12-.146.058-.467.195-.35.698-.695 1.231-.845.21-.058.213-.07.048-.167-.127-.075-.314-.072-.661.012-.405.097-.566.21-.977.682-.274.314-.598.585-.73.61-.22.043-.239.017-.239-.335 0-.21.089-.555.197-.768s.172-.387.14-.387c-.357 0-.82.764-.823 1.359a1.2 1.2 0 0 1-.232.635 5 5 0 0 0-.394.62c-.09.174-.2.317-.244.317s-.364-.214-.71-.477l-.631-.477-.112-.837a11 11 0 0 0-.41-1.726c-.164-.49-.296-.943-.294-1.007s.223-.308.49-.541c.743-.65.996-.647 2.274.023 1.199.629 1.392.653 2.391.304.384-.134.909-.245 1.165-.246.337 0 .425-.028.32-.096-.201-.13-1.094-.122-1.758.015-.607.126-.942.076-1.268-.188l-.217-.176.749-.534c.625-.446.712-.54.527-.567-.122-.019-.546.133-.944.337l-.722.372-.532-.278c-.508-.266-.524-.286-.366-.46.09-.101.14-.21.107-.241-.075-.075-1.96.51-2.451.761-.25.127-.465.17-.635.128-.427-.107-.5-.216-.384-.567.248-.741.947-1.348 1.762-1.529.254-.056.753-.256 1.107-.444.803-.426 1.407-.45 2.512-.096.419.133.896.243 1.061.243.248 0 .287.03.227.17q-.233.546-.002.992c.166.322.234.321.598-.004.198-.179.204-.176.363.158.155.325.975 1.021 1.208 1.026.12.003.327-.495.327-.782a.45.45 0 0 1 .155-.296c.132-.11.19-.083.4.185.273.35.697.602 1.012.602.192 0 .203-.034.14-.413-.039-.227-.136-.513-.216-.635-.145-.221-.144-.222.389-.222s1.128-.27 1.221-.556c.06-.181-.504-.42-.993-.42-.434 0-.44-.005-.346-.251.126-.332.141-.305-.247-.434-.36-.118-.407-.188-.24-.356.072-.072-.002-.196-.247-.41-.193-.17-.393-.308-.445-.308a.096.096 0 0 1-.094-.098c0-.184.342-.094.782.207.405.277.488.297 1.059.253.817-.063.889-.153.488-.609-.407-.464-.859-.66-1.319-.574-.331.062-.344.054-.277-.168.12-.39.11-.409-.269-.503a1.17 1.17 0 0 0-.672.016c-.275.096-.338.078-.628-.177a2.6 2.6 0 0 0-.673-.41c-.527-.19-.366-.319.366-.292.858.03 1.03-.027.972-.328-.04-.21.007-.251.417-.37.418-.123.496-.118.832.048.308.153.434.166.745.08.207-.057.441-.147.522-.199.232-.15 0-.42-.506-.591-.376-.128-.43-.177-.365-.342.12-.306.104-.34-.16-.34-.395 0-.785.256-.964.632-.217.458-.602.718-.824.557-.089-.064-.29-.202-.449-.307l-.287-.19.418-.066c.469-.075.893-.445 1.261-1.101l.222-.394-.51-.152a4.3 4.3 0 0 0-1.026-.151c-.434 0-.569.046-.85.293-.312.274-.636.372-.774.234-.033-.033.045-.22.173-.416a2.6 2.6 0 0 0 .298-.624c.061-.253.046-.269-.263-.266-.503.003-1.159.18-1.456.39l-.267.192-.068-.362a2.8 2.8 0 0 0-.212-.64l-.144-.279-.312.196c-.524.328-.703.646-.697 1.24.005.527.005.528-.196.344-.151-.139-.256-.162-.428-.097-.216.083-.224.071-.159-.225.097-.438.07-1.166-.046-1.283-.234-.233-1.375.592-1.375.995 0 .18-.143.132-.39-.132-.127-.134-.262-.244-.3-.244-.132 0-.287.61-.287 1.13v.513l-.386-.186c-.53-.257-.654-.237-.725.118-.161.808.015 1.306.567 1.603.386.208.395.229.242.565l-.107.235-.23-.23c-.254-.254-.826-.324-.826-.101 0 .219.437.554.723.554h.272l-.034 1.01c-.03.923-.058 1.05-.33 1.488-.293.475-.471.623-1.38 1.145-.26.15-.78.512-1.154.804-.797.622-1.214.783-2.542.98-.678.1-1.157.235-1.564.44l-.586.296.342-.297c.494-.428 1.219-.745 2.003-.877.873-.146 1.45-.424 1.781-.858.254-.332.256-.347.077-.478-.108-.079-.423-.136-.748-.136h-.563l.105-.3c.148-.424.708-.933 1.24-1.127 1.223-.445 1.26-.472 1.423-1.025.085-.283.153-.646.153-.807v-.292l-.253.237a2.5 2.5 0 0 0-.433.584c-.126.247-.28.38-.527.455l-.35.108v-1.234l.48-.344c.453-.326.487-.382.64-1.06.088-.393.266-.946.395-1.228.196-.432.207-.5.067-.425-.328.175-.538.506-.8 1.254-.23.658-.313.785-.624.954-.312.17-.37.177-.452.05-.051-.081-.094-.338-.095-.57-.001-.295-.039-.412-.124-.384s-.14.426-.184 1.303a44 44 0 0 1-.073 1.286c-.007.014-.17.2-.365.416-.374.414-.526.484-.526.244 0-.299-.367-.15-.54.22a3.8 3.8 0 0 1-.414.66c-.242.295-.959.83-1.111.83-.045 0-.24-.238-.433-.529-.386-.58-.613-.706-1.393-.77-.727-.058-1.003-.29-1.137-.954-.06-.292-.189-.652-.286-.8-.235-.353-.151-.661.322-1.178.43-.47.533-.725.441-1.091l-.065-.258-.186.2c-.102.11-.317.267-.476.35-.27.139-.291.137-.302-.024-.058-.946.613-1.785 1.428-1.785.283 0 .65-.333.964-.877l.183-.316-.232.072c-.127.04-.318.133-.424.206s-.366.133-.577.133h-.384l.186-.205c.272-.301.633-.462 1.39-.622.784-.164 1.111-.104 1.799.332.429.272.45.306.37.585-.106.369-.019.7.272 1.033.285.328.432.277.542-.19.067-.28.05-.45-.07-.7-.15-.316-.149-.33.034-.33.104 0 .238.09.297.2.17.316.689.58 1.14.58.225.001.431-.034.458-.077.026-.043-.049-.252-.167-.464-.286-.514-.754-.747-1.345-.668-.327.043-.537.013-.776-.11l-.329-.17.533-.198c.385-.143.695-.364 1.119-.8.678-.696.816-.765 1.37-.682.37.056.415.094.495.419.071.288.173.4.518.574.237.12.467.194.513.165s.084-.292.084-.587v-.535l.423.248c.524.307 1.042.336 1.042.06 0-.105-.045-.309-.1-.454-.099-.259-.095-.262.228-.21.37.06.991-.177 1.262-.482.161-.182.156-.197-.12-.36-.16-.094-.508-.197-.776-.228l-.487-.058.192-.245c.243-.309.144-.444-.448-.61-.405-.113-.429-.136-.291-.288.082-.09.15-.209.15-.263 0-.053.126-.078.28-.056.156.023.312-.007.348-.066.099-.159.25-.129.25.05 0 .2.617.82.815.82.103 0 .17-.135.214-.423l.064-.424.361.096c.421.113 1.087.015 1.087-.159 0-.182-.565-.828-.786-.898-.194-.062-.194-.063.003-.312.108-.138.197-.283.197-.323s-.21-.129-.465-.199c-.655-.18-.683-.302-.117-.513.427-.159.472-.202.383-.368-.15-.28-.66-.506-1.042-.462-.313.037-.33.024-.274-.2.033-.133.184-.357.336-.498.271-.254.484-.959.353-1.171-.162-.261-1.053.413-1.193.902-.049.17-.157.323-.24.34-.127.024-.144-.062-.106-.528l.046-.556-.316.063c-.275.055-.308.041-.247-.107.199-.483.186-.512-.22-.512h-.389l.144-.438c.2-.604.127-.759-.288-.62-.391.131-.635.33-.867.706l-.175.284-.084-.326c-.047-.18-.133-.342-.193-.362s-.296.142-.525.36c-.396.377-.425.388-.6.23-.177-.16-.173-.172.115-.398.392-.306.377-.487-.045-.566-.34-.064-.431-.171-.244-.287.193-.12.091-.325-.215-.432-.286-.1-.3-.122-.157-.264.142-.142.188-.134.53.1.4.27.902.329 1.354.157.226-.086.242-.121.14-.317-.184-.36-.6-.758-.791-.758-.235 0-.224-.063.07-.412.278-.33.228-.466-.267-.722l-.278-.144.235-.314c.13-.172.265-.413.302-.533.064-.21.042-.22-.483-.22-.303 0-.64.047-.748.105-.156.084-.222.07-.32-.063-.097-.133-.22-.158-.578-.117-.398.044-.455.028-.455-.133 0-.13.07-.183.24-.183.343 0 .71-.19.886-.457.199-.303.112-.422-.306-.422-.337 0-.82.344-.82.584 0 .061-.162.093-.39.078l-.392-.027V7.01c0-.632-.035-.653-.635-.378-.496.228-.698.458-.922 1.047-.099.26-.217.483-.263.497s-.164-.147-.261-.357c-.133-.288-.299-.443-.678-.632-.383-.19-.521-.22-.58-.128-.142.224-.083.804.12 1.184.223.415.225.403-.062.49-.173.054-.222.003-.323-.334-.148-.495-.311-.563-.693-.291-.436.31-.618.725-.564 1.287l.045.473h-.961l.186-.269c.3-.433.328-.597.123-.707a1 1 0 0 0-.396-.099c-.254 0-.21-.229.055-.28.343-.066.658-.346.835-.74.155-.346.159-.405.03-.477-.08-.045-.32-.052-.532-.016l-.386.065v-.378c0-.489-.249-.872-.455-.702-.256.213-.432.667-.41 1.057.014.218-.037.453-.118.55-.127.154-.147.12-.204-.344-.086-.691-.175-.76-.663-.52l-.397.197v-.28c0-.216-.045-.281-.195-.281-.108 0-.195-.011-.194-.025 0-.013.065-.2.142-.415s.143-.517.145-.67c.004-.27-.008-.278-.362-.214-.604.11-1.035.371-1.25.76l-.203.364-.215-.443c-.161-.332-.259-.431-.385-.393-.13.04-.22-.064-.384-.434-.268-.609-.432-.675-.88-.356l-.352.25-.269-.287c-.158-.168-.368-.287-.511-.287-.2 0-.255.06-.308.344-.035.189-.038.387-.005.44.054.087-.407.574-.55.58-.035.003-.117-.128-.184-.29-.133-.32-.3-.371-.488-.146-.178.214-.255.183-.396-.16-.16-.385-.56-.865-.721-.865-.068 0-.203.176-.3.39m13.735 1.255c-.24.449-.012 1.383.338 1.383.172 0 .362-.604.285-.909a1.15 1.15 0 0 0-.289-.459c-.227-.213-.228-.213-.334-.015m-17.15.92c.125.42.338.65.698.749.199.055.38.082.4.06.022-.021.01-.173-.026-.338-.082-.372-.475-.692-.852-.692-.251 0-.278.027-.22.22m8.046.98a.96.96 0 0 0-.422.586c-.113.45-.047.521.336.363.331-.137.584-.537.584-.923 0-.306-.075-.31-.498-.026m-3.472.332c-.076.303.14.764.36.764.188 0 .242-.503.085-.797-.163-.305-.364-.29-.445.033m-.524 1.31c0 .299.444.87.677.87.212 0 .114-.683-.135-.932-.336-.336-.542-.312-.542.061m19.251.45c-.244.31-.143.418.394.42a.71.71 0 0 0 .572-.235c.292-.31.19-.447-.333-.447-.347 0-.466.05-.633.261m-19.544.647c0 .083.114.287.253.452.192.228.334.3.586.3.399 0 .434-.166.114-.534-.266-.306-.953-.463-.953-.218m-1.262.133c-.221.155-.223.168-.052.293.241.177.538.166.818-.03.22-.155.223-.168.052-.294-.241-.176-.538-.165-.818.031m10.697.54c-.095.225-.104.387-.033.59.093.269.116.277.55.214.25-.036.576-.128.726-.204.276-.14.647-.756.527-.877-.121-.12-.836.164-1.03.41l-.193.245-.113-.344c-.141-.427-.265-.437-.434-.034m5.258.078c-.345.14-.624.58-.624.987 0 .371.001.372.292.27.422-.146.783-.616.783-1.018 0-.349-.078-.39-.45-.24m-1.458.418c-.132.526.22 1.11.45.747.146-.229.101-.454-.146-.741l-.236-.275zm-2 .862c0 .417.045.54.285.781.427.427.594.38.594-.164 0-.38-.05-.5-.332-.781-.183-.183-.38-.333-.44-.333-.064 0-.107.2-.107.497m-13.911-.06c-.192.293-.203.637-.027.878.125.171.138.169.293-.052.165-.235.21-.634.103-.913-.083-.216-.186-.192-.37.087m17.24.312-.232.163.221.18c.122.098.307.179.41.179.19 0 .767-.258.767-.342 0-.082-.575-.342-.755-.342-.098 0-.283.073-.41.162m-19.059.172c0 .246.49.732.834.827.313.086.73.05.73-.062 0-.198-.452-.71-.702-.798-.436-.152-.862-.135-.862.033m-1.856.64c0 .238.17.602.332.71.242.161.364.074.333-.238-.022-.234-.111-.36-.348-.498-.317-.184-.317-.184-.317.026m10.983.716c-.117.663-.319.707-.82.18-.384-.403-.491-.42-.491-.079a.62.62 0 0 1-.144.356c-.129.141-.116.202.111.545.141.212.345.483.453.603l.196.217.387-.51c.42-.555.75-1.194.753-1.46.002-.092-.078-.21-.176-.263-.158-.085-.189-.038-.269.411m-8.399.015c-.313.314-.303.444.037.444.303 0 .763-.405.656-.579-.111-.18-.442-.115-.693.135m9.696-.069a8 8 0 0 0-.215.61c-.096.296-.367.88-.603 1.297-.235.417-.471.986-.524 1.264-.154.813-.046 1.11.684 1.881.358.379.703.776.767.883l.116.196.152-.196c.083-.107.303-.466.488-.797.32-.57.33-.623.215-.977-.114-.35-.152-.378-.575-.427-.503-.058-.713-.194-.921-.596-.194-.375-.192-.378.284-.378.3 0 .476.057.602.196.254.28.342.242.342-.15 0-.191.087-.52.195-.73.107-.21.195-.41.195-.441 0-.033-.194-.03-.432.006s-.48.036-.537 0c-.142-.087.125-.71.45-1.05l.253-.263-.254-.064c-.14-.035-.304-.125-.367-.2-.125-.151-.251-.177-.315-.064m9.691.171c-.269.146-.538.653-.436.819.122.197.657-.097.8-.438.233-.558.14-.655-.364-.38m-14.04.283-.196.333.233.219c.243.228.402.62.453 1.118.029.285.02.292-.346.26-.354-.031-.372-.02-.306.196.103.34.39.782.7 1.077.28.267.8.516.889.426.027-.028.051-.37.053-.76.003-.686-.019-.752-.64-1.956l-.642-1.246zm6.5.644c-.037.08-.157.407-.265.724-.317.931-.252 1.352.29 1.882.318.311.484.786.488 1.398l.003.34.3-.3c.407-.407.466-.9.192-1.594a5 5 0 0 1-.267-1.148c-.056-.598-.067-.618-.331-.618-.252 0-.277-.033-.307-.415-.02-.254-.06-.358-.102-.269m11.251.478c-.193.156-.208.207-.098.339.206.248.726.299 1.125.11.41-.195.431-.274.134-.481-.298-.21-.883-.193-1.16.032m-9.956.152c0 .285.151.409.234.192.1-.261.066-.43-.087-.43-.09 0-.147.09-.147.238m1.845.11c-.085.179-.32.378-.624.53-.61.305-.646.5-.289 1.534q.261.756.213 1.114l-.048.359.6-.239c.33-.13.694-.343.81-.472.223-.248.424-.998.424-1.584v-.353l-.323.374c-.294.34-.366.373-.792.367-.258-.004-.51-.048-.558-.096-.119-.119.278-.7.65-.952.275-.187.286-.217.183-.533l-.109-.335zm-12.347-.056c-.034.054-.145.098-.247.098-.263 0-.155.202.247.464.483.313.545.277.375-.22-.147-.433-.257-.533-.375-.342m-12.53.257c-.373.161.275.818.807.818.448 0 .494-.13.172-.484-.26-.287-.724-.445-.98-.334m14.066.153c-.043.124-.072.963-.066 1.864l.011 1.639.286.405c.37.524.572.594.326.113a1.9 1.9 0 0 1-.187-.705v-.336l.276.381c.152.21.512.594.8.853.4.36.582.461.762.427.468-.09.78.214 1.259 1.227.248.525.467.937.488.917.108-.108-.612-2.014-.903-2.393a2.6 2.6 0 0 1-.446-.977c-.147-.683-.188-.737-.661-.879-.667-.2-1.326-1.097-1.572-2.14q-.208-.882-.373-.396m-9.292-.027c-.11.07-.087.135.117.34.251.251.492.31.793.195.219-.084.191-.295-.063-.473-.24-.167-.636-.196-.847-.062m29.08.368c-.233.061-.216.293.03.425.25.133.776.029.776-.154 0-.25-.39-.38-.806-.27m-25.552.28c-.332.232-.276.434.12.434.334 0 .698-.316.582-.505-.082-.132-.467-.094-.702.07M34 17.587c-.236.236-.247.35-.041.43a.81.81 0 0 0 .89-.196c.205-.204.227-.27.117-.34-.244-.155-.762-.098-.966.106m23.091-.125c-.16.108-.286 1.2-.14 1.2.322 0 1.571-.85 1.571-1.07 0-.03-.165-.06-.366-.07a5 5 0 0 1-.66-.075c-.16-.034-.343-.027-.405.015m-15.208.286c-.035.034.068.212.228.394.37.42.367.585-.01.668-.488.107-.937-.027-1.195-.357-.39-.5-.381-.101.016.654.25.477.418.687.567.708.33.047.46.498.386 1.33-.062.678-.051.735.189 1.02.185.22.442.359.943.508.668.199.911.371 1.272.9.146.214 1.039.803 1.109.732.049-.049-.47-1.2-.663-1.472-.107-.15-.537-.513-.955-.807-1.061-.743-1.206-1.156-1.034-2.95l.077-.805-.314-.293c-.307-.287-.49-.356-.616-.23m-2.2 1.193c-.267.142-.3.193-.188.287.175.145.864.434.914.384.048-.048-.286-.852-.352-.848a2.6 2.6 0 0 0-.374.177m18.961.028c-.078.078-.122.415-.122.933 0 .903.055.961.605.64.326-.19 1.192-1.447 1.1-1.597-.033-.052-.211.039-.397.202-.461.405-.857.404-.976-.003-.07-.24-.112-.274-.21-.175m-1.096.49c-.133.05-.374.193-.537.317a7 7 0 0 1-.818.49c-1.03.522-1.653 1.327-1.806 2.337-.063.42-.093.427.66-.17.287-.228.49-.296 1.035-.346 1.149-.105 1.536-.531 1.655-1.821.045-.48.074-.877.067-.885a1 1 0 0 0-.256.079m3.182.098c-.262.374-.2.509.14.308.163-.096.284-.238.269-.315-.046-.233-.244-.23-.41.007m-21.404.666c-.036.16-.11.32-.164.353-.145.09-.556-.157-.625-.374-.057-.18-.065-.18-.19-.01-.112.152-.106.207.044.374.096.107.397.53.67.938.678 1.018.983 1.26 1.586 1.26h.476l-.153-.366c-.106-.254-.139-.549-.105-.963.026-.328.006-.67-.044-.759-.068-.122-1.241-.745-1.404-.745-.015 0-.056.131-.091.292m12.776.367c-.644.596-.74.857-.657 1.782.097 1.063.233 1.189.236.218.004-.933.11-1.237.675-1.95.224-.283.372-.514.328-.514s-.306.209-.582.464m-15.757-.303c0 .035.157.215.348.401.416.404.403.603-.052.756l-.34.115.291.055c.16.031.51.02.78-.026.268-.045.543-.085.61-.088.206-.01.138-.183-.231-.592-.24-.264-.437-.392-.61-.394a.9.9 0 0 1-.448-.147c-.2-.151-.348-.185-.348-.08m23.009 1.168c-.484.509-.892.961-.908 1.006-.065.187 1.064.271 1.487.11.25-.095 1.13-.85 1.13-.97 0-.035-.14-.117-.313-.182l-.313-.119.32-.329.319-.33-.312-.062a2.5 2.5 0 0 0-.421-.055c-.06.003-.506.422-.99.93m-25.578 1.794c-.31.369-.35.919-.104 1.397l.16.307.278-.311c.453-.507.49-1.014.107-1.486l-.178-.22zm37.193-.102c-.548.335-.665 1.162-.146 1.036.376-.091.693-.451.76-.861.05-.31.032-.361-.125-.361-.101 0-.321.084-.489.186m-9.614.089-.22.178.271.213c.331.26.598.268.96.03l.276-.182-.264-.209c-.325-.255-.73-.267-1.023-.03m-14.94 1.001c-.007.685.223 1.473.532 1.824.283.321.326.148.098-.397-.08-.192-.254-.714-.385-1.16l-.24-.81zm7.105.406c-.195.299-.565 1.028-.565 1.115 0 .193.505-.44.647-.812.183-.479.14-.642-.082-.303m-1.919.442c-.102.202-.215.52-.252.709l-.066.342.216-.326c.184-.277.424-1.09.322-1.09-.019 0-.118.164-.22.365m-12.465.633c-.186.266-.197.758-.022.998.123.167.142.162.342-.093.208-.264.27-.66.153-.968-.084-.219-.295-.191-.473.063m12.366 1.2c-.731.881-.939.855-.657-.083.076-.25.12-.455.1-.455-.087 0-.617 1.161-.677 1.48-.048.26-.022.388.104.515.23.229.546.141 1.245-.345.59-.41 1.207-.593 1.33-.394.05.081.12.074.258-.029.182-.135.183-.145.014-.271-.163-.121-.165-.153-.025-.421q.336-.648-.116-.218c-.228.216-1.088.607-1.165.529-.014-.014.037-.231.113-.484s.108-.46.07-.459-.305.287-.594.636m-5.67-.083c.01.206-.014.536-.054.733-.066.332-.05.37.226.513.355.184.49.199.327.037-.064-.064-.117-.152-.117-.195 0-.175.423-.057 1.133.317.912.48 1.246.488 1.29.028.023-.234-.057-.425-.328-.782-.46-.606-.578-.646-.34-.113.105.232.148.437.097.455s-.308-.125-.57-.317c-.542-.398-.648-.432-.504-.161.15.28.128.306-.167.184-.3-.124-.806-.643-.806-.828a.24.24 0 0 0-.102-.183c-.066-.04-.096.072-.085.312m20.115 1.456c-.129.339-.12.921.013.921.126 0 .87-.572.868-.667-.002-.067-.638-.505-.733-.505-.029 0-.095.113-.148.25m8.456-.156c-.084.136.146.462.412.583.356.162.904.134.904-.046 0-.3-.455-.631-.869-.631-.214 0-.415.042-.447.094m-58.571.313c.005.319.4.971.7 1.154.439.267 1.251.278 1.251.017 0-.296-.417-.834-.782-1.008-.494-.235-1.172-.33-1.17-.163m52.685.543c-.137.265-.264.378-.45.4-.143.017-.262-.005-.263-.05-.002-.043-.068-.165-.148-.27-.139-.184-.162-.173-.64.293-.596.583-.862 1.068-.938 1.712-.05.428-.036.482.128.48.606-.007 1.462-.671 2.453-1.902.518-.645.598-.789.45-.818a.8.8 0 0 1-.29-.124c-.076-.062-.171.027-.302.279m-15.369.023c-.269.23-.3.29-.155.293.325.007-.023.296-.366.304-.344.008-.819.17-.533.182.09.003.295.117.457.253l.293.247.317-.378c.174-.207.324-.483.334-.613s.051-.312.092-.406c.11-.253-.057-.208-.439.118m-4.032.138c-.029.074-.083.494-.122.933-.07.798-.07.798-.26.593-.15-.161-.22-.18-.33-.09-.278.232-.127.43.603.79l.726.358.462-.382c.254-.21.543-.382.641-.382.138 0 .172-.062.148-.269-.04-.357-.424-.427-.64-.118-.146.209-.158.191-.334-.505q-.183-.721-.401-.889c-.266-.205-.425-.218-.493-.039m-3.153.496c-.07.282.08.522.607.973l.378.324.272-.438.272-.437-.239.06a4 4 0 0 0-.372.11c-.074.03-.22-.013-.327-.093-.189-.143-.188-.146.027-.149.309-.004.273-.114-.121-.37-.421-.272-.423-.272-.497.02m6.065.668c.215.189.407.3.427.245.05-.136-.279-.434-.573-.519-.208-.06-.185-.018.146.274m17.944-.054c-.184.128-.266.136-.414.044-.102-.064-.225-.116-.274-.116-.087 0-.696.884-.696 1.01 0 .036.165.065.367.064.407-.001 1.323-.39 1.659-.704.203-.191.207-.213.048-.333-.222-.169-.411-.16-.69.035m-52.849.388c-.383.196-.366.313.081.547.385.202 1.1.176 1.325-.049.12-.12.106-.169-.098-.36-.309-.29-.892-.352-1.308-.138m36.81.209c0 .258.312 1.047.524 1.325.242.317 1.201 1.004 1.285.92.024-.024-.155-.209-.397-.411-.255-.213-.63-.695-.89-1.142-.437-.752-.522-.864-.522-.692m16.376.607-.38.286.38.167c.442.194 1.707.241 1.767.066.021-.062-.115-.14-.31-.176-.192-.036-.496-.195-.677-.353-.18-.159-.344-.286-.364-.282s-.207.135-.416.292m-18.72.238c0 .033.108.22.241.415.292.43.258.5-.112.238-.292-.207-.84-.404-.667-.24.738.699 1.134 1.017 1.037.833-.063-.12-.078-.22-.032-.22.157 0 .493.735.598 1.311.15.817.233.813.188-.01-.03-.547-.011-.68.082-.603.166.138.303.586.471 1.544.079.449.171.842.205.875.034.032.044-.425.024-1.016-.034-.967-.066-1.127-.325-1.598a3.9 3.9 0 0 0-.695-.88c-.43-.375-1.015-.75-1.015-.649m-5.716.196c-.043.108-.204.477-.358.822-.153.344-.26.643-.239.665.075.075.524-.607.641-.973.134-.418.096-.86-.044-.514m1.636.296c-.44.376-.86 1.159-.96 1.788-.036.22-.03.698.013 1.063l.078.663.083-.488c.28-1.64.464-2.047.476-1.056l.007.567.17-.586c.215-.741.331-.953.817-1.48.215-.234.361-.425.324-.425-.145 0-.509.233-.812.52-.418.395-.405.196.024-.367.189-.246.342-.47.342-.496 0-.121-.192-.02-.562.297m-29.79.412c.082.515.531.904 1.044.904.444 0 .485-.11.235-.637-.157-.331-.696-.633-1.13-.633-.184 0-.2.04-.149.366m36.117-.307c0 .163.356.672.916 1.309.306.35.686.899.844 1.221.253.519.286.552.287.293 0-.161-.085-.48-.188-.708-.193-.424-.143-.497.207-.31.109.058.22.083.248.056s-.25-.262-.617-.521a14 14 0 0 1-1.182-.95c-.284-.262-.515-.438-.515-.39m-4.319.91c-.713.054-1.041.183-.928.366.085.138 2.637.094 2.684-.046.044-.133-.557-.419-.83-.393zm-4.084.56c-.713.587-1.172 1.062-1.172 1.213 0 .056.154-.016.342-.16.372-.283.396-.244.235.393-.192.762-.05.81.236.08.151-.384.452-.963.669-1.286s.379-.626.36-.674-.32.147-.67.434m-18.253.232c-.233.034-.463.124-.51.2-.13.209-.288 1.024-.288 1.478 0 .394.004.398.193.227.107-.097.286-.422.399-.724.112-.302.316-.694.451-.872.136-.178.231-.335.213-.348-.02-.012-.225.005-.458.039m27.047.608c0 .303.587 1.323.913 1.59l.695.566c.186.152.392.427.459.611s.156.335.2.335c.109 0 .09-.184-.062-.61l-.13-.367.452-.01.452-.01-.69-.22c-.93-.297-1.103-.427-1.705-1.276-.284-.402-.532-.73-.55-.73-.02 0-.035.054-.034.121m6.839.162a.6.6 0 0 0 .301.105c.35.004 1.344.614 1.866 1.146.312.318.737.905.97 1.341.23.427.432.73.45.674.083-.247-.589-1.798-.962-2.222-.5-.568-1.42-1.028-2.194-1.097-.424-.038-.54-.023-.431.053m-11.616.253c-.236.565-.405 1.509-.346 1.927a9 9 0 0 0 .296 1.154c.13.404.272.998.316 1.319l.08.583.073-.44c.04-.241.06-.868.042-1.392s-.002-.953.035-.952c.064 0 .356.893.544 1.66l.083.343.166-.482c.091-.265.166-.592.166-.728 0-.195.025-.221.12-.126.07.07.121.383.122.743.001.342.04.6.086.57.187-.115-.082.659-.495 1.424-.513.95-.64 1.69-.39 2.262l.15.342.008-.592c.004-.325.066-.671.137-.768.117-.16.145-.135.303.28.096.252.192.44.213.419.022-.022-.011-.288-.073-.593-.11-.548-.106-.565.287-1.36.42-.85.704-1.98.704-2.804 0-.542.143-.66.244-.2.035.16.105.316.154.347.176.109.087-.456-.205-1.296-.324-.938-.545-1.29-.436-.697.07.379-.077 1.546-.252 2.006-.158.416-.25.141-.33-.981-.037-.53-.117-1.08-.177-1.222l-.11-.257-.03.293c-.047.47-.24 1.338-.285 1.292-.024-.023-.107-.41-.186-.858a12 12 0 0 0-.257-1.16c-.1-.302-.124-.32-.19-.152-.042.107-.079.378-.082.604-.01.552-.177.624-.244.105-.13-1.012-.103-.943-.241-.613m-7.583.287c-.376.175-.753.402-.838.505-.178.214-.806 2.024-.674 1.943.048-.03.232-.328.409-.662.31-.587 1.291-1.694 1.689-1.906.107-.057.173-.125.146-.151-.026-.027-.356.095-.732.27m6.56.325a5 5 0 0 0-.265.708c-.124.437-.125.438-.186.147-.057-.276-.068-.263-.19.227-.16.649-.082 1.294.26 2.148.31.774.402.682.125-.123-.22-.639-.25-1.174-.09-1.586.102-.266.114-.25.332.458.125.403.35 1.062.501 1.464l.275.732.084-.425c.087-.44.08-.471-.417-1.817-.159-.43-.215-.796-.213-1.393.001-.445-.016-.809-.038-.809s-.103.121-.179.27m-2.683.29a5 5 0 0 1-.59.747c-.467.448-1.5 1.038-1.82 1.04-.225 0-.26.023-.147.096.246.159.614.107 1.06-.148.235-.133.46-.243.503-.243s-.027.253-.155.562c-.24.585-.333 1.783-.138 1.783.054 0 .1-.209.1-.464.002-.45.382-1.718.572-1.908.06-.059.116.116.156.48.147 1.354.189 1.397.258.268.048-.79.138-1.293.327-1.842.144-.415.242-.774.218-.798-.023-.023-.178.17-.344.428m12.432.208c.03.047.219.112.421.145.667.11 1.548.61 2.29 1.303.803.75 1.182 1.058.999.812-1.16-1.56-1.684-2.082-2.25-2.24-.452-.124-1.534-.14-1.46-.02m-16.299.504c-.38.35-.924 1.313-.808 1.429.024.024.186-.19.36-.474.174-.285.467-.705.653-.933.423-.522.346-.53-.205-.022m12.06-.12c-.002.069.135.39.303.713.434.833.462 1.29.139 2.24-.146.43-.245.835-.22.902.026.067.223-.25.44-.704l.393-.825.166.568c.16.55.222 2.002.095 2.207-.033.053-.033.097 0 .097.166 0 .36-.79.363-1.478l.003-.76.567.286c.312.158.595.332.63.387a.23.23 0 0 0 .172.1c.08 0 .08-.033-.005-.118-.18-.18-.142-.257.151-.301.26-.04.26-.04-.024-.038-.162.001-.566-.137-.9-.307-.665-.34-.914-.668-1.306-1.722-.203-.547-.962-1.525-.967-1.248m-7.75.509c-.078.303.043 1.405.14 1.253.11-.173.108-1.448-.002-1.448-.047 0-.11.088-.137.195m.48-.045c-.034.088-.056.32-.05.517.011.33.018.32.093-.127.083-.499.064-.67-.043-.39m6.536.705a5 5 0 0 0-.146.656l-.078.485.184-.227c.118-.146.184-.382.184-.656 0-.462-.037-.529-.144-.258m-6.21 1.166c-.227.693-1.052 1.861-1.486 2.103-.538.3-.625.538-.12.327.497-.208.559-.194.497.116-.11.553-.156 1.588-.071 1.588.11 0 .181-.28.265-1.03.064-.57.225-1.07.232-.719.001.086.12.372.262.635.142.264.314.72.38 1.016l.122.538.01-.62c.008-.49-.034-.683-.2-.916-.358-.502-.354-1.127.012-1.903.189-.4.313-.815.311-1.041-.004-.511-.07-.54-.215-.094m12.48.47c.417.584 1.326 1.322 2.146 1.743.169.086.75.285 1.29.442.961.279 2.104.83 2.36 1.139.071.085.216.202.323.259.188.1.188.096-.009-.176-.68-.944-1.548-1.479-2.913-1.797-1.088-.253-2.12-.764-2.847-1.407-.411-.365-.504-.419-.35-.203m-7.004-.068c0 .188.256.648.449.808.093.077.27.36.392.628.195.428.223.455.228.217a1.6 1.6 0 0 0-.136-.586c-.17-.376-.932-1.248-.933-1.067m24.78.721c-.246.381-.285.72-.12 1.04.195.376.323.455.5.309.324-.27.26-1.165-.104-1.468-.099-.082-.164-.053-.276.12m-29.706.201c.208.649.332 1.24.334 1.588.002.288.028.352.098.244.162-.251.107-1.026-.111-1.55-.204-.491-.46-.716-.32-.282m4.37.324c-.084.236-.073.381.052.684.116.282.159.702.16 1.572 0 .654.027 1.214.058 1.246.046.046.206-.852.318-1.783.011-.094.094-.07.29.084.42.33.442.139.033-.28-.264-.271-.423-.57-.585-1.097-.22-.719-.222-.723-.327-.426m-8.624 1.028c.008 1.747.31 2.225 2.43 3.844.327.25-.214-.525-.879-1.258-.834-.92-1.103-1.462-1.307-2.636-.083-.48-.173-.893-.2-.92-.026-.026-.046.41-.044.97m14.873.211c-1.077 1.426-1.8 1.943-3.34 2.39-.706.204-1.9.718-1.327.57.107-.027.67-.09 1.252-.14 1.275-.111 1.853-.357 2.624-1.117.387-.38.625-.743.93-1.413.225-.495.39-.9.366-.9s-.25.275-.505.61m-9.114-.049c0 .094-.127.534-.281.976-.287.824-.228 1.005.092.282.182-.414.362-1.428.252-1.428-.034 0-.062.076-.063.17m17.783.499c0 .1.134.366.298.593.165.227.451.746.637 1.153s.36.719.386.692c.067-.067-.324-1.317-.544-1.74-.166-.32-.632-.879-.732-.879-.025 0-.045.081-.045.18m16.462.13-.27.214.219.177c.363.294.929.215 1.399-.195.167-.146.164-.159-.05-.277-.36-.2-.99-.16-1.298.082m-33.758.33a2 2 0 0 0-.095.3c0 .028-.065.115-.144.194-.266.266-.358.856-.244 1.572.096.608.532 1.774.627 1.679.022-.022-.024-.348-.103-.723-.08-.376-.131-.851-.115-1.057l.028-.373.377.495c.377.496.6.647.482.325-.035-.094-.214-.369-.398-.61-.329-.433-.333-.452-.293-1.246.023-.444.026-.806.008-.806-.019 0-.077.113-.13.25m-9.546 1.289c-.9.867-1.028 1.214-1.236 3.346-.078.803.097.409.49-1.107.323-1.25.495-1.62 1.134-2.435.158-.201.266-.366.24-.366-.025 0-.308.253-.628.562m24.204-.453c0 .201 1.011 1.099 1.617 1.435l.581.322-.52-.528c-.6-.61-1.678-1.4-1.678-1.229m15.498.404c-.084.312-.075.464.027.464.108 0 .308-.548.23-.627q-.168-.165-.257.163m-1.038.25c0 .043-.138.22-.307.392l-.306.314-.323-.19-.322-.19-.06.272c-.06.272.109 1.145.236 1.224.037.023.39-.254.784-.614l.717-.656-.164-.316c-.159-.307-.255-.397-.255-.236m-20.742 1.073c-.143.149-.586.509-.985.8-.624.455-1.134 1.015-1.023 1.123.048.045 1.392-.744 1.623-.954.211-.19.75-1.134.685-1.199-.022-.022-.158.08-.3.23m-6.224.35c0 .23.43 1.055.65 1.244.1.087.503.325.896.529.989.513 1.383 1.072 1.53 2.17.057.421.03.592-.145.954-.197.408-1.187 1.494-2.086 2.29-.814.721-1.193 1.716-1.085 2.847.087.91.203 1.006.267.22.088-1.096.31-1.653.885-2.22.565-.558 1.611-1.38 1.675-1.315.023.023-.153.37-.392.77-.497.838-.828 1.736-.824 2.239.002.312.024.282.222-.297.12-.354.466-1.014.768-1.466s.668-1.063.814-1.358c.147-.296.36-.645.475-.777l.21-.24-.278.175c-.268.168-.276.168-.224-.005.45-1.483.204-3.33-.534-3.998-.114-.103-.696-.428-1.295-.724-.817-.403-1.144-.62-1.309-.87-.14-.21-.22-.271-.22-.167m-7.35.964c-.06.966-.149 1.158-1.003 2.18a9.3 9.3 0 0 0-1.094 1.683c-.345.705-.542.983-.88 1.242-.24.183-.608.528-.819.767l-.383.435.978-.054c.537-.03.977-.028.977.003 0 .197-.221.57-.411.694-.123.08-.587.191-1.03.247-.925.115-1.12.203-1.947.874-.97.786-1.103.833-2.129.746a15 15 0 0 0-1.225-.062c-.35.012-.337 0-1.395 1.2-.248.283-.413.372-.783.427-.258.04-.496.043-.53.009s.05-.182.189-.33c.27-.289.607-.893.536-.964-.05-.05-.709.206-1.749.684-.712.327-.764.373-.971.854-.205.476-.263.528-.938.84-.396.183-.745.4-.777.483s.085.475.26.872c.204.464.33.924.352 1.286.018.31.08 1.025.138 1.589.057.564.143 1.448.191 1.963.097 1.026.605 3.282.671 2.975.023-.105-.012-.581-.077-1.057s-.097-.887-.072-.912.26.251.52.615c.416.584.476.732.509 1.25.02.324-.037 1.072-.125 1.663-.133.883-.151 1.519-.101 3.566.033 1.37.102 2.79.154 3.154.132.937.619 2.393 1.189 3.559.485.99.489 1.006.573 2.296.167 2.551.291 3.565.608 4.962l.32 1.417.777-.01c1.246-.015 1.737-.356 2.44-1.693.258-.491.507-.795.926-1.131.876-.703 1.286-1.388 1.402-2.344.063-.52.051-.506-.298.349a3 3 0 0 1-.377.635l-.234.286.07-.635c.14-1.261.082-3.61-.113-4.571-.101-.5-.158-.933-.127-.964.177-.177 1.318 1.617 1.636 2.575.113.338.227.615.254.615.083 0-.066-.793-.275-1.466-.336-1.078-.847-1.925-1.713-2.835-.794-.835-1.008-1.172-1.008-1.592 0-.117-.137-.5-.305-.848-.261-.544-.312-.777-.353-1.612-.053-1.067-.181-1.397-.723-1.853-.24-.201-.398-.248-.843-.248-.399 0-.63-.057-.851-.208-.315-.215-.763-.774-.685-.852.025-.025.269.094.541.263.486.302.816.377 1.03.234.06-.04.136-.516.17-1.058.06-.91.047-1.02-.166-1.441-.252-.498-.217-.557.157-.262.403.317.563.78.563 1.632 0 .538.045.834.152.986.248.355.336.253.338-.393.001-.677.125-1.026.227-.643.034.125.062.44.063.698.001.521.066.676.544 1.302.38.498.288.59.96-.962.592-1.368.735-2.03.732-3.4a9.3 9.3 0 0 0-.25-2.246c-.326-1.468-.347-1.514-.804-1.803-.489-.308-.613-.538-.576-1.059l.03-.411.224.419c.19.355.697.8.914.801.088 0 .571-1.36.59-1.66a6 6 0 0 0-.057-.806c-.09-.698.04-.73.32-.08.244.566.264 1.229.06 1.903-.201.663-.183 1.419.046 1.955.106.246.232.447.28.447.14 0 1.226-1.71 1.795-2.825.285-.56.57-1.035.632-1.055.074-.025.139.19.187.627l.073.664.13-.488c.071-.269.159-.874.194-1.345.062-.822.081-.88.49-1.406.235-.303.453-.653.485-.78s-.013-.544-.1-.927c-.203-.899-.197-1.111.039-1.599.276-.57.517-.796.933-.874.471-.089.6.036.437.428-.2.482-.14 1.01.187 1.633l.299.571-.061-.704c-.046-.527-.022-.801.092-1.088.136-.338.138-.486.02-1.27-.141-.942-.119-1.19.144-1.579.273-.405.305-.596.193-1.136-.08-.384-.215-.638-.527-.985-.52-.579-.58-.767-.493-1.518l.07-.596.587.657c.324.362.846.833 1.16 1.047.646.438 1.206 1.13 1.757 2.167q.622 1.172.19-.238l-.19-.619.475.51c.609.656.97 1.399 1.061 2.187l.073.625.069-.405c.191-1.123-.403-2.405-1.809-3.905-.622-.664-1.149-1.334-1.378-1.753-.411-.753-.417-.464-.009.436.132.29.226.542.208.559-.017.017-.382-.246-.81-.584-.844-.668-1.276-1.158-1.696-1.927l-.27-.493zm19.748-.336c.205.382.902.873 1.73 1.219.927.386.935.222.012-.275a18 18 0 0 1-1.048-.624c-.295-.193-.596-.388-.668-.434-.105-.066-.11-.043-.026.114m5.012.409c.304.604.32.687.316 1.71a53 53 0 0 1-.068 2.247c-.036.645-.042 1.084-.013.977.39-1.476.625-2.715.625-3.285 0-.791-.163-1.18-.774-1.845l-.405-.44zM42.194 47.62c-.688.8-1.035 1.328-.87 1.328.205 0 .934-.839 1.254-1.441.177-.336.304-.611.281-.611s-.322.326-.665.724m16.606-.192c-.355.238-.74.586-.856.773-.115.186-.612.722-1.104 1.19-.863.82-.893.945-.135.56.424-.217 1.191-.969 1.467-1.44.134-.229.41-.562.614-.74.344-.302.768-.777.694-.777-.018 0-.324.195-.68.434m21.474.95c-.484.502-.485.505-.25.595.313.119 1.043.03 1.488-.183.443-.212.455-.31.042-.35-.264-.025-.323-.074-.348-.298-.05-.425-.373-.343-.932.236m-44.525.703c-.496.178-.678.325-1.246 1.01-.59.71-.964.979-2.398 1.724-.584.304-1.013.552-.953.552s.715-.2 1.454-.443c2.289-.755 2.766-.853 4.08-.844 1.206.01 2.176-.145 2.668-.426l.262-.15-.293.047c-.161.026-.82.075-1.465.11-1.012.054-2.77.293-3.642.495-.406.094 1.351-1.655 1.976-1.967.442-.22.459-.24.195-.237-.158.002-.445.06-.638.13m46.904 1.276c0 .412.173.717.555.976.203.139.404.252.445.252.131 0 .08-.683-.073-.98-.264-.511-.927-.69-.927-.248M70.81 51.683a5.8 5.8 0 0 0-.197 2.345l.08.635.175-1.319c.096-.725.16-1.517.141-1.758l-.034-.44zm-43.405.107c-.269.217-.54.461-.604.544-.128.166-.149 2.671-.022 2.671.163 0 .302-.742.28-1.496-.029-1.062-.05-.986.404-1.407.404-.373.649-.715.507-.708-.042.002-.296.18-.565.396M47.24 52c-.036.23-.15.669-.253.978-.104.31-.189.686-.189.837 0 .732.682 2.271 1.37 3.093a5.6 5.6 0 0 1 1.083 2.054c.201.69.248.342.053-.391-.186-.698-.479-1.326-1.138-2.442-.857-1.449-.892-1.59-.816-3.19.064-1.335.015-1.748-.11-.938m-10.908.66a4.3 4.3 0 0 0-1.31.33c-.567.26-.708.453-.181.25.155-.06.712-.17 1.237-.245s1.074-.201 1.22-.28l.268-.146-.245.01c-.134.006-.58.042-.989.081m36.57.167c-.03.37-.39 1.222-.786 1.864-.41.666-.49.649-.515-.11-.009-.257-.029-.317-.055-.163-.023.134-.168.882-.323 1.66-.154.78-.31 1.606-.345 1.838-.061.4.03 1.832.112 1.75.022-.021.084-.397.14-.835.136-1.09.408-1.93 1.028-3.168.633-1.266.847-1.959.798-2.584-.02-.258-.045-.371-.054-.252m-48.561.074c.113.113 1.384.54 1.609.54.415 0 .214-.228-.36-.408-.481-.151-1.361-.244-1.25-.132m4.148.727c-.205.902-.28 1.074-.64 1.46-.169.182-.29.346-.27.367.073.072.934-.557 1.09-.796.087-.133.12-.241.074-.241-.047 0-.05-.209-.009-.464.189-1.144-.001-1.396-.245-.326m9.235.664c-.343.121-.397.17-.27.24.174.098.44-.007.646-.255.069-.084.11-.149.09-.144-.02.004-.23.075-.466.159m-13.176.848c.185.14 1.736.481 1.818.4.174-.175-.91-.535-1.598-.532-.345.002-.371.017-.22.132m3.455 1.482c-.902.464-1.16.553-1.802.615l-.75.072.519.118c1.018.231 1.218.183 2.228-.533.505-.358.918-.687.918-.733 0-.117.043-.135-1.113.46m29.592.67c-.365.168-.75.511-1.53 1.361-.572.625-1.132 1.326-1.243 1.557-.268.553-.405 1.306-.391 2.16.01.672.013.68.095.263.246-1.252.796-2.382 1.55-3.179.306-.324.675-.796.819-1.048s.47-.623.725-.825.505-.403.556-.446c.167-.14-.075-.075-.58.157m22.592 1.757c-.232.177-.214.255.058.255a.64.64 0 0 0 .406-.196c.172-.19.171-.195-.058-.192a.8.8 0 0 0-.406.133m-33.87 1.353c-.006 1.114-.04 1.344-.313 2.198-.168.524-.325 1.02-.35 1.1s.153-.156.395-.527c.798-1.226.928-2.194.468-3.478l-.193-.538zm12.59-.482c.315.918.518 2.114.583 3.438l.062 1.27.12-.643c.268-1.43.1-2.932-.437-3.918-.39-.719-.55-.79-.328-.147M42.05 62.202c-.425.682-.875 1.406-1 1.61-.333.54-.492 1.257-.562 2.526-.085 1.546-.136 1.724-.752 2.653-1.399 2.11-1.587 3.2-.735 4.253.314.388.317.33.026-.458-.24-.65-.143-1.277.352-2.256.228-.452.51-1.056.628-1.342l.214-.522.066 1.39c.051 1.08.109 1.479.258 1.791l.192.402-.065-.342c-.11-.575-.05-1.741.16-3.156.11-.742.201-1.6.202-1.905.002-1.74.413-2.68 1.8-4.114l.983-1.017-.586.397a10 10 0 0 0-.965.749c-.208.193-.395.35-.416.35s.208-.487.507-1.084.526-1.103.505-1.125-.388.518-.812 1.2m-14.297-.204c-.01.375.254 1.163.44 1.317.172.143.183.203-.151-.787-.21-.618-.283-.754-.289-.53m45.282 1.092c-.229 1.139-.318 2.564-.16 2.564.065 0 .086.051.048.113q-.065.106.045.042c.178-.11.403.544.407 1.186.003.539.01.553.143.32.203-.355.176-.829-.098-1.686-.226-.708-.238-.847-.179-2.076.035-.725.041-1.318.015-1.318s-.126.385-.221.855m1.365.643c.065.812.274 1.379.818 2.214.381.586.409.609.352.294-.035-.188-.24-.716-.458-1.173a14 14 0 0 1-.58-1.416l-.185-.587zm-18.598 1.58c.003 1.945.004 1.95.147 1.318.16-.71.131-2.612-.047-3.028-.078-.184-.103.239-.1 1.71m-4.06-1.695c-.113.066-.422.086-.785.052l-.6-.056-.256.41c-.411.66-.873 1.835-.93 2.37a2.8 2.8 0 0 0 .106 1.041c.087.3.158.662.158.805 0 .177.155.423.489.776.268.284.488.548.488.587 0 .11-.403-.036-.788-.284l-.348-.224-.283.447c-.223.353-.278.546-.262.912.01.256-.03.588-.093.74l-.113.274-.089-.391c-.205-.902-.198-1.083.062-1.633.168-.354.253-.701.253-1.024 0-.455-.154-1.105-.261-1.105-.026 0-.374.294-.774.653-.87.782-1.165 1.326-1.316 2.425-.14 1.021-.287 1.31-1.014 1.981-.977.903-1.076 1.082-1.064 1.92.015.943.173 1.261.268.54.085-.635.293-1.055.576-1.16.37-.138.44-.044.33.437-.139.606.024 1.235.646 2.486l.509 1.026-.006 1.172c-.005 1.017-.047 1.315-.317 2.247-.17.591-.356 1.402-.411 1.802-.056.4-.115.74-.132.758-.05.048-.54-1.625-.649-2.207a7 7 0 0 1-.097-1.02c0-.893-.21-.351-.264.68-.062 1.186.064 1.739.73 3.211.45.998.603 1.486.753 2.415.085.53.497.889 1.252 1.093.825.224 1.131.533 1.23 1.243.146 1.042.52 1.45 1.266 1.379.541-.052.89.094 1.328.554l.287.302h1.545c.85 0 1.545-.024 1.545-.054s-.067-.183-.148-.34c-.183-.353-.607-.583-1.074-.583-.43 0-.367-.163.094-.25.516-.097.92.041 1.336.458.375.375.382.377.319.112-.191-.806-.618-1.454-1.22-1.853-.212-.14-.368-.272-.347-.293.022-.022.24.011.485.073.517.13 1.14.626 1.369 1.088l.159.323.002-.273c.003-.381-.268-1.651-.44-2.064-.214-.511-.18-.52.198-.046.439.55.72 1.302.816 2.177l.076.694.167-.547c.192-.626.436-.89 1.21-1.306.856-.461.933-.619 1.008-2.079.036-.685.142-1.529.236-1.874.345-1.268.074-2.292-.919-3.475-.852-1.015-.847-.997-.644-2.59.125-.977.157-1.624.108-2.227l-.068-.85.324.305c.178.167.653.525 1.056.796.403.27.832.585.953.7.12.116.22.164.22.109 0-.165-.68-.87-1.296-1.343-.531-.41-.618-.537-1.242-1.822-.68-1.402-.98-2.166-.98-2.504 0-.102-.05-.217-.112-.256-.223-.137-.022 1.42.3 2.322.165.466.301.961.301 1.1 0 .249-.015.243-.64-.248-1.254-.986-1.428-1.418-1.45-3.604-.018-1.709-.072-1.883-.964-3.08-.58-.776-.592-.804-.994-2.173-.462-1.574-.728-2.27-.868-2.267a.8.8 0 0 0-.3.11m-4.974 2.867c-1.076 1.135-1.256 1.444-1.541 2.646-.208.873-.2 1.213.01.56.23-.705.763-1.644 1.24-2.18.62-.699.86-1.05 1.097-1.601.106-.248.184-.447.172-.443a51 51 0 0 0-.978 1.018m11.897 12.97c.035.228.305.9.601 1.493s.563 1.264.594 1.492c.03.228.1.442.155.476.144.089.009-1.22-.186-1.799-.15-.45-1.073-2.078-1.176-2.078-.028 0-.023.187.012.416m2.545 5.08c-.028.12-.138.68-.245 1.241-.146.772-.275 1.155-.527 1.564-.183.297-.404.78-.49 1.07-.215.73-.378.946-.926 1.224-.6.304-1.054.685-1.237 1.038-.194.376-.18.482.064.482.167 0 .195.043.148.22a2 2 0 0 0-.06.334c-.003.21-.51.722-.918.927-.448.225-1.07.669-1.015.724.02.02.319-.075.666-.21 1.524-.595 1.53-.6 1.808-1.566.25-.869.396-1.091.956-1.45.68-.434.728-.502 1.097-1.548a150 150 0 0 1 .516-1.442q.2-.544.268-1.686c.063-1.054.018-1.453-.105-.922M41.235 86.23c-.289 1.45-1.013 2.338-2.36 2.888-1.411.577-1.93 1.121-2.335 2.45-.226.742-.38.886-1.124 1.052a3.1 3.1 0 0 0-1.612.938c-.256.277-.28.328-.098.204.595-.402 1.194-.652 1.819-.757.37-.062.766-.171.88-.243s.326-.43.47-.796c.354-.89.662-1.318 1.142-1.588.347-.195.497-.219 1.128-.179.817.053.83-.044.036-.248-.46-.118-.506-.15-.341-.238.105-.056.481-.133.836-.17.354-.038.816-.15 1.025-.247l.382-.178-.523-.008-.523-.008.497-.543c.565-.618.773-1.165.862-2.265.031-.39.037-.709.012-.709s-.103.29-.173.645m26.088 2.628c.327.94.98 1.627 1.76 1.851.603.173.794.341 1.26 1.106.172.283.406.564.52.625.203.11.204.107.04-.144-.093-.14-.168-.275-.168-.298 0-.04.625.08 1.026.198.19.056.19.052-.01-.175a8 8 0 0 1-.561-.83c-.196-.33-.42-.652-.499-.716-.078-.065-.507-.152-.953-.193-.446-.04-.945-.143-1.109-.228-.295-.153-.912-.773-1.239-1.245l-.169-.244zm-32.833.926c.002.473.109.502.734.203.639-.307.606-.349-.32-.419-.388-.029-.416-.015-.414.216m10.77-.226c-.215.086-.133.219.258.418.209.107.584.434.834.726.424.496.495.538 1.069.638.338.059.737.107.888.107h.273l-.38-.42a10 10 0 0 1-.683-.864c-.249-.362-.388-.466-.752-.557-.449-.113-1.28-.14-1.507-.048m-12.921 1.324c-.35.322-.824.696-1.055.832-.23.135-.405.26-.387.278.017.017.514-.092 1.103-.243 1.051-.27 1.072-.28 1.101-.571a2 2 0 0 0-.049-.589l-.078-.292zm9.428.858-.481.489h-.716c-.393 0-.86.06-1.036.134-.299.125-.987.83-.897.92.022.022.204-.085.405-.238.337-.258.432-.28 1.252-.286.494-.004.984-.06 1.106-.125.12-.065.313-.304.426-.53a3.4 3.4 0 0 1 .408-.632c.4-.437.002-.208-.467.268m19.344-.351c-.406.179-.587.409-.826 1.049-.187.5-.25.57-.681.755-.43.185-1.056.755-.949.862.024.024.213-.042.42-.148.206-.105.565-.248.796-.317.524-.156.85-.532.938-1.081.053-.331.164-.512.516-.84.474-.44.392-.548-.214-.28"/></svg>