<svg xmlns="http://www.w3.org/2000/svg" viewBox="0 0 100 100"><path fill="#fff" d="M50.51 5.789c-.345.235-.751.722-.67.803.072.072.6-.338.91-.706.311-.37.217-.408-.24-.097m10.186.219c-.33.143-.806.592-.806.76 0 .133 1.103 0 1.577-.19.45-.18.51-.475.126-.62-.33-.127-.515-.116-.897.05m-13.642.783c-.424.124-.948.35-1.164.503-.37.26-1.1 1.184-1.009 1.275.023.023.265-.071.538-.21.273-.138.742-.343 1.043-.456.607-.227 1.075-.595 1.343-1.054.205-.351.244-.348-.751-.058m16.988.146c-.077.124.195.235.391.16.08-.031.147-.102.147-.157 0-.13-.458-.132-.538-.003m-10.366.283c-1.542.379-3.435 1.52-4.796 2.891-.965.974-1.007.98-1.007.159 0-.54.376-1.216.873-1.57.486-.346.275-.35-.453-.01-.89.416-1.429 1.007-2.018 2.215-.258.531-.61 1.112-.78 1.29-.548.577-2.184 1.368-3.142 1.519l-.39.062.243-.171c.475-.333 1.092-.946 1.241-1.235.108-.208.137-.463.103-.894-.029-.355.001-.746.073-.955.11-.318.105-.345-.038-.268-.26.138-.459.408-.784 1.059-.251.501-.408.678-.858.966-.552.353-1.4.73-1.918.853l-.277.066.26-.34c.308-.404.635-1.225.635-1.594v-.264l-.415.4c-.549.528-.816.666-.894.462-.12-.311-.053-1.035.128-1.389.385-.755 1.557-1.65 3.176-2.423.488-.234.843-.424.79-.424-.267 0-1.96.422-2.754.686-.866.288-1.416.603-2.034 1.163a7 7 0 0 1-.879.616c-.686.409-.841.645-1.075 1.634-.096.403-.255.895-.354 1.094-.36.716-1.357 1.446-1.977 1.446-.414 0-.831.263-1.601 1.008l-.708.686v-.313c0-.173.084-.48.188-.683.223-.437 1.325-1.494 1.841-1.767.505-.266.183-.249-.73.04-.822.26-2.127 1.012-2.649 1.527-.515.507-1.06 1.523-1.386 2.58-.379 1.227-.769 2.026-1.265 2.589l-.388.44v-.294c0-.16.058-.567.13-.903s.096-.611.053-.611c-.042 0-.25.26-.463.578-.273.41-.45.837-.605 1.466-.206.834-.25.916-.702 1.322-.447.402-1.456 1.056-1.524.988-.081-.08.418-1.17.76-1.658.214-.306.39-.578.39-.606 0-.127-1.036.531-1.384.88l-.388.387.07-.286c.16-.664.51-1.208 1.28-1.986.447-.452.812-.855.812-.896s-.089-.45-.197-.907c-.174-.73-.182-.877-.067-1.21.212-.616.723-1.288 1.72-2.261l.938-.917-.587.297c-.322.163-.909.525-1.303.803-.836.59-2.185 1.842-2.112 1.96.027.045.052.438.055.874.006.95-.104 1.162-.804 1.54a9 9 0 0 0-.93.594l-.438.326.068-.364.069-.364-.575.417c-.72.522-.82.647-.82 1.029 0 .17-.143.59-.317.934l-.318.626-.03-.458-.029-.457-.546.604c-.885.98-.841.948-.762.555.038-.188.376-1.28.75-2.426.375-1.147.665-2.101.645-2.121s-.328.457-.686 1.059a97 97 0 0 1-1.531 2.462c-.723 1.122-.973 1.43-1.39 1.71-.562.379-.63.514-1.003 2.003l-.22.88-.212-.41c-.116-.225-.319-.775-.45-1.221-.133-.447-.243-.759-.246-.693-.003.065-.064.096-.137.069-.103-.04-.144.203-.193 1.15a73 73 0 0 1-.128 1.967l-.066.764-.842-.838c-.463-.46-.869-.838-.902-.838s.043.338.17.752c.128.412.222.76.21.772-.012.011-.564-.459-1.225-1.045s-1.225-1.065-1.254-1.065c-.05 0 .229.492.554.977.404.604 1.773 3.045 1.73 3.087-.026.026-.338-.062-.694-.196s-.648-.215-.648-.179.185.254.411.484l.411.42-1.608.005-1.607.005.83.396c.457.218.786.412.733.43-.054.02-1.57.169-3.37.332-4.725.428-4.59.347-1.466.884 2.857.49 4.401.852 4.192.981-.068.043-.404.13-.746.195-.342.064-.606.132-.588.151.02.02.736.15 1.592.29s1.567.263 1.577.274c.011.01-.187.188-.44.395l-.458.377.39-.065c.216-.036.518-.09.672-.121.27-.054.255-.024-.342.739a39 39 0 0 0-.765 1c-.136.195-.13.202.098.13.132-.04.673-.29 1.203-.556.53-.265.98-.463 1.003-.441s-.333.87-.787 1.883c-.455 1.014-.81 1.861-.789 1.882.022.022.437-.299.924-.711.864-.734 1.002-.768.784-.193-.132.347-.08.38.222.141l.25-.196.064.708c.036.39.106.947.156 1.239.05.291.095.929.099 1.416.004.612.034.825.095.69.115-.255.777-3.143.78-3.409.008-.55.212.301.695 2.908l.524 2.82.068-.915c.037-.503.098-1.399.135-1.99.037-.59.08-1.03.094-.977.403 1.535.546 1.832 1.23 2.553.786.831.946 1.155 1.056 2.14.069.612.138.797.484 1.29.222.316.705.823 1.074 1.126.4.33.756.721.883.972l.212.42-.067-.392c-.107-.618-.211-.824-.714-1.407-.781-.906-.796-.96-.768-2.724l.025-1.55.403.335c.502.418.759.867.964 1.686.112.443.298.823.61 1.245.247.335.464.593.482.575s-.055-.289-.163-.601c-.204-.594-.261-1.32-.104-1.32.13 0 .73.762.96 1.221.108.215.293.735.41 1.156.118.42.322 1.052.454 1.403.208.551.232.734.176 1.348l-.064.71.764 1.014c1.079 1.43 1.996 2.562 1.996 2.462 0-.046-.31-.677-.69-1.402-1.044-1.99-1.008-1.886-1.018-2.978-.005-.62-.072-1.202-.183-1.592q-.173-.614-.093-.859c.08-.237.098-.225.69.437.452.504.768.755 1.22.968 1.082.508 1.14.504.687-.042-.513-.617-.71-1.02-.71-1.447 0-.43.132-.442.659-.06.466.337.69.624 1.44 1.846.542.883 1.55 2.073 1.926 2.274.154.082.135.001-.113-.49a8 8 0 0 1-.298-.627c0-.02.347.304.77.722.602.593.949.843 1.588 1.145 1.415.669 1.924.804 2.992.792l.952-.01-.833-.269c-1.036-.335-1.368-.505-1.876-.962-.42-.377-.955-1.138-.955-1.357s.236-.144 1.294.408l1.026.536.462-.157c.894-.305 1.615-.057 3.928 1.352.852.52 1.274.659 2.005.662.778.004 2.67-.28 3.413-.513l.706-.221-1.068.002c-1.235.002-2.095-.102-2.343-.283-.152-.11-.074-.142.6-.24a62 62 0 0 1 1.593-.207c.45-.051.913-.16 1.026-.244.113-.082.444-.314.734-.515l.529-.365 1.545-.05 1.546-.048.683-.678c.376-.374.667-.695.648-.714s-.271.111-.56.291c-.287.18-.646.38-.796.446-.343.148-1.264.151-1.778.007-.334-.094-.362-.122-.196-.188q.197-.078-.409-.085c-.754-.009-.916.053-1.782.685-.755.551-1.277.686-1.96.508-.591-.154-.497-.381.309-.752.42-.194.875-.496 1.102-.73.46-.479.414-.502-.21-.106-.502.317-.859.432-1.67.536-.395.051-.554.122-.671.301-.13.198-.233.235-.662.235-.584 0-1.54-.154-1.944-.313-.323-.126-1.433-1.404-1.433-1.649 0-.091.077-.261.17-.377l.172-.211.83.188c.457.104.985.215 1.173.247l.342.058-.335-.288c-.613-.526-.94-.628-1.547-.482-.293.07-.554.185-.581.256-.15.388-2.74.634-3.573.34-.542-.192-.951-.58-1.198-1.139-.233-.527-.473-.802-1.344-1.542-.412-.35-.634-.643-.888-1.173-.186-.388-.365-.837-.398-.998l-.06-.294.268.342c.73.932 1.496 1.411 2.017 1.262.17-.05.718-.09 1.217-.09 1.028 0 1.58.156 2.575.724l.622.354-.677-.643c-.886-.84-1.299-1.067-2.302-1.264-1.654-.324-2.184-.797-3.027-2.7-.43-.973-.63-1.302-1.023-1.688l-.488-.479.383.072c.682.128 1.275.512 2.004 1.297.496.534.686.689.637.517-.14-.481-.844-1.906-1.055-2.133-.119-.128-.754-.604-1.413-1.059-.658-.454-1.197-.84-1.197-.856s.275-.027.611-.023a22 22 0 0 0 1.598-.076c.938-.077 1.013-.07 1.528.167.298.136.806.49 1.127.786.7.643.79.694 1.861 1.056.98.331 1.302.35 1.715.094.168-.103.653-.305 1.08-.448.91-.305 1.225-.284 2.473.168.45.162.837.274.863.249.04-.04-1.345-.902-1.989-1.238-.178-.093-.424-.074-1.257.097-1.06.217-1.603.213-2.425-.017-.34-.096-.367-.124-.224-.229.147-.107.131-.136-.15-.271-.172-.083-.548-.34-.836-.57l-.522-.417.522-.163c.928-.29 1.64-.754.888-.58-.881.205-2.793.057-3.21-.248-.162-.118-.108-.153.538-.35.606-.183.85-.208 1.561-.156.464.034.975.025 1.136-.02.284-.079.275-.087-.293-.247-1.213-.343-1.274-.321 2.031-.707.795-.092 1.41-.197 1.368-.233-.042-.035-.473-.118-.956-.184-1.261-.172-1.97-.372-2.642-.746-.325-.18-.797-.38-1.05-.443-.252-.064-.436-.15-.41-.194.027-.043-.007-.1-.074-.127-.068-.028.009-.056.17-.064a2 2 0 0 0 .479-.088c.163-.064.147-.089-.126-.202-.17-.07-.562-.157-.87-.192l-.558-.064.777-.178c1.016-.233 1.119-.288 1.498-.798.394-.532.768-.728 2.042-1.07.548-.147 1.117-.34 1.266-.43s.405-.426.568-.746c.345-.673.71-.918 1.837-1.234.39-.11.927-.305 1.196-.433.494-.238 1.73-1.104 1.368-.96-.921.368-2.534.855-3.42 1.032l-1.074.216-.396.497c-.506.635-1.057.94-1.82 1.01l-.596.053.404-.594c.222-.328.448-.623.502-.656s.098-.103.098-.155c0-.148-.69.243-1.224.693-.822.693-1.386.879-2.185.719l-.307-.061.26-.354c.462-.625 1.05-1.199 1.584-1.546.286-.186.498-.362.47-.39s-.323-.02-.655.02c-.421.048-.87.203-1.48.507-.48.241-.89.421-.91.401-.084-.083.736-1.243 1.045-1.478.787-.6 2.333-1.095 3.763-1.205.447-.034.812-.09.812-.125s-.242-.146-.538-.246c-.295-.1-.537-.219-.537-.262 0-.163.633-.397 1.548-.572 2.253-.43 3.253-.354 4.679.358l.902.45 1.247-.055c2.45-.109 3.355-.498 5.16-2.22.704-.671 1.27-1.234 1.259-1.25-.056-.08-.793.313-1.583.844-1.134.763-1.632.925-2.701.88-1.256-.052-1.238-.17.108-.723.635-.26 1.262-.541 1.395-.625l.241-.151-.387-.05c-.45-.056-.556-.29-.275-.608.234-.264 1.385-.797 2.148-.995.777-.2 2.45-.205 3.164-.007 1 .276 1.107.278 1.599.029.51-.26 1.855-1.38 1.716-1.43-.048-.017-.435.126-.86.318-.997.45-1.325.445-2.263-.039l-.732-.378.841-.397c.52-.245 1.09-.432 1.49-.489 1.278-.18 3.524.209 4.434.77.175.107.318.17.318.137 0-.185-.69-.875-1.235-1.232l-.634-.417 1.594-.264c2.497-.414 3.563-.344 5.55.365.891.318 2.468 1.128 2.922 1.5l.331.274-.771-.04c-.74-.04-.805-.025-1.565.347-1.296.635-2.029.713-3.194.342-.259-.083-.492-.128-.519-.102-.07.07.473.438.96.652.759.332 3.498.742 3.498.523 0-.037-.094-.166-.208-.288l-.208-.221.264-.066c.451-.114 1.64.012 2.106.222.242.11.846.527 1.343.929 1.6 1.292 2.718 1.65 4.148 1.329l.517-.117-.44-.083c-.94-.18-1.491-.392-1.845-.712-.39-.351-1.02-1.392-.783-1.29 1.245.53 1.59.657 2.067.76.456.1.718.1 1.385-.004 1.542-.24 2.61.074 3.424 1.005.243.277.442.537.442.575 0 .04-.185.006-.412-.074-.66-.233-2.237-.46-2.357-.34-.072.072-.07.103.01.103.063 0-.183.279-.545.619-.434.407-.825.678-1.145.791-.908.323-.91.335-.045.343.457.004.986.034 1.177.065.303.05.36.026.46-.192.151-.332.657-.585 1.044-.522.168.027.59.225.938.44.35.218.826.422 1.07.46.56.088.606.116.97.574.359.453.373.549.08.548-.424-.001-.951-.206-1.389-.54-.243-.186-.442-.317-.442-.29 0 .025.137.268.304.54.354.575.807.84 1.977 1.16.93.254 1.218.397 1.631.81.612.612.835 1.504.545 2.18l-.125.293-.12-.359c-.207-.626-1.152-1.547-1.587-1.547-.067 0-.006.121.136.27.646.674.745 1.736.258 2.76-.167.348-.331.829-.367 1.067l-.063.432-.287-.432q-.288-.433-.277-.775c.015-.463-.055-.781-.17-.781-.056 0-.096.371-.096.885 0 .766.036.96.265 1.428.146.299.4.644.562.767.325.246 1.425.757 1.49.692.023-.023-.032-.254-.122-.514-.2-.578-.244-1.927-.07-2.101.097-.097.122-.033.123.313 0 .543.341 1.292.815 1.795.197.209.379.36.404.335.024-.025-.003-.216-.06-.425-.058-.21-.089-.674-.069-1.032.03-.512.1-.753.328-1.121.435-.702.535-.676.535.142 0 .38.034.692.077.692.099 0 .607-1.03.607-1.23 0-.087-.047-.12-.112-.08-.082.05-.096-.062-.05-.41.302-2.34.23-2.651-.859-3.702-.823-.796-1.153-1.293-1.265-1.905-.054-.297-.046-.318.061-.161.495.726.853 1.081 1.68 1.668 1.064.754 1.269 1.046 1.463 2.096l.12.646.19-.488c.259-.67.26-2.008.002-2.491l-.182-.342.208.186c.115.102.33.432.477.733.231.472.268.666.269 1.425v.88l-.603 1.142c-.893 1.688-.911 2.203-.124 3.421.347.536.385.66.385 1.222 0 .69.12.74.304.128.103-.342.09-.42-.13-.801a3 3 0 0 1-.314-.89c-.073-.5.076-1.423.294-1.829l.132-.244.004.33c.002.181.165.686.362 1.123s.41.99.476 1.233l.117.44.127-.293c.07-.16.154-.71.187-1.22l.06-.929.141.44c.078.242.141.747.14 1.123-.002.576-.053.785-.323 1.32-.301.598-.304.615-.055.292.145-.188.679-.742 1.186-1.232l.923-.89.08-.625c.044-.343.171-.833.283-1.09.187-.43.189-.458.026-.37-.32.17-.871.857-.94 1.168-.108.493-.246.246-.246-.438 0-.697.251-1.324.768-1.917.633-.727.816-1.56.607-2.762-.17-.982-.449-1.472-1.385-2.444-.845-.878-1.26-1.488-1.26-1.85 0-.142-.029-.164-.11-.082-.192.192-.005.959.357 1.465.379.53.925 1.574.925 1.769 0 .071-.118-.01-.263-.183-.144-.171-.626-.551-1.07-.844-.859-.565-1.684-1.388-1.985-1.979-.101-.197-.237-.642-.303-.988-.246-1.293-.242-1.286-.384-.63-.149.682-.182 1.732-.068 2.142.072.258.064.273-.08.153-.484-.401-.84-1.727-.754-2.803.049-.614-.091-1.077-.54-1.783-.737-1.157-1.727-1.872-3.313-2.392q-2.2-.722-2.576-2.519c-.117-.56-.134-.588-.198-.32-.175.737-.103 1.281.26 1.97.394.75.637 1.05 1.064 1.315.396.245.152.23-.752-.05-.99-.305-2.104-1.098-2.766-1.966-.141-.186-.145-.18-.084.098.11.5.429 1.04.926 1.565.263.278.478.535.478.572s-.275.039-.61.004a3.5 3.5 0 0 0-1.284.107c-.823.206-1.297.153-2.173-.244-.36-.163-.673-.277-.696-.253-.085.084.566.922.955 1.23.219.174.38.334.356.357-.067.068-1.155-.444-1.497-.705-.175-.134-.473-.473-.66-.754-.334-.498-1.726-1.786-2.322-2.149a5.4 5.4 0 0 0-.702-.336c-.613-.237-.612-.293.008-.254 1.507.095 1.589.118 2.079.576.444.416.74.587.487.282-.186-.224-.03-.298.323-.154 1.381.564 1.973.716 2.553.656.573-.06 1.009-.256.569-.256-.117 0-.466-.094-.777-.21-.796-.295-1.75-1.282-2.23-2.31-.823-1.757-.86-1.814-1.315-2.089-.582-.35-1.715-.569-2.944-.569-.548 0-.973.024-.944.053.03.03.409.138.843.242 1.34.32 2 .746 2.205 1.425.173.572-.243.668-1.163.268-1.301-.564-1.839-.713-2.59-.715-.99-.002-2.366.219-3.663.588-1.476.421-2.059.468-2.494.203-.444-.27-1.482-.278-2.245-.017l-.537.184.39-.336c.883-.759 2.103-1.152 3.954-1.273 1.008-.066 1.017-.07.647-.197-.879-.305-2.044-.449-3.184-.394-1.428.069-2.028.234-3.419.94-1.274.646-1.858.845-1.966.67-.052-.083-.203-.07-.578.051q-.995.322-1.3-.014c-.233-.257-.201-.454.134-.836.682-.776 1.659-1.182 3.3-1.373 1.023-.118 1.037-.123.654-.232-.523-.148-1.666-.309-2.15-.303-.214.003-.702.083-1.084.177m-19.684 3.129c-.33.329-.393.789-.11.789.252 0 .94-.73.866-.921-.092-.242-.444-.18-.756.132m-3.907.2c-.192.102-.4.245-.461.32-.098.117-.406 1.233-.41 1.483-.004.23.494-.41.63-.81a3.2 3.2 0 0 1 .45-.817c.33-.413.296-.443-.21-.176m36.743.118c-.23.097-.213.111.293.234.628.153 1.43.178 1.51.048.031-.05-.042-.16-.162-.244-.253-.177-1.256-.2-1.641-.038m10.864.197a.42.42 0 0 0-.117.25c0 .25.286.683.484.735.164.043.2.006.2-.207-.001-.217-.318-.895-.419-.895a.5.5 0 0 0-.148.117m-22.979.801c-.725.231-1.89.64-2.587.91l-1.267.49-.867 1.356c-1.458 2.285-1.668 2.546-2.31 2.87-1.172.592-2.234.979-2.685.979-.455 0-.596-.134-.254-.243.346-.11 1.607-.994 2.154-1.51.596-.562.568-.569-.204-.047-.59.398-1.27.722-2.287 1.09-.563.203-.918.256-2 .295-1.107.04-1.3.027-1.21-.086.058-.074.27-.354.472-.623.427-.57.539-.641 1.516-.977.403-.138.865-.359 1.026-.49l.292-.239-.585.235a7.4 7.4 0 0 1-1.221.347c-.773.137-.958.249-1.722 1.041-.36.373-.68.62-.803.62-.112 0-.546-.109-.964-.242-.419-.134-.822-.244-.896-.245-.111 0-1.784.89-3.693 1.965-.225.126-.434.204-.465.173-.032-.032.051-.295.185-.586.133-.29.31-.85.392-1.243.184-.873.273-1.05.63-1.233.35-.181 2.21-1.562 2.3-1.707.036-.06-.165.028-.448.195s-.987.54-1.565.83c-.992.498-1.06.552-1.253.986a9 9 0 0 0-.349.961c-.167.575-.459.884-1.705 1.807-.457.339-1.022.796-1.255 1.016l-.425.401.036-.753c.034-.729.052-.778.559-1.507l.524-.753-.44.36c-.743.609-.936.98-1.2 2.305a11.4 11.4 0 0 1-.684 2.235l-.535 1.259a1 1 0 0 1-.341.38c-.483.317-4.315 1.208-4.555 1.06-.168-.105-.08-.245.622-.987l.708-.749-.586.369c-.78.49-1.096.797-1.368 1.324-.359.696-1.187 1.82-1.537 2.086-.175.133-.825.514-1.443.845-.618.332-1.268.692-1.444.8l-.322.198.29-.572c.48-.954.786-1.696.698-1.696-.047 0-.547.494-1.113 1.097s-1.05 1.076-1.074 1.05c-.05-.05.085-2.634.187-3.563.036-.323.043-.565.017-.538-.08.08-1.42 3.735-1.553 4.231-.068.252-.147.459-.176.459-.03 0-.163-.275-.297-.61l-.244-.611-.029.708c-.016.39-.054.708-.084.708s-.331-.22-.669-.488c-.338-.269-.641-.489-.674-.489s.126.363.355.806.432.846.453.894c.022.05-.227.058-.585.019l-.624-.069.376.314c.278.231.342.333.245.387-.073.04-.857.173-1.744.294s-1.643.246-1.681.278.72.25 1.685.484 1.754.46 1.754.504-.184.214-.41.38l-.41.301h.86l-.386.4-.386.4.366-.156c.202-.085.52-.222.708-.303.189-.082.342-.125.342-.097s-.153.63-.34 1.338c-.186.709-.322 1.306-.3 1.327.02.021.31-.365.642-.86.332-.493.639-.86.682-.813.043.046.291.742.552 1.547l.473 1.465.133-.619c.073-.34.168-.581.21-.536.043.045.252.632.464 1.304l.496 1.563c.09.279.103.109.074-.928-.024-.877-.086-1.407-.2-1.71-.195-.522-.447-1.758-.358-1.76.034-.002.273.23.531.512.377.413.458.467.409.27-.045-.176.22.04.955.783.913.922 1.072 1.137 1.546 2.095.349.705.707 1.262 1.055 1.639.289.314.541.555.56.536s-.06-.261-.178-.538-.187-.53-.155-.562c.064-.064 1.096.559 1.903 1.147.605.44.908.822 1.229 1.544.131.296.33.62.444.72.204.182.205.181.112-.098a13 13 0 0 1-.228-.852l-.134-.572.384.061c.628.1 1.09.369 1.277.742.387.768 1.379 3.127 1.612 3.833.274.832.155.744 1.253.91.384.059 1.696.696 2.361 1.148.282.191.513.313.513.27 0-.275-1.881-1.582-2.965-2.062-.479-.211-.412-.09-1.088-1.986-.189-.53-.343-1.011-.343-1.069 0-.057.12.007.268.143.31.286 1.395 1.06 1.486 1.06.033 0-.229-.297-.583-.66-.524-.537-.703-.809-.968-1.469-.191-.475-.407-.852-.523-.914-.109-.059-.68-.563-1.269-1.12-.59-.559-1.118-1.016-1.176-1.016s.008.121.146.27c.339.363.79 1.103.717 1.176-.086.087-.907-.147-1.469-.418-.502-.243-2.468-1.524-3.078-2.006-.237-.188-.561-.69-1.058-1.64-.645-1.231-.768-1.406-1.24-1.744-.29-.207-.528-.412-.53-.457s.534.2 1.192.542c.658.343 1.395.703 1.636.8 1.15.46 1.368.541 1.368.51 0-.018-.274-.224-.61-.457-.636-.441-2.125-1.822-2.125-1.97 0-.047.428.137.952.41.827.43 1.004.487 1.344.437.214-.032 1.113.01 1.996.095.884.085 1.675.151 1.759.149s-.265-.171-.776-.374a24 24 0 0 1-3.173-1.566c-.597-.35-.646-.399-.391-.392.16.005.643.082 1.073.171.745.155.807.154 1.32-.018.81-.274 2.536-.648 2.99-.649.245 0 .493.07.635.181.48.375 2.028 1.186 2.262 1.186.134 0 .708-.2 1.275-.443l1.031-.443 1.057.057c1.004.054 1.04.05.73-.093-.179-.083-.665-.243-1.08-.357l-.756-.207-.627.317c-1.201.606-1.215.607-2.047.188a23 23 0 0 1-1.598-.915c-.476-.3-.921-.546-.99-.546s-.272.062-.453.138c-.182.075-.873.252-1.535.392-1.006.212-1.272.237-1.612.15-.84-.218-.829-.196-.255-.493.293-.152.628-.278.744-.28.117-.003.293-.036.391-.074.157-.06.15-.077-.065-.137-.223-.062-.216-.068.08-.077.389-.012.653-.138 1.043-.5.241-.224 1.687-.896 3.35-1.558.176-.07.303-.145.281-.167-.08-.081-2.837.634-7.392 1.917l-.342.096.293-.255.78-.673.487-.417-1.171.285a30 30 0 0 0-1.641.442c-.259.086-.492.134-.52.107-.026-.026.32-.29.77-.586a8 8 0 0 0 1.585-1.403c1.369-1.538 1.705-1.764 2.739-1.845.268-.02.828-.13 1.243-.243a36 36 0 0 1 1.804-.418l1.05-.214.608-1.368c.334-.753.61-1.426.614-1.497.014-.319 2.06-2.295 2.215-2.14.029.03-.17.702-.443 1.494s-.497 1.459-.497 1.483c0 .023.231-.197.513-.49.539-.56 1.008-.786 2.566-1.234.515-.148.77-.285 1.026-.553l.34-.357-.472.297c-.305.192-.862.39-1.564.558-.6.143-1.173.305-1.275.36-.173.092-.172.08.016-.181.615-.852 2.283-2.095 3.828-2.853 1.092-.536 1.154-.554 1.91-.55.597.004.953.068 1.507.27.871.316 1.009.321 1.861.062.725-.22.854-.204 2.535.308l.628.19.354-.234c.573-.379 1.356-.759 2.34-1.134.641-.245.926-.403.944-.525.047-.323.85-1.441 1.346-1.875.495-.433 1.392-.83 2.31-1.022.364-.076.288-.085-.44-.052-.483.022-.985.071-1.114.11-.232.069-.23.063.07-.373.379-.551 1.052-.998 2.314-1.538l.977-.417.928.077c1.501.125 1.755.104 2.858-.245.578-.182 1.033-.349 1.011-.37-.021-.021-.214.009-.43.066-.807.218-1.889.3-2.55.195-.354-.056-.682-.14-.73-.187-.047-.048.123-.192.392-.332.655-.34.487-.313-1.039.173m9.965.799c0 .032.093.134.207.226.2.162.163.172-1.001.298-1.397.151-1.342.282.122.292 1.39.01 1.866.132 2.87.733.484.29.898.509.92.487.077-.075-.74-.968-1.221-1.335-.44-.336-.933-.548-1.628-.701-.148-.033-.269-.033-.269 0m-17.843.424a1.8 1.8 0 0 0-.464.413c-.164.234-.213.572-.082.572.153 0 .812-.613.955-.888.178-.345.05-.376-.409-.097m-18.17 1.819c-.248.247-.27.44-.059.51.147.05.607-.41.607-.606 0-.229-.272-.181-.549.096m-5.907.152c-.398.397-.674 1.163-.675 1.872 0 .363.032.659.072.657.116-.004 1.037-1.644 1.174-2.088.068-.22.102-.456.076-.523-.072-.188-.421-.144-.647.082m16.813.158c-.2.073-.489.333-.489.437 0 .112.515-.156.679-.353.129-.156.073-.18-.19-.084m14.215.322c-.172.19-.17.195.023.195.11 0 .303-.086.43-.192l.23-.192-.253-.003a.66.66 0 0 0-.43.192m32.408.182c.55.355 1.016.968 1.157 1.518.132.52.343.921.7 1.336.159.184.255.272.215.196s-.108-.552-.15-1.058c-.1-1.189-.248-1.445-1.068-1.851-.347-.172-.784-.341-.972-.376l-.342-.063zm-23.334.155c-.03.078-.025.189.01.246.127.206.77.394 1.35.394h.591l-.237-.254a2.3 2.3 0 0 0-.5-.39c-.356-.185-1.142-.182-1.214.004m15.009.994a10 10 0 0 1-1.026.34l-.684.19.782-.065c1.303-.11 1.554-.084 2.215.236.34.164.772.4.96.525l.342.225-.322-.41c-.544-.69-1.303-1.207-1.76-1.196-.091.002-.319.072-.507.155m5.366.486c.589.644.893 1.226.835 1.598-.02.137-.064.415-.096.62l-.058.37-.361-.281a7 7 0 0 0-.49-.356c-.225-.131 1.817 2.815 2.231 3.22l.4.388-.485-.805c-.722-1.203-.762-1.457-.573-3.633.016-.184-.13-.364-.663-.815-.376-.318-.815-.647-.975-.73-.247-.128-.21-.063.235.424m-56.017-.038c-.183.261-.046.467.185.276.164-.136.206-.492.058-.492-.05 0-.16.097-.243.216m3.32.001c-.188.27-.2.577-.02.508.149-.057.384-.725.256-.725-.046 0-.152.098-.235.217m-13.59 1.977c-.166.435-.146 1.047.05 1.556.073.186.102.162.284-.233.3-.648.248-1.758-.081-1.758-.048 0-.161.196-.253.435m44.116-.048c0 .172.399.327.522.204.083-.083.074-.134-.035-.203-.19-.12-.487-.121-.487 0m29.247.15c-.084.219.047.634.2.634.198 0 .264-.26.137-.538-.125-.276-.254-.313-.337-.097m-43.683.985c-.415.182-.421.38-.009.297.325-.065.571-.223.571-.366q.001-.177-.562.07m-23.314.183c-.177.269-.208.54-.063.54.1 0 .393-.504.393-.678 0-.18-.168-.11-.33.138m-8.298.54c-.164 1.676-.177 2.182-.066 2.643l.117.485.244-.474.245-.475-.239-1.407-.238-1.406zm56.073-.312c-.106.172.546.605.91.605.269 0 .258-.253-.018-.428-.292-.185-.822-.29-.892-.177m-62.295.05c0 .117 1.483 2.847 1.647 3.033.088.1.375.361.637.581.432.362.47.377.407.16-.217-.74-.701-1.515-1.614-2.584-1.177-1.38-1.077-1.27-1.077-1.19m45.028.205c-.195.133-.383.317-.418.408-.058.15.003.16.632.101.84-.078 1.09-.193 1.05-.483-.048-.334-.793-.349-1.264-.026m-10.68-.072c-.274.076 1.217.813 1.646.813.256 0 .399-.078.633-.346.167-.19.304-.36.304-.377s-.176.015-.391.073c-.298.079-.502.072-.855-.03-.538-.154-1.068-.207-1.336-.133m-4.41.37c-.18.136-.174.144.116.146.168.002.36-.062.427-.143.103-.123.085-.147-.115-.147a.83.83 0 0 0-.428.144m-10.386.492c-.407.463-.415.655-.02.443.18-.097.463-.655.375-.743-.027-.027-.187.108-.355.3m-6.44.157c-.582.444-.901.985-.9 1.524.004.92.09.864.796-.524.372-.731.663-1.343.646-1.36-.017-.016-.26.145-.542.36m-9.672.397c-.123.124.012.644.22.853.114.113.175.12.263.033.088-.088.088-.205 0-.499-.12-.402-.313-.556-.483-.387M93.401 23.4c0 .239.044.342.147.342.15 0 .192-.255.087-.53-.104-.27-.234-.166-.234.188m-52.807.332c-.16.04-.396.13-.521.197-.282.151-.993.786-.993.886 0 .04.253.014.562-.058s.693-.134.855-.136c.622-.008 1.41-.538 1.16-.78-.133-.13-.737-.19-1.063-.109m38.257.602c-.014.912.86 2.046 1.576 2.046.36 0 .82.231 1.226.616.374.355.379.338.116-.364-.233-.624-.614-.985-1.195-1.133-.939-.24-1.324-.54-1.574-1.222l-.142-.388zm-11.963-.197c-.61.154-2.01.848-2.546 1.262-.813.627-2.353 2.365-2.547 2.874l-.173.451.307.966c.358 1.13.371 1.405.11 2.259-.106.35-.193.767-.194.928 0 .325.263.78.606 1.048.196.154.17.152-.216-.019-.329-.145-.657-.195-1.3-.196-.473-.002-1.052-.05-1.285-.11-.775-.194-.771-.056.01.4 1.249.73 2.622 2.13 3.496 3.567l.357.586-.419-.489c-1.02-1.189-2.438-2.547-3.204-3.07-1.007-.688-1.631-1.014-1.774-.926-.1.062-.047 1.031.066 1.215.025.04.221.03.435-.025.333-.084.435-.069.709.107l.32.205-.584.001-.584.002.78.794c.428.436.713.755.632.708s-.529-.34-.996-.65c-1.03-.684-1.361-.829-2.095-.915l-.566-.067.665.774c1.224 1.424 1.077 1.363-.982-.413-.653-.563-1.057-.802-1.167-.691-.026.025.18.471.458.99.278.52.481.969.452.998-.028.028-.102-.041-.163-.155-.06-.114-.547-.732-1.08-1.372l-.97-1.165-.32.134c-.305.128-.34.119-.793-.206-.26-.187-.49-.324-.511-.303-.021.02.114.4.3.84.406.962.604 1.7.685 2.555l.06.635-.189-.39c-.18-.373-.19-.38-.241-.147-.382 1.767-.516 2.192-1.003 3.175-.736 1.486-1.022 1.798-.434.473.846-1.906 1.229-3.941.99-5.26-.125-.682-.774-2.036-.997-2.079-.084-.016-.273.083-.42.22l-.27.248-.653-.15a27 27 0 0 1-1.45-.391c-.437-.133-.832-.242-.879-.242-.045 0-.067.225-.048.5.024.349.001.481-.074.435-.059-.037-.108-.177-.108-.312q0-.43-.423-.895c-.152-.167-.27-.208-.466-.165-.224.049-.4-.057-1.172-.705-.516-.433-1.102-1.035-1.354-1.392-.244-.346-.532-.712-.64-.812-.185-.174-1.831-.953-2.013-.953-.14 0-.1.379.068.635.085.13.338.344.562.476.416.245 1.012.808.937.883-.023.024-.302-.119-.62-.316-.557-.347-.61-.36-1.635-.392-.896-.028-1.06-.01-1.06.115 0 .258.465.527 1.128.652.473.09.743.206 1.03.445l.388.325-.662-.05c-.764-.059-2.128.238-2.128.462 0 .253.458.376 1.176.316.584-.05.75-.027 1.1.152.226.115.41.229.41.253s-.252.22-.56.435c-.848.591-1.332 1.04-1.255 1.166q.193.308 1.267-.28c.392-.216.8-.392.909-.392s.379.132.601.294c.48.347.5.349.995.096.242-.123.408-.287.447-.44.033-.133.1-.243.15-.243.079 0 .023.425-.08.61-.022.04-.247.19-.5.334-.701.4-.898.612-.898.967 0 .52.198.583.755.237.41-.255.606-.308 1.28-.347.723-.04.798-.029.798.132 0 .261.195.412.533.412.43 0 2.984 1.682 2.984 1.964 0 .435-.422 1.818-.842 2.76l-.494 1.113c-.03.07.187.012.502-.132.304-.14.574-.233.6-.208.025.025.002.239-.05.474-.052.236-.165.965-.25 1.62-.165 1.267-.221 1.468-.777 2.755-.195.451-.34.835-.322.853s.382-.26.809-.616c.997-.833 1.59-1.215 3.002-1.936.754-.385 1.391-.798 1.854-1.203.85-.742 2.381-1.777 2.629-1.777.206 0 .229.105.06.273-.216.217.165.132.988-.22.762-.327 2.228-.7 2.334-.595.028.028-.553 1.602-1.29 3.496-1.554 3.988-2.848 6.718-3.831 8.086-1.357 1.886-3.092 3.412-4.926 4.33-.508.254-.842.406-.74.338 2.55-1.736 3.756-2.944 5.437-5.45l.426-.635-1.07.991c-1.33 1.233-1.44 1.323-2.596 2.12-.988.682-3.62 2.12-4.81 2.627-.383.164-1.778.683-3.098 1.154-3.934 1.402-4.534 1.788-7.591 4.88-1.143 1.156-2.185 2.256-2.316 2.444-.273.39-.855 2.37-1.075 3.652-.082.477-.147 1.29-.144 1.807.005.914.01.933.171.7.43-.625 1.024-1.377 1.059-1.342.022.021-.096.562-.261 1.201-.451 1.746-.468 2.173-.12 3.117.16.43.53 1.26.825 1.847l.536 1.065.062-1.554c.1-2.507.553-4.671 1.461-6.976.28-.713.506-1.124.739-1.348.52-.502 1.496-.946 2.833-1.29.28-.072.61-.281.978-.62.607-.558 1.47-1.183 1.54-1.114.023.024-.039.149-.139.278s-.299.438-.443.687l-.262.452.906.04c.772.035.983.083 1.428.326.34.186.595.413.732.654.116.204.243.37.281.37.039.001.276-.13.528-.289.493-.312 1.092-.544 1.18-.456.13.13-.104.567-.603 1.127-.297.332-.54.638-.54.679 0 .177.587.979.75 1.024.098.027.516.121.928.21.738.157 1.547.6 1.547.846 0 .06.737-.61 1.639-1.49 1.638-1.6 2.76-2.553 4.32-3.671 1.457-1.044 2.963-2.418 4.015-3.662 1.296-1.534 2.012-2.293 2.09-2.215.11.11-1.633 2.811-2.268 3.515-.19.21-.33.4-.309.42.05.05 4.083-1.901 5.27-2.55a28 28 0 0 0 3.268-2.103l.782-.58-.9.88c-1.965 1.919-5.238 4.051-8.919 5.81-3.106 1.485-7.647 4.858-9.424 7-.607.733-2.64 3.545-2.897 4.007-.257.463-.145 2.506.21 3.826l.107.396.276-.572c.23-.478 1.079-1.73 1.079-1.592 0 .024-.089.35-.197.726a22 22 0 0 0-.394 1.82l-.197 1.135.2.534c.177.474 1.465 2.835 1.657 3.037.04.043.101-.638.135-1.514.062-1.622.188-2.463.548-3.673.167-.559.283-.753.666-1.11.616-.572 1.029-.813 1.734-1.012.506-.142.69-.267 1.343-.91.417-.41.758-.702.757-.65 0 .053-.082.316-.183.584-.358.954-.395.878.443.895q1.2.025 1.282.58c.016.103-.171.51-.415.904s-.443.743-.443.775c0 .031.18.334.402.672l.4.616-.119.857a84 84 0 0 1-.397 2.417c-.237 1.329-.322 1.623-.575 1.981-.239.339-.297.52-.297.931 0 .393-.062.603-.269.913-.56.842-1.51 1.905-2.254 2.52-.424.351-.833.725-.907.83-.116.163-.37.216-1.699.357s-1.904.151-3.86.069c-1.262-.053-2.385-.064-2.496-.023-.11.041-.486.319-.836.617-.791.676-.98.747-1.976.747h-.801l-1.904.932c-2.705 1.326-2.916 1.379-5.957 1.5-4.231.17-6.386.59-12.364 2.407-1.536.468-3.305.92-4.783 1.226-1.29.267-2.388.503-2.442.524s20.225.043 45.064.047l45.162.008v-5.96c0-3.278-.033-5.96-.073-5.959-.04 0-.53.132-1.087.293s-1.28.335-1.605.387c-.435.07-.763.21-1.234.521-.353.234-.776.472-.94.528-.336.116-.947.044-1.847-.218-.435-.127-.779-.155-1.367-.114l-.787.056-.466-.457c-.46-.45-.478-.457-1.27-.523a36 36 0 0 0-2.182-.075l-1.379-.008-.721-.806a97 97 0 0 0-.845-.935c-.067-.07-.122-.35-.122-.62 0-.38-.055-.558-.24-.778a1.45 1.45 0 0 1-.288-.6 50 50 0 0 1-.313-2.835c-.065-.845-.061-.865.227-1.27.162-.226.366-.553.454-.725.157-.307.154-.326-.173-.928-.183-.338-.43-.846-.55-1.127l-.216-.513.218-.582c.216-.578.22-.582.72-.684.276-.056.613-.113.747-.127.32-.032.292-.189-.23-1.27-.226-.47-.383-.855-.348-.855.119 0 .93.929 1.343 1.539.342.504.462.61.687.61.536 0 1.197.312 1.734.819.512.482.541.537.775 1.471.322 1.287.44 2.727.33 4.037-.048.577-.111 1.149-.14 1.27-.028.12-.031.22-.006.22.128 0 2.03-2.434 2.304-2.948.316-.593.318-.605.263-1.634-.031-.598-.142-1.34-.26-1.757-.114-.397-.193-.764-.175-.816.039-.118.865 1.122 1.047 1.57.095.234.153.289.207.193.101-.18.351-1.97.43-3.079.08-1.113.005-1.305-1.185-3.04-1.829-2.669-2.937-3.926-4.822-5.474-2.59-2.126-3.399-2.848-4.642-4.145-1.488-1.553-2.054-2.265-3.045-3.833-.982-1.554-1.164-1.87-1.004-1.745 1.49 1.157 2.148 1.499 3.492 1.81 1.312.306 1.646.452 2.496 1.096.945.716 1.669 1.627 2.274 2.859l.438.893.704.037c.93.05 1.5.335 2.339 1.173.363.363.66.63.66.59 0-.391-1.091-2.578-1.758-3.522-.574-.814-1.83-2.093-2.655-2.704-.63-.467-1.779-.866-3.609-1.254-1.88-.398-1.98-.465-4.409-2.935-2.25-2.29-2.585-2.74-2.475-3.33a1.24 1.24 0 0 0-.095-.705c-.118-.28-.143-.532-.097-1.016.049-.51.03-.669-.087-.767-.13-.108-.12-.174.086-.562.17-.318.22-.537.185-.796l-.05-.357.201.244c.224.273.689 1.206 1.053 2.116.284.708.394.819 1.107 1.113.786.324 1.478.875 2.207 1.756.354.429.708.78.786.78.255 0 .856.365 1.404.853.526.47 1.614 1.247 1.897 1.355.1.038.037-.197-.202-.76-.487-1.15-.688-2.016-.768-3.307l-.07-1.122.506.489.506.488-.213-.537c-.54-1.357-.71-1.972-.57-2.063.132-.086.842-.303 1.386-.423.166-.037.346-.184.46-.376.102-.173.33-.398.507-.5.177-.103.862-.583 1.521-1.067.846-.62 1.217-.954 1.26-1.132.035-.139.226-.626.426-1.083.375-.859.754-2.701.589-2.867-.046-.045-.174-.054-.284-.02-.14.045-.29.302-.501.865-.166.44-.353.911-.416 1.045l-.115.245-.034-.293c-.07-.604-.445-1.826-.575-1.876-.074-.028-.2.003-.28.07-.113.093-.145.365-.145 1.22 0 1.223-.07 1.735-.231 1.681-.06-.02-.375-.538-.701-1.152-.509-.956-.628-1.116-.833-1.116-.35 0-.35.34.001 1.435.164.512.298.98.298 1.042 0 .225-.216.102-.616-.349-.733-.825-.943-1.018-1.044-.956-.201.125-.086.59.341 1.374.242.443.44.838.44.876s-.085.047-.19.02c-.398-.104-.883.56-.886 1.214-.001.247-.025.291-.097.18-.127-.197-.122-.65.012-.9.103-.192.091-.2-.22-.129-.654.148-1.215.236-1.53.242-.254.005-.316-.03-.293-.165q.028-.17-.186-.202c-.246-.035-.702.517-1.032 1.248-.17.377-.189.56-.137 1.368.033.513.108 1.101.167 1.308.193.674.028.479-.211-.25-.18-.55-.232-.918-.228-1.615l.004-.902-.24.219-.24.218.187-.324c.102-.178.351-.524.552-.768.422-.51.44-.581.17-.667q-.197-.064-.929.331c-.402.217-.73.378-.73.358s.186-.177.415-.35l.415-.312-.407.06a5 5 0 0 0-.586.118c-.129.041-.11 0 .065-.144.134-.112.453-.273.708-.36.255-.085.464-.21.464-.276 0-.328-.297-.454-1.933-.825-.93-.21-1.71-.402-1.733-.426-.025-.025.265-1.228.643-2.675l.687-2.63-.214-.636c-.117-.349-.248-.674-.29-.72-.043-.048-.374.16-.737.46-.56.466-1.992 1.333-1.992 1.208 0-.023.253-.208.562-.412.575-.38 2.76-2.487 2.76-2.661 0-.053-.165-.124-.366-.157-.202-.033-.868-.258-1.48-.5-.613-.243-1.179-.442-1.258-.442-.105 0-.123-.058-.068-.22.04-.12.093-.487.116-.813l.043-.594-.568-.519-.567-.519.867.046c.828.043.881.06 1.147.357.16.18.278.424.28.578 0 .2.023.232.09.126.104-.164.034-.625-.15-.992-.158-.315-.467-.522-1.026-.689l-.43-.128.437-.033c.784-.059 1.048.048 1.66.67.61.618.885.71 1.415.467.36-.164.306-.239-.144-.196-.47.045-.62-.063-.927-.67-.28-.55-.802-1.029-1.226-1.122-.23-.05-.277-.092-.178-.154.4-.253 1.29.009 1.77.52l.299.32-.151-.294c-.19-.371-.422-.578-.855-.765-.188-.08-.276-.15-.195-.153.378-.014.88.19 1.36.552.57.432.866.53 1.264.417.255-.073.254-.074-.084-.142-.421-.085-.566-.193-.927-.69-.844-1.165-1.223-1.368-2.493-1.341-.51.01-1.06-.008-1.221-.041-.278-.058-.267-.068.22-.193a5 5 0 0 0 .9-.329c.644-.328 1.443-.236 1.946.225.218.199.227.2.132.016-.24-.462-.93-.829-1.562-.829-.205 0-.633.092-.951.204-.648.227-1.18.199-1.857-.099-.424-.186-1.026-.654-1.026-.797 0-.05.187-.09.415-.092.228 0 .613-.096.855-.212l.44-.21-.555-.067c-.674-.082-1.122-.338-2.279-1.304-.616-.514-1.009-.766-1.313-.843-.612-.154-1.938-.206-2.387-.093m-34.292.394c-.261.205-.336.383-.161.383.053 0 .24-.13.415-.29.376-.341.162-.42-.254-.093m-10.452.185c-.51.386-.643.583-.647.957-.002.176-.14.562-.308.86s-.282.562-.255.59c.074.074.44-.472.675-1.007.114-.258.345-.689.515-.957.554-.876.553-.847.02-.443m43.487.293c-.854.424-1.444.897-2.478 1.988-1.176 1.241-1.26 1.415-1.048 2.182.365 1.323.395 1.603.261 2.426-.18 1.11-.165 1.425.089 1.786.274.392 1.266 1.184 2.662 2.128.591.4 1.293.892 1.56 1.094l.484.367-.238-.322c-.315-.427-1.103-1.02-1.7-1.28-.329-.142-.815-.538-1.539-1.251-1.192-1.175-1.155-1.078-.955-2.518.121-.868.01-1.59-.359-2.32-.428-.845-.254-1.203.77-1.586.867-.325 1.198-.316 1.771.048.821.521 2.378 2.12 3.017 3.1.572.878.838 1.144.51.512-.088-.171-.144-.328-.124-.348.065-.065 1.023.775 1.393 1.221q.825.995.907 2.025c.044.547.019.66-.26 1.153-.418.742-.663 1.385-.745 1.963-.084.582.06.49.237-.152.066-.242.37-.857.676-1.366.525-.877.555-.96.555-1.573 0-.61-.026-.685-.481-1.37-.526-.79-1.61-2.237-1.678-2.237-.023 0 .07.178.209.397.228.361.232.387.05.29-.11-.059-.87-.793-1.69-1.631-1.471-1.504-2.349-2.207-2.912-2.33-.363-.08-.377-.243-.02-.245.148 0 .335-.044.415-.096.201-.13-.422-.131-.873-.002-.184.053-.351.08-.37.06-.078-.077 1.475-1.622 1.98-1.97.293-.202.534-.382.534-.4 0-.046.009-.05-.61.257m-18.766.013c-.205.108-.355.25-.334.313.08.242 1.237.19 1.594-.072.153-.112.16-.156.05-.29-.182-.218-.85-.193-1.31.05m43.265.125c.207.494.18.794-.112 1.294-.232.396-.249.487-.17.945l.089.507.34-.681c.416-.836.47-1.622.138-2.065-.307-.412-.457-.412-.285 0m-71.166.44c-.297.278-.408.716-.213.836.111.07.43-.375.574-.801.132-.393.033-.402-.36-.034m-10.807.305c.757.778 1.77 1.214 1.173.505-.273-.325-.853-.706-1.368-.898-.271-.101-.257-.072.195.393m85.385.214c.198.476.191.712-.044 1.396-.108.312-.195.702-.195.867v.3l.163-.242c.09-.133.332-.427.537-.655.206-.227.374-.484.374-.571 0-.276-.289-.78-.644-1.125l-.343-.332zm-63.461.09c-.237.17-.663.505-.949.746-.318.268-.728.503-1.062.606l-.544.168.378.063c1.07.176 1.637-.123 2.255-1.19.223-.385.393-.7.378-.7-.014 0-.22.139-.456.308m55.505.34c.002.485.13.718.265.478.116-.208.049-.594-.131-.744-.112-.093-.136-.046-.134.266m-60.348 1.288a2.6 2.6 0 0 0-.664.406l-.256.24.219.081c.314.116.719-.083 1.07-.526.33-.417.258-.456-.37-.201m65.248.628c-.063.062-.114.221-.114.353 0 .234.006.236.196.063.204-.184.253-.392.113-.478-.045-.028-.133 0-.195.062m-26.916.795a5 5 0 0 1-.13.607c-.028.072.057.231.19.354.21.196.248.34.31 1.176.04.524.114.953.166.953.134 0 .65 1.173.777 1.762.131.614.433.837 1.068.79.163-.013 1.298-.697 1.244-.751-.018-.018-.29.096-.605.255s-.63.288-.7.288c-.237 0-.598-.437-.719-.87-.108-.389-.103-.441.06-.534.16-.092.147-.11-.114-.158-.233-.043-.287-.097-.263-.268.042-.298-.147-.617-.325-.55a.45.45 0 0 1-.279.005c-.114-.044-.113-.183.003-.911l.138-.86-.343-.296c-.314-.27-.346-.348-.37-.882l-.026-.586zm-31.241-.107c-.183.122-.481.452-.663.732-.437.674-.847.819-1.6.564-.476-.161-.536-.162-.854-.015-.297.137-.306.151-.072.107.163-.032.463.031.758.158.503.216.777.214 1.583-.013.271-.077.405-.19.525-.443.209-.439.51-.67 1.196-.92.992-.361 1.002-.379.201-.386-.617-.006-.798.03-1.074.216m62.017-.158c-.036.036-.064.157-.062.269.003.2.005.2.146.014.079-.104.144-.225.144-.269 0-.095-.138-.104-.228-.014m-9.738.283c0 .142.043.224.098.19.054-.034.098-.146.098-.25s-.044-.19-.098-.19-.098.112-.098.25m-78.844.04c0 .127.331.296.58.296.237 0 .272-.245.047-.331-.239-.092-.627-.07-.627.035m74.421.809c.065.508.185.757.366.757.329 0 .26-.562-.123-1.001-.234-.27-.3-.204-.243.244m12.82.293c-.183.282-.831.997-1.441 1.588-1.256 1.217-1.764 1.912-2.07 2.833l-.213.638-.678-.628c-.8-.74-1.866-1.314-3.555-1.914-1.471-.522-2.256-.874-2.834-1.272-.25-.171-.474-.29-.5-.263s-.073.286-.103.576l-.055.53.867.258a77 77 0 0 0 2.234.61c1.465.378 2.527.83 3.078 1.313.327.286.3.28-.587-.144-.96-.46-1.572-.663-3.805-1.261-.723-.194-1.577-.484-1.897-.644s-.59-.28-.598-.266a7 7 0 0 0-.141.339c-.07.177-.279.404-.478.521-.27.16-.319.226-.209.286.079.043 1.154.35 2.39.682 3.71.998 5.917 1.657 6.072 1.812.093.093.334.146.664.146.828 0 1.13-.094 1.324-.414.188-.31 1.426-1.167 3.945-2.735 1.972-1.227 1.878-1.151 1.602-1.289a.5.5 0 0 1-.253-.327c-.04-.27-.058-.27-.44.012-.596.44-.591.442-.528-.166.03-.304.046-.552.032-.552s-.221.189-.463.42c-.241.231-.985.798-1.654 1.26-1.177.813-2.141 1.68-2.536 2.279-.3.455-.226.177.108-.408.436-.76 1.113-1.41 2.023-1.94.438-.254.817-.534.842-.621.096-.336.279-1.681.235-1.725-.026-.026-.196.184-.379.466m-55.902-.016c-.282.164-.209.382.128.382.372 0 .678-.156.678-.345 0-.168-.539-.193-.806-.037M86.66 31.71c0 .403.217.873.444.96.226.086.24.08.239-.11-.001-.17-.547-1.197-.636-1.197-.026 0-.047.156-.047.347m9.77.34a384 384 0 0 1-2.965 1.923c-1.535.989-2.556 1.709-2.604 1.836-.264.692-1.943.904-2.718.342-.151-.11-1.805-.601-3.926-1.167a443 443 0 0 1-4.328-1.17c-.491-.143-.676-.163-.708-.077-.024.064-.351 1.238-.727 2.608-.375 1.37-.969 3.525-1.319 4.788-.35 1.262-.636 2.369-.636 2.459 0 .128.275.228 1.295.47 1.663.397 6.433 1.467 6.533 1.467.043 0-.127-.397-.376-.881-.385-.749-.44-.922-.36-1.148.161-.462.516-.405 1.052.168.254.271.476.493.493.493s-.05-.295-.15-.657c-.235-.846-.232-1.221.01-1.44.364-.33.606-.14 1.194.93l.543.989.06-.522c.034-.286.058-.8.054-1.14-.008-.684.162-.993.549-.993.288 0 .4.152.618.84l.183.577.25-.55c.242-.53.648-.965.9-.965.068 0 .18.07.25.155.105.126.106.332.005 1.145-.068.544-.187 1.14-.263 1.323s-.139.35-.139.37.253-.105.562-.28a210 210 0 0 1 1.82-1.004l1.257-.688.682-1.61 2.187-5.138c.827-1.94 1.504-3.578 1.504-3.64 0-.195-.331-.116-.782.187m-2.904.528c-1.54.744-2.31 1.283-2.791 1.954-.152.211-.033.144.45-.255.362-.298 1.294-.904 2.072-1.346 1.206-.685 1.526-.889 1.39-.884-.014.001-.518.24-1.12.531m1.998.849c-.333.248-.481.51-.403.713.108.283.326.158.573-.332.344-.677.314-.743-.17-.381m-89.805-.02c-.031.05-.011.12.044.153.139.087.504-.042.436-.153-.073-.117-.408-.117-.48 0m78.204.6c.51.163 1.574.504 2.363.76.788.254 1.416.433 1.394.398-.104-.169-1.823-.808-2.852-1.062-1.627-.401-1.987-.439-.905-.095m11.399-.235c-.095.094-.08.325.02.325.048 0 .11-.088.138-.195.05-.192-.03-.258-.158-.13m-22.468 1.286c-.58.627-1.15 1.294-1.267 1.482-.174.28-.07.215.58-.367.436-.39.949-.883 1.14-1.095.356-.393.814-1.183.677-1.168-.041.005-.55.522-1.13 1.148m20.986-.556c-1.048.664-1.145.791-.225.295.414-.224.777-.407.806-.407s.054.08.054.176c0 .223.184.41.403.41.15 0 .137.088-.12.795-.16.437-.274.81-.255.83s.213-.383.43-.893c.325-.76.368-.927.238-.928-.264-.003-.42-.153-.486-.471l-.064-.302zm-65.89-.14c-.084.034.11.17.488.345.672.31 1.848.49 1.848.283 0-.061-.082-.111-.182-.111s-.44-.131-.757-.292c-.54-.274-1.06-.357-1.398-.224m51.785.4a2.4 2.4 0 0 0-.155.482c-.066.31-.059.318.264.318.235 0 .407-.08.594-.274.309-.323.318-.367.091-.459-.528-.214-.709-.23-.794-.066m-72.344.37c-.26.136-.45.27-.423.298.12.118 1.49-.177 1.676-.362.191-.19.19-.191-.293-.187a2.1 2.1 0 0 0-.96.251m72.494-.014c-.03.079-.014.169.036.2.113.07.486-.12.486-.25 0-.15-.462-.107-.522.05m1.078.272c-.291.41-.762.66-1.24.66-.339 0-.31-.05-.63 1.113-.278 1.011-.194.998.214-.034.158-.4.338-.744.4-.765.062-.02.166.087.23.24l.12.276.033-.3c.028-.247.114-.34.479-.517.349-.17.474-.192.583-.101.077.063.17.083.21.044s-.008-.128-.104-.198c-.163-.12-.164-.139-.012-.29.13-.131.272-.151.712-.101.302.034.638.086.745.115.108.03.17.025.137-.01-.032-.033-.407-.163-.832-.287l-.775-.225zm10.659.439c-.192.22-.37.565-.37.716 0 .13.296-.224.482-.577.15-.287.086-.366-.112-.14m-53.794.1c.035.183.381.274.649.17.148-.057.146-.076-.026-.202-.277-.204-.664-.184-.623.031m46.487-.014c0 .026.286.175.635.332.643.288.823.545.423.603-.308.046-.348.276-.047.276q.246 0 .464.307c.185.26.202.35.113.586-.12.318-.07.35.185.12.271-.246.31-.002.133.838-.083.395-.133.736-.11.758.021.022.17-.351.33-.83l.293-.87-.34-.271c-.378-.301-.613-.77-.613-1.221 0-.163-.023-.296-.05-.296s-.358-.085-.733-.19c-.376-.103-.683-.168-.683-.142m-60.115.1c-.082.082 1.135 1.011 1.326 1.013.099 0-.19-.464-.502-.806-.23-.251-.669-.362-.824-.207m58.624.766c-.218.255-.326.455-.266.493.056.034.187-.04.292-.165.163-.194.205-.206.29-.08.053.08.098.19.099.246.003.182-.964.867-1.405.996-.396.115-.724.374-1.059.833-.097.134-.186.152-.417.086-.161-.046-.282-.133-.268-.194.013-.063-.094-.11-.245-.11-.468.003-.517.116-.21.483.256.306.284.317.284.123 0-.252-.02-.247.376-.11.27.095.307.152.307.472 0 .265.122.553.448 1.064.37.578.437.75.383.994-.086.392.114.317.528-.197.213-.265.433-.415.72-.493.26-.07.548-.252.775-.491.292-.307.435-.382.733-.388l.37-.008-.342-.124c-.267-.097-.335-.17-.31-.337.09-.626-.57-1.576-1.096-1.576h-.293l.332-.342c.182-.188.416-.342.519-.342.147 0 .174-.046.126-.22a7 7 0 0 1-.123-.634c-.033-.229-.087-.414-.12-.412-.033.001-.226.196-.428.433m3.445-.105c0 .362.268.743.522.743.072 0 .182-.17.244-.378.148-.492.155-.468-.155-.531a3 3 0 0 1-.44-.12c-.143-.056-.17-.01-.17.286m6.248.227c-.13.329-.423.779-.701 1.077-.707.76-.953 1.507-.618 1.877.126.14.12.233-.05.78-.107.342-.176.64-.154.661s.163-.274.314-.658a3.5 3.5 0 0 1 .784-1.234c.281-.295.58-.682.666-.861.205-.432.198-.926-.016-1.082-.15-.11-.156-.173-.045-.585.174-.654.085-.641-.18.025m-6.053-.197c0 .05.06.172.133.272.13.177.138.176.248-.03.064-.12.073-.213.02-.213a1 1 0 0 1-.247-.06c-.085-.032-.154-.018-.154.031m1.538-.004c-.035.06-1.516 4.52-1.894 5.7q-.043.14.042.049c.049-.054.42-1 .826-2.1 1.213-3.296 1.285-3.518 1.174-3.63-.056-.055-.122-.064-.148-.019m3.278.253c-.218.24-.455.657-.403.709.018.018.175-.184.35-.448.347-.525.363-.601.053-.261m1.968-.08c-.139.102-.16.17-.082.25.079.08.15.043.27-.14.182-.277.102-.324-.188-.11m-2.93.196c-.184.28-1.564 4.253-1.428 4.11.05-.054.344-.78.65-1.612.308-.833.662-1.79.789-2.125.244-.651.241-.758-.011-.373m-62.435-.028c-.083.134.218.376.468.376.234 0 .226-.26-.013-.387-.244-.131-.369-.128-.455.011m-5.804.26c0 .163.416.516.893.758.272.138.51.235.528.217.02-.02-.077-.177-.214-.352-.33-.422-1.207-.875-1.207-.623m11.04.054c0 .196.487.648.697.648.275 0 .22-.244-.118-.528-.329-.277-.579-.329-.579-.12m31.242.353c.041.427.026.486-.112.433-.087-.033-.159-.021-.159.027s.293.166.651.261c.696.186 1.461.536 1.938.887.365.268.626.417.489.278-.507-.513-1.53-1.351-1.85-1.514a3 3 0 0 1-.7-.535l-.304-.331zm1.978-.228c-.004.25.92 1.336 1.755 2.064a11 11 0 0 1 2.444 3.03c.242.438.462.798.489.8.07.003.772-2.035.988-2.866.1-.384.18-.851.178-1.04-.003-.315-.022-.292-.25.294a27 27 0 0 0-.58 1.798c-.183.639-.348 1.177-.366 1.196s-.338-.524-.71-1.205c-.372-.68-.866-1.438-1.096-1.684l-.42-.447.057.342.057.342-.566-.625c-1.15-1.272-1.979-2.108-1.98-2m14.49.226c.036.177.066.389.066.469 0 .103.035.118.122.05.067-.053.254-.141.415-.196.266-.09.275-.107.098-.176a3 3 0 0 1-.48-.273l-.285-.198zm7.392-.195c0 .337 1.209.415 1.577.101l.23-.197-.264.06c-.404.091-.976.098-1.274.015-.162-.046-.269-.037-.269.02m-77.527.146c-.457.193-1.175 1.109-1.004 1.28.02.02.251-.126.513-.325.815-.62 1.126-1.224.491-.955m80.8.055c-.098.108-.156.219-.129.246s.129-.04.227-.148.156-.219.129-.246-.13.04-.227.148m-83.778.122c-.424.289-.569.52-.42.67.262.26 1.104-.265 1.104-.69 0-.267-.275-.259-.684.02m84.381.062c-.448.295-.78.84-.79 1.297-.005.222.039.421.096.441.395.138 1.48-1.34 1.251-1.704-.146-.23-.25-.237-.557-.034m1.156.012c-.034.053.005.097.086.097s.174-.044.207-.097-.006-.098-.086-.098c-.081 0-.174.044-.207.098m-73.813.384c0 .32.668 1.276.892 1.276.098 0-.221-.674-.52-1.099-.188-.266-.372-.353-.372-.177m68.604.077c.158.19.748.258 1.163.133.21-.062.382-.145.382-.183s-.37-.07-.823-.07c-.637 0-.8.027-.722.12m-4.219.137c0 .034.066.116.146.183s.147.204.147.305c0 .277.118.22.416-.203l.27-.382-.489.018c-.269.01-.49.046-.49.08m-2.148.153c-.686.355-.96 1.115-.615 1.702.18.305.827.672 1.185.672.322 0 .815-.236 1.069-.51.881-.958-.455-2.478-1.639-1.864m-53.541.193c0 .177.566.761 1.07 1.103.315.214.664.506.777.649.252.32.261.122.02-.401-.167-.359-.793-1.063-.793-.891 0 .04-.126-.016-.28-.126-.318-.226-.794-.426-.794-.334m64.945.884a3.3 3.3 0 0 1-.732 1.016 5 5 0 0 0-.795.994c-.24.418-.431.61-.844.843-.736.415-.676.483.076.086.509-.27.656-.408.885-.835a3.8 3.8 0 0 1 .75-.913c.362-.306.538-.555.732-1.04.319-.796.263-.913-.072-.151m-58.497-.37c0 .155.419.397.681.394l.247-.003-.274-.241c-.272-.24-.654-.327-.654-.15m57.692.3c-.208.229-.037.267.188.041.173-.173.192-.237.071-.237-.045 0-.162.088-.26.195m-73.323.297c0 .387.048.471.544.952.57.551.778.618.468.15a9 9 0 0 1-.412-.734c-.127-.252-.314-.534-.415-.626-.179-.161-.185-.152-.185.258m65.597.157c.035.09-.01.24-.103.343-.158.174-.151.18.169.124.611-.107.627-.123.38-.386-.262-.278-.54-.329-.446-.081m-74.676.49c-.5.454-1.619 1.956-2.207 2.964-.094.162 1.348-1.107 1.914-1.684.3-.306 1.067-1.58 1.067-1.774 0-.15-.209-.017-.774.495m80.695-.363c-.142.265-.091.336.125.174q.16-.121.077-.256c-.068-.108-.11-.09-.202.082m-12.534.708-.263.802.352.29c.386.318.621.778.621 1.213 0 .271.026.285.791.45.435.093.807.154.827.135.019-.02-.293-.157-.694-.306-.4-.15-.728-.314-.728-.365 0-.052.11-.136.244-.187.32-.121.325-.335.007-.255-.206.052-.266.003-.45-.366-.17-.34-.192-.468-.105-.63q.257-.482-.129-.124c-.307.288-.455.198-.35-.213.102-.395.22-1.245.174-1.245-.018 0-.152.36-.297.801m-66.118-.19c-.106.174-.193.372-.194.439 0 .33.434-.063.54-.489.094-.374-.105-.346-.346.05m68.073.029-.27.318.49.034c.47.032.648-.058.343-.175-.081-.031-.147-.137-.147-.236 0-.295-.131-.277-.416.059m-19.222.514c0 .057.247.667.548 1.356 1.509 3.45 1.493 3.393 1.298 4.647l-.108.698.46.434c.415.393.447.455.341.653-.083.156-.09.343-.024.652.054.254.057.529.006.665-.047.128-.08.432-.072.677s-.04.634-.107.864q-.197.686.171.452c.116-.073.47-.026 1.29.172 1.422.342 2.94.573 3.684.56.5-.008.4-.038-.782-.238a34 34 0 0 1-1.857-.357l-.5-.128.635-.05.635-.05-.733-.133c-.912-.165-1.954-.48-1.954-.59 0-.046.077-.175.171-.287l.171-.204 1.27.192c.699.106 1.358.19 1.466.188s-.332-.192-.977-.421c-1.678-.596-1.898-.727-2.05-1.22l-.07-.232.913.07c.714.053 1.266.183 2.526.593 1.476.48 3.089.93 3.29.918.044-.003-.403-.179-.994-.39-1.3-.467-2.8-1.074-2.926-1.185-.12-.104.173-.102 2.437.019 1.127.06 2.087.064 2.443.011l.586-.087-.635-.014c-1.01-.022-2.412-.269-2.765-.487-.324-.2-1.282-1.162-1.957-1.966l-.37-.44.288.587c.159.322.483.85.72 1.172.236.323.464.642.505.71.06.1-.207.112-1.324.062-1.603-.07-1.796-.144-2.705-1.018-.517-.497-.524-.512-.464-.949.033-.244.063-.647.065-.894l.005-.45.545.585c.43.462.504.514.348.245-.931-1.612-2.075-3.742-2.075-3.865 0-.033.21.053.464.19l.464.25-.537-.461c-.296-.254-.737-.66-.982-.902-.595-.589-.777-.73-.777-.604m20.81.05c0 .203.116.27.26.15.19-.156.161-.28-.064-.28-.108 0-.196.059-.196.13m10.607.231c-.135.199-.228.378-.207.399.097.097.435-.2.528-.464.141-.407-.023-.373-.32.065m-9.093-.117-.293.13.293.11c.161.06.353.13.426.155q.134.048.073-.108a1 1 0 0 1-.06-.294c0-.165-.053-.164-.44.007m-65.6.098c-.002.234.155.508.242.421.034-.034-.006-.186-.089-.339-.124-.228-.15-.243-.152-.082m17.214.561c.046.14.646.511.714.443.025-.025-.046-.162-.158-.305-.205-.26-.633-.367-.556-.138m46.29.05c.002.04.058.305.124.588l.12.515.433-.442c.408-.415.38-.61-.04-.292-.27.203-.325.183-.397-.15-.036-.16-.105-.292-.155-.292s-.088.033-.086.073m-59.405.155c0 .39.44 1.427.848 2 .242.34.613.977.825 1.417l.384.8-.057-.774c-.074-.996-.188-1.252-1.09-2.441-.934-1.233-.91-1.207-.91-1.002m14.889.403c.547.492 1.08.709 1.915.778l.733.061-.83-.489c-.778-.458-.981-.528-1.857-.645l-.342-.046zm40.984.053c-.064.216-.097.411-.073.435s.229.074.455.11c.404.065.412.06.412-.218 0-.357-.247-.718-.49-.718-.133 0-.22.113-.304.391m.166.065c-.064.165.086.321.31.324.155.002.158-.217.005-.37-.16-.16-.241-.147-.315.046m-63.263.594c-.175.63-.11 1.197.136 1.197.288 0 .462-.972.246-1.374-.152-.284-.269-.23-.382.177m54.449.88c.129.255.484 1.035.79 1.734.891 2.035 1.252 2.784 1.34 2.784.124 0 .104-.107-.175-.941-.314-.94-.65-1.624-1.47-2.991-.664-1.107-.877-1.365-.485-.587m13.5-.031c.411.19 1.068.307.987.175-.035-.056-.25-.131-.478-.167a16 16 0 0 1-.61-.105c-.108-.022-.063.021.1.097m-56.629.624c.202.396.466.669.558.577.152-.153-.357-.95-.607-.95-.115 0-.106.07.049.373m9.877 1.134c0 .204.457.53.845.603.408.077.476.024.327-.253-.198-.37-1.172-.66-1.172-.35m-17.977.911c0 .605.3 1.821.776 3.151l.297.83-.045-.586-.102-1.367c-.085-1.147-.548-2.59-.83-2.59-.053 0-.096.253-.096.562m35.345 1.35c-.266.144-.526.504-.432.598.08.079.583-.255.777-.515.205-.276.07-.309-.345-.084m-18.638.822c0 .132.335.296.604.296.214-.001.21-.011-.067-.195-.317-.21-.537-.252-.537-.101m-11.822.138c0 .143.269.41.34.339.024-.024.018-.14-.013-.258-.062-.235-.327-.3-.327-.081m15.06.24c-.1.067-.076.102.099.149.126.033.536.331.911.663.874.77 1.29.96 2.102.954q1.122-.007-.472-.289c-.764-.136-.696-.085-1.602-1.196-.235-.288-.8-.441-1.037-.282m-9.439 2.386c.11.365.443.856.69 1.017.26.17.527.116.527-.107 0-.2-.553-.815-.889-.988-.366-.19-.406-.18-.328.078m19.896.079c-.291.117-.186.288.177.288.378 0 .808-.172.733-.293-.074-.12-.604-.118-.91.005m-10.681.388c.24.201.404.247.404.114 0-.146-.234-.312-.435-.309-.192.003-.19.011.03.195m25.014 1.362c-.42.44-.62.755-.822 1.294-.469 1.25-.83 2.07-1.076 2.443-.134.205-.846.818-1.631 1.405-1.768 1.323-1.876 1.437-.856.902 1.47-.77 4.923-3.363 6.106-4.584.936-.966.935-.973-.049-.215-.687.53-2.245 1.528-2.3 1.473-.018-.018.143-.435.359-.925.33-.748.5-.996 1.058-1.535l.666-.643-.355-.098c-.516-.144-.497-.152-1.1.483m-29.982-.307c0 .106.383.452.66.594.313.162.29-.052-.044-.4-.246-.258-.616-.374-.616-.194m6.492.611c-.094.152.42.653.798.777.234.078.377.076.528-.005.185-.099.193-.132.072-.315-.282-.424-1.228-.733-1.398-.457m31.122 1.673c-.767 1.248-2.124 2.971-3.37 4.277-1.15 1.206-1.139 1.201.474-.2 1.194-1.037 1.877-1.812 2.47-2.801.4-.668 1.057-2.07.995-2.123-.017-.015-.273.366-.569.847M47.14 65.228c-.616.365-1.026.698-1.026.834 0 .12.41.091.647-.045.27-.155 1.146-1.164.99-1.14-.014.001-.288.16-.61.35m25.704 13.03c.031.404.094.908.14 1.12.079.366.061.411-.326.837a26 26 0 0 0-.785.912c-.363.448-1.096 1.018-1.19.924-.098-.098-.242-1.114-.242-1.71 0-.405-.036-.606-.1-.566-.14.085-.806 1.434-1.07 2.166l-.22.605-1.235.444c-.679.244-1.51.585-1.847.758-.705.363-1.747 1.279-2.362 2.075-.233.302-.436.538-.45.523-.074-.075-.531-2.93-.482-3.009.078-.127.63-2.639.632-2.879.002-.29-.693.706-1.227 1.758-.246.483-.461.879-.478.879-.018 0-.228-.264-.468-.586a8 8 0 0 0-.743-.873l-.307-.287v.307c0 .296-.025.315-.684.51-.792.237-.628.028-1.95 2.486l-.995 1.85.065.567c.061.523.046.592-.2.883-.253.301-.263.352-.205 1.042a20 20 0 0 1 .061 1.394v.67h2.844l2.169-.796 2.168-.796 2.785-.076c1.531-.042 3.073-.102 3.426-.132.552-.047.763-.013 1.512.249 1.135.396 1.46.36 3.829-.413l1.833-.598 1.661.035 1.661.035.086-.858c.076-.766.066-.88-.093-1.055-.158-.174-.164-.246-.059-.64.133-.496.142-.471-1.21-3.324l-.609-1.286-.59-.215c-.324-.118-.618-.287-.652-.375s-.101-.507-.15-.931-.115-.798-.149-.83c-.033-.034-.485-.055-1.004-.048-.694.01-1.081.066-1.464.213l-.52.2-.097-.276a12 12 0 0 0-.431-.946l-.335-.67z"/></svg>