<svg xmlns="http://www.w3.org/2000/svg" viewBox="0 0 100 100"><path fill="#fff" d="M43.653 12.889c-.393.318-1.301 1.144-2.02 1.835-.959.924-1.296 1.309-1.269 1.45.061.32.45.27 1.94-.255 2.03-.715 2.101-.732 2.387-.544.132.086.406.454.609.817.203.364.546.854.763 1.09l.393.43v1.231c0 .678.039 1.497.086 1.821.07.493.059.61-.074.72-.125.104-.159.327-.16 1.072l-.003.94-.898.49c-1.293.703-3.692 2.208-4.371 2.742-.864.678-.875 1.024-.04 1.22.448.106 2.17-.03 3.835-.3.621-.102 1.147-.167 1.169-.146.021.022-.057.238-.174.48-.228.47-.688.826-1.115.86-.142.013-.258.05-.258.083 0 .164.41.4.723.416.193.01.352.044.352.075.001.156-.73.758-.98.808-.36.072-.56.003-.9-.312l-.27-.248v.465c0 .578.104.774.595 1.13l.389.281-.37.12c-.575.187-2.31 1.139-2.56 1.405-.308.327-.423 1.016-.293 1.755.058.328.11.64.114.694.018.194-1.715 2.844-2.183 3.34-.351.372-.479.584-.479.797 0 .279-.013.288-.37.24-.267-.036-.407-.006-.5.107-.072.086-.17.157-.22.157s-.494-.258-.99-.573c-1.205-.766-1.705-1.012-1.921-.943-.113.036-.284-.031-.456-.18l-.276-.237.114-.67c.092-.54.087-.793-.024-1.305a6.4 6.4 0 0 1-.14-.995c-.005-.497-.146-.822-.438-1.014-.322-.21-.692-.118-.867.215-.154.293-.092.7-.508-3.384l-.243-2.394.196-.684c.256-.896.246-1.3-.049-2.003-.356-.845-.308-1.23.267-2.169.347-.566.426-1.014.282-1.587-.107-.426-.1-.456.221-.876.526-.689.696-1.245.691-2.256-.003-.68-.055-1.007-.228-1.445-.29-.733-1.076-1.547-1.838-1.904-.505-.236-.68-.265-1.593-.265-.934 0-1.073.025-1.548.275a4 4 0 0 0-1.687 1.654c-.32.589-.331.649-.331 1.685 0 .987.023 1.122.281 1.649.163.332.523.81.855 1.133.52.506.573.598.573.968 0 .567.182.937.816 1.662.73.835.804 1.084.647 2.18l-.125.871.415.792c.411.786.416.806.603 2.656.104 1.026.231 2.234.282 2.685.05.45.069.858.04.906-.03.047-.262.19-.517.32-.668.338-.754.472-.625.958.087.326.078.46-.052.732-.148.31-.148.354.01.627.092.162.167.455.167.652s.086.534.192.75c.105.214.215.51.245.654.04.201.205.35.685.618.74.414.64.072.981 3.368.136 1.317.596 5.603 1.023 9.526a7667 7667 0 0 1 2.058 19.002c.215 2.016.47 4.368.568 5.227l.178 1.564-.49.879c-1.26 2.26-2.885 4.451-4.24 5.716-1.39 1.3-2.645 2.021-4.847 2.787-.754.262-1.2.469-1.219.564-.044.222 1.036.702 2.238.995 1.88.457 3.144.557 6.634.521l3.175-.031.055.476c.078.68.454.9 1.111.65.22-.084.251-.152.251-.552v-.456l.61.058c.337.032 1.403.211 2.37.399 2.713.525 3.342.591 5.666.594 2.969.004 3.813-.14 6.742-1.151 1.699-.587 1.87-.614 1.946-.309.038.153.155.263.327.306.371.095 2.082.093 2.905-.003.575-.066.886-.037 1.954.188 2.098.44 4.5.35 5.935-.222.733-.292.332-.787-.968-1.194-.93-.292-2.07-.83-2.76-1.304l-.43-.295.283-.205c.75-.543.772-.694.284-1.873-1.448-3.5-1.995-6.07-2.927-13.768-1.062-8.775-2.292-20.41-2.17-20.532.014-.014.254.274.533.64 1.05 1.376 2.034 2.178 4.214 3.431.412.236 1.039.729 1.45 1.137.553.549.915.811 1.526 1.103.441.21.916.411 1.056.446.54.135.847-.565 1.35-3.078.438-2.183.535-3.312.534-6.204l-.001-2.638 1.794-.878c.987-.483 1.834-.952 1.882-1.042.049-.091.164-.241.256-.333.172-.171.48-.847.819-1.797.145-.404.384-.735.995-1.372.741-.774.888-1 1.87-2.887a452 452 0 0 1 2.427-4.576c1.331-2.473 1.414-2.689 1.028-2.697-.108-.002-2.382 1.9-3.08 2.576-.64.621-.714.643-.449.13.294-.57.66-.95 1.578-1.643.947-.713 1.033-.816.98-1.161-.03-.19-.077-.17-.558.24-.289.248-.546.43-.571.405-.025-.026.002-.271.061-.546.213-.993.18-.998-.73-.098-1.079 1.065-1.403 1.54-1.67 2.44-.12.403-.22.68-.223.615-.008-.177-1.238-1.134-1.96-1.523-.348-.188-1.175-.546-1.836-.795-.66-.248-1.464-.58-1.786-.735l-.584-.283-.3.53c-.164.292-.311.53-.327.53-.015 0-.183-.065-.374-.144-.346-.145-.348-.144-.538.17-.468.776-4.806 8.773-4.806 8.86 0 .054.109.17.242.256l.24.158-.248.492c-.137.27-.213.525-.168.568s1.268.347 2.719.677 2.721.633 2.824.674c.173.069.165.097-.116.41-.242.27-.326.312-.425.214-.184-.181-.408-.153-1.443.18-.791.256-1.16.315-2.355.374-.779.039-1.493.105-1.587.147-.122.055-.171.034-.171-.071 0-.256-.57-.654-.936-.654-.319 0-.334-.017-.334-.352 0-.267-.142-.563-.596-1.241-.5-.748-1.554-2.681-1.554-2.85 0-.029.322-.052.715-.052.394 0 .947-.068 1.23-.153.917-.272 1.76-1.262 1.766-2.072.005-.715-.527-1.39-1.094-1.39h-.287l.3.254c.358.3.401.721.106 1.017-.406.406-1.339.148-1.94-.536-.472-.538-.784-1.238-1.099-2.467-.29-1.135-.434-1.435-1.217-2.548-.502-.713-.594-1.265-.228-1.36.175-.046.198-.106.15-.397a1.34 1.34 0 0 0-.303-.602c-.137-.143-.248-.29-.248-.327s.218-.068.485-.068c.384 0 .507-.04.589-.194.115-.215-.002-.493-.71-1.69l-.391-.664.212-.225c.12-.128.186-.29.153-.377-.047-.122.224-.241 1.39-.61 3.487-1.106 5.407-2.17 4.645-2.578-.205-.11-2.46-.334-5.184-.514l-1.792-.12-.368-.544a11 11 0 0 1-.532-.862c-.11-.215-.233-.317-.383-.317-.174 0-.524-.428-1.7-2.076-.813-1.142-1.609-2.2-1.767-2.351-.196-.187-.897-.504-2.182-.987a109 109 0 0 1-2.861-1.117c-1.31-.549-1.446-.539-2.324.173m-15.008 3.973c-.614.306-1.029.787-1.3 1.506-.35.926-.1 1.855.71 2.641.665.645 1.86.867 2.675.497.806-.366 1.513-1.497 1.511-2.418-.002-1.83-1.96-3.041-3.596-2.226m47.926 14.016c-.605.678-.913 1.215-1.005 1.756-.057.336-.055.335.146-.09.112-.235.492-.707.844-1.047.562-.543.636-.657.609-.934l-.03-.316zm-7.736-.243c-.092.14-.153.267-.135.281s.582.169 1.253.344c1.592.416 2.571.778 3.578 1.322.45.243.819.423.819.4 0-.146-1.875-1.258-2.555-1.516a182 182 0 0 1-2.732-1.06c-.033-.015-.135.088-.228.229m-1.332.647c-.066.125-1.103 2.02-2.303 4.211-1.201 2.191-2.184 4.027-2.184 4.08 0 .27.225-.05 1.013-1.448 2.495-4.422 3.73-6.467 3.905-6.468.217-.001 3.293.83 4.852 1.312.618.191 1.168.345 1.222.343.161-.007-.924-.553-1.73-.87-.415-.164-1.558-.513-2.54-.778a60 60 0 0 1-1.951-.545c-.112-.044-.201.007-.284.163m-34.43 10.974c.035.323.094.894.132 1.27l.069.684.066-1.074c.061-.998.052-1.09-.132-1.27l-.197-.196zm10.702 4.081c-.286.711-.712 1.793-.947 2.404-.69 1.79-1.037 2.362-2.148 3.537-.55.583-1.177 1.361-1.392 1.73-.551.943-1.208 1.792-1.796 2.32-.531.478-1.312.925-1.614.925-.415 0-.822-.63-1.202-1.856-.224-.726-.446-1.164-.346-.684.064.31.126.883.894 8.304.783 7.565 1.293 12.463 1.338 12.848.033.277.05.26.31-.293.486-1.037 1.522-3.663 2.157-5.471 2.761-7.863 4.864-17.37 5.217-23.595.045-.779.074-1.427.065-1.439-.01-.012-.25.56-.536 1.27"/></svg>