<svg xmlns="http://www.w3.org/2000/svg" viewBox="0 0 100 100"><path fill="#fff" d="M59.423 16.067c-.662.16-.716.223-.251.292.989.145 1.444.258 1.595.394a.72.72 0 0 0 .42.15c.227 0 .262.047.32.438.214 1.429-.145 2.464-1.265 3.644-1.418 1.494-4.54 3.634-5.307 3.636-.15 0-.514.114-.81.251-.541.253-1.612 1.002-1.537 1.076.022.023.298-.048.614-.157a8 8 0 0 1 1.36-.285c.697-.079.819-.068 1.089.098.518.32 1.21 1.142 1.523 1.812.268.572.3.74.298 1.537-.003 1.185-.32 2.259-1.166 3.959-.636 1.275-.847 1.555-1.701 2.26-.377.311-.968 1.098-.968 1.289 0 .042.189-.065.42-.24.23-.174.693-.446 1.028-.604.581-.275.637-.283 1.156-.174.706.148 2.002.777 2.63 1.277.862.687 1.703 2.087 2.06 3.435.226.848.227 2.872.003 3.561-.087.266-.148.492-.137.502.141.124 1.187.368 1.878.44 1.391.144 1.955.378 2.825 1.174.306.279.694.71.861.957l.305.449-.496-.46c-1.105-1.021-2.125-1.487-3.593-1.642-.484-.051-1.012-.131-1.173-.179-.495-.144-1.317-.596-2.362-1.297-4.43-2.972-7.954-7.618-9.596-12.65-.791-2.427-.923-3.066-.847-4.104.057-.772.036-.986-.151-1.565-.176-.546-.318-.772-.762-1.216-.3-.3-.69-.594-.867-.656l-.322-.111.187.265c.524.743.812 1.758.526 1.853-.066.022-.119.208-.119.417 0 .207-.04.401-.087.43-.049.03-.895-.485-1.881-1.145-1.847-1.237-4.893-3.083-6.538-3.963-1.057-.566-6.831-3.349-7.54-3.634-.437-.177-5.374-.872-9.453-1.332-2.071-.233-6.232-.228-8.647.012-.967.096-2.185.17-2.706.164-1.006-.011-1.722.175-2.863.745-.518.26-1.45.904-1.39.963.019.02.553-.096 1.187-.256 1.22-.308 1.941-.363 2.345-.179.196.09.332.08.668-.049.58-.221.663-.21 1.346.19.976.573 1.894 1.51 2.318 2.368.342.693.365.797.362 1.624-.006 1.32-.493 2.543-1.786 4.482-.818 1.226-1.274 1.697-1.722 1.781-.406.076-1.376.786-2.021 1.478-.464.498-1.01 1.288-.94 1.36.023.021.238-.115.48-.303.785-.612 1.951-1.221 2.337-1.221.251 0 .467-.09.735-.304.374-.3.394-.304 1.171-.245 2.038.153 4.415 1.104 5.521 2.21.997.998 1.472 2.041 1.652 3.627.112.986-.014 2.98-.207 3.29-.057.09-.28.292-.495.447a3.8 3.8 0 0 0-.688.684c-.344.468-.91 1.638-.997 2.064l-.06.293.254-.293c.76-.875 1.471-1.52 1.79-1.624.194-.063.485-.266.646-.45.365-.42.916-.575 2.58-.729 1.331-.123 2.832-.021 4.015.273.796.198 2.042.771 2.808 1.291 1.543 1.048 2.811 3.064 3.347 5.32l.196.825-.245.75c-.268.823-.304 1.439-.13 2.228l.115.518.091-.342.23-.852c.075-.28.25-.63.386-.779.138-.148.274-.393.305-.544.07-.348.34-.49 1.53-.799 2.81-.73 5.41-.703 8.313.088 3.64.992 7.345 3.452 8.96 5.95.417.646.455.797.204.811-.15.009-.7.14-2.247.538-.466.12-.501.176-.22.351.284.178.243.288-.186.507-.248.126-.737.228-1.397.29-1.321.126-1.424.164-1.104.416.308.242.309.406.003.646-.185.147-.472.206-1.245.26-.553.037-1.203.115-1.444.172-.459.108-.744.272-.473.272.208 0 .668.373.668.542 0 .227-.522.426-1.383.526-.822.096-1.697.341-1.798.505-.03.048.034.088.142.088.27 0 .694.204.694.334 0 .178-.395.37-1.156.56-.719.18-1.677.627-1.677.783 0 .045.107.082.238.082.132 0 .26.035.287.077.026.043-.43.44-1.014.882-1.954 1.48-4.011 3.474-5.815 5.636-.686.82-2.507 3.234-3.32 4.396-1.863 2.667-3.77 4.787-5.227 5.806-2.135 1.496-4.415 2.114-6.354 1.722-1.102-.222-2.285-.784-2.756-1.308-.202-.224-.366-.477-.366-.563s.09-.452.2-.815c.14-.462.191-.86.17-1.334-.017-.37-.058-.609-.092-.528s-.14.366-.235.635c-.185.519-.74 1.166-.946 1.102-.068-.02-.203-.198-.3-.393-.233-.47-.11-.93.426-1.588.998-1.229 1.64-2.361 1.885-3.328.14-.548.139-.567-.016-.34-1.157 1.699-2.345 2.717-2.853 2.445-.146-.078-.193-.205-.193-.515 0-.385.042-.45.66-.998 1.24-1.103 2.131-2.073 2.446-2.663.172-.324.313-.621.313-.661s-.217.13-.482.378c-.922.862-2.195 1.55-2.588 1.4-.362-.14-.093-1.123.426-1.56.354-.298.687-.335 1.021-.116l.227.148.062-.661q.293-3.14 3.267-6.063c1.001-.985 1.013-1.002.595-.845-2.771 1.042-5.666 3.18-7.453 5.503-.247.32-.448.597-.448.614s.186.032.415.032h.415l.03.396c.035.484-.56 2.242-.758 2.242-.205 0-.765-1.101-.93-1.827a6.6 6.6 0 0 1-.15-1.203c0-.301-.039-.524-.086-.494-.23.141-.426 1.447-.38 2.529.04.987.084 1.196.451 2.16.442 1.163.526 1.876.253 2.15-.195.194-.22.192-.602-.04-.407-.248-1.134-1.231-1.554-2.1-.369-.765-.41-.646-.177.514.094.47.337 1.133.645 1.759.414.842.645 1.164 1.419 1.982.844.892 1.362 1.672 1.24 1.869-.123.2-.922.066-1.543-.258-.353-.184-.642-.31-.642-.282s.13.217.29.418c.412.521 1.197 1.021 2.093 1.333.678.237.874.366 1.636 1.077 1.277 1.192 2.052 1.676 3.455 2.154 4.147 1.415 8.784-.123 12.958-4.297.494-.494 1.931-2.107 3.195-3.585 4.16-4.866 6.541-6.97 9.884-8.73 1.007-.532 2.98-1.343 3.576-1.472.299-.065.305-.078.421-.916.117-.843.613-2.519.802-2.707q.099-.097.006.147c-.191.512-.34 1.77-.398 3.37l-.06 1.661-.586.058c-1.037.101-1.807.681-2.351 1.77-.38.761-.78 1.134-1.409 1.317-.958.278-1.11.47-1.22 1.545-.083.81-.228 1.54-.466 2.345-.32 1.077-.512 1.457-1.037 2.037-.443.489-.696 1.01-.697 1.44 0 .086-.09.238-.2.337s-.29.341-.4.536c-.128.227-.32.4-.534.476-.325.118-.625.518-.625.832 0 .199-.342.37-.738.37-.384 0-.366.157.047.4.421.25.742.222 1.789-.152.147-.052.353-.234.458-.403.24-.39.67-.797.753-.714.136.136-.316 1.02-.763 1.494-.378.399-.472.566-.472.838 0 .388-.246.667-.781.888l-.342.141.412.127c.357.11.47.104.854-.043.243-.093.466-.208.495-.256.03-.048.25-.174.49-.28.387-.171.473-.271.771-.906q.498-1.055.674-1.056c.09 0-.045.302-.304.684-.185.27-.22.42-.174.714.068.43-.136.859-.501 1.054-.347.186-.122.305.37.197.342-.076.536-.211.95-.664.756-.825.778-.87.904-1.887.064-.51.22-1.18.347-1.487.174-.42.255-.871.323-1.808.188-2.561.927-4.43 2.001-5.059.66-.387 2.148-.999 3.33-1.37 1.338-.42 1.542-.546 2.278-1.4 1.553-1.805 2.946-4.494 3.489-6.733.094-.391.19-.693.213-.67.069.07-.274 1.925-.48 2.602-.107.349-.325.935-.485 1.302-.348.799-.334.862.454 2.105.297.468.54.882.54.92s-.124.07-.276.07c-.63 0-1.216.31-1.959 1.039-.782.767-.967.86-2.008 1.005-.94.132-1.024.236-1.136 1.432-.11 1.174-.357 2.433-.55 2.808-.172.336-1.003.747-1.512.749-.326 0-.392.051-.746.568-.428.628-.557 1.043-.46 1.484.077.349.245.391.245.062 0-.368.372-.772.662-.716.143.027.381-.036.578-.152.443-.26.547-.145.46.51-.048.367-.143.591-.332.784-.146.15-.315.469-.376.71-.106.423-.128.443-.54.505q-.673.1-.76.593c-.028.153-.126.202-.447.226-.226.016-.5-.019-.61-.077-.27-.145-.25.011.042.326.303.327.632.453 1.182.453.239 0 .434.04.434.09s.025.156.056.237c.074.193-.274.381-.838.454l-.44.057.342.216c.44.278 1.105.287 1.541.02.176-.107.385-.194.464-.194s.31-.148.51-.328c.202-.18.547-.44.767-.578.344-.214.423-.332.562-.826.089-.317.34-.873.56-1.236.379-.629.408-.737.636-2.338.286-2.01.427-2.536.827-3.087.511-.706 1.542-1.029 4.531-1.42 1.381-.18 1.884-.392 2.252-.948.344-.52.993-2.506 1.17-3.583.18-1.09.25-4.317.093-4.317-.17 0-1.487.56-1.859.789-.544.336-.372.126.232-.284 1.575-1.067 2.518-1.355 5.04-1.534 3.3-.234 3.949-.426 5.658-1.669.833-.605 1.032-.692.684-.3-.165.187-.164.19.039.083.393-.206 1.315-1.12 1.762-1.745.244-.343.68-1.105.969-1.693.44-.896.63-1.169 1.175-1.681 1.155-1.086 2.085-2.233 3.346-4.128 2.148-3.23 3.51-4.252 5.66-4.252.622 0 .71.02.61.142-.065.077-.344.216-.621.308-.414.137-.469.18-.31.243.295.115 1.413.102 2.038-.023.406-.082.588-.083.666-.005.144.144-.124.55-.538.814l-.312.2.684-.082a18 18 0 0 1 1.759-.08c.971 0 1.122.025 1.568.26.502.263 2.095 1.404 2.095 1.5 0 .028-.075.168-.168.31l-.168.256.528-.063c1.013-.12 2.096-.868 1.905-1.316-.04-.092-.062-.31-.051-.485.025-.381-.048-.399-.304-.073-.106.134-.258.244-.338.244-.118 0-.132-.087-.077-.458l.069-.457-.271.213c-.15.117-.359.213-.465.213-.159 0-.186-.051-.15-.29.04-.273.023-.29-.253-.27-.265.02-.352-.056-.862-.759-.313-.43-.595-.881-.627-1.003-.078-.289.13-.782.359-.855.194-.061 1.165.356 1.42.61.133.134.237.14.768.042a7 7 0 0 1 .883-.113c.268 0 .27.005.205.489-.084.633.055.634.448.002q.471-.756.471-.143c0 .289.15.31.316.043.067-.107.196-.195.286-.195.1 0 .187-.106.223-.269.1-.456-.234-1.88-.441-1.88-.045 0-.235-.2-.421-.445a4.6 4.6 0 0 0-.602-.651l-.263-.207.06.285c.107.509-.013.533-.961.197-.82-.291-.899-.344-1.228-.819a8 8 0 0 0-.59-.76l-.237-.253-.052.22c-.075.317-.215.318-.437.002a8.6 8.6 0 0 0-1.046-1.166l-.249-.225.102.445c.056.245.074.473.039.508s-.486-.342-1.004-.836c-.517-.495-.958-.882-.98-.86s.052.248.165.503c.112.254.18.487.151.516-.03.03-.432-.254-.895-.631-.863-.702-1.64-1.136-2.585-1.442q-1.128-.364-2.151-1.498c-.5-.554-.572-.605-.5-.355.172.602.64 1.373 1.164 1.923.425.446.776.685 1.625 1.107.596.296 1.259.692 1.474.881l.39.344-.732-.36c-1.196-.586-1.868-.801-3.328-1.066-2.067-.374-3.134-.879-4.42-2.091-.533-.503-.666-.59-.608-.399.274.9 1.697 2.541 2.69 3.1.295.166 1.042.465 1.66.664 1.569.506 2.354.938 3.224 1.777l.733.706-.733.003a9 9 0 0 1-1.319-.1l-.928-.159-.342-.058.293.32c.402.438 1.026.825 1.822 1.13.368.14.67.288.67.329 0 .232-1.1.788-1.559.788-.433 0-.254.193.361.39 1.016.325 1.18.398 1.24.556.1.263-.05.332-.3.136-.135-.106-.494-.265-.798-.353a10 10 0 0 1-1.19-.46l-.636-.3.545-.076c.707-.1 1.604-.411 1.604-.557 0-.063-.314-.265-.699-.45-.384-.184-.886-.503-1.115-.71-.45-.405-1.196-1.304-1.134-1.366.021-.022.242.048.49.155.566.243 1.88.496 2.542.491l.502-.004-.446-.411c-.721-.664-1.782-1.085-3.266-1.297l-.489-.07.183.206c.104.117.157.273.122.363-.053.14-.193.15-1.128.09-1.12-.073-2.157.003-2.157.157 0 .05.068.09.15.09.208 0 .86.343 1.02.536.226.271-.075.434-1.083.585-.958.144-1.677.349-2.187.623l-.293.157.664.06c.383.034.725.12.808.203.127.126.116.17-.09.364-.13.12-.63.366-1.112.546-.482.179-1.07.45-1.306.6l-.43.275.345.059q.583.1.583.292c0 .134-1.07.924-1.765 1.304-.99.54-2.516.83-3.51.665l-.44-.072.688-.068a10 10 0 0 0 1.465-.291c.912-.261.879-.135.453-1.744-.308-1.168-.799-4.164-.799-4.884 0-.36.076-.496.673-1.2 1.415-1.67 1.643-1.851.624-.496-.872 1.16-1.003 1.405-1.003 1.888-.001.96.67 4.524.875 4.65.042.027.106-.226.143-.56.11-1 .54-2.794.908-3.784.89-2.391 2.585-5.198 4.186-6.929.783-.847 2.75-2.54 3.149-2.71.63-.27 1.19-1.486 1.026-2.229l-.087-.394-.18.342c-.257.488-.735 1.075-.875 1.075-.067 0-.302.088-.525.195a4 4 0 0 1-.45.196c-.024 0-.32-.495-.655-1.1-.926-1.664-1.48-2.521-2.674-4.127a168 168 0 0 1-1.538-2.1l-.45-.636-3.161-1.585c-3.334-1.673-4.195-2.008-6.461-2.513-.633-.141-1.262-.299-1.399-.35-.338-.13-1.345-.105-1.972.047m-31.97 7.937c-.134.023-.969.151-1.856.286-3.382.514-6.428 1.19-8.82 1.956-1.367.438-3.713 1.31-3.662 1.36.014.015 1.103-.278 2.42-.651 3.555-1.006 6.303-1.558 10.697-2.146 1.877-.251 2.468-.227 6.277.252 3.34.42 6.448.903 9.448 1.467 2.198.413 2.936.507 1.987.253-6.496-1.737-14.58-3.098-16.49-2.777m32.143.171c-1.736.223-2.649.37-2.601.417.025.025.544-.011 1.152-.08 1.426-.164 5.657-.162 7.116.002.973.11 1.41.228 3.273.885a75 75 0 0 1 5.95 2.389c.425.194.79.334.812.312.021-.021-1.03-.57-2.336-1.22-2.31-1.148-5.046-2.316-6.136-2.62-.759-.211-5.786-.27-7.23-.085m-15.974 4.03c-1.82.242-4.705.687-5.96.92-2.026.375-5.239 1.132-5.765 1.358-1.24.532-5.918 3.293-7.815 4.614-1.217.847-3.078 2.281-3.078 2.371 0 .024.649-.388 1.442-.915a62 62 0 0 1 4.865-2.943c1.906-1.043 4.482-2.334 5.194-2.602 1.094-.411 5.387-1.453 9.424-2.286 1.307-.27 2.42-.508 2.475-.53.12-.048-.382-.04-.782.014m27.503.973c-1.556.083-3.746.252-4.348.335-1.329.184-6.2 2.297-8.816 3.824-.657.383-1.184.708-1.171.721s.836-.382 1.83-.878c1.947-.972 4.507-2.047 6.422-2.695 1.538-.522 3.29-.783 8.476-1.264.87-.08.866-.08-.488-.076-.753.003-1.61.018-1.905.033m-26.477.627c-1.335 1.073-2.759 2.367-4.401 3.998-1.453 1.444-1.692 1.73-2.29 2.736-1.082 1.823-2.438 4.437-3.116 6.008-1.133 2.624-1.478 3.728-.504 1.612 1.048-2.276 3.402-6.372 4.51-7.848.854-1.136 1.41-1.749 4.159-4.584 1.341-1.384 2.425-2.515 2.407-2.513-.018.001-.362.268-.765.591m4.985 4.174c-.004.214.77 3.214 1.073 4.158.382 1.193 1.243 3.497 1.34 3.584.18.165 5.39 2.26 6.182 2.486.246.07-4.313-2.224-5.227-2.631l-.489-.218-.872-2.043a59 59 0 0 1-1.439-3.753c-.311-.94-.567-1.653-.568-1.583M87.9 40.265c.22.383.672.584 1.14.508.196-.032.355-.079.355-.104 0-.06-.458-.43-.724-.584-.112-.065-.371-.12-.576-.122l-.371-.004zm4.542 1.262c.052.155.666.52.666.396 0-.161-.369-.498-.545-.498-.085 0-.14.046-.12.102m-5.123 1.218c.316.286.681.722.812.968.13.246.26.447.286.447.027 0 .034-.22.015-.488-.018-.27.01-.615.064-.77l.098-.28-.504-.052a5 5 0 0 1-.925-.2l-.421-.145z"/></svg>