<svg xmlns="http://www.w3.org/2000/svg" viewBox="0 0 100 100"><path fill="#fff" d="M48.496 19.325c-.813 1.435-2.917 5.115-4.676 8.178a6783 6783 0 0 0-5.166 9.011l-1.968 3.443-6.814.001-6.815.001v3.982c0 .04 2.526.095 5.613.122l5.613.049-2.322 4.054c-1.278 2.23-3.598 6.275-5.157 8.989-1.559 2.713-5.091 8.868-7.85 13.677-2.758 4.81-5.491 9.573-6.073 10.585s-1.06 1.858-1.06 1.88c0 .023 17.191.041 38.201.041s38.201-.023 38.201-.05-.763-1.38-1.695-3.005c-.933-1.624-2.92-5.086-4.414-7.692a24420 24420 0 0 0-15.956-27.796l-.398-.683 5.638-.05 5.638-.048v-4.006l-6.839-.027-6.839-.026-.502-.902c-.277-.495-1.97-3.456-3.762-6.578a7992 7992 0 0 1-6.14-10.718c-1.586-2.773-2.905-5.042-2.932-5.041-.026 0-.713 1.175-1.526 2.61m1.401 7.943c-.08.128-.894 1.53-1.806 3.116a3817 3817 0 0 1-3.577 6.195c-1.054 1.823-1.917 3.34-1.917 3.37 0 .032 3.342.047 7.425.033 4.084-.015 7.426-.047 7.426-.074s-1.53-2.696-3.4-5.934a5659 5659 0 0 1-3.702-6.413l-.301-.526zm-9.965 17.16c-.12.2-.62 1.07-1.115 1.93l-.897 1.563 12.084.049c6.646.027 12.097.023 12.111-.008.015-.032-.47-.911-1.076-1.954l-1.104-1.897-9.893-.025-9.893-.025zM21.2 76.808c-.564.976-1.04 1.833-1.058 1.905-.026.11 4.934.13 29.88.13 24.877 0 29.905-.021 29.878-.13-.017-.071-.49-.928-1.05-1.904l-1.02-1.775H22.228z"/></svg>