<svg xmlns="http://www.w3.org/2000/svg" viewBox="0 0 100 100"><path fill="#fff" d="M15.73 20.088c0 .032.648 1.186 1.44 2.564l3.902 6.805 2.464 4.298h52.99l1.513-2.638c4.123-7.186 6.191-10.813 6.242-10.944.048-.127-3.992-.145-34.248-.145-18.867 0-34.303.027-34.303.06m-.684 16.159v1.27h10.607l3.314 5.789L39.5 61.698c3.97 6.931 7.951 13.888 8.846 15.458s1.651 2.856 1.68 2.858c.029.001 1.178-1.965 2.554-4.37 1.376-2.404 5.258-9.186 8.628-15.07s7.717-13.478 9.66-16.877l3.53-6.178 5.3-.001L85 37.517v-2.54h-9.174l-.355.635-.356.635-25.076-.002-25.076-.002-.37-.633-.37-.633h-9.176z"/></svg>