<svg xmlns="http://www.w3.org/2000/svg" viewBox="0 0 100 100"><path fill="#fff" d="M48.457 22.737c-3.996 6.968-19.617 33.816-28.012 48.144-4.327 7.386-5.302 9.057-5.302 9.095 0 .022 15.696.04 34.88.04 19.183 0 34.878-.033 34.878-.073s-.16-.337-.354-.66c-.195-.322-1.486-2.52-2.869-4.884a3616 3616 0 0 0-3.319-5.667 1214 1214 0 0 1-2.002-3.42c-.658-1.128-3.12-5.347-5.472-9.374a5558 5558 0 0 1-7.773-13.34l-4.2-7.23a5235 5235 0 0 1-6.171-10.65c-1.443-2.499-2.66-4.555-2.703-4.57-.044-.015-.756 1.15-1.58 2.589"/></svg>